<?xml version="1.0" encoding="utf-8"?>
<!-- Generator: Adobe Illustrator 27.0.0, SVG Export Plug-In . SVG Version: 6.00 Build 0)  -->
<svg version="1.1" id="Layer_1" xmlns="http://www.w3.org/2000/svg" xmlns:xlink="http://www.w3.org/1999/xlink" x="0px" y="0px"
	 viewBox="0 0 500 500" style="enable-background:new 0 0 500 500;" xml:space="preserve">
<style type="text/css">
	.st0{fill:#006D40;}
	.st1{fill:#1CB24B;}
	.st2{fill:#F05242;}
	.st3{fill:#010101;}
</style>
<path class="st0" d="M403.5,306.1c-8.3-7.3-14.4-24.1-21-32.9c-13.1-17.6-23.6-30.9-38.2-47.4c-5,8.6-11.3,19.6-16.3,28.2
	c-0.7,1.2-1.4,2.4-2.7,2.8c-2.9,1-10.6-5.8-12.6-8.1c-8.7-9.9-18.1-15.1-10.5,9.8c1.8,5.9-9.5,10.5-15.2,8.2c-1.6-0.6-3-1.9-4.3-3.1
	c-11.8-11-24.1-22.1-39.2-27.7c-15.1-5.6-33.8-4.4-45.2,7c-5.3,5.3-9.8,13.1-17.3,13.5c-9.7,0.5-14.5-11.4-16.5-20.9
	c-25.8,21.4-48,47.2-65.4,75.9c-0.3-1-5.2,0.2-4.7,1.2c0.5,1,1.8,1,2.9,1c49.1-1.5,98.1-2.9,147.2-4.4c16.4-0.5,32.7-1,49.1-1.5
	C330.7,306.7,366.4,307.2,403.5,306.1z"/>
<path class="st1" d="M193.3,243.5c3.1-3.8,6.4-7.8,11-9.3c4.8-1.6,10-0.4,15,0.1c11.8,1.2,24.3-1.9,35.3,2.6
	c15.7,6.4,23.2,26.1,39.1,31.9c3.1-5,6.2-10,9.4-15c1-1.6,2.1-3.3,3.8-4.1c6.9-3.1,11.8,10.5,19.2,9.3c3.4-0.6,5.4-4.1,7-7.2
	c2.9-6.1,5.8-12.1,8.7-18.2c1.2-2.5,2.4-5.1,2.4-7.8c0-3.2-1.7-6.1-3.3-8.9c-4.5-7.6-9-15.3-13.5-22.9c-2.2-3.7-5.6-8-9.8-6.9
	c-1.9,0.5-3.4,2.1-4.7,3.6c-16,18.1-34.7,33.8-55.4,46.2c-15.9-15.1-23.8-30.5-42.6-41.7c-4.6-2.7-19.8-3.3-24.8-1.4
	c-2.7,1-4.8,3.3-6.7,5.5c-7.5,8.5-21.4,19.5-21.9,31.7c-0.4,10,8.9,26,13.6,34.2C181.8,258.7,187.4,250.8,193.3,243.5z"/>
<path class="st2" d="M269.5,136c-5.8-0.7-12-1.3-17,1.7c-5.5,3.4-7.7,10.3-8,16.7c-0.3,7.8,2.2,16.4,8.6,20.8
	c3.7,2.5,8.2,3.5,12.7,3.7c6,0.4,12.2-0.4,17.5-3.1c5.3-2.7,9.8-7.6,11-13.5c1.9-8.7-3.5-17.7-11-22.6c-8.2-5.4-19-6.6-28.2-3.4"/>
<g>
	<path class="st3" d="M181.2,312.3c42.5-37.4,84.9-74.8,127.4-112.2c2.1-1.8,5.6-5.8,8.1-6.8c4.4-1.7,6.2,1.7,8.5,4.6
		c4.1,5.2,7.6,11,11.4,16.5c6.8,9.8,13.5,19.6,20.3,29.4c14.3,20.7,28.6,41.4,42.9,62.1c3.2,4.6,10.9,0.2,7.6-4.5
		c-15.9-23.1-31.9-46.1-47.8-69.2c-8.3-12-16.5-24-24.8-35.9c-4.7-6.7-10.5-15.1-19.9-11.8c-4.9,1.7-8.8,6.1-12.6,9.5
		c-6.1,5.3-12.1,10.7-18.2,16c-12.1,10.7-24.3,21.4-36.4,32c-24.3,21.4-48.5,42.7-72.8,64.1C170.7,309.8,177,316.1,181.2,312.3
		L181.2,312.3z"/>
	<path class="st3" d="M263.4,229.9c-16.5-13.7-32.5-28.5-49.7-41.4c-12.8-9.6-24.9,4.2-33.4,13.6c-28.2,30.8-52.8,64.8-80.2,96.4
		c-3.7,4.3,2.5,10.5,6.2,6.2c23.4-27,45.7-55,68.5-82.6c5.1-6.1,10.1-12.4,15.7-18c2.1-2,4.2-4,6.4-5.9c6.7-5.4,11.2-2.9,16.9,1.8
		c14.4,12,28.9,24.1,43.3,36.1C261.4,239.7,267.7,233.5,263.4,229.9L263.4,229.9z"/>
	<path class="st3" d="M256.3,252.2c8.5-10.7,17,4.6,19.9,11.4c1.5,3.5,2.6,6.9,6.5,8.6c9,3.9,15.3-6,17.8-13.1
		c8.2-23.7,18.9,8.3,31.1,4.1c4.3-1.5,5.5-6.2,6.8-9.9c3.2-8.5,6.2-17.1,9.4-25.6c2-5.3-6.6-7.6-8.5-2.3c-1.6,4.3-3.1,8.5-4.7,12.8
		c-1.2,3.2-2.3,10.4-4.7,12.8c-3.3,3.4-3,1.2-6-1.6c-2.2-2.1-4.6-4.2-7.3-5.6c-8.6-4.4-18.2-2-22.4,7c-1.1,2.3-1.6,4.9-2.6,7.2
		c-3.5,8.2-6.7,3.1-8.8-1.9c-1.9-4.4-4.4-8.5-8.2-11.5c-7.2-5.9-18.3-6.3-24.5,1.4C246.5,250.3,252.7,256.6,256.3,252.2L256.3,252.2
		z"/>
	<path class="st3" d="M156.7,240.2c6.8,6.4,3.4,18.5,12.9,23.5c7.9,4.1,13.6-2.5,17.9-8.2c8-10.5,17-22.2,31.7-21
		c12.1,1,23.2,7.6,35.4,9.1c5.6,0.7,5.6-8.1,0-8.8c-20-2.6-38-16.6-57.2-2.8c-7.1,5.1-12.3,12.2-17.5,19c-3.4,4.4-7.7,3.4-9.9-1.3
		c-0.9-1.9-0.9-4.6-1.5-6.6c-1.1-3.6-2.7-6.6-5.5-9.2C158.8,230,152.5,236.3,156.7,240.2L156.7,240.2z"/>
	<path class="st3" d="M73.9,316.7c119.9-0.4,239.8-1.8,359.7-4.7c5.7-0.1,5.7-9,0-8.8c-119.9,2.8-239.8,4.2-359.7,4.7
		C68.2,307.9,68.2,316.7,73.9,316.7L73.9,316.7z"/>
	<path class="st3" d="M417.2,203.3c2.2,33.3,4.3,66.7,6.5,100c0.4,5.6,9.2,5.7,8.8,0c-2.2-33.3-4.3-66.7-6.5-100
		C425.6,197.7,416.8,197.6,417.2,203.3L417.2,203.3z"/>
	<path class="st3" d="M406.6,221.9c2.8-3.1,5.6-6.2,8.4-9.4c1.6-1.7,3.1-3.5,4.7-5.2c0.6-0.7,1.2-1.4,1.9-2.1c2-2.4,2.4-2.8,1.3-1.2
		c-0.9,0.7-0.8,1.3,0.2,2c0.5,0.7,1,1.5,1.5,2.2c1.3,1.8,2.5,3.6,3.8,5.4c2.5,3.6,5.1,7.3,7.6,10.9c3.2,4.6,10.9,0.2,7.6-4.5
		c-4-5.8-8.1-11.6-12.1-17.4c-2-2.9-4.2-7.5-8.1-8.1c-3.7-0.6-5.7,2-7.9,4.4c-5,5.5-9.9,11.1-14.9,16.7
		C396.6,219.9,402.8,226.1,406.6,221.9L406.6,221.9z"/>
	<path class="st3" d="M407.3,253.2c2.5-2.8,5-5.5,7.7-8.1c1.8-1.7,7.6-8.1,9.9-8.1c3.1-0.1,8.2,6.2,10.4,8.1
		c3.1,2.7,6.2,5.5,9.2,8.2c4.2,3.8,10.5-2.5,6.2-6.2c-5.4-4.8-10.8-9.6-16.2-14.3c-2.8-2.4-5.6-5.4-9.6-5.1
		c-3.7,0.2-7.1,3.6-9.9,5.8c-5.1,4.1-9.7,8.6-14,13.5C397.3,251.2,403.5,257.5,407.3,253.2L407.3,253.2z"/>
	<path class="st3" d="M405.1,278c3.6-2.8,7.2-6.2,11.1-8.7c4.4-2.7,6.7-4.2,11.6-1.5c6.8,3.7,13,9.6,19.1,14.2
		c4.6,3.4,9-4.3,4.5-7.6c-5.5-4-10.9-8.1-16.4-12.1c-3.5-2.6-7.3-6.5-12-6.6c-3,0-5.1,1.5-7.5,3.2c-5.7,4-11.1,8.7-16.6,13
		C394.4,275.3,400.7,281.5,405.1,278L405.1,278z"/>
	<path class="st3" d="M79.1,203.3c2.2,33.3,4.3,66.7,6.5,100c0.4,5.6,9.2,5.7,8.8,0c-2.2-33.3-4.3-66.7-6.5-100
		C87.6,197.7,78.7,197.6,79.1,203.3L79.1,203.3z"/>
	<path class="st3" d="M68.6,221.9c2.8-3.1,5.6-6.2,8.4-9.4c1.6-1.7,3.1-3.5,4.7-5.2c0.6-0.7,1.2-1.4,1.9-2.1c2-2.4,2.4-2.8,1.3-1.2
		c-0.9,0.7-0.8,1.3,0.2,2c0.5,0.7,1,1.5,1.5,2.2c1.3,1.8,2.5,3.6,3.8,5.4c2.5,3.6,5.1,7.3,7.6,10.9c3.2,4.6,10.9,0.2,7.6-4.5
		c-4-5.8-8.1-11.6-12.1-17.4c-2-2.9-4.2-7.5-8.1-8.1c-3.7-0.6-5.7,2-7.9,4.4c-5,5.5-9.9,11.1-14.9,16.7
		C58.5,219.9,64.8,226.1,68.6,221.9L68.6,221.9z"/>
	<path class="st3" d="M69.2,253.2c2.5-2.8,5-5.5,7.7-8.1c1.8-1.7,7.6-8.1,9.9-8.1c3.1-0.1,8.2,6.2,10.4,8.1c3.1,2.7,6.2,5.5,9.2,8.2
		c4.2,3.8,10.5-2.5,6.2-6.2c-5.4-4.8-10.8-9.6-16.2-14.3c-2.8-2.4-5.6-5.4-9.6-5.1c-3.7,0.2-7.1,3.6-9.9,5.8
		c-5.1,4.1-9.7,8.6-14,13.5C59.2,251.2,65.4,257.5,69.2,253.2L69.2,253.2z"/>
	<path class="st3" d="M67.1,278c3.6-2.8,7.2-6.2,11.1-8.7c4.4-2.7,6.7-4.2,11.6-1.5c6.8,3.7,13,9.6,19.1,14.2c4.6,3.4,9-4.3,4.5-7.6
		c-5.5-4-10.9-8.1-16.4-12.1c-3.5-2.6-7.3-6.5-12-6.6c-3,0-5.1,1.5-7.5,3.2c-5.7,4-11.1,8.7-16.6,13C56.3,275.3,62.6,281.5,67.1,278
		L67.1,278z"/>
	<path class="st3" d="M263.6,128.7c-13.7,2.9-24.5,15.6-23,30c1.5,13.9,14.7,25.4,28.7,24.1c13.5-1.2,25.2-13.5,24.2-27.3
		c-1-14.5-14.5-25.5-28.7-24.6c-5.6,0.4-5.7,9.2,0,8.8c9.4-0.6,18.2,5.7,19.7,15.2c1.6,10-7.8,19.3-17.6,19.1
		c-9.2-0.1-17.5-8.6-17.7-17.8c-0.2-9.7,7.7-17.2,16.7-19.1C271.5,136.1,269.2,127.6,263.6,128.7L263.6,128.7z"/>
</g>
</svg>
