<?xml version="1.0" encoding="utf-8"?>
<!-- Generator: Adobe Illustrator 27.0.0, SVG Export Plug-In . SVG Version: 6.00 Build 0)  -->
<svg version="1.1" id="Layer_1" xmlns="http://www.w3.org/2000/svg" xmlns:xlink="http://www.w3.org/1999/xlink" x="0px" y="0px"
	 viewBox="0 0 500 500" style="enable-background:new 0 0 500 500;" xml:space="preserve">
<style type="text/css">
	.st0{fill:#006D40;}
	.st1{fill:#F05242;}
	.st2{fill:#010101;}
</style>
<path class="st0" d="M78.2,326.2c0.4,1.6,1,3.2,2.2,4.3c1.3,1.2,3.3,1.5,5,1.7c20,2.4,40.1,2.8,60.2,1.3c12.6-1,27-3.8,33.3-14.8
	c3.4-5.8,3.7-12.9,3.4-19.6c-0.1-2.3-0.1-5,1.7-6.5c0.8-0.7,1.8-1,2.8-1.3c7.7-2.3,16.7-4.5,23.1,0.4c8.6,6.5,5.9,20.3,11.4,29.5
	c6.2,10.4,20.5,12,32.7,11.5c15.2-0.7,30.5-3,45.5-0.4c4.8,0.8,9.8,2.2,14.6,1c5.7-1.4,10.1-6.2,12.6-11.5
	c2.4-5.4,3.1-11.3,3.8-17.2c3.3-28.3,6.7-56.7,10-85c-18-2.1-35.9-4.2-53.9-6.2c-16.9-2-34-3.9-50.9-2c-6.5,0.7-14.2,3.1-15.8,9.5
	c-1.6,6.5,3.8,15.4-1.8,19.2c-1.8,1.2-4.1,1.2-6.2,1.2c-6.5-0.1-13.1-0.2-19.6-0.3c-5-0.1-10.2-0.2-14.9-1.9c-4.7-1.8-9-5.5-10-10.5
	c-0.2-1.2-0.3-2.4-1-3.4c-0.8-1.2-2.4-1.6-3.8-1.9c-17.1-3.9-34.7-5.4-52.3-4.3c-15.8,0.9-30.6,5.4-46.3,4.5
	C60.7,256.5,69.1,294.5,78.2,326.2z"/>
<path class="st0" d="M395.7,170.6c2.3-3.5,4.7-7,8.2-9.2c8.6-5.3,20.6,0.1,25.9,8.8c5.2,8.7,5.4,19.4,5.3,29.5
	c-8.4,1-17.2-1.6-23.6-7.2c-14.9,25.1-29.7,50.2-44.6,75.3c-9.4,15.9-19.1,32.1-33.7,43.4c0.1-0.1-3.8-17.6-4-19.6
	c-0.5-6.7-0.1-13.4,1.1-19.9c2.4-12.8,11.8-20.6,19.3-30.8C366.4,218.4,380.3,194,395.7,170.6z"/>
<path class="st0" d="M114,187.8c14.4-16.6,29.7-33.8,50.4-41.1c3.1-1.1,6.5-2,9.8-1.4c3.9,0.7,7.1,3.3,10.1,5.8
	c2.9,2.4,5.7,4.8,8.6,7.2c2.4,2,5,4.3,5.5,7.4c0.8,4.9-4.2,9.2-9.2,9.5c-5,0.3-9.6-2.1-14.1-4.3c-4.4-2.2-9.3-4.4-14.2-3.6
	c-5.1,0.8-9.1,4.6-12.7,8.2c-11.5,11.6-22.2,23.9-32.1,36.9c-3.9,5.1-22.5,25.1-26.8,11.1C85.8,212.8,108.2,194.4,114,187.8z"/>
<path class="st1" d="M238.8,236.6c-2.6,3.3-2.7,7.8-2.7,12c0.1,14.5,0.6,28.9,1.5,43.4c0.2,3.4,0.5,6.9,2.2,9.7
	c3.1,5.1,9.6,6.6,15.4,7.5c13.3,2,26.8,2.6,40.2,2c2.3-0.1,4.7-0.3,6.4-1.9c1.4-1.3,1.9-3.4,2.3-5.3c2.9-13,5.7-26.1,8.6-39.1
	c1.6-7.5,3.3-15,3.8-22.7c0.1-1.5,0.1-3.2-1-4.4c-1-1-2.5-1.2-3.9-1.3c-14.1-0.9-28.2-1.9-42.3-2.8
	C261,233.3,244.9,228.9,238.8,236.6z"/>
<path class="st1" d="M82.3,237.5c-1.1,21.9,4.4,44.2,15.5,63.1c2.1,3.6,4.6,7.3,8.1,9.5c5,3.1,11.2,3,17.1,2.7
	c7.4-0.5,14.8-1.2,22.1-2.2c4-0.6,8.3-1.4,10.9-4.5c3.2-3.7,2.7-9.3,2-14.1c-2.3-16-4.5-32.1-6.8-48.1c-0.3-2-0.7-4.2-2.2-5.5
	c-1.8-1.6-4.4-1.4-6.7-1.2c-9.4,0.9-17.9,2.2-27.3,1.2C112.1,238,82.3,237.7,82.3,237.5z"/>
<g>
	<path class="st2" d="M63.9,228c34.8,0,69.6-1.9,104-6.8c7.1-1,4.1-11.8-3-10.8c-33.4,4.7-67.3,6.4-101,6.4
		C56.7,216.8,56.7,228,63.9,228L63.9,228z"/>
	<path class="st2" d="M58.3,222.4c0.3,25,2.5,50,6.9,74.6c1.9,10.6,2.7,25.5,8.1,34.9c4.6,8,14.5,6.2,22.4,6.2
		c23.3,0,49.5,3.2,72.1-3.5c6.8-2,16.1-5.1,19.6-11.9c4.6-8.8,1.4-23.7,1.3-33.2c-0.1-7.2-11.3-7.2-11.2,0
		c0.1,7.8,3.2,24.9-3.3,30.5c-6.3,5.4-19.5,6-27.1,6.5c-18.4,1.2-37.2,0.3-55.7,0.3c-6.9,0-7.3,0.1-9.9-6.1c-1.5-3.8-2-8.4-2.8-12.3
		c-1.9-8.9-3.5-17.9-4.9-26.9c-2.9-19.6-4.3-39.4-4.5-59.2C69.5,215.1,58.3,215.1,58.3,222.4L58.3,222.4z"/>
	<path class="st2" d="M163.3,214.8c0.6,9.3,1.8,18.4,3.4,27.5c0.4,2.4,3.1,4.1,5.4,4.1c9.9,0,19.9,0.1,29.8,0.1
		c6.7,0,15.5,1.7,21.8-0.6c11.6-4.1,4.8-24.4,3.9-33c-0.8-7.1-12-7.2-11.2,0c0.6,5.5,1.2,11.1,1.8,16.6c0.8,7.7,0.3,5.8-7.7,5.7
		c-12.8-0.1-25.6-0.1-38.4-0.2c1.8,1.4,3.6,2.7,5.4,4.1c-1.4-8.2-2.4-16.3-3-24.5C174.1,207.7,162.8,207.6,163.3,214.8L163.3,214.8z
		"/>
	<path class="st2" d="M222.1,218.6c40.4-3.2,80.5-0.7,120.4,6.3c7.1,1.2,10.1-9.6,3-10.8c-40.9-7.2-82-10-123.4-6.7
		C214.9,208,214.9,219.2,222.1,218.6L222.1,218.6z"/>
	<path class="st2" d="M184.8,292.8c9-2.2,17.9-1.9,26.8,0.7c7,2,9.9-8.8,3-10.8c-10.8-3.1-21.8-3.3-32.8-0.7
		C174.8,283.7,177.8,294.5,184.8,292.8L184.8,292.8z"/>
	<path class="st2" d="M208.9,287.7c1.8,15.4,2,43.4,20.9,47.4c24.9,5.3,52.6,5.3,78,5.1c7.8-0.1,15.9-0.1,20.5-7.5
		c5.4-8.7,6.2-22.3,7.9-32.1c4.5-26.5,6.7-53.4,13.3-79.5c1.8-7-9-10-10.8-3c-4.3,17.1-6.9,34.4-9.3,51.9
		c-1.3,9.9-2.7,19.9-4.4,29.7c-1.6,8.9-2.1,26.2-12.8,29.2c-7.7,2.1-18.7,0-26.6-0.3c-10.3-0.3-20.6-1-30.9-1.9
		c-9-0.8-23.4,0.7-28.4-8.2c-4.5-8.1-5.1-21.9-6.2-30.8C219.3,280.6,208,280.5,208.9,287.7L208.9,287.7z"/>
	<path class="st2" d="M235.8,239.1c-0.4,16.4-0.7,32.8-1.1,49.3c-0.2,10-2.1,20.3,9.2,24.1c12.5,4.2,29.2,3.5,42.2,3.3
		c11.5-0.1,20.7,1.1,24.5-11.1c4.6-14.4,7.2-29.8,9.9-44.7c1.6-8.7,6.6-22.1-3.3-27.5c-9.7-5.3-26.1-3.7-36.8-4.2
		c-12.2-0.6-30.4-4-41.5,1.8c-6.4,3.4-0.7,13.1,5.7,9.7c6.7-3.5,20-0.9,27.5-0.6c9.7,0.3,19.4,0.9,29.1,1.8c3.1,0.3,6.2,0.6,9.3,1
		c1.2,2.9,1.2,5.9,0.3,8.9c-0.3,4.1-1.4,8.3-2.2,12.3c-2,10.2-4.2,20.4-6.7,30.5c-3.3,13.5-14.9,11.2-26.3,10.8
		c-5.8-0.2-26.6,0.9-29.3-4.1c-1.9-3.5-0.4-10.2-0.3-14.2c0.1-5,0.2-10,0.3-15c0.2-10.7,0.5-21.4,0.7-32.1
		C247.2,231.9,236,231.9,235.8,239.1L235.8,239.1z"/>
	<path class="st2" d="M76.8,245.7c0.9,14.5,3.7,28.6,7.2,42.6c2.5,10.2,4.5,22.6,14.9,27.8c9.6,4.8,23.7,3,34,2.3
		c9.1-0.6,24.4-1.2,30.6-9.1c5.9-7.6,1.9-22.7,1.2-31.3c-0.6-7.6-1.3-15.3-2.1-22.9c-0.6-5.3,0-13.6-2.8-18.3
		c-5.1-8.5-20.9-4.2-29.3-3.9c-15.9,0.6-31.9,1.5-47.8,2.6c-7.2,0.5-7.2,11.7,0,11.2c11.6-0.8,23.2-1.5,34.8-2.1
		c10.9-0.5,24.8-3.2,35.5-1c-1.3-1.3-2.6-2.6-3.9-3.9c4.9,12.2,3.9,29.4,4.8,42.4c0.5,6.7,2.8,14.4-1.6,19.5
		c-5,5.7-16.2,5.5-23.3,5.7c-5.8,0.2-11.8,0.5-17.6,0.1c-10.9-0.7-13-9.1-15.3-18.1c-3.7-14.4-6.9-28.8-7.8-43.7
		C87.6,238.5,76.4,238.5,76.8,245.7L76.8,245.7z"/>
	<path class="st2" d="M90.5,271.9c7.4-10.8,15.7-20.7,24.9-29.9c5.1-5.1-2.8-13-7.9-7.9c-9.9,9.9-18.8,20.6-26.7,32.2
		C76.7,272.2,86.4,277.9,90.5,271.9L90.5,271.9z"/>
	<path class="st2" d="M95.4,299.4c8.7-9.3,17.5-18.5,26.2-27.8c3.9-4.1,7.8-8.2,11.6-12.3c1.8-1.9,10.9-14.5,13.2-14.7
		c-1.6-0.9-3.2-1.9-4.8-2.8c0.2,0.3,0.4,0.5,0.6,0.8c4.1,5.8,13.9,0.2,9.7-5.7c-0.2-0.3-0.4-0.5-0.6-0.8c-1.1-1.5-2.8-3-4.8-2.8
		c-10.2,1.2-19,15.7-25.5,22.7c-11.2,11.8-22.3,23.7-33.5,35.5C82.5,296.7,90.4,304.7,95.4,299.4L95.4,299.4z"/>
	<path class="st2" d="M121,316.7c15.6-14.8,29.5-31.1,42-48.6c4.2-5.9-5.5-11.5-9.7-5.7c-11.9,16.8-25.4,32.2-40.3,46.4
		C107.8,313.7,115.8,321.7,121,316.7L121,316.7z"/>
	<path class="st2" d="M245.8,264.2c9.6-9.1,19.9-17.5,30.9-25c-2.7-2.1-5.5-4.2-8.2-6.3c-0.2,1-0.5,2-0.7,2.9c-1.7,7,9.1,10,10.8,3
		c0.2-1,0.5-2,0.7-2.9c1.1-4.4-4-9.2-8.2-6.3c-11.7,8.1-22.8,17-33.1,26.8C232.6,261.2,240.6,269.2,245.8,264.2L245.8,264.2z"/>
	<path class="st2" d="M245.7,290.3c10.5-7.7,21-15.4,31.5-23.1c4.7-3.4,9.3-6.8,14-10.2c4.3-3.1,12.1-11.4,17.4-12.5
		c-2.4-1.8-4.7-3.6-7.1-5.4c0,0.2,0,0.3-0.1,0.5c1.9-1.9,3.7-3.7,5.6-5.6c-0.1,0-0.3,0-0.4,0c-7.2-0.5-7.2,10.8,0,11.2
		c0.1,0,0.3,0,0.4,0c3.2,0.2,5.3-2.8,5.6-5.6c0-0.2,0-0.3,0.1-0.5c0.4-3.9-3.9-6.1-7.1-5.4c-4.9,1-9.1,5.6-13.1,8.5
		c-5.8,4.3-11.7,8.5-17.5,12.8c-11.7,8.5-23.4,17.1-35,25.6C234.3,284.9,239.9,294.6,245.7,290.3L245.7,290.3z"/>
	<path class="st2" d="M255.2,309c17.6-15.6,39.3-26.2,59.7-37.8c6.3-3.6,0.6-13.3-5.7-9.7c-21.2,12.1-43.5,23.3-61.9,39.5
		C241.8,305.9,249.8,313.8,255.2,309L255.2,309z"/>
	<path class="st2" d="M82.4,226.7c19.3-14.6,38.7-29.5,53.8-48.7c6.6-8.4,12.6-18.6,22-24.3c13.4-8.1,27.7-0.3,36.7,10.4
		c4.7,5.5,12.6-2.5,7.9-7.9c-16.3-19.2-41.5-22.9-59.9-4.4c-9.8,9.9-17,22.1-26.8,32.1c-12,12.3-25.8,22.8-39.4,33.1
		C71.1,221.4,76.6,231.1,82.4,226.7L82.4,226.7z"/>
	<path class="st2" d="M112.4,222.8c10.4-10.2,20.8-20.3,31.2-30.5c4.7-4.6,9.3-9.2,14.1-13.7c3.3-3.2,10.4-7.7,15.4-5.4
		c1.2,0.6,2.5,3.8,3.4,4.7c12.8,14.3,28.5-4.6,29.7-17.9c0.6-7.2-10.6-7.2-11.2,0c-0.4,4.7-5,11.3-10.7,9.6c-0.8-0.2-2.4-3.4-3-4.2
		c-2-2.3-4-4.1-7-5.1c-6.1-2.1-12.4,0.2-17.4,3.8c-8.9,6.5-16.4,15.5-24.3,23.2c-9.4,9.1-18.7,18.3-28.1,27.4
		C99.3,220,107.2,227.9,112.4,222.8L112.4,222.8z"/>
	<path class="st2" d="M344.6,258c13.7-19.6,27.4-39.3,41.1-58.9c6.4-9.1,12.2-19.2,19.5-27.6c14.7-16.7,23.5,5.8,25.2,18.7
		c0.9,7.1,12.1,7.2,11.2,0c-1.5-11.9-3.6-25.1-14.4-32.3c-10.3-6.9-21.5-3.7-29.4,5c-11.1,12.3-19.8,27.7-29.3,41.2
		c-11.2,16.1-22.4,32.1-33.6,48.2C330.8,258.3,340.5,263.9,344.6,258L344.6,258z"/>
	<path class="st2" d="M429.4,190.6c-1.6,3.9-1.6,4.5-1.9,8.7c1.4-1.8,2.7-3.6,4.1-5.4c-9.7,3.2-12.2-13.7-22.4-6.8
		c-4.9,3.3-7.2,10.3-10,15.2c-4.5,7.9-9.2,15.6-14,23.4c-18,29.1-37.5,57.3-58.4,84.4c-4.4,5.7,5.3,11.3,9.7,5.7
		c20-26,38.8-52.9,56.2-80.8c4.1-6.5,8-13.1,12-19.7c2.1-3.6,4.2-7.2,6.3-10.9c1-1.8,2.1-3.6,3.1-5.5c1.8-1.9,1.3-2.7-1.7-2.2
		c6.7,6.6,12,11.4,22.3,8.1c2.5-0.8,3.9-2.8,4.1-5.4c0.5-1.9,1-3.8,1.5-5.7C443,186.9,432.1,184,429.4,190.6L429.4,190.6z"/>
</g>
</svg>
