<?xml version="1.0" encoding="utf-8"?>
<!-- Generator: Adobe Illustrator 27.0.0, SVG Export Plug-In . SVG Version: 6.00 Build 0)  -->
<svg version="1.1" id="Layer_1" xmlns="http://www.w3.org/2000/svg" xmlns:xlink="http://www.w3.org/1999/xlink" x="0px" y="0px"
	 viewBox="0 0 500 500" style="enable-background:new 0 0 500 500;" xml:space="preserve">
<style type="text/css">
	.st0{fill:#1CB24B;}
	.st1{fill:#006D40;}
	.st2{fill:#010101;}
</style>
<path class="st0" d="M124.1,363.5c16.4-16.2,34.9-30.3,55-41.7c3.3-1.9,6.9-4,8.4-7.5c0.9-2.1,0.8-4.5,0.8-6.7
	c-1.6-62.7-3.2-125.5-4.7-188.2c-10.5,5.2-20.8,10.7-31,16.4c-6.3,3.5-22.3,9.5-26.2,15.6c-4.5,7-1.7,25-2,33.3
	c-0.4,12.1-0.6,24.2-0.9,36.3c-0.4,24.2-0.6,48.4-0.4,72.6c0.1,11.7,0.2,23.3,0.4,34.9C123.4,334,127.5,360.2,124.1,363.5z"/>
<path class="st0" d="M267.8,366.9c16.7-15.6,33.4-31.2,50.1-46.9c1.6-1.5,3.3-3.1,4.2-5.2c1.3-3,0.7-6.5,0.1-9.7
	c-12.1-62.8-17.7-126.9-16.9-190.9c0,1.5-22.5,14.2-25.1,16.2c-7.4,5.9-17.4,13.6-22.4,21.8c-9.5,15.7-1.5,45.7-0.2,63.9
	C261,266.5,264.4,316.7,267.8,366.9z"/>
<path class="st1" d="M190.3,302.9c0.2,3,0.5,6,1.8,8.7c1.5,3,4.2,5.3,6.8,7.5c21.6,17.9,43.2,35.8,64.7,53.7
	c-0.1-32.5-2.4-65-4.6-97.4c-2.5-36-5-72.1-7.5-108.1c-0.4-5.1-0.9-10.6-4.2-14.5c-1.6-1.9-3.8-3.2-5.9-4.5c-8-4.9-42-31.5-49.2-25
	c-7.1,6.4-0.7,48.4-0.9,58.5C190.5,222.2,190.3,262.4,190.3,302.9z"/>
<path class="st1" d="M325.7,304c0.8,4.1,1.6,8.2,3.6,11.9c2,3.6,5,6.6,8,9.5c16.5,16,33.1,31.9,49.6,47.9
	c-2.4-63.8-6.8-127.5-13.1-191c-0.8-8.1-1.7-16.3-5.2-23.6c-3.7-7.7-9.9-13.8-16.3-19.5c-6.6-6-34.8-35.3-42.7-27.7
	c-3.5,3.4-0.4,25.4-0.3,30.5c0.2,11,0.5,21.9,1.1,32.8C312.5,218.2,317.7,261.3,325.7,304z"/>
<g>
	<path class="st2" d="M118.7,150.9c-1.6,71.8-3.3,143.6-4.9,215.4c-0.2,7,10.7,7,10.8,0c1.6-71.8,3.3-143.6,4.9-215.4
		C129.7,143.9,118.9,143.9,118.7,150.9L118.7,150.9z"/>
	<path class="st2" d="M125.1,155.3c24.2-8.8,45.1-23.6,67.8-35.6c6.2-3.3,0.7-12.6-5.5-9.4c-21.8,11.5-41.9,26-65.2,34.5
		C115.7,147.2,118.6,157.7,125.1,155.3L125.1,155.3z"/>
	<path class="st2" d="M121.6,374.1c24.7-19.2,49.4-38.3,74.2-57.5c5.5-4.3-2.2-11.9-7.7-7.7c-24.7,19.2-49.4,38.3-74.2,57.5
		C108.4,370.7,116.1,378.3,121.6,374.1L121.6,374.1z"/>
	<path class="st2" d="M184.7,115c0,67.8,0,135.6,0,203.4c0,7,10.8,7,10.8,0c0-67.8,0-135.6,0-203.4C195.6,108,184.7,108,184.7,115
		L184.7,115z"/>
	<path class="st2" d="M188.1,319.7c23.8,16,45.5,34.4,65.2,55.2c4.8,5.1,12.5-2.6,7.7-7.7c-20.3-21.5-42.9-40.5-67.4-56.9
		C187.7,306.4,182.3,315.8,188.1,319.7L188.1,319.7z"/>
	<path class="st2" d="M192,124.1c19.5,12.8,39.3,24.9,59.4,36.6c6.1,3.5,11.5-5.9,5.5-9.4c-20.2-11.6-40-23.8-59.4-36.6
		C191.6,110.9,186.2,120.3,192,124.1L192,124.1z"/>
	<path class="st2" d="M246.3,158.1c4.8,70.2,9.5,140.4,14.3,210.6c0.5,6.9,11.3,7,10.8,0c-4.8-70.2-9.5-140.4-14.3-210.6
		C256.7,151.2,245.8,151.1,246.3,158.1L246.3,158.1z"/>
	<path class="st2" d="M256,161.7c20.3-16.3,39.3-33.9,57.1-52.9c4.8-5.1-2.9-12.8-7.7-7.7c-17.8,19-36.9,36.6-57.1,52.9
		C242.9,158.4,250.6,166,256,161.7L256,161.7z"/>
	<path class="st2" d="M301.8,107.8c3.3,69.6,8.5,139,15.6,208.3c0.7,6.9,11.6,6.9,10.8,0c-7.1-69.3-12.3-138.8-15.6-208.3
		C312.3,100.9,301.4,100.8,301.8,107.8L301.8,107.8z"/>
	<path class="st2" d="M265.5,379.4c19.4-19.7,39.4-38.8,60.1-57.2c5.2-4.7-2.5-12.3-7.7-7.7c-20.7,18.4-40.7,37.5-60.1,57.2
		C252.9,376.7,260.6,384.4,265.5,379.4L265.5,379.4z"/>
	<path class="st2" d="M322.2,320.3c19.1,14.9,36.4,31.6,51.9,50.2c4.5,5.4,12.1-2.3,7.7-7.7c-15.5-18.6-32.8-35.3-51.9-50.2
		C324.5,308.4,316.7,316,322.2,320.3L322.2,320.3z"/>
	<path class="st2" d="M308.1,109.5c19.8,18.1,40.2,35.5,61.3,52.2c5.4,4.3,13.1-3.3,7.7-7.7c-21-16.7-41.5-34.1-61.3-52.2
		C310.6,97.1,303,104.7,308.1,109.5L308.1,109.5z"/>
	<path class="st2" d="M369.5,160.5c4.4,72.3,8.8,144.6,13.2,216.8c3.1-1.3,6.2-2.6,9.3-3.8c-2.2-2-4.4-4-6.6-6
		c-5.2-4.7-12.9,3-7.7,7.7c2.2,2,4.4,4,6.6,6c3.2,2.9,9.6,1.1,9.3-3.8c-4.4-72.3-8.8-144.6-13.2-216.8
		C379.9,153.6,369.1,153.5,369.5,160.5L369.5,160.5z"/>
</g>
</svg>
