<?xml version="1.0" encoding="utf-8"?>
<!-- Generator: Adobe Illustrator 27.0.0, SVG Export Plug-In . SVG Version: 6.00 Build 0)  -->
<svg version="1.1" id="Layer_1" xmlns="http://www.w3.org/2000/svg" xmlns:xlink="http://www.w3.org/1999/xlink" x="0px" y="0px"
	 viewBox="0 0 500 500" style="enable-background:new 0 0 500 500;" xml:space="preserve">
<style type="text/css">
	.st0{fill:#1CB24B;}
	.st1{fill:#006D40;}
	.st2{fill:#010101;}
</style>
<path class="st0" d="M147.1,164.6c3.1,1.7,6.6,2.6,10,2.6c-7.6,28.7-15.6,57.3-23.8,85.8c3.9-4.7,10.2-7.2,16.2-6.6
	c-5.3,33.7-12.6,67.1-21.6,100c19-13.4,47.4-11.3,64.1,4.9c-2.8-7.8,4.5-16.4,12.7-17.8c8.2-1.4,16.4,2.2,23.7,6.1
	c7.3,4,14.7,8.5,22.9,9.2c-11.3-31.8-21-64.1-29.1-96.8c7.2-0.7,14.6,1,20.7,4.9c-11-27.7-21.9-55.4-32.9-83.1
	c3.7-3.7,8.6-6.1,13.8-6.9c-5.4-12.7-28.8-79.4-42.5-77.3C172.4,91,142.9,162.4,147.1,164.6z"/>
<path class="st1" d="M192.8,348.5c-5.4-7.1-14.2-11.4-23.1-11.6c-1.6,23.1-1.8,46.4-0.7,69.5c7.5,3.1,15.6,4.7,23.7,4.5
	c1.7,0,3.6-0.2,4.7-1.5c0.9-1.1,1.1-2.6,1.2-4c1-17.8,0.5-35.7-1.7-53.3"/>
<path class="st0" d="M286.6,165c-0.5,11.3,4.3,22.6,2.6,33.8c-1.8,12-10.7,22.2-11.7,34.2c2.3-2.1,6.4-0.5,7.9,2.2
	c1.5,2.7,1.3,6.1,1,9.2c-1.5,17.5-3,34.9-4.4,52.4c3.8,2.3,6.5-4.2,9.5-7.5c5.3-5.9,15.1-1.5,21.3,3.5c6.2,5,14.6,10.8,21.3,6.5
	c2.2-1.4,3.7-3.7,5.7-5.5c5-4.4,12.6-4.7,18.8-2.4c6.2,2.2,11.5,6.6,16.5,10.9c-11.3-37-21.4-74.4-30.3-112
	c-1.3-5.4-2.6-10.9-2.7-16.5c-0.5-16.4,0.8-46.6-21-50.6C300.6,119.4,287.3,148.5,286.6,165z"/>
<path class="st1" d="M300.9,293.4c1.4,16.3,2.8,32.6,4.2,49c8.2,3.7,17.4,5,26.2,3.7c0.6-15.6,0-31.2-1.9-46.7
	c-0.2-1.4-0.4-2.8-1.2-3.9c-1.3-1.7-3.8-2.1-5.9-2.3c-5.1-0.5-10.1-1-15.2-1.6"/>
<g>
	<g>
		<path class="st2" d="M178.8,71.4c-11.7,29.8-24.2,59.2-37.7,88.2c-3.8,8.2,8.4,15.5,12.3,7.2c14-30.1,27-60.6,39.1-91.6
			C195.9,66.7,182.1,63,178.8,71.4L178.8,71.4z"/>
		<path class="st2" d="M181.7,77.1c14.5,31.7,28.3,63.7,41.3,96c3.5-2.7,7-5.3,10.4-8c-8.6-4.5-18.6-9.3-28.5-10
			c-8-0.6-9.6,1.9-14.6,7c-3.8,3.8-4.7,6.1-11.3,4.7c-4.6-0.9-9.3-5-13.7-6.8c-8.2-3.4-15.5-4.1-23.3,0.6c-7.8,4.7-0.7,17,7.2,12.3
			c8.2-4.9,18.3,5.3,26,7.7c5.4,1.7,11.6,2.6,17,0.5c5.5-2.1,5.6-5.6,9.4-9.1c3.3-3.1,3-2.4,10.9-0.5c4.8,1.2,9.2,3.5,13.5,5.9
			c4.9,2.8,13.2-1.6,10.7-7.9c-13.5-33.5-27.7-66.6-42.7-99.4C190.2,61.6,178,68.8,181.7,77.1L181.7,77.1z"/>
		<path class="st2" d="M153.3,167.8c-11.4,31.1-22.9,62.2-34.3,93.4c-2.4,6.5,7.5,12.4,11.9,6.9c3.9-4.8,9.3-15.4,14.8-18.1
			c9.1-4.4,7,5.9,10.1,10.6c5.8,8.8,13.6,7.6,20.3,1.5c2.8-2.5,1.7-3.2,6.1-5.9c5.9-3.7,9.3-1.9,15.4,0.1c5.6,1.8,11,5.4,17.1,4.5
			c4.3-0.6,7-6,8.9-6.4c1.7-0.4,16.2,12.2,18.5,14c4.5,3.4,10.6-1.2,10.7-6.1c0.3-15.2-9.3-31.6-14.6-45.6
			c-6.6-17.5-13.2-35.1-19.9-52.6c-3.2-8.5-16.9-4.8-13.7,3.8c6,15.9,12,31.7,18,47.6c5.1,13.6,16.3,32.2,16,46.8
			c3.6-2,7.1-4.1,10.7-6.1c-6.7-5-15.3-14.5-23.7-16.4c-7.7-1.8-7.7,2-12.9,5.1c-2.9,1.7-1.6,1.9-6.6-0.3c-5.1-2.3-10.6-4.5-16.2-5
			c-6-0.6-12.4,0.4-17.4,3.9c-1.3,0.9-5.1,6.4-6.2,6.8c-1,2-1,2.2-0.1,0.7c1.1-1.2,1.2-2.7,0.2-4.3c-0.2-5.7-3.8-11.2-9.1-13.5
			c-15.8-6.8-28.9,15.4-36.6,25c4,2.3,7.9,4.6,11.9,6.9c11.4-31.1,22.9-62.2,34.3-93.4C170.2,163,156.5,159.3,153.3,167.8
			L153.3,167.8z"/>
		<path class="st2" d="M144.4,241.4c-8.6,34.8-17.3,69.6-25.9,104.3c-1.7,6.9,6.7,11.9,11.9,6.9c15.3-14.8,39.7-16,56-1.9
			c3.2,2.7,6.8,2.5,10,0c9-7.1,6.9-15.9,21.2-10.7c11.3,4.1,22.2,11.1,32.9,16.4c5.2,2.6,12.4-1.7,10.4-8
			c-10.8-34.5-22.7-68.7-35.7-102.4c-3.2-8.4-17-4.8-13.7,3.8c13,33.8,24.9,67.9,35.7,102.4c3.5-2.7,7-5.3,10.4-8
			c-9.4-4.7-18.8-9.4-28.2-14.1c-5.9-3-12.5-7.4-19.3-8.2c-14-1.6-15.1,11.8-23.8,18.7h10c-22.1-19.1-55-18.5-76.1,1.9l11.9,6.9
			c8.6-34.8,17.3-69.6,25.9-104.3C160.3,236.3,146.6,232.5,144.4,241.4L144.4,241.4z"/>
		<path class="st2" d="M164.1,333.5c0,13.2,0.1,26.3,0.1,39.5c0,10.3-2.2,23.2,0.5,33c4.4,15.9,26.2,10.7,38.7,10.6
			c3.7,0,7.3-3.2,7.1-7.1c-1-24.2-2.5-48.4-4.6-72.5c-0.8-9-15-9.1-14.2,0c2.1,24.1,3.7,48.3,4.6,72.5l7.1-7.1
			c-5.9,0-16.2,2.3-21.5,0.1c-5.8-2.4-3.4-11.6-3.4-18.3c0-16.9-0.1-33.9-0.1-50.8C178.3,324.4,164.1,324.4,164.1,333.5L164.1,333.5
			z"/>
		<path class="st2" d="M311.1,98c-8.5,21.7-17.7,43.1-27.5,64.3c-3.8,8.2,8.4,15.5,12.3,7.2c10.3-22.3,20-44.8,28.9-67.7
			C328.1,93.3,314.4,89.6,311.1,98L311.1,98z"/>
		<path class="st2" d="M313.4,103.6c10.6,23.1,20.6,46.4,30.1,70c3.5-2.7,7-5.3,10.4-8c-12-6.1-22.9-11.4-33.6-2.5
			c-3.2,2.6-2.4,4.2-7.5,3c-3.8-0.8-7-3.8-10.7-5.1c-6.5-2.3-11.1-1.9-17.2,1.2c-8.1,4.2-0.9,16.5,7.2,12.3c7-3.6,20.3,9.2,29.7,6.7
			c3.7-1,5-3.4,7.8-5.4c2.1-1.5,0.8-2.4,3.6-2.9c3.4-0.7,11.8,4.1,13.6,5c4.9,2.5,13-1.8,10.4-8c-10-24.7-20.5-49.2-31.5-73.4
			C321.9,88.1,309.6,95.4,313.4,103.6L313.4,103.6z"/>
		<path class="st2" d="M292.3,168.8c-8.4,22.8-16.8,45.7-25.2,68.5c-2.4,6.5,7.5,12.4,11.9,6.9c1.2-1.5,9.6-14.1,11.3-13.7
			c2.4,0.6,2.9,6.2,4.1,8c3.2,4.8,9.5,7.4,14.8,4.3c2.5-1.4,2.9-4.8,4.8-6.2c8-5.9,14.5,2.2,21.9,2.7c7.5,0.5,9.6-3.3,13.6-8.7
			c-2,1.2-4.1,2.3-6.1,3.5c3.5-0.1,12.1,8.3,15,10.5c4.3,3.2,10.9-1.1,10.7-6.1c-0.5-11.6-6.5-22.8-10.6-33.5
			c-4.9-13-9.8-26-14.8-39.1c-3.2-8.5-17-4.8-13.7,3.8c3.9,10.3,7.8,20.5,11.7,30.8c3.4,10.7,12.6,25.7,13.1,38
			c3.6-2,7.1-4.1,10.7-6.1c-4.9-3.6-11.6-10.8-17.8-12.2c-5.5-1.3-6.4,1.9-10.4,3.3c-4.3,1.5,4.6,4.6-5-0.3
			c-3.1-1.6-6.9-2.7-10.3-3.2c-5.5-0.7-11.4,0.3-15.8,3.9c-1.1,0.9-3.8,3.2-4,4.8c-0.7,4.6,3.1,0.2,3.6-2c1.1-4.5-4.4-9.9-8-11.4
			c-12.7-5.1-22.3,10.8-28.7,18.7c4,2.3,7.9,4.6,11.9,6.9c8.4-22.8,16.8-45.7,25.2-68.5C309.2,164,295.5,160.3,292.3,168.8
			L292.3,168.8z"/>
		<path class="st2" d="M285.8,222.8c-6.3,25.5-12.7,51.1-19,76.6c-1.7,6.9,6.7,11.8,11.9,6.9c10.7-10.1,27.1-10.9,38.4-1.4
			c3.1,2.6,7,2.7,10,0c6.4-5.7,4.1-11.2,14.4-7c7.9,3.2,15.4,7.7,23,11.5c5.2,2.6,12.4-1.7,10.4-8c-7.9-25.3-16.7-50.4-26.2-75.2
			c-3.2-8.4-17-4.8-13.7,3.8c9.5,24.8,18.2,49.9,26.2,75.2c3.5-2.7,7-5.3,10.4-8c-10.5-5.3-23.3-14.7-35.2-16.4
			c-11.2-1.6-12.7,8.1-19.5,14.1h10c-17.4-14.6-41.9-14.3-58.5,1.4l11.9,6.9c6.3-25.5,12.7-51.1,19-76.6
			C301.7,217.7,288,213.9,285.8,222.8L285.8,222.8z"/>
		<path class="st2" d="M300.2,291c0,9,0,18,0.1,26.9c0,8-1.4,17.7,0.3,25.6c3,14.3,19.3,10.4,30.4,10.4c3.7,0,7.3-3.2,7.1-7.1
			c-0.7-17.8-1.8-35.5-3.4-53.2c-0.8-9-15-9.1-14.2,0c1.6,17.7,2.7,35.4,3.4,53.2l7.1-7.1c-3.1,0-15.4,2-17.6,0.1
			c2.3,2,1-1.6,1.2-3.2c0.3-3.4,0-6.9,0-10.4c0-11.7,0-23.5-0.1-35.2C314.4,281.9,300.2,281.8,300.2,291L300.2,291z"/>
	</g>
</g>
</svg>
