<?xml version="1.0" encoding="utf-8"?>
<!-- Generator: Adobe Illustrator 27.0.0, SVG Export Plug-In . SVG Version: 6.00 Build 0)  -->
<svg version="1.1" id="Layer_1" xmlns="http://www.w3.org/2000/svg" xmlns:xlink="http://www.w3.org/1999/xlink" x="0px" y="0px"
	 viewBox="0 0 500 500" style="enable-background:new 0 0 500 500;" xml:space="preserve">
<style type="text/css">
	.st0{fill:#006D40;}
	.st1{fill:#1CB24B;}
	.st2{fill:#010101;}
</style>
<path class="st0" d="M59.2,200.1c1.9,46.1,10,91.9,24.1,135.9c25.1,2.6,50.4,3.3,75.6,2.1c11.8-0.5,23.7-1.5,35.5-1.5
	c14.1,0,28.2,1.3,42.2,2.8c58.5,6.4,118.1,16.7,175.5,3.7c4.4-1,8.9-2.2,12.1-5.3c4.5-4.4,5.3-11.4,5.4-17.7
	c0.2-21.6-4.1-43.2-12.7-63c-3.3-7.6-7.3-15.1-13.2-20.9c-5.7-5.6-13-9.5-20.4-12.4c-10.6-4.2-22.4-6.7-33.5-4.1
	c-11.1,2.6-21.3,11.4-22.9,22.8c-20.3-11.8-45-15.6-67.9-10.4c-0.9-10.3-4.6-19.5-9.5-28.6C186.4,198.1,122.2,197.9,59.2,200.1z"/>
<path class="st1" d="M63,128.1c-3.5,6.2-3.5,13.8-3.3,20.9c0.2,15,0.5,30.1,1.8,45c0.2,2.1,0.5,4.4,1.9,5.9c1.5,1.7,3.9,2.1,6.2,2.4
	c27.4,3.5,55.2-2.2,82.8-1.2c31.2,1.1,64.3,10.4,92.3-3.4c2.9-1.4,5.8-3.2,7.4-6c1.9-3.2,1.8-7.1,1.7-10.7
	c-0.4-14-0.7-27.9-1.1-41.9c-0.1-5-0.3-10.1-2.5-14.6c-4.9-10.1-17.5-13.1-28.5-15c-9.1-1.6-18.3-3.1-27.5-2.5
	c-11.2,0.7-22,4.7-33.2,5.9c-9.4,1.1-19,0.2-28.5,0.1c-13.7-0.1-27.4,1.4-40.7,4.4C82.2,119.4,68.3,118.5,63,128.1z"/>
<path class="st1" d="M79.7,361.7c5.4,6.8,14,10.2,22.4,12.1c9,2,18.2,2.7,27.3,3.4c44.5,3.3,89,6.6,133.5,9.9
	c16.9,1.3,34,2.5,50.5-1.2c6.2-1.4,12.2-3.4,18.5-4.3c16.3-2.4,32.7,3.1,49.1,5c16.4,1.9,35.6-1.2,44.4-15.2c4.7-7.6,5.4-17,4.8-26
	c-18.7,2-37.4,4-56.1,6c-13.7,1.5-27.5,3-41.3,2.9c-33.5-0.1-66.5-9.1-100-10.4c-12.5-0.5-25,0.1-37.4-0.9
	c-29.1-2.2-56.9-12.9-86.1-14.4c-9.1-0.5-24.9-2.3-31.3,5.9C72.9,341.3,74.9,355.7,79.7,361.7z"/>
<path class="st2" d="M51.8,141.1c1.5,19.8,1.8,39.5,1.1,59.3c5.1-0.7,10.1-1.4,15.2-2.1c-1.7-11-2.7-22.1-3-33.2
	c-0.2-8.3-2.7-23.6,4.3-29.3c9.1-7.4,28.3-8,39.2-9.1c20.4-2,67.6-8.3,81.6,11.6c5.9,8.4,4.2,20.9,4.2,30.8c0,4.5-0.3,9,0,13.5
	c-0.7,2.6-0.5,4.9,0.8,7.1c1.5,1.9,0.8,2.5-2,1.7c-5.9,3.3-23.7,0.3-30.7,0.3c-5.3,0-10.6,0-15.8,0c-27.2-0.2-54.4-1.1-81.6-0.9
	c-9.9,0.1-9.9,15.5,0,15.4c38.1-0.3,76.1,1.2,114.2,0.8c7.8-0.1,21.5,2.6,27.6-4.2c5.5-6.1,3.1-18.2,3.1-25.5
	c0-19.6,3.5-41.8-14.2-55.1c-26.1-19.7-73.3-13.6-103.2-8.8c-12.4,2-32.6,4.8-39.6,17.1c-4.4,7.8-3.2,20.3-3.2,28.7
	c0,14.5,1.5,28.9,3.6,43.2c1.3,8.9,14.9,6.3,15.2-2.1c0.7-19.8,0.3-39.6-1.1-59.3C66.5,131.3,51.1,131.2,51.8,141.1L51.8,141.1z"/>
<path class="st2" d="M189.4,211.4c-0.1,14.6,1.5,29.1,4.5,43.4c2.1,9.7,16.9,5.6,14.9-4.1c-2.8-13-4-26-4-39.3
	C204.9,201.5,189.4,201.5,189.4,211.4L189.4,211.4z"/>
<path class="st2" d="M194.3,266.5c12.8,0.2,25.6,0.5,38.4,0.7c9.9,0.2,9.9-15.2,0-15.4c-12.8-0.2-25.6-0.5-38.4-0.7
	C184.4,250.9,184.4,266.3,194.3,266.5L194.3,266.5z"/>
<path class="st2" d="M233.3,256.5c3.2-16.2,16.6-14.6,30.2-15.7c16.4-1.3,30.7-1.5,45.6,6.8c15.5,8.6,26.9,22.9,33,39.5
	c4,10.8,13.5,45.2-0.1,52.6c-8.7,4.7-1,18.1,7.8,13.3c18.7-10.1,14.7-38.7,11.1-56.1c-5-24.4-18.9-46.8-40.1-60.3
	c-21.2-13.5-42.8-12.6-66.8-10.6c-18.3,1.5-31.8,6.8-35.7,26.4C216.5,262.1,231.4,266.2,233.3,256.5L233.3,256.5z"/>
<path class="st2" d="M52.3,207c2.5,21.7,5,43.3,7.5,65c1.2,10.8,2.5,21.7,3.7,32.5c1,8.3,0.5,18.7,3.3,26.7
	c4,11.5,14.3,11.9,24.9,12.7c17.5,1.3,35,2.6,52.5,3.9c73,5.3,146,10.5,218.9,16c9.9,0.7,9.9-14.7,0-15.4
	c-63.7-4.8-127.4-9.3-191.1-14c-15-1.1-30.1-2.2-45.1-3.3c-7.9-0.6-15.9-1.2-23.8-1.8c-3.1-0.2-6.1-0.5-9.2-0.7
	c-6.9-0.5-7.4,0.7-11.2-5c-4.9-7.5-4.2-22.1-5.3-30.9c-1-8.9-2-17.7-3.1-26.6c-2.3-19.7-4.5-39.4-6.8-59.1
	C66.6,197.3,51.2,197.2,52.3,207L52.3,207z"/>
<path class="st2" d="M73.3,335.5c-12.6,22.6,5.2,43.5,27.2,48.4c27.8,6.2,57.5,7.1,85.8,9.3c43.5,3.4,87.4,5.4,131,2
	c16.4-1.3,40.7-0.8,55.7-7.8c12.4-5.9,6.8-22.5,5.6-33.1c-1.1-9.8-16.5-9.9-15.4,0c0.3,2.7,3.7,16.9,2.1,18.8
	c-2.1,2.5-13.9,2.9-17.6,3.4c-17,2.4-34.1,3.8-51.2,4.5c-30.8,1.3-61.6,0.2-92.3-1.9c-23.2-1.6-46.4-3.5-69.6-5.8
	c-13.5-1.4-62.8-3.5-48-30.1C91.5,334.6,78.2,326.8,73.3,335.5L73.3,335.5z"/>
<path class="st2" d="M168.7,118.6c16-0.2,32.1-0.4,48.1-0.4c10.6,0,21.2-3.2,26,10.8c1.9,5.4,0.4,13.8,0.5,19.6
	c0.2,11.7,6.5,40.7-6.4,46c-5.5,2.3-15.8,0.8-21.8,0.9c-7.3,0.1-14.5,0-21.8-0.1c-9.9-0.2-9.9,15.2,0,15.4
	c12.7,0.3,25.5,0.3,38.1-0.5c7.4-0.5,16.3-0.4,22.2-5.7c4.9-4.4,5.4-9.9,5.8-16c1-14.1-0.6-28.9-0.9-43.1
	c-0.3-14.6,1.4-34.5-15.4-40.8c-9.8-3.7-22.3-1.9-32.5-1.8c-14,0.1-28.1,0.2-42.1,0.4C158.8,103.3,158.8,118.7,168.7,118.6
	L168.7,118.6z"/>
<path class="st2" d="M239,199.1c1.8,11.9,3.7,23.8,5.5,35.6c1.5,9.8,16.4,5.6,14.9-4.1c-1.8-11.9-3.7-23.8-5.5-35.6
	C252.4,185.2,237.5,189.3,239,199.1L239,199.1z"/>
<path class="st2" d="M331.2,245.4c12.7-18.2,32.5-18,51.1-9.3c20.3,9.5,32.8,27.2,38.1,48.8c2.6,10.5,3.4,21.3,3.4,32.1
	c0,14.3-5.3,22.5-19,25.9c-15,3.8-29.3-1.6-44.2-4c-9.7-1.6-13.9,13.3-4.1,14.9c24,3.9,45.9,11,69-1.9c23-12.8,14.5-55.5,8.3-76.2
	c-8.2-27.2-27-47.7-53.9-57.1c-24.4-8.6-47.2-2.2-62.1,19C312.2,245.8,325.5,253.5,331.2,245.4L331.2,245.4z"/>
<path class="st2" d="M417.1,337.2c2.3,12.5,5.4,30.8-8.6,37.5c-12.7,6-31.6,1-44.4-2c-9.6-2.3-13.8,12.5-4.1,14.9
	c18.8,4.5,45.8,10.5,62.3-3.3c15.1-12.6,12.8-33.9,9.7-51.2C430.2,323.4,415.3,327.5,417.1,337.2L417.1,337.2z"/>
</svg>
