<?xml version="1.0" encoding="utf-8"?>
<!-- Generator: Adobe Illustrator 27.0.0, SVG Export Plug-In . SVG Version: 6.00 Build 0)  -->
<svg version="1.1" id="Layer_1" xmlns="http://www.w3.org/2000/svg" xmlns:xlink="http://www.w3.org/1999/xlink" x="0px" y="0px"
	 viewBox="0 0 500 500" style="enable-background:new 0 0 500 500;" xml:space="preserve">
<style type="text/css">
	.st0{fill:#006D40;}
	.st1{fill:#F05242;}
	.st2{fill:#1CB24B;}
	.st3{fill:#151515;}
</style>
<path class="st0" d="M178.9,189.8c-10.5-3.1-22.1,2.4-29.1,10.8c-7,8.4-10.4,19.2-13.3,29.8c-14.1,52.1-19.8,106-25,159.7
	c-1,9.8-1.8,20.3,2.7,29.1c5.6,11.1,18.1,16.6,29.8,20.8c42.1,15.1,86.5,23.6,131.2,25.3c15.1,0.6,30.8,0.4,44.8,6.2
	c3.8,1.6,7.7,3.7,11.8,3.6c3.2-0.1,6.2-1.4,8.9-3c13.7-7.8,23.1-21.9,28.4-36.8s7-30.8,8.7-46.5c4.7-44.7,9.5-89.4,14.2-134.1
	c0.9-8.8,1.8-17.9-0.7-26.4c-2.5-8.5-9.3-16.4-18.1-17.4c9.5,0.2,16.5-3.8,21.7-11.7c5.1-7.9,7.3-17.4,8.9-26.7
	c2.1-12.8,3.3-25.9,3.5-38.9c0.1-8.1-0.2-16.5-3.3-24c-8.4-20.6-33.2-28.2-55-32.6c-48.3-9.8-97-17.1-145.7-24.3
	c-6.6-1-13.3-2-19.9-1c-15.9,2.2-28.5,15.4-34.6,30.2c-6.1,14.8-6.7,31.3-7.1,47.3c-0.3,12.4-0.4,25.2,3.9,36.8
	C149.8,177.5,166.6,188,178.9,189.8z"/>
<path class="st0" d="M407,329.9c2,0,4.1,0,5.9,1c3,1.7,3.8,5.7,4.2,9.1c2.5,19.7,3.9,39.6,4.3,59.4c0.1,7.5,0.1,15.1-1.7,22.4
	c-5.4,22.1-28.1,38.5-50.8,36.6c-3-0.2-6.3-1-7.9-3.6c-1.9-3.1-0.3-7,1.1-10.3c8.6-19.2,13.5-40,14.5-61c0.6-13.4-0.5-27.4,3.4-40.4
	C384.6,327.7,391.8,329.9,407,329.9z"/>
<path class="st0" d="M94.2,296.9c-1.1-0.1-2.4-0.1-3.3,0.6c-0.7,0.6-1.1,1.6-1.3,2.5c-8.7,28.5-16.5,57.9-14.7,87.7
	c0.5,7.3,1.6,14.9,6,20.8c7.8,10.5,22.6,12,35.7,11.9c1.7,0,3.5-0.1,4.8-1.2c1.1-1,1.5-2.6,1.8-4.1c5.2-28.1,8.1-56.6,8.7-85.1
	C132.4,299.3,120.8,298.6,94.2,296.9z"/>
<path class="st1" d="M218.2,370.4c23.7,3.8,47.7,5.3,71.7,4.7c0.2-6.4,0-12.9-0.7-19.3c-0.3-2.6-0.8-5.5-3-6.9c-1.2-0.7-2.6-0.9-4-1
	c-14.6-1.5-37-8.4-51.2-5.3c-6.2,1.4-6.5,1-9.8,6.7C220.1,351.1,218.6,370.5,218.2,370.4z"/>
<path class="st2" d="M410.3,268.7c3.3,1.5,6.5,3.6,8.3,6.8c2.7,4.7,2,10.5,1.1,15.8c-2,12.8-4.1,25.7-6.1,38.5
	c-9.1,0.3-18.2-0.2-27.2-1.3C386.4,309.6,375.4,252.5,410.3,268.7z"/>
<path class="st2" d="M99.5,230.6c-7.5,18.6-11.3,38.8-10.9,58.9c11.4,4.2,23.6,6.4,35.8,6.3c-2.1,0,8-47.3,7.3-51.1
	C128.8,229.7,111.9,231.8,99.5,230.6z"/>
<path class="st2" d="M319.2,417.6c7.5-0.1,10.9-9.2,12.3-16.6c18.7-101.2,29.9-203.8,33.6-306.7c0.1-4.1,0.2-8.4-1.5-12.1
	c-2.8-5.9-14.2-11.9-20.8-9.2c-8.2,3.4-7.5,15.1-8.8,23c-4.1,25.6-7.6,51.2-10.3,77c-5.5,52-8.1,104.3-7.8,156.5
	C316.1,359,317.2,388.3,319.2,417.6z"/>
<path class="st2" d="M199.6,89.8c-13,94-24.4,187.1-39.6,281.6c-1,6.1,0.2,12.6,2.6,18.3c2.4,5.7,7.7,10.6,13.9,10.8
	c11.5,0.3,17.1-13.8,19-25.2c3-18.2,5-36.6,7-55c9-83.1,17.9-166.2,19.9-249.8c0.2-8.2-4.2-25.4-15.9-17.3
	C199.3,58.2,200.7,82.1,199.6,89.8z"/>
<g>
	<path class="st3" d="M212.5,52c-15.7-7.8-37.4-5.2-51.2,5.7c-16.4,12.9-19.3,37.2-21,56.6c-1.3,14.8-1.9,29.8-1.1,44.6
		c0.5,9.6,1.5,20.1,8,27.7c6.9,8,17.2,9.8,27,11.9c16.1,3.4,32.3,6.7,48.4,9.7c29,5.4,58.2,10,87.6,12.2c14.8,1.1,29.6,1.6,44.5,1.3
		c11.1-0.3,22.9-0.9,32.7-6.8c20.1-12.1,20.1-42.3,21.1-62.9c1.1-21.8,3.6-54.1-15.1-69.8c-9.6-8.1-22.8-10-34.7-12
		c-15.5-2.6-31-4.7-46.6-6.6c-36.4-4.4-73-7.8-109.2-14c-7.7-1.3-11,10.4-3.2,11.8c46.1,7.9,92.8,11.2,139.1,18
		c20.6,3,49.1,3.2,55.4,27.4c5.7,21.8,3.1,48.6-0.3,70.6c-1.6,10.5-3.9,22.4-14.2,27.8c-10,5.3-23.4,4.3-34.3,4.3
		c-22.6,0-45.3-1.8-67.7-4.7c-24.3-3.1-48.5-7.6-72.5-12.4c-10.7-2.1-21.5-4.2-32.2-6.6c-14.7-3.3-20.4-10-21.4-25.1
		c-1.5-23.1-1.3-49.6,5.2-72c3-10.3,7.9-20.3,18.2-25c9.4-4.3,22-5.8,31.5-1.1C213.4,66,219.6,55.5,212.5,52L212.5,52z"/>
	<path class="st3" d="M163.1,186.6c-18.9,5.3-26.9,23.7-31.1,41.3c-6.8,28.5-11.7,57.9-16,86.8c-4.3,29.1-7.4,58.4-7.2,87.8
		c0.1,10.8,0.1,22.8,7.3,31.6c7,8.5,18.8,12.9,29,16.2c28.4,9.1,59.7,12,89.2,16.2c28.8,4.1,57.9,8.5,86.9,10.3
		c20,1.2,41.6-2.3,50.9-22.3c5.1-11.1,7-24.2,9.3-36.1c2.9-15.1,5-30.3,6.7-45.5c3.7-34.2,4.5-68.6,4.8-103
		c0.1-17.8,5.9-63.8-25-59.9c-7.7,1-7.8,13.2,0,12.2c16.1-2.1,12.9,23.8,12.8,33.6c-0.1,11.7-0.1,23.5-0.3,35.2
		c-0.4,24.2-1.3,48.4-3.6,72.6c-2.2,24.3-5.8,48.4-11.6,72.1c-2.9,11.9-6.8,22.8-19.4,27c-8.8,2.9-18.7,2.4-27.9,1.6
		c-48.1-3.9-96.4-11.1-143.9-19.8c-11.2-2.1-22.5-4.3-33-8.7c-15-6.3-19.7-14.7-19.9-30.9c-0.3-23.4,1.5-46.8,4.4-70
		c3.4-27.4,8.6-54.6,13.9-81.6c3.5-18,5.7-49,27.1-55C173.9,196.3,170.7,184.5,163.1,186.6L163.1,186.6z"/>
	<path class="st3" d="M196.9,59c-6.7,52.2-13.3,104.5-20,156.7c-6.7,52.2-14.8,104.4-20,156.7c-1.2,11.9-0.3,29.1,13,34.1
		c17,6.4,27.4-11.5,29.9-25.4c8.9-49.5,13.4-100.3,18.3-150.3c5.7-58,9.7-116.2,12.2-174.4c0.3-7.9-11.9-7.8-12.2,0
		c-3.8,88.5-11.2,176.9-22.4,264.8c-1.4,11.3-2.9,22.7-4.5,34c-1.3,9.8-1.7,20.4-4.8,29.9c-2.8,8.3-14.7,12.1-17.1,2.2
		c-0.9-3.9-0.8-8.1-0.5-12c0.8-10.6,2.6-21.3,4-31.9c5.6-44.2,11.3-88.4,16.9-132.6c6.5-50.6,12.9-101.3,19.4-151.9
		C210.1,51.2,197.8,51.3,196.9,59L196.9,59z"/>
	<path class="st3" d="M330.1,79.3c-13,99.6-21.3,199.8-24.7,300.2c-0.2,6.4-0.4,12.7-0.6,19.1c-0.1,4.6-1.9,11.7-0.1,16
		c2,5.2,8.8,7.3,14,7.3c16-0.1,23.4-15.4,25.5-29.1c7.3-48,10.2-97.1,14.1-145.4c4.6-57.4,8.2-114.9,10.7-172.5
		c0.3-7.9-11.9-7.8-12.2,0c-2.5,57.6-6.1,115.1-10.7,172.5c-2.3,27.9-4.8,55.8-7.5,83.7c-1.4,14.3-2.9,28.7-4.5,43
		c-0.9,8.4-3,45.5-20.5,33.6c1,1.8,2,3.5,3,5.3c2.7-111.6,11.3-223,25.7-333.7C343.3,71.6,331.1,71.6,330.1,79.3L330.1,79.3z"/>
	<path class="st3" d="M239,57.2c-0.1-4.3-0.7-9.8,0.9-13.9c3.5-8.8,11.6-8.6,19.7-8.9c11.7-0.4,23.6,0.1,35.3,1.1
		c10.9,0.9,22,2.2,32.4,5.9c8,2.8,12.9,4.5,14.7,13.5c1.2,6.2,0.9,13.1,1.3,19.4c3.1-1.8,6.1-3.5,9.2-5.3c-1.3-0.7-2.5-1.5-3.8-2.2
		c-6.8-4-12.9,6.6-6.2,10.5c1.3,0.7,2.5,1.5,3.8,2.2c3.8,2.2,9.5-0.6,9.2-5.3c-0.9-14.6,1.4-30.8-12.7-39.3
		c-14.1-8.4-31.7-10.3-47.8-11.7c-15.9-1.4-39.2-5.2-54.3,1.7c-12.7,5.8-14.1,19.9-13.8,32.2C227,65.1,239.2,65.1,239,57.2L239,57.2
		z"/>
	<path class="st3" d="M253.1,60.3c0.6-4.5,1.1-9,1.7-13.5c-2,2-4.1,4.1-6.1,6.1c8.1-0.8,77.5-7.8,73,9.8c-2,7.6,9.8,10.9,11.8,3.2
		c9.8-38-66.8-27.1-84.7-25.2c-3.6,0.4-5.6,2.5-6.1,6.1c-0.6,4.5-1.1,9-1.7,13.5C239.9,68.1,252.1,68,253.1,60.3L253.1,60.3z"/>
	<path class="st3" d="M213.6,337.9c-1.3,12-2.7,24-4,36c-0.4,3.6,3.1,5.7,6.1,6.1c12.3,1.5,24.5,3.1,36.8,4.6
		c10.4,1.3,22.7,4.8,33.2,4c5.3-0.4,7.9-2.6,9.1-7.8c2.4-10.6,0.4-24.1,0.5-35c0-3.5-2.8-5.8-6.1-6.1c-23.2-1.9-46.1-7-69.4-7.9
		c-7.9-0.3-7.8,11.9,0,12.2c23.3,0.9,46.2,6.1,69.4,7.9c-2-2-4.1-4.1-6.1-6.1c-0.1,8-2,18.5-0.2,26.2c1.2,5.4,2.5,3.6-2.8,3.8
		c-4.2,0.2-9.6-1.2-13.8-1.7c-16.8-2.1-33.7-4.2-50.5-6.3c2,2,4.1,4.1,6.1,6.1c1.3-12,2.7-24,4-36
		C226.7,330.1,214.4,330.2,213.6,337.9L213.6,337.9z"/>
	<path class="st3" d="M389.5,271.6c6.3,0.7,12.9,1,19.1,2.2c9.3,1.8,8.4,2.6,8.1,11.9c-0.3,6.4-0.5,12.8-0.8,19.1
		c-0.2,5.6,1.2,17.3-2.2,21.8c1.8-1,3.5-2,5.3-3c-9.3,1-19.6-0.9-29-1.7c-7.8-0.6-7.8,11.6,0,12.2c8.9,0.7,25.9,5.7,33.3-0.1
		c8.3-6.5,4.8-27.6,5.2-36.4c0.3-8.5,4.5-24.5-2.2-31.5c-2.9-3-6.4-3.2-10.4-3.7c-8.7-1.2-17.5-2-26.2-3
		C381.7,258.5,381.8,270.7,389.5,271.6L389.5,271.6z"/>
	<path class="st3" d="M410.8,335.9c4,24.6,6.8,50.9,4.2,75.8c-1.4,12.9-5.6,27.4-17.4,34.7c-10.5,6.5-24.3,4.7-36,6.1
		c-7.7,0.9-7.8,13.1,0,12.2c13.6-1.6,28.2-0.2,40.6-6.9c10.3-5.6,17.3-15.8,21.1-26.7c5.2-14.8,4.8-31.4,4.4-46.8
		c-0.5-17.3-2.3-34.5-5.1-51.7C421.3,324.9,409.5,328.2,410.8,335.9L410.8,335.9z"/>
	<path class="st3" d="M134.8,229.7c-7.3-0.9-14.6-1.7-21.8-2.6c-4.5-0.5-10.8-2.4-15.2-0.9c-10.6,3.5-10.2,22.9-11.8,31.2
		c-1.8,9-10.1,29.1-3,37.3c3.2,3.6,9,3.8,13.5,4.4c7.4,1.1,14.7,2.1,22.1,3.2c7.7,1.2,11-10.6,3.2-11.8c-7.7-1.2-18.5-0.7-25.6-3.8
		c-3.9,0.5-4.8-1.2-2.5-5.1c0.5-2.4,0.9-4.7,1.4-7.1c1.1-5.5,2.1-11,3.2-16.5c0.9-4.7,1.7-9.4,2.7-14.1c1.7-7.2,1.3-6.2,8.4-5.4
		c8.5,1,17,2,25.5,3C142.6,242.8,142.5,230.6,134.8,229.7L134.8,229.7z"/>
	<path class="st3" d="M82.9,294.4c-12.9,31-23.8,62.3-18.9,96.2c1.7,11.6,6.2,22.8,15.4,30.5c10.3,8.6,24.3,10.4,36.5,15
		c7.4,2.7,10.6-9.1,3.2-11.8c-10.4-3.8-22.9-5.2-31.6-12.4c-10.9-9-12.2-23.4-13.1-36.6c-1.8-25.9,10.4-54,20.1-77.5
		C97.7,290.4,85.9,287.3,82.9,294.4L82.9,294.4z"/>
</g>
</svg>
