<?xml version="1.0" encoding="utf-8"?>
<!-- Generator: Adobe Illustrator 27.0.0, SVG Export Plug-In . SVG Version: 6.00 Build 0)  -->
<svg version="1.1" id="Layer_1" xmlns="http://www.w3.org/2000/svg" xmlns:xlink="http://www.w3.org/1999/xlink" x="0px" y="0px"
	 viewBox="0 0 421 500" style="enable-background:new 0 0 421 500;" xml:space="preserve">
<style type="text/css">
	.st0{fill:#010101;}
	.st1{fill:#FFFFFF;}
	.st2{fill:#006C48;}
	.st3{fill:#2DB674;}
	.st4{fill:#EF4237;}
	.st5{fill:#DAC0A1;}
	.st6{fill:#DCDDDE;}
	.st7{fill:#FAAB57;}
</style>
<polygon class="st0" points="27.3,335.3 27.3,368.9 51.3,335.3 81.4,335.3 54.2,370.1 81.4,409.9 53.1,409.9 27.3,371.1 27.3,409.9 
	2,409.9 2,335.3 "/>
<path class="st0" d="M119.6,379.7c-0.3-2.4-1.2-4.3-2.8-5.7c-1.6-1.4-3.7-2.1-6.3-2.1c-2.8,0-5.1,0.9-6.9,2.7
	c-1.8,1.8-2.9,4.2-3.2,7.2L119.6,379.7z M86.9,404.7c-6.5-4.7-9.8-11.9-9.8-21.5c0-5.9,1.3-11,4-15.3c2.7-4.3,6.4-7.6,11.4-9.9
	c4.9-2.3,10.7-3.5,17.4-3.5c9.8,0,17.4,2.3,22.9,6.8c5.4,4.5,8.2,10.9,8.2,19c0,3.1-0.3,5.4-1,6.9h-39.4c1.2,5.2,5.5,7.8,13,7.8
	c2.8,0,5.6-0.4,8.6-1.1c3-0.7,5.6-1.8,7.9-3l1.1,17.6c-2.5,1-5.4,1.8-8.8,2.4c-3.4,0.6-6.8,0.9-10.2,0.9
	C101.8,411.7,93.4,409.4,86.9,404.7"/>
<path class="st0" d="M187.1,379.7c-0.3-2.4-1.2-4.3-2.8-5.7c-1.6-1.4-3.7-2.1-6.3-2.1c-2.8,0-5.1,0.9-6.9,2.7
	c-1.8,1.8-2.9,4.2-3.2,7.2L187.1,379.7z M154.5,404.7c-6.5-4.7-9.8-11.9-9.8-21.5c0-5.9,1.3-11,4-15.3c2.7-4.3,6.4-7.6,11.4-9.9
	c4.9-2.3,10.7-3.5,17.4-3.5c9.8,0,17.4,2.3,22.9,6.8c5.4,4.5,8.2,10.9,8.2,19c0,3.1-0.3,5.4-1,6.9h-39.4c1.2,5.2,5.5,7.8,13,7.8
	c2.8,0,5.6-0.4,8.6-1.1c3-0.7,5.6-1.8,7.9-3l1.1,17.6c-2.5,1-5.4,1.8-8.8,2.4c-3.4,0.6-6.8,0.9-10.2,0.9
	C169.3,411.7,161,409.4,154.5,404.7"/>
<path class="st0" d="M239.4,390.8c2.1,1.8,4.9,2.8,8.5,2.8c3.3,0,5.8-0.9,7.5-2.7c1.7-1.8,2.6-4.4,2.6-7.7c0-3.3-0.9-5.9-2.7-7.7
	c-1.8-1.8-4.3-2.7-7.6-2.7c-3.6,0-6.4,0.9-8.5,2.7c-2,1.8-3,4.4-3,7.7C236.3,386.4,237.3,389,239.4,390.8 M212.8,356.3h15.7
	l6.4,20.8h0.6c0.4-7,2.3-12.6,5.9-16.6c3.6-4,8.5-6,14.9-6c7.8,0,13.9,2.5,18.2,7.5c4.3,5,6.4,12.1,6.4,21.2c0,9.1-2,16.1-6.1,21.1
	c-4.1,5-9.9,7.5-17.3,7.5c-6.5,0-11.6-2.1-15.4-6.2c-3.8-4.2-6-10-6.4-17.6h-1l1,17.7v22.1h-22.8V356.3z"/>
<rect x="295.7" y="335.3" class="st0" width="25.3" height="74.6"/>
<polygon class="st0" points="349.5,355.6 325.6,355.6 325.6,335.3 399.1,335.3 399.1,355.6 374.8,355.6 374.8,409.9 349.5,409.9 "/>
<path class="st0" d="M63.2,475.4c2.5,3.2,5.8,4.7,10.2,4.7c3.3,0,5.9-0.7,7.9-2.1c2-1.4,3.3-3.5,3.7-6.2H74.1v-15.9h37.3v42.5H96.3
	l-8.5-26.6h-0.4c-0.1,9.2-2.2,16.3-6.4,21.2c-4.2,4.9-10.2,7.3-17.9,7.3c-6,0-11.2-1.5-15.7-4.5c-4.5-3-7.9-7.3-10.4-12.8
	c-2.5-5.6-3.7-12.2-3.7-20c0-8.6,1.9-15.9,5.7-22.1c3.8-6.1,9.3-10.8,16.5-14s15.8-4.8,25.9-4.8c4.8,0,9.7,0.4,14.6,1.2
	c4.9,0.8,9.2,1.9,12.8,3.4l-1.6,21.4c-3.7-1.6-7.8-2.9-12.4-3.8c-4.6-0.9-9.2-1.4-13.7-1.4c-6.9,0-12.2,1.7-15.9,5
	c-3.7,3.3-5.6,8.1-5.6,14.3C59.5,467.8,60.8,472.2,63.2,475.4"/>
<path class="st0" d="M133.9,444.9l6.7,22.2h0.4c-0.1-6.8,1-12.5,3.2-17.1c2.2-4.5,6-6.8,11.4-6.8c2.9,0,5.8,0.5,8.7,1.6l-1.1,21.8
	c-4.5-1.8-8.4-2.8-11.5-2.8c-7.1,0-10.7,4.7-10.7,14.1v20.6h-22.8v-53.6H133.9z"/>
<path class="st0" d="M209.2,468.3c-0.3-2.4-1.2-4.3-2.8-5.7c-1.6-1.4-3.7-2.1-6.3-2.1c-2.8,0-5.1,0.9-6.9,2.7
	c-1.8,1.8-2.9,4.2-3.2,7.2L209.2,468.3z M176.5,493.2c-6.5-4.7-9.8-11.9-9.8-21.5c0-5.9,1.3-11,4-15.3c2.7-4.3,6.4-7.6,11.4-9.9
	c4.9-2.3,10.7-3.5,17.4-3.5c9.8,0,17.4,2.3,22.9,6.8c5.4,4.5,8.2,10.9,8.2,19c0,3.1-0.3,5.4-1,6.9h-39.4c1.2,5.2,5.5,7.8,13,7.8
	c2.8,0,5.6-0.4,8.6-1.1c3-0.7,5.6-1.8,7.9-3l1.1,17.6c-2.5,1-5.4,1.8-8.8,2.4c-3.4,0.6-6.8,0.9-10.2,0.9
	C191.4,500.3,183,497.9,176.5,493.2"/>
<path class="st0" d="M276.8,468.3c-0.3-2.4-1.2-4.3-2.8-5.7c-1.6-1.4-3.7-2.1-6.3-2.1c-2.8,0-5.1,0.9-6.9,2.7
	c-1.8,1.8-2.9,4.2-3.2,7.2L276.8,468.3z M244.1,493.2c-6.5-4.7-9.8-11.9-9.8-21.5c0-5.9,1.3-11,4-15.3c2.7-4.3,6.4-7.6,11.4-9.9
	c4.9-2.3,10.7-3.5,17.4-3.5c9.8,0,17.4,2.3,22.9,6.8c5.4,4.5,8.2,10.9,8.2,19c0,3.1-0.3,5.4-1,6.9h-39.4c1.2,5.2,5.5,7.8,13,7.8
	c2.8,0,5.6-0.4,8.6-1.1c3-0.7,5.6-1.8,7.9-3l1.1,17.6c-2.5,1-5.4,1.8-8.8,2.4c-3.4,0.6-6.8,0.9-10.2,0.9
	C259,500.3,250.6,497.9,244.1,493.2"/>
<path class="st0" d="M318.1,444.9l6.6,21.5h0.5c0-6.5,1.7-12.1,5.2-16.6c3.4-4.5,8.8-6.8,16.1-6.8c6.5,0,11.7,2.1,15.5,6.4
	c3.8,4.3,5.7,10.2,5.7,17.7v31.3H345v-28.7c0-2.8-0.7-5-2.2-6.4c-1.5-1.5-3.7-2.2-6.5-2.2c-3.5,0-6.2,1.3-8.1,3.9
	c-1.9,2.6-2.9,5.8-2.9,9.4v24h-22.8v-53.6H318.1z"/>
<path class="st1" d="M85.2,178.8C85.3,178.8,85.3,178.8,85.2,178.8C85.3,178.8,85.3,178.8,85.2,178.8"/>
<path class="st1" d="M88,178.9c0.2,0,0.4,0,0.7,0C88.4,178.9,88.2,178.9,88,178.9"/>
<path class="st1" d="M60.9,218.9c-0.6,1-1.1,2.1-1.5,3.3C59.8,221,60.3,219.9,60.9,218.9"/>
<path class="st1" d="M112.2,237.4c-0.7-0.2-1.3,0.2-1.6,0.8C110.9,237.6,111.5,237.2,112.2,237.4c0.7,0.2,1.2,0.9,1,1.7c0,0,0,0,0,0
	C113.4,238.3,112.9,237.6,112.2,237.4"/>
<path class="st1" d="M91.9,179.1c-0.3,0-0.6,0-0.9-0.1C91.3,179.1,91.6,179.1,91.9,179.1L91.9,179.1z"/>
<path class="st1" d="M55.3,228.6C55.3,228.6,55.3,228.6,55.3,228.6l-0.9,0.9L55.3,228.6C55.3,228.6,55.3,228.6,55.3,228.6"/>
<path class="st1" d="M118.1,228.6c0.1,0.1,0.2,0.3,0.3,0.4C118.3,228.9,118.2,228.8,118.1,228.6c-0.5-0.5-1.4-0.5-1.9,0l-1.7,1.7
	l1.7-1.7C116.7,228.1,117.5,228.1,118.1,228.6"/>
<path class="st1" d="M129.2,255.3c-0.1,0.1-0.1,0.3-0.2,0.4C129.1,255.5,129.1,255.4,129.2,255.3"/>
<path class="st1" d="M117.2,189.4c0.2,0.1,0.3,0.3,0.5,0.4C117.5,189.6,117.4,189.5,117.2,189.4"/>
<path class="st1" d="M51.8,235.3c-0.3,0-0.7-0.1-1-0.4c-0.1-0.1-0.2-0.3-0.3-0.4c0.1,0.2,0.2,0.3,0.3,0.5c0.5,0.5,1.4,0.5,1.9,0
	l1.8-1.8l-1.8,1.8C52.5,235.2,52.2,235.3,51.8,235.3"/>
<path class="st1" d="M119.2,191c0,0,0.1,0.1,0.1,0.1C119.3,191.1,119.2,191,119.2,191"/>
<path class="st1" d="M113.2,235.2c0.2-0.1,0.3-0.2,0.4-0.3l1.5-1.5l-1.5,1.5C113.6,235.1,113.4,235.2,113.2,235.2"/>
<path class="st1" d="M107.4,228.6c0.5-0.5,1.4-0.5,1.9,0l0.9,0.9l-0.9-0.9C108.8,228.1,107.9,228.1,107.4,228.6
	c-0.4,0.4-0.5,1-0.3,1.5C106.9,229.6,107,229,107.4,228.6"/>
<path class="st1" d="M112.6,235.3c0.1,0,0.1,0,0.2,0c0,0,0.1,0,0.1,0c0,0-0.1,0-0.1,0C112.7,235.3,112.6,235.3,112.6,235.3"/>
<path class="st1" d="M108.3,231.5l3.4,3.4c0.1,0.1,0.3,0.2,0.4,0.3c-0.2-0.1-0.3-0.2-0.4-0.3L108.3,231.5z"/>
<path class="st1" d="M113,239.7c-0.2,0.6-0.3,1.2-0.5,1.7C112.7,240.9,112.8,240.3,113,239.7"/>
<path class="st1" d="M84.5,202.2L84.5,202.2c15.8,0,28.8,12.5,29.5,28.1C113.2,214.6,100.3,202.2,84.5,202.2"/>
<path class="st1" d="M60.9,218.8c4.6-8.5,13.6-14,23.6-14C74.5,204.9,65.5,210.4,60.9,218.8"/>
<path class="st1" d="M55.8,224.5c0.7-2.9,1.9-5.5,3.4-8C57.6,218.9,56.5,221.6,55.8,224.5c-0.1,0.5,0.1,1.1,0.5,1.4
	C55.8,225.6,55.6,225,55.8,224.5"/>
<path class="st1" d="M59,223c-0.1,0.2-0.1,0.5-0.2,0.7C58.9,223.4,59,223.2,59,223"/>
<path class="st1" d="M110.9,227.2c0.2,1.1,0.4,2.3,0.4,3.5C111.3,229.5,111.1,228.3,110.9,227.2"/>
<path class="st1" d="M130.3,253.3C130.3,253.4,130.3,253.4,130.3,253.3C130.3,253.4,130.3,253.4,130.3,253.3"/>
<path class="st1" d="M115.2,275.4l12.3-17.6c0-0.1,0.1-0.1,0.1-0.2c0,0.1-0.1,0.1-0.1,0.2L115.2,275.4z"/>
<path class="st1" d="M59.6,234.9l-2-2c0.6,14.3,12.4,25.8,26.8,25.8c-14.4,0-26.2-11.5-26.8-25.8L59.6,234.9c0.3,0.3,0.6,0.4,1,0.4
	c0.3,0,0.7-0.1,1-0.4c0.1-0.1,0.2-0.3,0.3-0.4c-0.1,0.2-0.2,0.3-0.3,0.4C61,235.5,60.2,235.5,59.6,234.9"/>
<path class="st1" d="M84.5,261.4c1.7,0,3.4-0.1,5-0.4C87.8,261.3,86.2,261.4,84.5,261.4z"/>
<path class="st1" d="M59.4,230.8l-2.2-2.2c0,0,0,0-0.1,0c0,0,0,0,0.1,0L59.4,230.8z"/>
<path class="st1" d="M115.8,188.3c-0.2-0.2-0.4-0.3-0.7-0.5c-4.2-2.9-8.7-5.1-13.3-6.6h0c4.6,1.5,9.1,3.7,13.3,6.6
	C115.4,188,115.6,188.2,115.8,188.3"/>
<polygon class="st1" points="98.8,299 98.8,299 57.6,270.2 "/>
<path class="st1" d="M118.8,186.8c-0.3-0.1-0.5-0.2-0.7-0.4C118.3,186.6,118.6,186.7,118.8,186.8"/>
<path class="st1" d="M113.3,181.1c-0.1,0.1-0.2,0.2-0.4,0.3c0.6,1.1,1.4,2.2,2.4,3.1c-1-0.9-1.8-2-2.4-3.1
	C113.1,181.3,113.2,181.2,113.3,181.1"/>
<path class="st1" d="M133.5,182.7c-0.2,0.3-0.5,0.6-0.7,0.9C133,183.3,133.3,183,133.5,182.7"/>
<path class="st1" d="M132.6,183.7c-0.2,0.3-0.5,0.5-0.7,0.7C132.2,184.3,132.4,184,132.6,183.7"/>
<path class="st1" d="M121.5,173.2C121.5,173.2,121.6,173.2,121.5,173.2c0.9-0.6,1.5-1.3,2.1-2.1
	C123.1,171.9,122.4,172.6,121.5,173.2C121.6,173.2,121.5,173.2,121.5,173.2"/>
<polygon class="st1" points="134.5,181.2 136.6,178.3 124.4,169.8 136.6,178.3 "/>
<path class="st1" d="M119,186.9c2.1,0.9,4.4,1.1,6.7,0.7c2.4-0.4,4.5-1.5,6.2-3.1C128.5,187.8,123.4,188.7,119,186.9"/>
<path class="st1" d="M117.7,186.3c-0.2-0.1-0.4-0.2-0.6-0.3C117.4,186,117.6,186.2,117.7,186.3"/>
<path class="st1" d="M114,180.5c0,0-0.1,0.1-0.1,0.1C114,180.5,114,180.5,114,180.5"/>
<path class="st1" d="M116.2,185.2c-0.2-0.2-0.4-0.3-0.6-0.5C115.8,184.9,116,185,116.2,185.2"/>
<path class="st1" d="M116.3,174.7l-0.2,0.8L116.3,174.7L116.3,174.7z M116.3,174.7L116.3,174.7L116.3,174.7z"/>
<path class="st1" d="M170.5,234.1l-15.2,39.7L170.5,234.1z"/>
<polygon class="st1" points="153.9,277.6 129.1,342.5 129.1,342.5 "/>
<rect x="154.6" y="273.7" class="st1" width="0" height="4"/>
<path class="st1" d="M155.9,336.2c0,0-0.1,0-0.1-0.1C155.8,336.2,155.9,336.2,155.9,336.2"/>
<polygon class="st1" points="179.7,361.8 175.9,347.2 179.7,361.8 "/>
<polygon class="st1" points="176.7,217.9 176.7,217.9 217.3,228.4 "/>
<path class="st1" d="M175.1,340.3l42.2-111.9L175.1,340.3z"/>
<path class="st1" d="M155.7,334.2c0.3-0.3,0.8-0.4,1.2-0.4C156.5,333.7,156.1,333.9,155.7,334.2"/>
<path class="st1" d="M155.7,336.1c-0.2-0.2-0.4-0.5-0.4-0.9C155.4,335.5,155.5,335.9,155.7,336.1"/>
<path class="st1" d="M276.4,199.3c-0.3-0.2-0.5-0.4-0.8-0.6C275.9,198.9,276.2,199.1,276.4,199.3z"/>
<path class="st1" d="M148.2,185.7l3.4-15.1L148.2,185.7c-0.6,3-0.6,6-0.1,8.7C147.7,191.7,147.7,188.8,148.2,185.7"/>
<path class="st1" d="M148.3,195.5c-0.1-0.3-0.2-0.7-0.2-1C148.2,194.9,148.3,195.2,148.3,195.5"/>
<path class="st1" d="M234.9,299.3c0.2-0.7,0.9-1,1.6-0.9C235.9,298.3,235.2,298.7,234.9,299.3"/>
<polygon class="st1" points="260.2,322.9 260.2,322.9 214.7,307.5 "/>
<path class="st1" d="M282,205.9c2.8,5.1,3.3,11.2,1.4,16.7l-12,33.8l12-33.8C285.3,217.1,284.8,211,282,205.9
	c-1.4-2.6-3.3-4.8-5.6-6.6C278.7,201.1,280.6,203.3,282,205.9"/>
<path class="st1" d="M235.1,230.3c0.3,0.1,0.5,0.3,0.6,0.6c0.1,0.1,0.1,0.3,0.1,0.4c0-0.1,0-0.3-0.1-0.4
	C235.6,230.6,235.3,230.4,235.1,230.3"/>
<path class="st1" d="M235.4,300.8C235.4,300.8,235.4,300.8,235.4,300.8C235.4,300.8,235.4,300.8,235.4,300.8"/>
<polygon class="st1" points="254.5,304.1 254.5,304.1 242.6,300.3 "/>
<path class="st1" d="M211,178.8c0,0.1-0.1,0.2-0.1,0.3C210.9,179,211,178.9,211,178.8c0.3-0.5,0.9-0.8,1.5-0.7l21.6,5.6v0l-21.6-5.6
	C211.9,177.9,211.3,178.3,211,178.8"/>
<path class="st1" d="M235.3,300.8c-0.2-0.2-0.4-0.5-0.4-0.9C234.9,300.2,235.1,300.5,235.3,300.8"/>
<polygon class="st1" points="219.6,226.2 220,226.3 219.6,226.2 219.3,226.2 "/>
<path class="st1" d="M234.9,299.8c0-0.1,0-0.3,0-0.5v0C234.9,299.5,234.9,299.7,234.9,299.8"/>
<polygon class="st1" points="307.9,84.3 308.5,84.9 308.5,84.9 308.5,84.9 "/>
<polygon class="st1" points="291.8,101.2 283.8,109.9 283.8,109.9 "/>
<path class="st1" d="M277,147.5c-4.1-0.5-7.8-3-9.8-6.6l-10.3-18.6l0,0l10.3,18.6C269.2,144.5,272.9,147,277,147.5
	c3.2,0.4,6.4-0.5,9-2.3C283.4,147,280.2,147.9,277,147.5"/>
<path class="st1" d="M280.3,111.1c0.2,0.4,0.6,0.6,1,0.7c0.4,0.1,0.9-0.1,1.2-0.4l1.3-1.4l0,0l-1.3,1.4c-0.3,0.3-0.7,0.5-1.2,0.4
	C280.9,111.7,280.5,111.4,280.3,111.1l-3.7-6.6l-12.4,11.3l12.4-11.3L280.3,111.1z"/>
<polygon class="st1" points="326.6,101.5 326.6,101.5 308.5,84.9 308.5,84.9 "/>
<path class="st1" d="M109.1,99l14.7-6L109.1,99c-1.5,0.6-2.9,1.6-4.1,2.7C106.2,100.5,107.6,99.6,109.1,99"/>
<polygon class="st1" points="92,152.5 94.3,141.7 92,152.5 94.4,153 94.4,153 "/>
<polygon class="st1" points="94.4,153 108.1,155.9 94.4,153 "/>
<polygon class="st1" points="117.3,157.8 123,130.6 117.2,157.8 "/>
<polygon class="st1" points="131.3,89.9 131.3,89.9 132.8,93.5 "/>
<path class="st1" d="M202.2,76.1h2.7v0L202.2,76.1l-34.7,0c-1.2,0-2.3,0.2-3.5,0.5c1.1-0.3,2.3-0.5,3.5-0.5H202.2z"/>
<path class="st1" d="M253.3,76.1c1.8,0,3.5,0.4,5,1C256.8,76.5,255.1,76.1,253.3,76.1l-25.2,0v0H253.3z"/>
<polygon class="st1" points="163.6,114.6 159.5,134.3 163.6,114.6 "/>
<path class="st1" d="M261.1,78.8c0.1,0,0.1,0.1,0.2,0.1C261.2,78.8,261.1,78.8,261.1,78.8"/>
<path class="st1" d="M262.1,79.6c-0.2-0.2-0.4-0.3-0.6-0.5C261.7,79.3,261.9,79.4,262.1,79.6C262.1,79.6,262.1,79.6,262.1,79.6"/>
<rect x="153.6" y="166.8" transform="matrix(0.1915 -0.9815 0.9815 0.1915 -40.6547 286.4992)" class="st1" width="0" height="2.2"/>
<polygon class="st1" points="222.6,76.1 204.9,76.1 204.9,76.1 222.6,76.1 228.1,76.1 228.1,76.1 "/>
<polygon class="st1" points="237.5,167.9 233.7,167.9 195.9,167.9 194.4,167.9 193,167.9 190.8,167.9 154.7,167.9 154.7,167.9 
	190.8,167.9 193,167.9 194.4,167.9 195.9,167.9 233.7,167.9 237.5,167.9 239.9,167.9 239.9,167.9 "/>
<path class="st1" d="M249.6,110.9c-0.4,0.1-0.8,0.4-1,0.7C248.8,111.3,249.1,111,249.6,110.9c0.6-0.1,1.1,0.2,1.4,0.7l4.6,8.3l0,0
	l-4.6-8.3C250.7,111.1,250.1,110.8,249.6,110.9"/>
<path class="st1" d="M132.8,93.5l8.4,20.3L132.8,93.5z"/>
<path class="st1" d="M165.3,106.1c0.1-0.5-0.1-1-0.5-1.3c-0.2-0.2-0.4-0.3-0.7-0.3c0.2,0,0.5,0.1,0.7,0.3
	C165.3,105.1,165.4,105.6,165.3,106.1l-1.8,8.5l0,0L165.3,106.1z"/>
<path class="st1" d="M264.6,82.8l10.6,19.2l0,0L264.6,82.8c-0.7-1.2-1.5-2.3-2.5-3.2l0,0C263.1,80.5,263.9,81.6,264.6,82.8"/>
<path class="st1" d="M196.6,37c0-0.1,0.1-0.1,0.1-0.2C196.7,36.8,196.7,36.9,196.6,37"/>
<path class="st1" d="M197,36.1c0-0.1,0.1-0.1,0.1-0.2C197.1,36,197,36.1,197,36.1"/>
<path class="st1" d="M234.1,29c-2.4-0.8-4.6-2.1-6.4-4c0,0-0.1,0-0.1,0.1c0,0,0.1,0,0.1-0.1C229.5,26.9,231.7,28.2,234.1,29"/>
<path class="st1" d="M231.1,53C231,53,231,53.1,231.1,53C231,53.1,231,53,231.1,53"/>
<path class="st1" d="M225.5,54.2c1.9,0,3.7-0.4,5.4-1.1C229.2,53.8,227.4,54.2,225.5,54.2L225.5,54.2z"/>
<path class="st1" d="M203.4,45c0-0.1-0.1-0.2-0.2-0.2C203.3,44.9,203.4,44.9,203.4,45"/>
<path class="st1" d="M239.7,29.6c-0.3,0-0.6,0-0.9,0C239.1,29.7,239.4,29.7,239.7,29.6L239.7,29.6z"/>
<path class="st1" d="M201.8,44.2C201.8,44.2,201.8,44.2,201.8,44.2c0.1,0,0.2,0,0.2,0c0,0,0,0,0,0C202,44.2,201.8,44.2,201.8,44.2"
	/>
<path class="st1" d="M221.3,55.5v17.9h0L221.3,55.5c0-0.8,0.6-1.4,1.4-1.4h0C221.9,54.2,221.3,54.8,221.3,55.5"/>
<path class="st1" d="M200.6,33.5c0,0-0.1,0-0.1,0c0,0,0,0,0,0C200.5,33.5,200.5,33.5,200.6,33.5C200.6,33.5,200.6,33.5,200.6,33.5"
	/>
<path class="st1" d="M202.8,44.4c0.1,0.1,0.2,0.1,0.3,0.2c0,0,0,0,0,0C203,44.5,202.9,44.4,202.8,44.4"/>
<path class="st1" d="M202.6,44.3c-0.1,0-0.2,0-0.4-0.1C202.4,44.2,202.5,44.2,202.6,44.3"/>
<path class="st1" d="M227.2,4.2c-1.8-1.3-4-2-6.3-2c-1,0-2,0.2-3,0.4C221.1,1.7,224.5,2.3,227.2,4.2"/>
<path class="st1" d="M216.3,3.2c0.5-0.2,1-0.4,1.5-0.6C217.3,2.8,216.8,3,216.3,3.2c-0.4,0.2-0.9,0.2-1.2-0.1
	c-0.2-0.1-0.4-0.2-0.7-0.3c0.2,0.1,0.4,0.2,0.7,0.3C215.4,3.4,215.9,3.4,216.3,3.2"/>
<path class="st1" d="M227.4,4.3c0.4,0.3,0.8,0.6,1.2,1C228.2,4.9,227.8,4.6,227.4,4.3"/>
<polyline class="st1" points="203.3,14.4 203.3,14.4 203.3,14.4 "/>
<path class="st1" d="M238.6,2.2c3.3,0,6.3,1.3,8.5,3.4c0,0,0,0,0,0C244.9,3.5,241.9,2.2,238.6,2.2C238.6,2.2,238.6,2.2,238.6,2.2"/>
<polyline class="st1" points="203,14.5 203,14.5 203,14.5 "/>
<path class="st1" d="M211.3,2.2C211.3,2.2,211.3,2.2,211.3,2.2C211.3,2.2,211.3,2.2,211.3,2.2c-4.3,0-7.7,3.5-7.7,7.7
	c0,0.5,0,0.9,0.1,1.4c-0.1-0.5-0.1-0.9-0.1-1.4C203.5,5.7,207,2.2,211.3,2.2"/>
<path class="st1" d="M195,26.7c0.1,0.2,0.2,0.3,0.3,0.5v0C195.2,27.1,195.1,26.9,195,26.7"/>
<path class="st1" d="M204,12.7c-0.2-0.4-0.3-0.8-0.3-1.2C203.8,11.9,203.9,12.3,204,12.7c0.2,0.4,0.1,0.9-0.2,1.3c0,0,0,0,0,0
	C204.1,13.6,204.2,13.1,204,12.7"/>
<path class="st1" d="M194.6,25.9c-0.1-0.1-0.1-0.2-0.2-0.4C194.5,25.6,194.6,25.7,194.6,25.9"/>
<path class="st1" d="M195.3,27.2c0.1,0.1,0.2,0.3,0.3,0.4C195.5,27.5,195.4,27.4,195.3,27.2L195.3,27.2z"/>
<path class="st1" d="M251,14.6c0,1.2-0.2,2.4-0.5,3.5C250.8,17,251,15.8,251,14.6c0-3.6-1.5-6.8-3.9-9c0,0,0,0,0,0
	C249.5,7.8,251,11,251,14.6"/>
<path class="st1" d="M202.2,30.9c-0.5,0-1-0.1-1.5-0.1C201.2,30.9,201.7,30.9,202.2,30.9C202.2,30.9,202.2,30.9,202.2,30.9
	c0.5,0,0.9,0,1.4-0.1c0,0,0,0,0,0c0,0,0,0,0,0C203.1,30.9,202.6,30.9,202.2,30.9"/>
<path class="st1" d="M215.9,22.8c-0.2-0.1-0.4-0.2-0.5-0.3C215.6,22.7,215.8,22.7,215.9,22.8"/>
<path class="st1" d="M250.4,18.5c-0.1,0.2-0.2,0.4-0.3,0.7C250.2,19,250.3,18.7,250.4,18.5"/>
<path class="st1" d="M214.7,22.1c-0.1-0.1-0.2-0.1-0.2-0.2C214.6,22,214.6,22,214.7,22.1"/>
<path class="st1" d="M241,26.7c-0.1,0-0.1,0-0.2,0C240.9,26.8,241,26.8,241,26.7c0.5-0.1,0.9-0.2,1.4-0.3c1.3-0.4,2.4-1,3.5-1.8
	c-1,0.7-2.2,1.3-3.5,1.7C242,26.5,241.5,26.6,241,26.7"/>
<polyline class="st1" points="213.6,21.2 213.6,21.2 213.6,21.2 "/>
<path class="st1" d="M211,19.8c-0.3,0.1-0.5,0.3-0.6,0.6c0,0.1-0.1,0.2-0.1,0.3c0,0.1,0,0.1,0,0.1c0,0.2,0,0.3,0,0.5
	c0.1,0.5,0.1,0.9,0.1,1.4c0,0.5,0,0.9-0.1,1.4c0,0.1,0,0.1,0,0.2c-0.1,0.4-0.2,0.8-0.3,1.2c0,0.1,0,0.1-0.1,0.2
	c-0.2,0.4-0.3,0.8-0.5,1.1c0,0.1-0.1,0.1-0.1,0.2c-0.2,0.4-0.5,0.7-0.7,1c0,0-0.1,0.1-0.1,0.1c1.3-1.4,2-3.3,2-5.4
	c0-0.4,0-0.9-0.1-1.4c-0.1-0.3,0-0.6,0.2-0.9C210.5,20.1,210.7,20,211,19.8c0.1-0.1,0.3-0.1,0.4-0.1C211.3,19.7,211.1,19.8,211,19.8
	"/>
<path class="st1" d="M249.6,20.3C249.6,20.4,249.6,20.4,249.6,20.3C249.6,20.4,249.6,20.4,249.6,20.3"/>
<path class="st1" d="M205,30.4C204.9,30.4,204.9,30.4,205,30.4C204.9,30.4,204.9,30.4,205,30.4"/>
<path class="st1" d="M235.2,26.5c1.1,0.3,2.3,0.5,3.5,0.5c0.1,0,0.3,0,0.4,0c-0.1,0-0.2,0-0.4,0C237.4,27,236.3,26.8,235.2,26.5"/>
<path class="st1" d="M219.8,24c-0.1,0-0.2,0-0.4-0.1c-0.3,0-0.5-0.1-0.8-0.1c-0.1,0-0.3-0.1-0.4-0.1c-0.2-0.1-0.5-0.1-0.7-0.2
	c-0.1,0-0.3-0.1-0.4-0.2c-0.2-0.1-0.4-0.2-0.7-0.3c0,0-0.1,0-0.1,0c1.4,0.7,3,1.1,4.6,1.1c1.9,0,3.7-0.5,5.4-1.4
	c-1.6,0.9-3.5,1.4-5.4,1.4C220.6,24.1,220.2,24.1,219.8,24"/>
<path class="st1" d="M195.8,27.8c1.2,1.4,2.8,2.5,4.6,2.9c0,0,0.1,0,0.1,0c0,0-0.1,0-0.1,0C198.5,30.3,196.9,29.3,195.8,27.8"/>
<path class="st1" d="M206.3,29.8C206.2,29.8,206.2,29.8,206.3,29.8C206.2,29.8,206.2,29.8,206.3,29.8"/>
<polyline class="st1" points="89.6,175.4 89.6,175.4 89.6,175.4 "/>
<path class="st1" d="M89.1,175C89,175,89,175,89.1,175C89,175,89,175,89.1,175"/>
<path class="st1" d="M88,172.9C88,172.9,88,172.9,88,172.9C88,172.9,88,172.9,88,172.9"/>
<path class="st1" d="M87.9,172.2C87.9,172.1,87.9,172.1,87.9,172.2C87.9,172.1,87.9,172.1,87.9,172.2"/>
<polygon class="st1" points="93.8,155.7 93.8,155.7 91.4,155.2 "/>
<path class="st1" d="M113.9,172.9c0-0.1,0.1-0.3,0.2-0.4C114,172.6,114,172.7,113.9,172.9"/>
<path class="st1" d="M89.6,175.4c0,0,0.1,0.1,0.1,0.1C89.6,175.5,89.6,175.5,89.6,175.4"/>
<path class="st1" d="M111.9,178.8C111.9,178.8,111.9,178.8,111.9,178.8c-0.1,0.1-0.2,0.1-0.2,0.2
	C111.8,178.9,111.9,178.8,111.9,178.8"/>
<path class="st1" d="M112.7,177.8c-0.2,0.3-0.4,0.7-0.7,0.9C112.2,178.5,112.5,178.2,112.7,177.8"/>
<path class="st1" d="M90.4,175.9c-0.1,0-0.1-0.1-0.2-0.1C90.3,175.9,90.3,175.9,90.4,175.9"/>
<path class="st1" d="M121.9,168.7c0.1-0.2,0.2-0.3,0.2-0.5c0.1-0.3,0.2-0.6,0.2-0.9c-0.1,0.3-0.1,0.6-0.2,0.9
	C122,168.4,121.9,168.5,121.9,168.7"/>
<path class="st1" d="M120,171c-0.2,0.1-0.4,0.3-0.6,0.4C119.6,171.2,119.8,171.1,120,171c0.7-0.5,1.3-1.1,1.7-1.9
	C121.3,169.8,120.7,170.5,120,171"/>
<path class="st1" d="M114.4,172.1c0.1-0.1,0.2-0.1,0.4-0.2C114.7,172,114.6,172,114.4,172.1C114.5,172.1,114.5,172.1,114.4,172.1"/>
<path class="st1" d="M115.6,171.9c0.7,0.1,1.5,0.1,2.2,0C117.1,172.1,116.4,172.1,115.6,171.9"/>
<path class="st1" d="M115,171.9c0.2,0,0.4,0,0.5,0C115.3,171.9,115.2,171.9,115,171.9"/>
<path class="st1" d="M122.3,167L122.3,167c0-0.1,0-0.2,0-0.3c0-0.3,0-0.6,0-0.9c0,0.3,0,0.6,0,0.9
	C122.3,166.8,122.3,166.9,122.3,167"/>
<path class="st1" d="M122.3,165.7c0-0.3-0.1-0.5-0.1-0.8c-0.2-0.8-0.6-1.5-1.1-2.1c0.5,0.6,0.9,1.3,1.1,2.1
	C122.2,165.2,122.3,165.5,122.3,165.7"/>
<path class="st1" d="M113.1,176.7c-0.1,0.4-0.2,0.8-0.4,1.1C112.9,177.4,113,177.1,113.1,176.7"/>
<polygon class="st1" points="93.8,155.7 97,156.4 93.8,155.7 "/>
<path class="st1" d="M307.4,79.6C307.4,79.6,307.4,79.6,307.4,79.6C307.4,79.6,307.4,79.6,307.4,79.6"/>
<path class="st1" d="M306.8,76.6c0-0.2,0.1-0.3,0.1-0.5C306.8,76.2,306.8,76.4,306.8,76.6"/>
<path class="st1" d="M307,78.6C307,78.6,307,78.6,307,78.6C307,78.6,307,78.6,307,78.6"/>
<path class="st1" d="M306.8,77.6c0-0.1,0-0.1,0-0.2C306.8,77.5,306.8,77.6,306.8,77.6"/>
<path class="st1" d="M311.8,71.4C311.8,71.4,311.9,71.4,311.8,71.4C311.9,71.4,311.8,71.4,311.8,71.4c-1.6,0.2-3,1-4,2.3
	c-0.4,0.6-0.7,1.2-0.9,1.9c0.2-0.7,0.5-1.3,0.9-1.9C308.8,72.4,310.2,71.6,311.8,71.4"/>
<path class="st1" d="M327.8,70.9l-1.4-1.2c-0.8-0.7-1.8-1.1-2.8-1.1c1,0,2,0.4,2.8,1.1L327.8,70.9z"/>
<path class="st1" d="M320.7,69.9C320.7,69.9,320.7,70,320.7,69.9l-1.4,1.5L320.7,69.9C320.7,70,320.7,69.9,320.7,69.9"/>
<path class="st1" d="M322,69c0,0,0.1,0,0.1,0C322.1,69,322,69,322,69"/>
<path class="st1" d="M322.7,68.7C322.7,68.7,322.7,68.7,322.7,68.7C322.7,68.7,322.7,68.7,322.7,68.7"/>
<path class="st1" d="M321.3,69.4c0.1,0,0.1-0.1,0.2-0.1C321.4,69.4,321.3,69.4,321.3,69.4"/>
<path class="st1" d="M308,80.5C308,80.5,307.9,80.5,308,80.5C307.9,80.5,308,80.5,308,80.5"/>
<path class="st1" d="M340.1,82.3c0.1,0.1,0.2,0.3,0.3,0.4C340.3,82.6,340.2,82.4,340.1,82.3"/>
<path class="st1" d="M339.7,81.7c0.1,0.1,0.2,0.2,0.3,0.3C339.9,81.9,339.8,81.8,339.7,81.7"/>
<path class="st1" d="M340.7,84.8c0-0.2,0-0.3,0-0.5c0-0.1,0-0.3-0.1-0.4C340.7,84.2,340.7,84.5,340.7,84.8"/>
<path class="st1" d="M340.2,86.6c-0.1,0.2-0.3,0.4-0.4,0.6C339.9,87,340,86.8,340.2,86.6"/>
<path class="st1" d="M308.7,81.4c-0.1,0-0.1-0.1-0.1-0.2C308.6,81.3,308.6,81.3,308.7,81.4C308.7,81.4,308.8,81.4,308.7,81.4
	C308.8,81.4,308.7,81.4,308.7,81.4"/>
<path class="st1" d="M340.4,82.9c0.1,0.2,0.1,0.4,0.2,0.6C340.6,83.3,340.5,83.1,340.4,82.9"/>
<path class="st1" d="M340.5,85.8c-0.1,0.2-0.2,0.4-0.3,0.5C340.4,86.2,340.4,86,340.5,85.8"/>
<path class="st1" d="M340.7,85.1c0,0.2-0.1,0.4-0.2,0.6C340.6,85.5,340.7,85.3,340.7,85.1"/>
<path class="st2" d="M175.9,347.2l-1.1-4.1l-18.6-6.7c-0.1,0-0.2-0.1-0.3-0.2c0,0-0.1,0-0.1-0.1c0,0,0,0,0,0
	c-0.2-0.2-0.4-0.5-0.4-0.9c0-0.2,0-0.4,0.1-0.5c0.1-0.2,0.2-0.4,0.3-0.5c0.3-0.3,0.8-0.4,1.2-0.4c0.1,0,0.1,0,0.2,0l18,6.5v0
	l42.2-111.9l-40.6-10.5l-1.5,4l-4.7,12.2l-15.2,39.7l-1.4,3.7l-24.8,64.9v0l2.8,1.1l47.8,18.3v0L175.9,347.2z"/>
<path class="st2" d="M282,205.9c-1.4-2.6-3.3-4.8-5.6-6.6c-0.3-0.2-0.5-0.4-0.8-0.6c-2.1-1.5-4.4-2.6-6.9-3.2l-27.3-7.1l-5.6-1.4
	l-1.3-0.3l-1.3-0.3l-21.3-5.5c-0.7-0.2-1.2-0.9-1-1.7c0-0.1,0.1-0.2,0.1-0.3c0.3-0.5,0.9-0.9,1.5-0.7l21.6,5.6h0l4.9-13.1h-43.2h-1
	h-1.5h-1.5h-37.8h-2.5l0,0l-3.4,15.1c-0.6,3-0.6,6-0.1,8.7c0,0,0,0,0,0.1c0.1,0.3,0.1,0.7,0.2,1c0.1,0.7,0.3,1.4,0.5,2.1
	c0.1,0.5,0.3,0.9,0.5,1.4c2.4,6.2,7.4,11,14.2,12.8l11.5,3l1.3,0.3l1.3,0.3l40.5,10.5l1.1,0.3l0.2,0.1l0.4,0.1l0.9,0.2l14,3.6
	c0.1,0,0.1,0.1,0.2,0.1c0.3,0.1,0.5,0.3,0.6,0.6c0.1,0.1,0.1,0.3,0.1,0.4c0,0.2,0,0.5,0,0.7l-1.9,5.2l-25,68.4l2.8,1l2.9,1
	l45.5,15.4h0l-5.8-16l-18.5-5.8c-0.1,0-0.3-0.1-0.4-0.2c0,0-0.1,0-0.1,0c0,0,0,0,0,0c-0.2-0.2-0.4-0.5-0.4-0.9c0,0,0-0.1,0-0.1
	c0-0.1,0-0.3,0-0.5c0,0,0,0,0,0c0,0,0,0,0,0c0.2-0.7,0.9-1,1.6-0.9c0,0,0.1,0,0.1,0l6,1.9l11.9,3.7h0l9.4-26.5l1.3-3.7l6.2-17.4
	l12-33.8C285.3,217.1,284.8,211,282,205.9"/>
<path class="st3" d="M275.2,102l-10.6-19.2c-0.7-1.2-1.5-2.3-2.5-3.2c-0.2-0.2-0.4-0.3-0.6-0.5c-0.1-0.1-0.2-0.1-0.2-0.2
	c-0.1,0-0.1-0.1-0.2-0.1c-0.8-0.6-1.8-1.2-2.7-1.6c-1.6-0.7-3.3-1-5-1h-25.2h-5.4h-17.8h-2.7h-34.7c-1.2,0-2.3,0.2-3.5,0.5
	c-0.5,0.1-1,0.3-1.4,0.5l-31.2,12.8l1.5,3.6l8.4,20.3l0,0l22.3-9.1c0.2-0.1,0.5-0.1,0.7-0.1c0.2,0,0.5,0.1,0.7,0.3
	c0.4,0.3,0.6,0.8,0.5,1.3l-1.8,8.5l-4.1,19.7l-3.1,14.7l0,0.2l0,0.2l-3.9,18.5h0h2.2h36.1h2.2h1.5h1.5h37.8h3.8h2.4h0l0.1-0.5
	l8.5-55.4c0-0.1,0.1-0.3,0.1-0.4c0.2-0.4,0.5-0.7,1-0.7c0.6-0.1,1.1,0.2,1.4,0.7l4.6,8.3v0L275.2,102L275.2,102z"/>
<path class="st4" d="M247.1,5.6c-2.2-2.1-5.2-3.4-8.5-3.4c0,0,0,0,0,0c-3,0-5.9,1.1-8.2,3.1c-0.3,0.2-0.6,0.3-0.9,0.3
	c-0.2,0-0.5-0.1-0.7-0.2c-0.1-0.1-0.2-0.1-0.3-0.2c0,0,0,0,0,0c-0.4-0.4-0.8-0.7-1.2-1c-0.1,0-0.1-0.1-0.2-0.1
	c-2.7-1.9-6.1-2.4-9.3-1.5c0,0-0.1,0-0.1,0c-0.5,0.2-1,0.3-1.5,0.6c-0.4,0.2-0.9,0.2-1.2,0c-0.2-0.1-0.4-0.2-0.7-0.3
	c-0.5-0.2-1-0.4-1.5-0.5c0,0-0.1,0-0.1,0c-0.5-0.1-1-0.2-1.6-0.2c0,0,0,0,0,0c-4.3,0-7.7,3.5-7.7,7.7c0,0.5,0,1,0.1,1.4
	c0,0,0,0.1,0,0.1c0.1,0.4,0.2,0.8,0.3,1.2c0.2,0.4,0.1,0.9-0.2,1.3c0,0,0,0,0,0c-0.1,0.2-0.3,0.3-0.5,0.4c0,0,0,0,0,0
	c-0.1,0-0.2,0.1-0.3,0.1c0,0,0,0,0,0c-0.1,0-0.2,0-0.3,0c-0.2,0-0.3,0-0.5,0c-4.5,0-8.2,3.7-8.2,8.2c0,1,0.2,1.9,0.5,2.8
	c0,0.1,0.1,0.2,0.2,0.4c0.1,0.3,0.2,0.6,0.4,0.9c0.1,0.2,0.2,0.3,0.3,0.5c0.1,0.1,0.2,0.3,0.3,0.4c0.1,0.1,0.1,0.2,0.2,0.2
	c1.1,1.4,2.8,2.4,4.6,2.9c0,0,0.1,0,0.1,0c0,0,0,0,0.1,0c0,0,0.1,0,0.1,0c0.5,0.1,0.9,0.1,1.5,0.1c0.5,0,0.9,0,1.4-0.1c0,0,0,0,0,0
	c0,0,0,0,0,0c0.4-0.1,0.8-0.2,1.2-0.3c0,0,0,0,0.1,0c0,0,0.1,0,0.1,0c0,0,0,0,0.1,0c0.4-0.1,0.8-0.3,1.1-0.5c0,0,0,0,0,0
	c0,0,0,0,0.1,0c0,0,0,0,0.1,0c0.4-0.2,0.7-0.5,1.1-0.7c0,0,0,0,0,0c0.3-0.3,0.6-0.6,0.9-0.9c0,0,0,0,0,0c0,0,0.1-0.1,0.1-0.1
	c0.3-0.3,0.5-0.7,0.7-1c0-0.1,0.1-0.1,0.1-0.2c0.2-0.4,0.4-0.7,0.5-1.1c0-0.1,0.1-0.1,0.1-0.2c0.1-0.4,0.3-0.8,0.3-1.2
	c0-0.1,0-0.1,0-0.2c0.1-0.4,0.1-0.9,0.1-1.4c0-0.5,0-0.9-0.1-1.4c0-0.2,0-0.3,0-0.5c0-0.1,0-0.1,0-0.1c0-0.1,0.1-0.2,0.1-0.3
	c0.1-0.2,0.3-0.5,0.6-0.6c0.1-0.1,0.3-0.1,0.4-0.1c0.4,0,0.9,0.1,1.2,0.5c0.1,0.1,0.1,0.1,0.2,0.2c0.1,0.1,0.2,0.2,0.3,0.4
	c0.1,0.1,0.3,0.3,0.4,0.4c0,0,0.1,0.1,0.1,0.1c0,0,0,0,0,0c0.1,0.1,0.3,0.2,0.4,0.3c0.1,0.1,0.3,0.2,0.4,0.3c0,0,0,0,0.1,0
	c0.1,0.1,0.2,0.1,0.2,0.2c0.1,0.1,0.2,0.1,0.3,0.2c0.1,0.1,0.3,0.2,0.4,0.3c0,0,0,0,0,0c0.2,0.1,0.3,0.2,0.5,0.3c0,0,0,0,0.1,0
	c0.1,0.1,0.2,0.1,0.3,0.2c0,0,0.1,0,0.1,0c0.2,0.1,0.4,0.2,0.7,0.3c0.1,0.1,0.3,0.1,0.4,0.2c0.2,0.1,0.5,0.1,0.7,0.2
	c0.1,0,0.3,0.1,0.4,0.1c0.3,0.1,0.5,0.1,0.8,0.1c0.1,0,0.2,0,0.4,0.1c0.4,0,0.8,0.1,1.2,0.1c1.9,0,3.7-0.5,5.4-1.4
	c0.3-0.2,0.6-0.3,0.9-0.5c0.1-0.1,0.3-0.2,0.4-0.2c0,0,0.1,0,0.1,0c0.1,0,0.2,0,0.3,0c0.1,0,0.2,0,0.4,0.1c0.1,0,0.1,0,0.2,0.1
	c0.2,0.1,0.3,0.2,0.4,0.3c1.6,2,3.8,3.4,6.2,4.1c1.1,0.3,2.3,0.5,3.5,0.5c0.1,0,0.3,0,0.4,0c0.2,0,0.5,0,0.7,0
	c0.4,0,0.7-0.1,1.1-0.1c0,0,0.1,0,0.1,0c0.1,0,0.1,0,0.2,0c0.5-0.1,0.9-0.2,1.4-0.3c1.3-0.4,2.4-1,3.5-1.7c1.5-1.1,2.8-2.6,3.7-4.2
	c0,0,0-0.1,0.1-0.1c0.2-0.4,0.3-0.8,0.5-1.1c0.1-0.2,0.2-0.4,0.3-0.7c0-0.1,0.1-0.3,0.1-0.4c0.3-1.1,0.5-2.3,0.5-3.5
	C251,11,249.5,7.8,247.1,5.6"/>
<path class="st5" d="M308.5,84.9l-0.6-0.6l0,0l-0.3-0.3l-15.8,17.2l-8,8.7l-1.3,1.4c-0.3,0.3-0.7,0.5-1.2,0.4
	c-0.4-0.1-0.8-0.3-1-0.7l-3.7-6.6l-12.4,11.3l-7.2,6.6l10.3,18.6c2,3.6,5.6,6.1,9.8,6.6c3.2,0.4,6.4-0.5,9-2.3
	c0.7-0.5,1.4-1.1,2.1-1.8l38.5-41.9l0,0L308.5,84.9z"/>
<path class="st5" d="M128.8,90.9l-5,2.1l-14.7,6c-1.5,0.6-2.9,1.6-4.1,2.7c-1.8,1.8-3.1,4-3.7,6.6l-7.1,33.5L92,152.5l2.3,0.5
	l13.8,2.9l9.1,1.9l0,0l5.8-27.3l2-9.6c0.1-0.4,0.4-0.8,0.8-1l12.8-5.3l-8.4-20.3L128.8,90.9z"/>
<path class="st5" d="M238.8,29.7c-0.1,0-0.1,0-0.2,0c-1.6,0-3.1-0.2-4.5-0.7c-2.4-0.8-4.6-2.1-6.4-4c0,0-0.1,0-0.1,0.1
	c-2,1.1-4.3,1.7-6.6,1.7c-2.9,0-5.7-0.9-8-2.6c-0.7,5.3-5.3,9.4-10.8,9.4c-0.6,0-1.1-0.1-1.6-0.1c0,0,0,0,0,0c0,0-0.1,0-0.1,0
	c0,0,0,0-0.1,0c-1,0.3-1.9,0.8-2.6,1.6c-0.3,0.3-0.5,0.6-0.7,0.9c0,0.1-0.1,0.1-0.1,0.2c-0.1,0.2-0.2,0.4-0.3,0.6
	c0,0.1-0.1,0.1-0.1,0.2c-0.2,0.6-0.3,1.2-0.3,1.8c0,1.5,0.6,2.8,1.5,3.8c1,1,2.4,1.7,3.9,1.7c0,0,0,0,0,0c0,0,0.2,0,0.2,0
	c0,0,0,0,0,0c0.1,0,0.1,0,0.2,0c0.1,0,0.2,0,0.4,0.1c0.1,0,0.1,0.1,0.2,0.1c0.1,0,0.2,0.1,0.3,0.1c0,0,0,0,0,0
	c0.1,0.1,0.1,0.1,0.2,0.2c0.1,0.1,0.1,0.1,0.2,0.2c0.1,0.2,0.1,0.4,0.1,0.5V52v21.4h1.4h16.4v0V55.5c0-0.8,0.6-1.4,1.4-1.4h0h2.8
	c0,0,0,0,0,0c1.9,0,3.7-0.4,5.4-1.1c0,0,0.1,0,0.1,0c0,0,0.1,0,0.1,0c5.1-2.2,8.6-7.2,8.6-13.1V29.7c0,0,0,0,0,0
	C239.4,29.7,239.1,29.7,238.8,29.7"/>
<path class="st5" d="M122.3,165.7c0-0.3-0.1-0.5-0.1-0.8c-0.2-0.8-0.6-1.5-1.1-2.1c-0.8-1-2.1-1.8-3.5-2.1L97,156.4l-3.3-0.7
	l-2.3-0.5L88,171.3c-0.1,0.3-0.1,0.6-0.1,0.8c0,0,0,0,0,0.1c0,0.3,0,0.5,0.1,0.8c0,0,0,0,0,0c0.1,0.3,0.2,0.7,0.3,1
	c0,0.1,0.1,0.1,0.1,0.2c0,0.1,0.1,0.2,0.1,0.3c0.1,0.2,0.3,0.4,0.5,0.6c0,0,0,0,0,0c0.2,0.2,0.3,0.3,0.5,0.4c0,0,0,0,0,0
	c0,0,0.1,0.1,0.1,0.1c0.2,0.1,0.3,0.2,0.5,0.3c0.1,0,0.1,0.1,0.2,0.1c0.3,0.1,0.5,0.2,0.8,0.3l1.2,0.3l10.2,2.2l5.6,1.2
	c0.4,0.1,0.8,0.1,1.2,0.1c0.5,0,0.9-0.1,1.3-0.3c0.2-0.1,0.4-0.2,0.6-0.3c0.1-0.1,0.3-0.2,0.4-0.3c0.1-0.1,0.2-0.1,0.2-0.2
	c0,0,0,0,0,0c0,0,0,0,0,0c0.3-0.3,0.5-0.6,0.7-1c0,0,0,0,0,0c0.2-0.3,0.3-0.7,0.4-1.1c0,0,0,0,0,0l0.8-3.7c0,0,0-0.1,0-0.1
	c0-0.1,0.1-0.3,0.2-0.4c0.1-0.1,0.2-0.2,0.3-0.3c0,0,0,0,0.1,0c0.1-0.1,0.2-0.1,0.3-0.1c0.1,0,0.1-0.1,0.2-0.1c0.2,0,0.4,0,0.5,0
	c0,0,0,0,0,0c0,0,0.1,0,0.1,0c0.7,0.1,1.5,0.1,2.2,0c0.5-0.1,1.1-0.3,1.5-0.6c0.2-0.1,0.4-0.2,0.7-0.4c0.7-0.5,1.3-1.1,1.7-1.9
	c0.1-0.1,0.1-0.3,0.2-0.4c0.1-0.2,0.2-0.3,0.2-0.5c0.1-0.3,0.2-0.6,0.2-0.9c0-0.1,0-0.2,0.1-0.3c0-0.1,0-0.2,0-0.3
	c0-0.3,0-0.6,0-0.9C122.3,165.8,122.3,165.8,122.3,165.7"/>
<path class="st5" d="M340.7,83.8c0-0.1,0-0.2-0.1-0.4c0-0.2-0.1-0.4-0.2-0.6c0-0.1,0-0.1-0.1-0.2c-0.1-0.2-0.2-0.3-0.3-0.4
	c-0.1-0.1-0.1-0.2-0.2-0.3c-0.1-0.1-0.2-0.2-0.3-0.3c-0.1-0.1-0.2-0.2-0.3-0.3l-11-10l-0.5-0.5l-1.4-1.2c-0.8-0.7-1.8-1-2.8-1.1
	c-0.1,0-0.1,0-0.2,0c-0.3,0-0.5,0.1-0.8,0.1c0,0,0,0,0,0c-0.2,0.1-0.4,0.1-0.6,0.2c0,0-0.1,0-0.1,0c-0.2,0.1-0.4,0.2-0.5,0.3
	c-0.1,0-0.1,0.1-0.2,0.1c-0.2,0.1-0.4,0.3-0.6,0.5c0,0,0,0-0.1,0.1l-1.3,1.5l-1.2,1.3c-0.5,0.6-1.4,0.6-1.9,0.1
	c-1-0.9-2.4-1.5-3.8-1.5c-0.2,0-0.3,0-0.5,0c0,0,0,0,0,0c-1.6,0.2-3,1-4,2.3c-0.4,0.6-0.7,1.2-0.9,1.9c0,0.2,0,0.3-0.1,0.5
	c0,0.2-0.1,0.3-0.1,0.5c0,0.3,0,0.6,0,0.9c0,0.1,0,0.1,0,0.2c0,0.3,0.1,0.7,0.2,1c0,0,0,0,0,0c0.1,0.3,0.2,0.7,0.4,1c0,0,0,0,0,0
	c0.1,0.3,0.3,0.6,0.5,0.9c0,0,0,0,0,0.1c0.1,0.1,0.2,0.2,0.3,0.4c0.1,0.1,0.2,0.2,0.3,0.3c0,0,0.1,0.1,0.1,0.2c0,0,0.1,0.1,0.1,0.1
	v0v0l1,0.9l18.8,17.1l11.1-12.2c0,0,0-0.1,0.1-0.1c0.2-0.2,0.3-0.4,0.4-0.6c0-0.1,0.1-0.1,0.1-0.2c0.1-0.2,0.2-0.4,0.3-0.5
	c0,0,0-0.1,0-0.2c0.1-0.2,0.1-0.4,0.2-0.6c0-0.1,0-0.2,0-0.3C340.7,84.5,340.7,84.2,340.7,83.8"/>
<path class="st6" d="M89.4,178.9L89.4,178.9c-0.3,0-0.5,0-0.8-0.1C88.9,178.9,89.2,178.9,89.4,178.9"/>
<path class="st6" d="M85.3,178.8c0.9,0,1.8,0,2.7,0C87.1,178.8,86.2,178.8,85.3,178.8"/>
<path class="st6" d="M130.3,253.3c5.6-10.1,7.5-21.6,5.5-33.1c-2-11.5-7.8-21.6-16.5-29.1C137.2,206.6,141.8,232.7,130.3,253.3"/>
<path class="st6" d="M101.8,181.2l-9.9-2.1c0,0,0,0,0,0L101.8,181.2C101.8,181.2,101.8,181.2,101.8,181.2"/>
<path class="st6" d="M19.5,243.6l38.1,26.6L19.5,243.6z"/>
<path class="st6" d="M91,179.1c-0.5,0-1.1-0.1-1.6-0.1v0C90,179,90.5,179,91,179.1"/>
<path class="st6" d="M130.3,253.4c-0.3,0.6-0.7,1.2-1.1,1.8C129.6,254.7,129.9,254.1,130.3,253.4"/>
<path class="st6" d="M117.7,189.7c0.5,0.4,1,0.8,1.5,1.2C118.7,190.6,118.2,190.2,117.7,189.7"/>
<path class="st6" d="M115.8,188.3c0.5,0.3,0.9,0.7,1.4,1C116.7,189,116.3,188.7,115.8,188.3"/>
<path class="st6" d="M98.8,299l16.4-23.5L98.8,299z"/>
<path class="st6" d="M129,255.7c-0.4,0.7-0.8,1.3-1.3,1.9C128.1,257,128.6,256.3,129,255.7"/>
<path class="st6" d="M112.6,235.3c-0.1,0-0.2,0-0.3-0.1C112.3,235.3,112.4,235.3,112.6,235.3"/>
<path class="st6" d="M84.5,204.9L84.5,204.9c13.3,0,24.2,9.7,26.4,22.3C108.7,214.5,97.7,204.9,84.5,204.9"/>
<path class="st6" d="M59.4,222.1c-0.1,0.3-0.2,0.6-0.3,0.8C59.1,222.7,59.3,222.4,59.4,222.1"/>
<path class="st6" d="M56.7,226.1c-0.2,0-0.3-0.1-0.5-0.2C56.4,226,56.6,226.1,56.7,226.1c0.7,0.2,1.5-0.3,1.6-1
	c0.1-0.5,0.3-1,0.4-1.5c-0.2,0.5-0.3,1-0.4,1.5C58.2,225.9,57.5,226.3,56.7,226.1"/>
<path class="st6" d="M111.3,230.6l-1.1-1.1L111.3,230.6z"/>
<path class="st6" d="M113.2,235.2c-0.1,0-0.2,0.1-0.4,0.1C113,235.3,113.1,235.3,113.2,235.2"/>
<path class="st6" d="M84.5,202.2L84.5,202.2c-10.6,0-20.1,5.6-25.4,14.3C64.4,207.8,73.9,202.2,84.5,202.2"/>
<path class="st6" d="M107.1,230.1c0.1,0.2,0.2,0.3,0.3,0.4l0.9,0.9l-0.9-0.9C107.2,230.4,107.1,230.3,107.1,230.1"/>
<path class="st6" d="M118.1,230.5l-2.9,2.9L118.1,230.5c0.4-0.4,0.5-1,0.3-1.5C118.6,229.6,118.5,230.1,118.1,230.5"/>
<path class="st6" d="M60.9,218.8C60.9,218.8,60.9,218.8,60.9,218.8C60.9,218.8,60.9,218.8,60.9,218.8"/>
<path class="st6" d="M114.4,230.4l-0.3,0.3c0-0.2,0-0.3,0-0.5c0,0.2,0,0.3,0,0.5L114.4,230.4z"/>
<path class="st6" d="M54.9,232.8l-0.3,0.3L54.9,232.8c0.6,15.8,13.6,28.6,29.6,28.6C68.5,261.4,55.4,248.7,54.9,232.8"/>
<path class="st6" d="M57.1,228.6c-0.5-0.5-1.3-0.5-1.8,0C55.8,228.1,56.6,228.1,57.1,228.6"/>
<path class="st6" d="M89.5,261c10.6-1.8,19.5-9.2,23-19.5C108.9,251.7,100.1,259.2,89.5,261"/>
<path class="st6" d="M113.2,239L113.2,239c-0.1,0.2-0.1,0.4-0.2,0.7C113,239.5,113.1,239.3,113.2,239"/>
<path class="st6" d="M50.9,233l3.5-3.5L50.9,233c-0.4,0.4-0.5,1-0.3,1.5C50.4,234,50.5,233.4,50.9,233"/>
<path class="st6" d="M110.6,238.4c0-0.1,0.1-0.1,0.1-0.2C110.6,238.3,110.6,238.3,110.6,238.4c-3,12-13.7,20.3-26.1,20.3
	C96.8,258.7,107.5,250.3,110.6,238.4"/>
<path class="st6" d="M61.9,234.5c0.2-0.5,0.1-1.1-0.3-1.5l-2.2-2.2l2.2,2.2C62,233.4,62.1,234,61.9,234.5"/>
<path class="st6" d="M118.1,230.5l-2.9,2.9l-1.5,1.5c-0.1,0.1-0.3,0.2-0.4,0.3c-0.1,0-0.2,0.1-0.4,0.1c0,0-0.1,0-0.1,0
	c-0.1,0-0.1,0-0.2,0c-0.1,0-0.2,0-0.3-0.1c-0.2-0.1-0.3-0.2-0.4-0.3l-3.4-3.4l-0.9-0.9c-0.1-0.1-0.2-0.3-0.3-0.4
	c-0.2-0.5-0.1-1.1,0.3-1.5c0.5-0.5,1.4-0.5,1.9,0l0.9,0.9l1.1,1.1c0-1.2-0.2-2.3-0.4-3.5c-2.2-12.6-13.2-22.3-26.4-22.3
	c-10,0-19,5.5-23.6,14c0,0,0,0,0,0c-0.6,1-1.1,2.1-1.5,3.3c-0.1,0.3-0.2,0.6-0.3,0.8c-0.1,0.2-0.1,0.5-0.2,0.7
	c-0.2,0.5-0.3,1-0.4,1.5c-0.2,0.7-0.9,1.2-1.7,1c-0.2,0-0.3-0.1-0.5-0.2c-0.4-0.3-0.6-0.9-0.5-1.4c0.7-2.9,1.9-5.5,3.4-8
	c5.2-8.7,14.8-14.3,25.4-14.3h0c15.8,0,28.8,12.5,29.5,28.1c0,0.2,0,0.3,0,0.5l0.3-0.3l1.7-1.7c0.5-0.5,1.4-0.5,1.9,0
	c0.1,0.1,0.2,0.3,0.3,0.4C118.6,229.6,118.5,230.1,118.1,230.5 M113.2,239L113.2,239c-0.1,0.2-0.1,0.4-0.2,0.7
	c-0.2,0.6-0.3,1.2-0.5,1.7c-3.5,10.3-12.4,17.7-23,19.5c-1.6,0.3-3.3,0.4-5,0.4h0c-16,0-29-12.7-29.6-28.6l-0.3,0.3l-1.8,1.8
	c-0.5,0.5-1.4,0.5-1.9,0c-0.1-0.1-0.2-0.3-0.3-0.4c-0.2-0.5-0.1-1.1,0.3-1.5l3.5-3.5l0.9-0.9c0,0,0,0,0,0c0.5-0.5,1.3-0.5,1.8,0
	c0,0,0,0,0.1,0l2.2,2.2l2.2,2.2c0.4,0.4,0.5,1,0.3,1.5c-0.1,0.2-0.2,0.3-0.3,0.5c-0.3,0.3-0.6,0.4-1,0.4c-0.3,0-0.7-0.1-1-0.4l-2-2
	c0.6,14.3,12.4,25.8,26.8,25.8c12.3,0,23.1-8.3,26.1-20.3c0-0.1,0.1-0.1,0.1-0.2c0.2-0.6,0.9-1,1.6-0.8
	C112.9,237.6,113.4,238.3,113.2,239 M119.3,191.1c0,0-0.1-0.1-0.1-0.1c-0.5-0.4-1-0.8-1.5-1.2c-0.2-0.1-0.3-0.3-0.5-0.4
	c-0.5-0.4-0.9-0.7-1.4-1c-0.2-0.2-0.4-0.3-0.7-0.5c-4.2-2.9-8.7-5.1-13.3-6.6l-9.9-2.1c-0.3,0-0.6,0-0.9-0.1c-0.5,0-1.1-0.1-1.6-0.1
	c-0.3,0-0.5,0-0.8-0.1c-0.2,0-0.4,0-0.7,0c-0.9,0-1.8,0-2.7,0c0,0,0,0-0.1,0c-15.4,0.4-30.5,7.8-40,21.4l-28.8,41.2l3.1,2.1l0,0
	l38.1,26.6L98.8,299l16.4-23.5l12.3-17.6c0-0.1,0.1-0.1,0.1-0.2c0.4-0.6,0.9-1.3,1.3-1.9c0.1-0.1,0.1-0.3,0.2-0.4
	c0.4-0.6,0.7-1.2,1.1-1.8c0,0,0-0.1,0.1-0.1C141.8,232.7,137.2,206.6,119.3,191.1"/>
<path class="st6" d="M115.6,184.7c0.2,0.2,0.4,0.3,0.6,0.5c0.2,0.1,0.3,0.3,0.5,0.4c0.2,0.1,0.3,0.2,0.5,0.3
	c0.2,0.1,0.4,0.2,0.6,0.3c0.1,0.1,0.2,0.1,0.3,0.2c0.2,0.1,0.5,0.3,0.7,0.4c0.1,0,0.1,0,0.2,0.1c4.4,1.8,9.5,0.9,12.9-2.4
	c0,0,0,0,0,0c0.2-0.2,0.5-0.5,0.7-0.7c0,0,0.1-0.1,0.1-0.1c0.2-0.3,0.5-0.6,0.7-0.9c0,0,0,0,0.1-0.1l1-1.4l2.1-2.9l-12.2-8.5
	c-0.2,0.5-0.5,0.9-0.8,1.3c-0.5,0.8-1.2,1.5-2,2.1c0,0,0,0-0.1,0c-1.5,1.1-3.4,1.6-5.2,1.5h0l-0.2,0.8l-0.4,1.7
	c-0.3,1.2-0.9,2.3-1.7,3.2c0,0-0.1,0.1-0.1,0.1c-0.2,0.2-0.4,0.4-0.6,0.5c-0.1,0.1-0.2,0.2-0.4,0.3c0.6,1.1,1.4,2.2,2.4,3.1
	C115.4,184.6,115.5,184.6,115.6,184.7"/>
<path class="st6" d="M116.1,175.6l-0.4,1.6c-0.3,1.2-0.9,2.3-1.7,3.2c0.9-0.9,1.5-2,1.7-3.2L116.1,175.6z"/>
<path class="st6" d="M116.2,185.2c0.2,0.1,0.3,0.3,0.5,0.4c0,0,0,0,0,0c0,0,0,0,0,0c0.2,0.1,0.3,0.2,0.5,0.3
	c-0.2-0.1-0.3-0.2-0.5-0.3C116.5,185.5,116.4,185.3,116.2,185.2"/>
<path class="st6" d="M133.5,182.7C133.5,182.7,133.5,182.7,133.5,182.7l1-1.5L133.5,182.7C133.5,182.7,133.5,182.7,133.5,182.7"/>
<path class="st6" d="M116.3,174.7c1.8,0.1,3.7-0.4,5.2-1.5C120,174.3,118.1,174.8,116.3,174.7"/>
<path class="st6" d="M114,180.6c-0.2,0.2-0.4,0.4-0.6,0.5C113.5,180.9,113.8,180.8,114,180.6"/>
<path class="st6" d="M115.6,184.7c-0.1-0.1-0.1-0.2-0.2-0.2C115.4,184.6,115.5,184.6,115.6,184.7"/>
<path class="st6" d="M131.9,184.5C131.9,184.5,131.9,184.5,131.9,184.5C131.9,184.5,131.9,184.5,131.9,184.5"/>
<path class="st6" d="M124.4,169.8c-0.2,0.5-0.5,0.9-0.8,1.3C123.9,170.7,124.1,170.2,124.4,169.8"/>
<path class="st6" d="M132.8,183.6c0,0.1-0.1,0.1-0.1,0.1C132.7,183.7,132.7,183.7,132.8,183.6"/>
<path class="st6" d="M118.1,186.4c-0.1-0.1-0.2-0.1-0.3-0.2C117.9,186.3,118,186.4,118.1,186.4"/>
<path class="st6" d="M119,186.9c-0.1,0-0.1,0-0.2-0.1C118.9,186.8,118.9,186.9,119,186.9"/>
<path class="st7" d="M394.3,191.5c-5.7,0-10.3-4.6-10.3-10.3c0-5.7,4.6-10.3,10.3-10.3c5.7,0,10.3,4.6,10.3,10.3
	C404.6,186.9,400,191.5,394.3,191.5 M394.3,158.4c-12.5,0-22.6,10.1-22.6,22.6c0,9.8,14.1,30.8,20.7,40.1c0.7,1,1.3,1.9,1.8,2.6
	c0.5-0.7,1.1-1.6,1.8-2.6c6.6-9.3,20.7-30.3,20.7-40.1C416.9,168.6,406.7,158.4,394.3,158.4"/>
<path class="st1" d="M400.8,181.3c0-3.6-2.9-6.6-6.6-6.6c-3.6,0-6.6,2.9-6.6,6.6s2.9,6.6,6.6,6.6
	C397.9,187.8,400.8,184.9,400.8,181.3"/>
<path class="st0" d="M43,273.8h-7.5c-1,0-1.9,0.8-1.9,1.9s0.8,1.9,1.9,1.9H43c1,0,1.9-0.8,1.9-1.9S44.1,273.8,43,273.8"/>
<path class="st0" d="M26.2,273.8h-7.5c-1,0-1.9,0.8-1.9,1.9s0.8,1.9,1.9,1.9h7.5c1,0,1.9-0.8,1.9-1.9S27.2,273.8,26.2,273.8"/>
<path class="st0" d="M9.4,273.8H1.9c-1,0-1.9,0.8-1.9,1.9s0.8,1.9,1.9,1.9h7.5c1,0,1.9-0.8,1.9-1.9S10.4,273.8,9.4,273.8"/>
<path class="st0" d="M138.6,277.6c1,0,1.9-0.8,1.9-1.9s-0.8-1.9-1.9-1.9h-7.5c-1,0-1.9,0.8-1.9,1.9s0.8,1.9,1.9,1.9H138.6z"/>
<path class="st0" d="M285.4,273.8h-7.7c-1,0-1.9,0.8-1.9,1.9s0.8,1.9,1.9,1.9h7.7c1,0,1.9-0.8,1.9-1.9S286.4,273.8,285.4,273.8"/>
<path class="st0" d="M320.2,273.8h-7.7c-1,0-1.9,0.8-1.9,1.9s0.8,1.9,1.9,1.9h7.7c1,0,1.9-0.8,1.9-1.9S321.2,273.8,320.2,273.8"/>
<path class="st0" d="M302.8,273.8h-7.7c-1,0-1.9,0.8-1.9,1.9s0.8,1.9,1.9,1.9h7.7c1,0,1.9-0.8,1.9-1.9S303.8,273.8,302.8,273.8"/>
<path class="st0" d="M394.4,250.2c-1.1-0.1-1.9,0.7-2,1.7c-0.2,2.4-0.7,4.7-1.6,6.9c-0.4,1,0.1,2,1.1,2.4c0.2,0.1,0.5,0.1,0.7,0.1
	c0.7,0,1.5-0.5,1.7-1.2c1-2.6,1.6-5.3,1.8-8.1C396.2,251.2,395.4,250.3,394.4,250.2"/>
<path class="st0" d="M394.3,232.8c-1,0-1.9,0.8-1.9,1.9v7.7c0,1,0.8,1.9,1.9,1.9c1,0,1.9-0.8,1.9-1.9v-7.7
	C396.2,233.7,395.3,232.8,394.3,232.8"/>
<path class="st0" d="M354.9,273.8h-7.7c-1,0-1.9,0.8-1.9,1.9s0.8,1.9,1.9,1.9h7.7c1,0,1.9-0.8,1.9-1.9S355.9,273.8,354.9,273.8"/>
<path class="st0" d="M372,273.6c-1,0.1-2.1,0.2-3.1,0.2h-4.4c-1,0-1.9,0.8-1.9,1.9s0.8,1.9,1.9,1.9h4.4c1.2,0,2.4-0.1,3.6-0.2
	c1-0.1,1.7-1.1,1.6-2.1C374,274.2,373,273.5,372,273.6"/>
<path class="st0" d="M337.5,273.8h-7.7c-1,0-1.9,0.8-1.9,1.9s0.8,1.9,1.9,1.9h7.7c1,0,1.9-0.8,1.9-1.9S338.6,273.8,337.5,273.8"/>
<path class="st0" d="M386,266.4c-1.6,1.7-3.5,3.2-5.6,4.4c-0.9,0.5-1.2,1.6-0.7,2.5c0.3,0.6,1,1,1.6,1c0.3,0,0.6-0.1,0.9-0.2
	c2.4-1.4,4.6-3.1,6.5-5.1c0.7-0.8,0.7-1.9-0.1-2.6C387.9,265.6,386.8,265.7,386,266.4"/>
<path class="st0" d="M208.9,305.5l25-68.4l1.9-5.2c0.1-0.2,0.1-0.5,0-0.7c0-0.1,0-0.3-0.1-0.4c-0.1-0.3-0.4-0.5-0.6-0.6
	c-0.1,0-0.1-0.1-0.2-0.1l-14-3.6l-0.9-0.2l-0.4-0.1l-0.2-0.1l-1.1-0.3l-40.5-10.5l-1.3-0.3l-1.3-0.3l-11.5-3
	c-6.8-1.8-11.8-6.5-14.2-12.8c-0.4-1.1-0.8-2.2-1-3.4c-0.1-0.3-0.2-0.7-0.2-1c0,0,0,0,0-0.1c-0.5-2.8-0.4-5.7,0.1-8.7l3.4-15.1l0,0
	h2.5h37.8h1.5h1.5h1h43.2l-4.9,13.1h0l-21.6-5.6c-0.6-0.2-1.2,0.1-1.5,0.7c-0.1,0.1-0.1,0.2-0.1,0.3c-0.2,0.7,0.2,1.5,1,1.7
	l21.3,5.5l1.3,0.3l1.3,0.3l5.6,1.4l27.3,7.1c2.5,0.6,4.8,1.8,6.9,3.2c0.3,0.2,0.6,0.4,0.8,0.6c2.3,1.8,4.2,4,5.6,6.6
	c2.8,5.1,3.3,11.2,1.4,16.7l-12,33.8l-6.2,17.4l-1.3,3.7l-9.4,26.5l0,0v0l-11.9-3.7l-6-1.9c0,0-0.1,0-0.1,0
	c-0.7-0.2-1.4,0.2-1.6,0.9c0,0,0,0,0,0c0,0.2-0.1,0.3,0,0.5c0,0,0,0.1,0,0.1c0,0.3,0.2,0.6,0.4,0.9c0,0,0,0,0,0c0,0,0.1,0,0.1,0
	c0.1,0.1,0.2,0.2,0.4,0.2l18.5,5.8l5.8,16h0v0l-45.5-15.4l-2.9-1L208.9,305.5z M129.1,342.5L129.1,342.5L129.1,342.5l24.8-64.9
	l1.4-3.7l15.2-39.7l4.7-12.2l1.5-4h0l40.6,10.5l-42.2,111.9v0l-18-6.5c-0.1,0-0.1,0-0.2,0c-0.5-0.1-0.9,0-1.2,0.4
	c-0.1,0.1-0.3,0.3-0.3,0.5c-0.1,0.2-0.1,0.4-0.1,0.5c0,0.3,0.2,0.6,0.4,0.9c0,0,0,0,0,0c0,0,0.1,0.1,0.1,0.1
	c0.1,0.1,0.2,0.2,0.3,0.2l18.6,6.7l1.1,4.1l3.8,14.6v0l-47.8-18.3L129.1,342.5z M156.3,149.4l0-0.2l0-0.2l3.1-14.7l4.1-19.7l1.8-8.5
	c0.1-0.5-0.1-1-0.5-1.3c-0.2-0.2-0.4-0.3-0.7-0.3c-0.2,0-0.5,0-0.7,0.1l-22.3,9.1l0,0l-8.4-20.3l-1.5-3.6v0l31.2-12.8
	c0.5-0.2,0.9-0.3,1.4-0.5c1.1-0.3,2.3-0.5,3.5-0.5h34.7h2.7h17.8h5.4h25.2c1.8,0,3.5,0.4,5,1c1,0.4,1.9,1,2.7,1.6
	c0.1,0,0.1,0.1,0.2,0.1c0.1,0.1,0.2,0.1,0.2,0.2c0.2,0.2,0.4,0.3,0.6,0.5c1,0.9,1.9,2,2.5,3.2l10.6,19.2l0,0h0l-19.7,17.8l0,0
	l-4.6-8.3c-0.3-0.5-0.9-0.8-1.4-0.7c-0.4,0.1-0.8,0.4-1,0.7c-0.1,0.1-0.1,0.3-0.1,0.4l-8.5,55.4l-0.1,0.5h0l0,0h-2.4h-3.8h-37.8
	h-1.5H193h-2.2h-36.1h-2.2l0,0h0L156.3,149.4z M136.6,178.3l-2.1,2.9l-1,1.4c0,0,0,0-0.1,0.1c-0.2,0.3-0.5,0.6-0.7,0.9
	c0,0.1-0.1,0.1-0.1,0.1c-0.2,0.3-0.5,0.5-0.7,0.7c0,0,0,0,0,0c-1.7,1.6-3.8,2.7-6.2,3.1c-2.3,0.4-4.6,0.1-6.7-0.7
	c-0.1,0-0.1,0-0.2-0.1c-0.3-0.1-0.5-0.2-0.7-0.4c-0.1-0.1-0.2-0.1-0.3-0.2c-0.2-0.1-0.4-0.2-0.6-0.3c-0.2-0.1-0.3-0.2-0.5-0.3
	c0,0,0,0,0,0c0,0,0,0,0,0c-0.2-0.1-0.3-0.3-0.5-0.4c-0.2-0.2-0.4-0.3-0.6-0.5c-0.1-0.1-0.1-0.2-0.2-0.2c-1-0.9-1.8-1.9-2.4-3.1
	c0.1-0.1,0.2-0.2,0.4-0.3c0.2-0.2,0.4-0.3,0.6-0.5c0,0,0.1-0.1,0.1-0.1c0.9-0.9,1.5-2,1.7-3.2l0.4-1.6l0.2-0.8h0
	c1.8,0.1,3.7-0.4,5.2-1.5c0,0,0,0,0.1,0c0.8-0.6,1.5-1.3,2-2.1c0.3-0.4,0.6-0.9,0.8-1.3c0,0,0,0,0,0L136.6,178.3z M135.8,220.2
	c2,11.5,0.1,23-5.5,33.1c0,0,0,0.1-0.1,0.1c-0.3,0.6-0.7,1.2-1.1,1.8c-0.1,0.1-0.1,0.3-0.2,0.4c-0.4,0.7-0.8,1.3-1.3,1.9
	c0,0.1-0.1,0.1-0.1,0.2l-12.3,17.6L98.8,299l-41.2-28.8l-38.1-26.6l-3.1-2.1l28.8-41.2c9.5-13.6,24.6-21.1,40-21.4c0,0,0,0,0.1,0
	c0.9,0,1.8,0,2.7,0c0.2,0,0.4,0,0.7,0c0.3,0,0.5,0,0.8,0.1c0.5,0,1.1,0.1,1.6,0.1c0.3,0,0.6,0,0.9,0.1l0,0c0,0,0,0,0,0l9.9,2.1
	c0,0,0,0,0,0h0c4.6,1.5,9.1,3.7,13.3,6.6c0.2,0.2,0.4,0.3,0.7,0.5c0.5,0.3,0.9,0.7,1.4,1c0.2,0.1,0.3,0.3,0.5,0.4
	c0.5,0.4,1,0.8,1.5,1.2c0,0,0.1,0.1,0.1,0.1C128,198.6,133.8,208.8,135.8,220.2 M88,171.3l3.4-16.1h0l2.3,0.5l3.3,0.7l20.6,4.4
	c1.4,0.3,2.6,1.1,3.5,2.1c0.5,0.6,0.9,1.3,1.1,2.1c0.1,0.3,0.1,0.5,0.1,0.8c0,0,0,0.1,0,0.1c0,0.3,0,0.6,0,0.9c0,0.1,0,0.2,0,0.3v0
	v0c0,0.1,0,0.2-0.1,0.2c-0.1,0.3-0.1,0.6-0.2,0.9c-0.1,0.2-0.1,0.3-0.2,0.5c-0.1,0.1-0.1,0.3-0.2,0.4c-0.4,0.7-1,1.4-1.7,1.9
	c-0.2,0.1-0.4,0.3-0.7,0.4c-0.5,0.3-1,0.5-1.5,0.6c-0.7,0.1-1.5,0.1-2.2,0c0,0-0.1,0-0.1,0c0,0,0,0,0,0c-0.2,0-0.4,0-0.5,0
	c-0.1,0-0.1,0-0.2,0.1c-0.1,0-0.3,0.1-0.4,0.2c-0.1,0.1-0.2,0.2-0.3,0.3c-0.1,0.1-0.1,0.3-0.2,0.4c0,0,0,0.1,0,0.1l-0.8,3.7
	c0,0,0,0,0,0c-0.1,0.4-0.2,0.8-0.4,1.1c0,0,0,0,0,0c-0.2,0.4-0.4,0.7-0.7,0.9c0,0,0,0,0,0c0,0,0,0,0,0l0,0c-0.1,0.1-0.2,0.1-0.2,0.2
	c-0.1,0.1-0.2,0.2-0.4,0.3c-0.2,0.1-0.4,0.2-0.6,0.3c-0.4,0.2-0.9,0.3-1.3,0.3c-0.4,0-0.8,0-1.2-0.1l-5.6-1.2l-10.2-2.2l-1.2-0.3
	c-0.3-0.1-0.5-0.1-0.8-0.3c-0.1,0-0.1-0.1-0.2-0.1c-0.2-0.1-0.4-0.2-0.5-0.3c0,0-0.1-0.1-0.1-0.1c0,0,0,0,0,0
	c-0.2-0.1-0.3-0.3-0.5-0.4c0,0,0,0,0,0c-0.2-0.2-0.3-0.4-0.5-0.6c-0.3-0.4-0.5-0.9-0.6-1.5c0,0,0,0,0,0c0-0.2-0.1-0.5-0.1-0.8
	c0,0,0,0,0-0.1C87.9,171.8,87.9,171.5,88,171.3 M94.3,141.7l7.1-33.5c0.5-2.6,1.8-4.8,3.7-6.6c1.2-1.1,2.5-2,4.1-2.7l14.7-6l5-2.1
	l1.5,3.6l8.4,20.3l-12.8,5.3c-0.4,0.2-0.7,0.5-0.8,1l-2,9.6l-5.8,27.3l0,0v0l-9.1-1.9L94.4,153l-2.3-0.5L94.3,141.7z M203.4,45
	c0-0.1-0.1-0.2-0.2-0.2c-0.1-0.1-0.1-0.2-0.2-0.2c-0.1-0.1-0.2-0.1-0.3-0.2c-0.1,0-0.1-0.1-0.2-0.1c-0.1,0-0.2,0-0.4-0.1
	c-0.1,0-0.1,0-0.2,0c-0.1,0-0.2,0-0.2,0c0,0,0,0,0,0c0,0,0,0,0,0c-1.5,0-2.9-0.6-3.9-1.7c-1-1-1.5-2.3-1.5-3.8
	c0-0.6,0.1-1.2,0.3-1.8c0-0.1,0.1-0.1,0.1-0.2c0.1-0.2,0.2-0.4,0.3-0.6c0-0.1,0.1-0.1,0.1-0.2c0.2-0.3,0.4-0.6,0.7-0.9
	c0.7-0.7,1.6-1.3,2.6-1.6c0,0,0,0,0.1,0c0,0,0,0,0,0c0,0,0.1,0,0.1,0c0.5,0.1,1,0.1,1.6,0.1c5.5,0,10.1-4.1,10.8-9.4
	c2.3,1.7,5.1,2.6,8,2.6c2.3,0,4.6-0.6,6.6-1.7c0,0,0.1,0,0.1-0.1c1.8,1.9,4,3.2,6.4,4c1.5,0.5,3,0.7,4.5,0.7c0.1,0,0.1,0,0.2,0
	c0.3,0,0.6,0,0.9,0v0c0,0,0,0,0,0V40c0,5.8-3.6,10.9-8.6,13.1c0,0-0.1,0-0.1,0c0,0-0.1,0-0.1,0c-1.7,0.7-3.5,1.1-5.4,1.1h0
	c0,0,0,0,0,0h-2.8c-0.8,0-1.4,0.6-1.4,1.4v17.9h0v0h-16.4h-1.4V52v-6.5C203.5,45.4,203.5,45.2,203.4,45 M195.8,27.8
	c-0.1-0.1-0.1-0.2-0.2-0.2c-0.1-0.1-0.2-0.2-0.3-0.4c-0.1-0.2-0.2-0.3-0.3-0.5c-0.2-0.3-0.3-0.6-0.4-0.9c-0.1-0.1-0.1-0.2-0.2-0.4
	c-0.3-0.9-0.5-1.8-0.5-2.8c0-4.5,3.7-8.2,8.2-8.2c0.2,0,0.3,0,0.5,0c0.1,0,0.2,0,0.3,0c0,0,0,0,0,0c0.1,0,0.2-0.1,0.3-0.1
	c0,0,0,0,0,0c0.2-0.1,0.4-0.2,0.5-0.4c0.3-0.4,0.3-0.9,0.2-1.3c-0.2-0.4-0.3-0.8-0.3-1.2c0,0,0-0.1,0-0.1c-0.1-0.5-0.1-0.9-0.1-1.4
	c0-4.3,3.5-7.7,7.7-7.7c0,0,0,0,0,0c1.1,0,2.1,0.2,3.1,0.7c0.2,0.1,0.4,0.2,0.7,0.3c0.4,0.2,0.8,0.2,1.2,0c0.5-0.2,1-0.4,1.5-0.6
	c0,0,0.1,0,0.1,0c1-0.3,2-0.4,3-0.4c2.3,0,4.4,0.7,6.3,2c0.1,0,0.1,0.1,0.2,0.1c0.4,0.3,0.8,0.6,1.2,1c0,0,0,0,0,0
	c0.1,0.1,0.2,0.1,0.3,0.2c0.2,0.1,0.4,0.2,0.7,0.2c0.3,0,0.7-0.1,0.9-0.3c2.3-2,5.2-3.1,8.2-3.1c0,0,0,0,0,0c0,0,0,0,0,0
	c3.3,0,6.3,1.3,8.5,3.4c2.4,2.3,3.9,5.5,3.9,9c0,1.2-0.2,2.4-0.5,3.5c0,0.1-0.1,0.3-0.1,0.4c-0.1,0.2-0.2,0.4-0.3,0.7
	c-0.2,0.4-0.3,0.8-0.5,1.1c0,0,0,0.1-0.1,0.1c-0.9,1.7-2.2,3.1-3.7,4.2c-1.1,0.8-2.2,1.4-3.5,1.8c-0.4,0.1-0.9,0.3-1.4,0.3
	c-0.1,0-0.1,0-0.2,0c0,0-0.1,0-0.1,0c-0.4,0.1-0.7,0.1-1.1,0.1c-0.2,0-0.4,0-0.7,0c-0.1,0-0.3,0-0.4,0c-1.2,0-2.3-0.2-3.5-0.5
	c-2.4-0.7-4.6-2.1-6.2-4.1c-0.1-0.2-0.3-0.3-0.4-0.3c-0.1,0-0.1,0-0.2-0.1c-0.1,0-0.2-0.1-0.4-0.1c-0.1,0-0.2,0-0.3,0
	c-0.1,0-0.1,0-0.1,0c-0.1,0-0.3,0.1-0.4,0.2c-0.3,0.2-0.6,0.3-0.9,0.5c-1.6,0.9-3.5,1.4-5.4,1.4c-1.6,0-3.2-0.4-4.6-1.1
	c-0.1-0.1-0.2-0.1-0.3-0.2c0,0,0,0-0.1,0c-0.2-0.1-0.4-0.2-0.5-0.3c0,0,0,0,0,0c-0.1-0.1-0.3-0.2-0.4-0.3c-0.1-0.1-0.2-0.1-0.3-0.2
	c-0.1-0.1-0.2-0.1-0.2-0.2c0,0,0,0-0.1,0c-0.1-0.1-0.3-0.2-0.4-0.3c-0.1-0.1-0.3-0.2-0.4-0.3c0,0,0,0,0,0c0,0-0.1-0.1-0.1-0.1
	c-0.1-0.1-0.3-0.3-0.4-0.4c-0.1-0.1-0.2-0.2-0.3-0.4c-0.1-0.1-0.1-0.1-0.2-0.2c-0.3-0.3-0.7-0.5-1.2-0.5c-0.1,0-0.3,0.1-0.4,0.1
	c-0.3,0.1-0.5,0.3-0.6,0.6c-0.2,0.3-0.2,0.6-0.2,0.9c0.1,0.5,0.1,1,0.1,1.4c0,2.1-0.8,3.9-2,5.4c0,0,0,0,0,0
	c-0.3,0.3-0.6,0.6-0.9,0.9c0,0,0,0,0,0c-0.3,0.3-0.7,0.5-1.1,0.7c0,0,0,0-0.1,0c0,0,0,0-0.1,0c0,0,0,0,0,0c-0.4,0.2-0.7,0.4-1.1,0.5
	c0,0,0,0-0.1,0c0,0-0.1,0-0.1,0c0,0,0,0-0.1,0c-0.4,0.1-0.8,0.2-1.2,0.3c0,0,0,0,0,0c0,0,0,0,0,0c-0.4,0.1-0.9,0.1-1.4,0.1
	c0,0,0,0,0,0c-0.5,0-1-0.1-1.5-0.1c0,0-0.1,0-0.1,0c0,0,0,0-0.1,0c0,0-0.1,0-0.1,0C198.5,30.3,196.9,29.3,195.8,27.8 M282.5,111.3
	l1.3-1.4l8-8.7L307.5,84l0.3,0.3l0,0l0.6,0.6l0,0l18,16.5l0,0l0,0L288,143.4c-0.6,0.7-1.3,1.3-2.1,1.8c-2.6,1.8-5.8,2.7-9,2.3
	c-4.1-0.5-7.8-3-9.8-6.6l-10.3-18.6l0,0h0l7.2-6.6l12.4-11.3l3.7,6.6c0.2,0.4,0.6,0.6,1,0.7C281.7,111.8,282.2,111.6,282.5,111.3
	 M306.9,76.1c0-0.2,0-0.3,0.1-0.5c0.2-0.7,0.5-1.3,0.9-1.9c1-1.3,2.4-2.1,4-2.3c0,0,0,0,0,0c0.2,0,0.3,0,0.5,0
	c1.4,0,2.8,0.5,3.8,1.5c0.6,0.5,1.4,0.5,1.9-0.1l1.2-1.3l1.3-1.5c0,0,0,0,0.1-0.1c0.2-0.2,0.4-0.4,0.6-0.5c0.1,0,0.1-0.1,0.2-0.1
	c0.2-0.1,0.3-0.2,0.5-0.3c0,0,0.1,0,0.1,0c0.2-0.1,0.4-0.2,0.6-0.2c0,0,0,0,0,0c0.3-0.1,0.5-0.1,0.8-0.1c0.1,0,0.1,0,0.2,0
	c1,0,2,0.3,2.8,1.1l1.4,1.2l0.5,0.5l11,10c0.1,0.1,0.2,0.2,0.3,0.3c0.1,0.1,0.2,0.2,0.3,0.3c0.1,0.1,0.1,0.2,0.2,0.3
	c0.1,0.1,0.2,0.3,0.3,0.4c0,0.1,0,0.1,0.1,0.2c0.1,0.2,0.1,0.4,0.2,0.6c0,0.1,0,0.2,0.1,0.4c0,0.1,0.1,0.3,0.1,0.4
	c0,0.2,0,0.3,0,0.5c0,0.1,0,0.2,0,0.3c0,0.2-0.1,0.4-0.2,0.6c0,0.1,0,0.1,0,0.2c-0.1,0.2-0.2,0.4-0.3,0.5c0,0.1-0.1,0.1-0.1,0.2
	c-0.1,0.2-0.3,0.4-0.4,0.6c0,0,0,0.1-0.1,0.1l-11.1,12.2l-18.8-17.1l-1-0.9v0c0,0-0.1-0.1-0.1-0.1c0,0-0.1-0.1-0.1-0.1
	c-0.1-0.1-0.2-0.2-0.3-0.3c-0.1-0.1-0.2-0.2-0.3-0.4c0,0,0,0,0-0.1c-0.2-0.3-0.4-0.6-0.5-0.9c0,0,0,0,0,0c-0.2-0.3-0.3-0.6-0.4-1
	c0,0,0,0,0,0c-0.1-0.3-0.2-0.7-0.2-1c0-0.1,0-0.1,0-0.2c0-0.3,0-0.6,0-0.9C306.8,76.4,306.8,76.2,306.9,76.1 M284.4,204.5
	c-3.1-5.8-8.6-10-14.9-11.7l-27.1-7l4-10.6c0,0,0-0.1,0-0.1c0-0.1,0-0.1,0.1-0.1l7.9-51.6l10.5,18.9c0.9,1.6,2,3,3.4,4.2l0.7,1.2
	c2.4,4.4,6.8,7.4,11.8,8c5,0.6,10-1.3,13.4-4.9l39.1-42.6c0.2-0.1,0.4-0.2,0.5-0.3l12-13.2c1.2-1.4,1.9-3.1,1.8-4.9
	c-0.1-1.8-0.9-3.5-2.2-4.7l-2-1.8c-0.3-1.4-1-2.6-2.1-3.6l-12.9-11.7c-2.8-2.5-7.1-2.3-9.7,0.5l-1.7,1.9c-1.6-1-3.5-1.5-5.4-1.3
	c-2.3,0.2-4.5,1.4-5.9,3.3c-2.2,2.9-2.1,7,0,9.9l-23.3,25.4l-11.3-20.4c-0.9-1.6-2-3-3.4-4.1l-0.7-1.3c-2.7-5-8-8.1-13.7-8.1h-25.2
	V62.3h1.5c9.3,0,16.9-7.6,16.9-16.9V34.6c6.5-1.7,11.4-7.6,11.4-14.6c0-4.6-2.1-8.8-5.4-11.5c-2.4-5.3-7.7-9-13.8-9
	c-3.3,0-6.5,1.1-9.1,3.1c-2.4-2-5.4-3.1-8.6-3.1c-1.8,0-3.5,0.3-5.2,1c-1.4-0.7-3-1-4.5-1c-5.8,0-10.5,4.7-10.5,10.5
	c0,0.6,0.1,1.3,0.2,1.9c-5.5,0.6-9.7,5.2-9.7,10.9c0,3.7,1.9,7,4.7,8.9c0.1,0.4,0.3,0.7,0.4,1.1c-1.7,1.5-2.7,3.6-2.7,6.1
	c0,3.1,1.7,5.8,4.3,7.2c0.4,1.9,1.4,3.5,2.9,4.7v22.8h-33.4c-2,0-4,0.4-5.9,1.2l-53.4,21.9c-4.8,2-8.3,6.2-9.4,11.2l-9.6,45.6
	c0,0,0,0,0,0l-3.7,17.4c-0.4,1.8,0,3.6,0.9,5.2c0.1,0.1,0.1,0.2,0.2,0.3c-16.7,0-33.2,7.9-43.5,22.6L13.4,241
	c-0.2,0.3-0.3,0.7-0.2,1c0.1,0.4,0.3,0.7,0.6,0.9l4.2,2.9l-0.4,0.6c-0.4,0.6-0.3,1.5,0.3,1.9l36.5,25.5h-2c-1,0-1.9,0.8-1.9,1.9
	c0,1,0.8,1.9,1.9,1.9h7.3l42.7,29.8c0.2,0.2,0.5,0.2,0.8,0.2c0.1,0,0.2,0,0.2,0c0.4-0.1,0.7-0.3,0.9-0.6l29.5-42.3
	c14.1-20.2,12.1-46.8-3.2-64.7c-0.9-1.4-1.9-2.8-3-4.1c0.9,0,1.7-0.1,2.6-0.2c3.9-0.7,7.3-2.9,9.6-6.1l3.8-5.4
	c0.2-0.3,0.3-0.7,0.2-1c-0.1-0.4-0.3-0.7-0.6-0.9l-4.2-2.9l0.4-0.6c0.2-0.3,0.3-0.7,0.2-1c-0.1-0.4-0.3-0.7-0.6-0.9l-10.4-7.3
	c-0.6-2.1-2-3.9-4-5c-0.1-0.6-0.4-1.2-0.6-1.8l7.4-35.1l28.9-11.8l-6.8,32.6v0l-8.2,36.8c-1.7,9.1,1,17.5,6.7,23.1
	c3,5.6,8.1,9.8,14.7,11.5l5.6,1.5l-20.1,52.6H148c-1,0-1.9,0.8-1.9,1.9c0,1,0.8,1.9,1.9,1.9h3l-25,65.2c-0.1,0.3-0.1,0.7,0,1
	c0.1,0.3,0.4,0.6,0.8,0.7l4.1,1.6l-0.8,2.1c-0.1,0.3-0.1,0.7,0,1c0.1,0.3,0.4,0.6,0.8,0.7l54.4,20.8c0.2,0.1,0.3,0.1,0.5,0.1
	c0.3,0,0.7-0.1,0.9-0.3c0.4-0.3,0.5-0.9,0.4-1.4l-5.7-21.5l42.6-113l7.3,1.9l-25.4,69.4c-0.1,0.3-0.1,0.7,0.1,1.1
	c0.2,0.3,0.4,0.6,0.8,0.7l4.1,1.4l-0.8,2.3c-0.1,0.3-0.1,0.7,0.1,1.1c0.2,0.3,0.4,0.6,0.8,0.7l55.3,18.7c0.1,0,0.3,0.1,0.4,0.1
	c0.4,0,0.7-0.1,1-0.4c0.4-0.4,0.5-0.9,0.3-1.4l-6.9-18.8l29.2-82.3c2.1-6.2,1.5-13.1-1.6-18.9C287.4,208,286,206.2,284.4,204.5"/>
<path class="st0" d="M118.1,228.6c-0.5-0.5-1.4-0.5-1.9,0l-1.7,1.7l-0.3,0.3c0-0.2,0-0.3,0-0.5c-0.8-15.6-13.7-28.1-29.6-28.1
	c-10.6,0-20.1,5.6-25.4,14.3c-1.5,2.4-2.6,5.1-3.4,8c-0.1,0.5,0.1,1.1,0.5,1.4c0.1,0.1,0.3,0.2,0.5,0.2c0.7,0.2,1.5-0.3,1.7-1
	c0.1-0.5,0.3-1,0.4-1.5c0.1-0.2,0.1-0.5,0.2-0.7c0.1-0.3,0.2-0.6,0.3-0.8c0.4-1.1,0.9-2.2,1.5-3.3c0,0,0,0,0,0
	c4.6-8.5,13.6-14,23.6-14c13.3,0,24.2,9.7,26.4,22.3c0.2,1.1,0.4,2.3,0.4,3.5l-1.1-1.1l-0.9-0.9c-0.5-0.5-1.4-0.5-1.9,0
	c-0.4,0.4-0.5,1-0.3,1.5c0.1,0.2,0.2,0.3,0.3,0.4l0.9,0.9l3.4,3.4c0.1,0.1,0.3,0.2,0.4,0.3c0.1,0,0.2,0.1,0.3,0.1c0.1,0,0.1,0,0.2,0
	c0,0,0.1,0,0.1,0c0.1,0,0.3,0,0.4-0.1c0.2-0.1,0.3-0.2,0.4-0.3l1.5-1.5l2.9-2.9c0.4-0.4,0.5-1,0.3-1.5
	C118.3,228.9,118.2,228.8,118.1,228.6"/>
<path class="st0" d="M112.2,237.4c-0.7-0.2-1.3,0.2-1.6,0.8c0,0.1-0.1,0.1-0.1,0.2c-3,12-13.7,20.3-26.1,20.3
	c-14.4,0-26.2-11.5-26.8-25.8l2,2c0.5,0.5,1.4,0.5,1.9,0c0.1-0.1,0.2-0.3,0.3-0.4c0.2-0.5,0.1-1.1-0.3-1.5l-2.2-2.2l-2.2-2.2
	c0,0,0,0-0.1,0c-0.5-0.5-1.3-0.5-1.8,0c0,0,0,0,0,0l-0.9,0.9l-3.5,3.5c-0.4,0.4-0.5,1-0.3,1.5c0.1,0.2,0.2,0.3,0.3,0.4
	c0.3,0.3,0.6,0.4,1,0.4c0.3,0,0.7-0.1,1-0.4l1.8-1.8l0.3-0.3c0.6,15.8,13.6,28.6,29.6,28.6c1.7,0,3.4-0.1,5-0.4
	c10.6-1.8,19.5-9.2,23-19.5c0.2-0.6,0.4-1.2,0.5-1.7c0.1-0.2,0.1-0.4,0.2-0.7C113.4,238.3,112.9,237.6,112.2,237.4"/>
<path class="st0" d="M394.3,158.4c12.5,0,22.6,10.1,22.6,22.6c0,9.8-14.1,30.8-20.7,40.1c-0.7,1-1.3,1.9-1.8,2.6
	c-0.5-0.7-1.1-1.6-1.8-2.6c-6.6-9.3-20.7-30.3-20.7-40.1C371.7,168.6,381.8,158.4,394.3,158.4 M392.8,228c0.4,0.5,0.9,0.7,1.5,0.7
	c0.6,0,1.1-0.3,1.5-0.7c1-1.3,24.8-33,24.8-47c0-14.5-11.8-26.3-26.3-26.3c-14.5,0-26.3,11.8-26.3,26.3
	C368,195,391.8,226.6,392.8,228"/>
<path class="st0" d="M394.3,174.7c3.6,0,6.6,2.9,6.6,6.6c0,3.6-2.9,6.6-6.6,6.6c-3.6,0-6.6-2.9-6.6-6.6
	C387.7,177.6,390.7,174.7,394.3,174.7 M394.3,191.5c5.7,0,10.3-4.6,10.3-10.3c0-5.7-4.6-10.3-10.3-10.3c-5.7,0-10.3,4.6-10.3,10.3
	C384,186.9,388.6,191.5,394.3,191.5"/>
<path class="st3" d="M312.9,30.4l-3.7-5.7c-0.4-0.6-0.2-1.5,0.4-1.9c0.6-0.4,1.5-0.2,1.9,0.4l3.7,5.7c2.1-5.8,1.4-12.4-1.9-17.6
	c-3.7-5.7-10-9.1-16.7-9.1c-0.1,0-0.1,0-0.2,0c-2.9,6.2-2.4,13.4,1.3,19.2C301,26.6,306.7,29.9,312.9,30.4"/>
<path class="st0" d="M296.3,2.2c0,0,0.1,0,0.2,0c6.7,0,13.1,3.4,16.7,9.1c3.4,5.3,4.1,11.8,1.9,17.6l-3.7-5.7
	c-0.4-0.6-1.2-0.8-1.9-0.4c-0.6,0.4-0.8,1.2-0.4,1.9l3.7,5.7c-6.2-0.5-11.9-3.8-15.2-9C293.9,15.6,293.4,8.3,296.3,2.2 M314.4,33.2
	c0.1,0,0.2,0,0.3,0l4.7,7.2c0.3,0.4,0.7,0.6,1.1,0.6c0.3,0,0.5-0.1,0.7-0.2c0.6-0.4,0.8-1.2,0.4-1.9l-4.7-7.2
	c3.3-7,2.8-15.3-1.4-21.9c-4.4-6.8-12.1-10.7-20.1-10.3c-0.5,0-0.9,0.3-1.1,0.7c-3.7,7.2-3.3,15.8,1.1,22.6
	C299.5,29.3,306.7,33.2,314.4,33.2"/>
<path class="st2" d="M355.5,132c0.5-0.5,1.4-0.5,1.9,0c0.5,0.5,0.5,1.4,0,1.9l-2.1,2.2c3.2,0.1,6.4-1.1,8.7-3.5
	c2.7-2.8,3.8-6.7,3.1-10.5c-3.8-0.7-7.7,0.6-10.4,3.3c-2.3,2.4-3.4,5.6-3.3,8.8L355.5,132z"/>
<path class="st0" d="M356.6,125.4c2.7-2.8,6.6-4,10.4-3.3c0.8,3.8-0.4,7.7-3.1,10.5c-2.3,2.4-5.5,3.6-8.7,3.5l2.1-2.2
	c0.5-0.5,0.5-1.4,0-1.9c-0.5-0.5-1.4-0.5-1.9,0l-2.1,2.2C353.2,130.9,354.3,127.7,356.6,125.4 M347.5,140.2c-0.5,0.5-0.5,1.4,0,1.9
	c0.3,0.3,0.6,0.4,0.9,0.4c0.4,0,0.7-0.1,1-0.4l3.5-3.6c0.9,0.2,1.8,0.3,2.7,0.3c3.8,0,7.6-1.5,10.3-4.3c3.6-3.7,4.9-9,3.5-13.9
	c-0.1-0.5-0.5-0.8-1-0.9c-5-1.3-10.3,0.2-13.8,3.9c-3.4,3.5-4.7,8.4-3.7,13.1L347.5,140.2z"/>
<path class="st2" d="M84.9,73.2c1.8-3.3,1.9-7.3,0.2-10.7c-1.5-2.8-4.1-4.9-7.1-5.8l1.3,2.6c0.3,0.7,0.1,1.5-0.6,1.8
	c-0.2,0.1-0.4,0.1-0.6,0.1c-0.5,0-1-0.3-1.2-0.7L75.5,58c-1.1,3-0.9,6.3,0.5,9.1C77.8,70.4,81.1,72.7,84.9,73.2"/>
<path class="st0" d="M75.5,58l1.3,2.6c0.2,0.5,0.7,0.7,1.2,0.7c0.2,0,0.4,0,0.6-0.2c0.7-0.3,0.9-1.2,0.6-1.8L78,56.7
	c3,0.9,5.6,2.9,7.1,5.8c1.7,3.4,1.7,7.4-0.2,10.7c-3.7-0.5-7.1-2.8-8.8-6.1C74.6,64.2,74.5,60.9,75.5,58 M74,54.9
	c-2.3,4.1-2.5,9.2-0.3,13.4c2.3,4.5,6.8,7.4,11.9,7.7c0,0,0,0,0.1,0c0.5,0,0.9-0.2,1.1-0.6c2.7-4.2,3-9.6,0.7-14.1
	c-2.2-4.2-6.4-7.1-11.1-7.6l-2.2-4.4c-0.3-0.7-1.2-0.9-1.8-0.6c-0.7,0.3-0.9,1.2-0.6,1.8L74,54.9z"/>
<path class="st3" d="M319.1,214.9c-4.1,4.8-5.6,11.2-4.3,17.2l4.4-5.2c0.5-0.6,1.3-0.6,1.9-0.2c0.6,0.5,0.6,1.3,0.2,1.9l-4.4,5.2
	c6.2,0.4,12.3-2.2,16.3-6.9c4.4-5.2,5.9-12.3,3.9-18.8C330.4,207.2,323.6,209.7,319.1,214.9"/>
<path class="st0" d="M333.2,226.9c-4.1,4.8-10.1,7.3-16.3,6.9l4.4-5.2c0.5-0.6,0.4-1.4-0.2-1.9c-0.6-0.5-1.4-0.4-1.9,0.2l-4.4,5.2
	c-1.3-6,0.2-12.4,4.3-17.2c4.4-5.2,11.2-7.7,18-6.8C339.1,214.6,337.7,221.7,333.2,226.9 M338.4,205.6c-7.9-1.5-16.1,1.4-21.3,7.6
	c-5,5.9-6.7,14.1-4.3,21.5l-5.6,6.5c-0.5,0.6-0.4,1.4,0.2,1.9c0.3,0.2,0.6,0.3,0.9,0.3c0.4,0,0.8-0.2,1-0.5l5.6-6.5
	c1.1,0.2,2.2,0.3,3.3,0.3c6.6,0,12.9-2.9,17.2-7.9c5.2-6.1,6.8-14.6,4.1-22.2C339.2,206,338.9,205.7,338.4,205.6"/>
<path class="st3" d="M46.5,150.7c0.4,0.7,0.1,1.5-0.5,1.8l-6,3.3c5.6,2.5,12.2,2.3,17.7-0.6c6-3.3,9.9-9.4,10.3-16.2
	c-5.9-3.3-13.2-3.4-19.2-0.1c-5.5,3-9.2,8.4-10.1,14.5l6-3.3C45.4,149.8,46.2,150.1,46.5,150.7"/>
<path class="st0" d="M48.9,138.9c6-3.3,13.3-3.2,19.2,0.1c-0.4,6.8-4.4,12.9-10.3,16.2c-5.5,3-12.1,3.2-17.7,0.6l6-3.3
	c0.7-0.4,0.9-1.2,0.5-1.8c-0.4-0.7-1.2-0.9-1.8-0.5l-6,3.3C39.6,147.3,43.4,141.9,48.9,138.9 M28.9,161.7c0.2,0,0.4-0.1,0.6-0.2
	l7.5-4.1c3.4,1.9,7.3,2.9,11.1,2.9c3.7,0,7.4-0.9,10.8-2.7c7.1-3.8,11.6-11.2,11.8-19.3c0-0.5-0.2-0.9-0.7-1.2
	c-6.9-4.2-15.5-4.4-22.6-0.6c-6.8,3.7-11.3,10.8-11.7,18.5l-7.5,4.1c-0.7,0.4-0.9,1.2-0.5,1.8C28,161.4,28.5,161.7,28.9,161.7"/>
</svg>
