<?xml version="1.0" encoding="utf-8"?>
<!-- Generator: Adobe Illustrator 27.0.0, SVG Export Plug-In . SVG Version: 6.00 Build 0)  -->
<svg version="1.1" id="Layer_1" xmlns="http://www.w3.org/2000/svg" xmlns:xlink="http://www.w3.org/1999/xlink" x="0px" y="0px"
	 viewBox="0 0 552 138" style="enable-background:new 0 0 552 138;" xml:space="preserve">
<style type="text/css">
	
		.st0{clip-path:url(#SVGID_00000065797227118435601270000007597724055955743903_);fill:none;stroke:#007FAB;stroke-width:10.3366;stroke-linecap:round;stroke-linejoin:round;stroke-miterlimit:10;}
	.st1{clip-path:url(#SVGID_00000065797227118435601270000007597724055955743903_);fill:#007FAB;}
	
		.st2{clip-path:url(#SVGID_00000065797227118435601270000007597724055955743903_);fill-rule:evenodd;clip-rule:evenodd;fill:#007FAB;}
	.st3{clip-path:url(#SVGID_00000065797227118435601270000007597724055955743903_);fill:#DFB346;}
	
		.st4{clip-path:url(#SVGID_00000065797227118435601270000007597724055955743903_);fill-rule:evenodd;clip-rule:evenodd;fill:#DFB346;}
</style>
<g>
	<defs>
		<rect id="SVGID_1_" width="552" height="138"/>
	</defs>
	<clipPath id="SVGID_00000111912993350610427430000017927927450128007601_">
		<use xlink:href="#SVGID_1_"  style="overflow:visible;"/>
	</clipPath>
	
		<rect style="clip-path:url(#SVGID_00000111912993350610427430000017927927450128007601_);fill:none;stroke:#007FAB;stroke-width:10.3366;stroke-linecap:round;stroke-linejoin:round;stroke-miterlimit:10;" width="551" height="137.3"/>
	<path style="clip-path:url(#SVGID_00000111912993350610427430000017927927450128007601_);fill:#007FAB;" d="M168.7,51.2h18.3V28.3
		h-18.3V51.2z M189.5,63.5h-35V16h33.1c4.8,0,8.2,1,10.4,3.1s3.3,5.1,3.3,9.1v23.6c0,1-0.1,2-0.4,3c-0.3,1.1-0.7,2-1.5,3
		c-1.4,2-2.8,3.5-4.4,4.4C193.6,63.1,191.7,63.5,189.5,63.5z"/>
	
		<rect x="207" y="16" style="clip-path:url(#SVGID_00000111912993350610427430000017927927450128007601_);fill-rule:evenodd;clip-rule:evenodd;fill:#007FAB;" width="14.3" height="47.5"/>
	<path style="clip-path:url(#SVGID_00000111912993350610427430000017927927450128007601_);fill:#007FAB;" d="M227,51.3l-0.1-1.2
		V29.2c0-1.4,0.2-2.7,0.5-3.8c0.8-3.1,2.4-5.5,4.8-7.3c2.1-1.5,4.6-2.2,7.7-2.2h34.4v12.3h-33.1v22.8h18.9v-16h14.3v17.1
		c0,1.8-0.2,3.3-0.5,4.4c-0.4,1.1-1,2.2-1.9,3.3c-1.1,1.4-2.5,2.3-4,2.8c-1.5,0.5-3.7,0.8-6.7,0.8h-24.4c-1,0-2.2-0.3-3.4-0.8
		c-2.1-0.9-3.7-2.2-4.7-3.9C227.6,56.9,227,54.4,227,51.3z"/>
	
		<rect x="280" y="16" style="clip-path:url(#SVGID_00000111912993350610427430000017927927450128007601_);fill-rule:evenodd;clip-rule:evenodd;fill:#007FAB;" width="14.3" height="47.5"/>
	<polygon style="clip-path:url(#SVGID_00000111912993350610427430000017927927450128007601_);fill:#007FAB;" points="311.4,28.3 
		297.1,28.3 297.1,16 339.9,16 339.9,28.3 325.6,28.3 325.6,63.5 311.4,63.5 	"/>
	<path style="clip-path:url(#SVGID_00000111912993350610427430000017927927450128007601_);fill:#007FAB;" d="M357,35h16v-6.7h-16V35
		z M357,63.5h-14.3V27.9l0.1-1.6c0.4-2.9,1.2-5,2.3-6.4s2.9-2.5,5.2-3.3c0.5-0.2,1.2-0.3,2-0.4c0.8-0.1,1.9-0.1,3.2-0.1h20.7
		c1.8,0,3.3,0.3,4.5,0.8c1.2,0.5,2.4,1.5,3.6,2.9c1.9,2.1,2.8,4.7,2.8,7.9v35.9h-14.3V45.1h-16V63.5z"/>
	<polygon style="clip-path:url(#SVGID_00000111912993350610427430000017927927450128007601_);fill:#007FAB;" points="430.9,63.5 
		392.9,63.5 392.9,16 407.1,16 407.1,51.2 430.9,51.2 	"/>
	<polygon style="clip-path:url(#SVGID_00000111912993350610427430000017927927450128007601_);fill:#007FAB;" points="448,63.5 
		433.7,63.5 433.7,16 451.9,16 467.2,39.6 467.2,16 481.5,16 481.5,63.5 467.2,63.5 448,32.8 	"/>
	<path style="clip-path:url(#SVGID_00000111912993350610427430000017927927450128007601_);fill:#007FAB;" d="M501.4,35h16v-6.7h-16
		V35z M501.4,63.5h-14.3V27.9l0.1-1.6c0.4-2.9,1.2-5,2.3-6.4s2.9-2.5,5.2-3.3c0.5-0.2,1.2-0.3,2-0.4c0.8-0.1,1.9-0.1,3.2-0.1h20.7
		c1.8,0,3.3,0.3,4.5,0.8s2.4,1.5,3.6,2.9c1.9,2.1,2.8,4.7,2.8,7.9v35.9h-14.3V45.1h-16V63.5z"/>
	<path style="clip-path:url(#SVGID_00000111912993350610427430000017927927450128007601_);fill:#DFB346;" d="M167.4,109.2h17V88.1
		h-17V109.2z M186.6,120.6h-32.4V76.7h30.6c4.4,0,7.6,1,9.6,2.9c2,1.9,3.1,4.7,3.1,8.4v21.8c0,0.9-0.1,1.8-0.4,2.8
		c-0.2,1-0.7,1.9-1.3,2.7c-1.3,1.9-2.6,3.2-4,4C190.4,120.2,188.7,120.6,186.6,120.6z"/>
	<path style="clip-path:url(#SVGID_00000111912993350610427430000017927927450128007601_);fill:#DFB346;" d="M216,94.3h14.8v-6.2
		H216V94.3z M216,120.6h-13.2V87.7l0.1-1.5c0.4-2.6,1.1-4.6,2.2-5.9c1-1.3,2.7-2.3,4.8-3.1c0.5-0.2,1.1-0.3,1.8-0.4
		c0.7-0.1,1.7-0.1,3-0.1h19.1c1.7,0,3,0.2,4.1,0.7c1.1,0.5,2.2,1.4,3.3,2.7c1.7,1.9,2.6,4.4,2.6,7.3v33.2h-13.2v-17H216V120.6z"/>
	<polygon style="clip-path:url(#SVGID_00000111912993350610427430000017927927450128007601_);fill:#DFB346;" points="284.3,120.6 
		249.2,120.6 249.2,76.7 262.4,76.7 262.4,109.2 284.3,109.2 	"/>
	<polygon style="clip-path:url(#SVGID_00000111912993350610427430000017927927450128007601_);fill:#DFB346;" points="300.1,120.6 
		286.9,120.6 286.9,76.7 305.4,76.7 312.4,106.4 319.4,76.7 337.9,76.7 337.9,120.6 324.7,120.6 324.7,89.9 316.3,120.6 
		308.3,120.6 300.1,89.9 	"/>
	<path style="clip-path:url(#SVGID_00000111912993350610427430000017927927450128007601_);fill:#DFB346;" d="M356.3,94.3h14.8v-6.2
		h-14.8V94.3z M356.3,120.6h-13.2V87.7l0.1-1.5c0.4-2.6,1.1-4.6,2.2-5.9c1-1.3,2.7-2.3,4.9-3.1c0.5-0.2,1.1-0.3,1.8-0.4
		c0.7-0.1,1.7-0.1,3-0.1h19.1c1.7,0,3,0.2,4.1,0.7c1.1,0.5,2.2,1.4,3.3,2.7c1.7,1.9,2.6,4.4,2.6,7.3v33.2h-13.2v-17h-14.8V120.6z"/>
	<path style="clip-path:url(#SVGID_00000111912993350610427430000017927927450128007601_);fill:#DFB346;" d="M389.5,109.3l-0.1-1V89
		c0-1.3,0.1-2.5,0.4-3.5c0.8-2.9,2.3-5.1,4.5-6.7c1.9-1.4,4.3-2.1,7.1-2.1h26.9v11.4h-25.7v21.1h25.7v11.4h-29.4
		c-1.1,0-2.2-0.2-3.3-0.7c-1.9-0.8-3.4-2-4.4-3.7C390.1,114.5,389.5,112.1,389.5,109.3z"/>
	
		<rect x="433.6" y="76.7" style="clip-path:url(#SVGID_00000111912993350610427430000017927927450128007601_);fill-rule:evenodd;clip-rule:evenodd;fill:#DFB346;" width="13.2" height="43.9"/>
	<path style="clip-path:url(#SVGID_00000111912993350610427430000017927927450128007601_);fill:#DFB346;" d="M451.1,115.4
		c-1.1-1.6-1.6-3.6-1.6-6V101h13.2v8.2h10.6V76.7h13.2v35.7c0,0.8-0.2,1.6-0.5,2.4c-0.3,0.8-0.9,1.7-1.7,2.7
		c-1.7,2.1-4.2,3.2-7.4,3.2h-18.7c-0.4,0-0.9-0.1-1.4-0.3c-0.5-0.2-1.3-0.6-2.3-1.3c-0.5-0.4-1-0.9-1.5-1.4
		C452.4,117.2,451.8,116.4,451.1,115.4z"/>
	<path style="clip-path:url(#SVGID_00000111912993350610427430000017927927450128007601_);fill:#DFB346;" d="M504.9,94.3h14.8v-6.2
		h-14.8V94.3z M504.9,120.6h-13.2V87.7l0.1-1.5c0.4-2.6,1.1-4.6,2.2-5.9c1-1.3,2.7-2.3,4.9-3.1c0.5-0.2,1.1-0.3,1.8-0.4
		c0.7-0.1,1.7-0.1,3-0.1h19.1c1.7,0,3,0.2,4.1,0.7c1.1,0.5,2.2,1.4,3.3,2.7c1.7,1.9,2.6,4.4,2.6,7.3v33.2h-13.2v-17h-14.8V120.6z"/>
	
		<rect style="clip-path:url(#SVGID_00000111912993350610427430000017927927450128007601_);fill-rule:evenodd;clip-rule:evenodd;fill:#007FAB;" width="137.3" height="137.3"/>
	<polygon style="clip-path:url(#SVGID_00000111912993350610427430000017927927450128007601_);fill:#DFB346;" points="30.4,68.7 
		30.4,53.4 15.1,53.4 15.1,99.2 30.4,99.2 30.4,83.9 45.7,83.9 45.7,68.7 	"/>
	<polygon style="clip-path:url(#SVGID_00000111912993350610427430000017927927450128007601_);fill:#DFB346;" points="76.2,53.4 
		76.2,38.1 60.9,38.1 60.9,53.4 45.7,53.4 45.7,68.7 60.9,68.7 60.9,83.9 76.2,83.9 76.2,68.7 91.5,68.7 91.5,53.4 	"/>
	<polygon style="clip-path:url(#SVGID_00000111912993350610427430000017927927450128007601_);fill:#DFB346;" points="106.7,53.4 
		106.7,68.7 91.5,68.7 91.5,83.9 106.7,83.9 106.7,99.2 122,99.2 122,53.4 	"/>
</g>
</svg>
