<?xml version="1.0" encoding="utf-8"?>
<!-- Generator: Adobe Illustrator 27.0.0, SVG Export Plug-In . SVG Version: 6.00 Build 0)  -->
<svg version="1.1" id="Layer_1" xmlns="http://www.w3.org/2000/svg" xmlns:xlink="http://www.w3.org/1999/xlink" x="0px" y="0px"
	 viewBox="0 0 552 138" style="enable-background:new 0 0 552 138;" xml:space="preserve">
<style type="text/css">
	.st0{fill:none;stroke:#FFFFFF;stroke-width:10.3366;stroke-linecap:round;stroke-linejoin:round;stroke-miterlimit:10;}
	.st1{fill:#FFFFFF;}
	.st2{fill-rule:evenodd;clip-rule:evenodd;fill:#FFFFFF;}
	.st3{fill:#006A43;}
</style>
<g>
	<rect x="0.5" y="0.4" class="st0" width="551" height="137.3"/>
	<path class="st1" d="M169.2,51.5h18.3V28.7h-18.3V51.5z M190,63.9h-35V16.3h33.1c4.8,0,8.2,1,10.4,3.1s3.3,5.1,3.3,9.1v23.6
		c0,1-0.1,2-0.4,3c-0.3,1.1-0.7,2-1.5,3c-1.4,2-2.8,3.5-4.4,4.4C194.1,63.4,192.2,63.9,190,63.9z"/>
	<rect x="207.5" y="16.3" class="st2" width="14.3" height="47.5"/>
	<path class="st1" d="M227.5,51.6l-0.1-1.2V29.6c0-1.4,0.2-2.7,0.5-3.8c0.8-3.1,2.4-5.5,4.8-7.3c2.1-1.5,4.6-2.2,7.7-2.2h34.4v12.3
		h-33.1v22.8h18.9v-16h14.3v17.1c0,1.8-0.2,3.3-0.5,4.4c-0.4,1.1-1,2.2-1.9,3.3c-1.1,1.4-2.5,2.3-4,2.8c-1.5,0.5-3.7,0.8-6.7,0.8
		h-24.4c-1,0-2.2-0.3-3.4-0.8c-2.1-0.9-3.7-2.2-4.7-3.9C228.1,57.2,227.5,54.7,227.5,51.6z"/>
	<rect x="280.5" y="16.3" class="st2" width="14.3" height="47.5"/>
	<polygon class="st1" points="311.8,28.7 297.6,28.7 297.6,16.3 340.3,16.3 340.3,28.7 326.1,28.7 326.1,63.9 311.8,63.9 	"/>
	<path class="st1" d="M357.4,35.3h16v-6.7h-16V35.3z M357.4,63.9h-14.3V28.2l0.1-1.6c0.4-2.9,1.2-5,2.3-6.4s2.9-2.5,5.2-3.3
		c0.5-0.2,1.2-0.3,2-0.4c0.8-0.1,1.9-0.1,3.2-0.1h20.7c1.8,0,3.3,0.3,4.5,0.8c1.2,0.5,2.4,1.5,3.6,2.9c1.9,2.1,2.8,4.7,2.8,7.9v35.9
		h-14.3V45.5h-16V63.9z"/>
	<polygon class="st1" points="431.4,63.9 393.3,63.9 393.3,16.3 407.6,16.3 407.6,51.5 431.4,51.5 	"/>
	<polygon class="st1" points="448.5,63.9 434.2,63.9 434.2,16.3 452.4,16.3 467.7,40 467.7,16.3 482,16.3 482,63.9 467.7,63.9 
		448.5,33.2 	"/>
	<path class="st1" d="M501.9,35.3h16v-6.7h-16V35.3z M501.9,63.9h-14.3V28.2l0.1-1.6c0.4-2.9,1.2-5,2.3-6.4s2.9-2.5,5.2-3.3
		c0.5-0.2,1.2-0.3,2-0.4c0.8-0.1,1.9-0.1,3.2-0.1h20.7c1.8,0,3.3,0.3,4.5,0.8s2.4,1.5,3.6,2.9c1.9,2.1,2.8,4.7,2.8,7.9v35.9h-14.3
		V45.5h-16V63.9z"/>
	<path class="st1" d="M167.9,109.6h17V88.5h-17V109.6z M187.1,121h-32.4V77.1h30.6c4.4,0,7.6,1,9.6,2.9c2,1.9,3.1,4.7,3.1,8.4v21.8
		c0,0.9-0.1,1.8-0.4,2.8c-0.2,1-0.7,1.9-1.3,2.7c-1.3,1.9-2.6,3.2-4,4C190.9,120.6,189.2,121,187.1,121z"/>
	<path class="st1" d="M216.5,94.6h14.8v-6.2h-14.8V94.6z M216.5,121h-13.2V88.1l0.1-1.5c0.4-2.6,1.1-4.6,2.2-5.9
		c1-1.3,2.7-2.3,4.8-3.1c0.5-0.2,1.1-0.3,1.8-0.4c0.7-0.1,1.7-0.1,3-0.1h19.1c1.7,0,3,0.2,4.1,0.7c1.1,0.5,2.2,1.4,3.3,2.7
		c1.7,1.9,2.6,4.4,2.6,7.3V121h-13.2v-17h-14.8V121z"/>
	<polygon class="st1" points="284.8,121 249.7,121 249.7,77.1 262.8,77.1 262.8,109.6 284.8,109.6 	"/>
	<polygon class="st1" points="300.6,121 287.4,121 287.4,77.1 305.8,77.1 312.9,106.7 319.9,77.1 338.3,77.1 338.3,121 325.2,121 
		325.2,90.2 316.8,121 308.8,121 300.6,90.2 	"/>
	<path class="st1" d="M356.8,94.6h14.8v-6.2h-14.8V94.6z M356.8,121h-13.2V88.1l0.1-1.5c0.4-2.6,1.1-4.6,2.2-5.9
		c1-1.3,2.7-2.3,4.9-3.1c0.5-0.2,1.1-0.3,1.8-0.4c0.7-0.1,1.7-0.1,3-0.1h19.1c1.7,0,3,0.2,4.1,0.7c1.1,0.5,2.2,1.4,3.3,2.7
		c1.7,1.9,2.6,4.4,2.6,7.3V121h-13.2v-17h-14.8V121z"/>
	<path class="st1" d="M390,109.6l-0.1-1V89.3c0-1.3,0.1-2.5,0.4-3.5c0.8-2.9,2.3-5.1,4.5-6.7c1.9-1.4,4.3-2.1,7.1-2.1h26.9v11.4
		h-25.7v21.1h25.7V121h-29.4c-1.1,0-2.2-0.2-3.3-0.7c-1.9-0.8-3.4-2-4.4-3.7C390.6,114.8,390,112.5,390,109.6z"/>
	<rect x="434.1" y="77.1" class="st2" width="13.2" height="43.9"/>
	<path class="st1" d="M451.6,115.7c-1.1-1.6-1.6-3.6-1.6-6v-8.4h13.2v8.2h10.6V77.1h13.2v35.7c0,0.8-0.2,1.6-0.5,2.4
		c-0.3,0.8-0.9,1.7-1.7,2.7c-1.7,2.1-4.2,3.2-7.4,3.2h-18.7c-0.4,0-0.9-0.1-1.4-0.3c-0.5-0.2-1.3-0.6-2.3-1.3
		c-0.5-0.4-1-0.9-1.5-1.4C452.8,117.5,452.3,116.8,451.6,115.7z"/>
	<path class="st1" d="M505.4,94.6h14.8v-6.2h-14.8V94.6z M505.4,121h-13.2V88.1l0.1-1.5c0.4-2.6,1.1-4.6,2.2-5.9
		c1-1.3,2.7-2.3,4.9-3.1c0.5-0.2,1.1-0.3,1.8-0.4c0.7-0.1,1.7-0.1,3-0.1h19.1c1.7,0,3,0.2,4.1,0.7c1.1,0.5,2.2,1.4,3.3,2.7
		c1.7,1.9,2.6,4.4,2.6,7.3V121h-13.2v-17h-14.8V121z"/>
	<rect x="0.5" y="0.4" class="st2" width="137.3" height="137.3"/>
	<polygon class="st3" points="30.9,69 30.9,53.7 15.6,53.7 15.6,99.5 30.9,99.5 30.9,84.3 46.2,84.3 46.2,69 	"/>
	<polygon class="st3" points="76.7,53.7 76.7,38.5 61.4,38.5 61.4,53.7 46.2,53.7 46.2,69 61.4,69 61.4,84.3 76.7,84.3 76.7,69 
		92,69 92,53.7 	"/>
	<polygon class="st3" points="107.2,53.7 107.2,69 92,69 92,84.3 107.2,84.3 107.2,99.5 122.5,99.5 122.5,53.7 	"/>
</g>
</svg>
