<?xml version="1.0" encoding="utf-8"?>
<!-- Generator: Adobe Illustrator 27.0.0, SVG Export Plug-In . SVG Version: 6.00 Build 0)  -->
<svg version="1.1" id="Layer_1" xmlns="http://www.w3.org/2000/svg" xmlns:xlink="http://www.w3.org/1999/xlink" x="0px" y="0px"
	 viewBox="0 0 500 272" style="enable-background:new 0 0 500 272;" xml:space="preserve">
<style type="text/css">
	.st0{enable-background:new    ;}
	.st1{clip-path:url(#SVGID_00000035498627324483717360000012991940372417113984_);}
</style>
<g class="st0">
	<g>
		<defs>
			<rect id="SVGID_1_" x="-45.4" y="-21.2" width="619.1" height="418.7"/>
		</defs>
		<clipPath id="SVGID_00000037685748615809634490000008287164083371365518_">
			<use xlink:href="#SVGID_1_"  style="overflow:visible;"/>
		</clipPath>
		<g style="clip-path:url(#SVGID_00000037685748615809634490000008287164083371365518_);">
			
				<image style="overflow:visible;" width="2829" height="1913" xlink:href="69D7670E0F958764.png"  transform="matrix(0.2188 0 0 0.2188 -45.4172 -21.2421)">
			</image>
		</g>
	</g>
	<g>
		<defs>
			<path id="SVGID_00000029738365891410609280000017546040510291934337_" d="M387.8,241.3c0.1,0.2,0.1,0.4,0.4,0.5
				c0.7,0.5,2,0.9,3.3,0.9c1.4,0,2.6-0.1,3.5-0.7c0.7-0.5,1.4-1.3,1.4-2.5c0-2.3-1.4-2.5-5.4-3.7c-3.8-1.1-5.3-2.5-5.3-5
				c0-2.1,1.5-3.7,3-4.5c1.4-0.8,3.3-1.2,5.6-1.2c2.5,0,4.2,0.6,4.6,0.8c0.2,1.7,0.4,3.3,0.5,4.9c-0.7,0.1-1.6,0.3-2.4,0.4l-0.6-2.8
				c-0.1-0.2-0.2-0.4-0.4-0.5c-0.6-0.4-1.6-0.6-2.7-0.6c-1.2,0-2.3,0.3-3,0.8c-0.6,0.4-1.1,1.2-1.1,2.4c0,1.8,0.9,2.1,4.7,3.2
				c3.4,0.9,6,2,6,5.4c0,2-1,3.6-3,4.7c-1.3,0.8-3.4,1.1-5.7,1.1c-2.6,0-4.6-0.4-5.7-0.8c-0.2-1.7-0.4-3.4-0.7-5.2
				c0.8-0.1,1.7-0.3,2.4-0.4L387.8,241.3z M402.5,252.6l2.7-0.2c0.1,0,0.2-0.1,0.2-0.3v-23.9l-3.6,0c0-0.6,0-1.3,0-1.8
				c1.8-0.3,6.2-1.3,6.5-1.3c0.1,0,0.1,0,0.1,0.1c0.1,0.8,0.3,1.7,0.4,2.4l0.2,0c4.7-2.3,5.4-2.5,7.4-2.5c4.8,0,7.7,4.6,7.6,8.5
				c0,2.1-0.3,3.8-1.1,5.5c-0.8,1.7-1.7,3-3.7,4.3c-1,0.7-3.1,1.3-5.2,1.3c-2,0-3.5-0.4-4.8-1l-0.2,0.1c0,2.5,0,6.1,0,8.5l4.4,0.1
				c0,0.6,0,1.3,0,2c-1.8,0-4.1,0-6.1,0c-1.6,0-3.3,0-4.7,0C402.5,253.9,402.5,253.3,402.5,252.6z M419.3,230.2
				c-0.8-1.3-2.3-2.3-4.1-2.3c-1.7,0-4,0.7-6,2.1c0,3.4-0.1,7.3-0.1,10.4c0,1,2.5,2.3,4.8,2.3c1.4,0,3-0.4,4.1-1.5
				c1.4-1.4,2.3-3.4,2.3-6.3C420.3,233.2,420,231.6,419.3,230.2z M426.2,242.5l3.2-0.1c0.1,0,0.1-0.1,0.1-0.2c0-7.9,0-18.2,0-26
				l-3.8-0.1c0-0.6,0-1.3,0-1.9c2-0.2,6.9-1,7.3-1c0.1,0,0.1,0,0.1,0.2c0,8.1-0.2,20.2-0.2,29.1l3.7,0.1c0,0.6,0,1.3,0,2
				c-1.6,0-3.5,0-5.5,0c-1.7,0-3.5,0-5.1,0C426.1,243.8,426.1,243.1,426.2,242.5z M438,228.2c0-0.6,0-1.3,0-1.9
				c2-0.2,6.8-1.1,7.2-1.1c0.1,0,0.1,0,0.1,0.1c0,5-0.1,12.3-0.1,17l3.3,0.1c0,0.7,0,1.3,0,2c-1.5,0-3.5,0-5.2,0c-1.6,0-3.4,0-5,0
				c0-0.7,0-1.3,0-2l3.2-0.1c0.1,0,0.2-0.1,0.2-0.2v-13.8L438,228.2z M445.6,218.5c0,1.4-1,2.4-2.5,2.4s-2.5-1.1-2.5-2.3
				c0-1.3,0.9-2.4,2.6-2.4C445,216.2,445.6,217.5,445.6,218.5z M455,243.6c-1.3-1.1-1.3-2.1-1.3-3.4c0-2.3,0-5.9,0.1-7.1
				c0-1.4,0-4,0-5.2c-0.9,0-2.2,0-3.3,0c0-0.7,0-1.5,0-2.2c1,0,2.1,0,3-0.1c0.1,0,0.3-0.1,0.3-0.3c0-1.3,0.1-2.8,0.1-4.1
				c1.2-0.8,3.2-1.5,3.4-1.5c0.1,0,0.1,0,0.1,0.1c0,1.5-0.1,3.9-0.1,5.8c2.4,0,5,0,7.4,0c0,0.8-0.1,1.7-0.1,2.3c-2.2,0-4.7,0-7.4,0
				c0,0.7,0,3.6,0,5c0,1.8,0,4.5,0,6.7c0,1.9,1.4,2.8,3.1,2.8c1.1,0,2.9-0.3,4.5-0.7c0.1,0.6,0.2,1.3,0.3,2
				c-2.2,0.8-4.9,1.1-6.6,1.1C457.6,244.8,456.2,244.8,455,243.6z"/>
		</defs>
		<clipPath id="SVGID_00000089547978278513435680000008166914717969913785_">
			<use xlink:href="#SVGID_00000029738365891410609280000017546040510291934337_"  style="overflow:visible;"/>
		</clipPath>
		<g style="clip-path:url(#SVGID_00000089547978278513435680000008166914717969913785_);">
			<defs>
				<rect id="SVGID_00000106142340304072562030000013449249025616842127_" x="-45.4" y="-21.2" width="619.1" height="418.7"/>
			</defs>
			<clipPath id="SVGID_00000112618865269739947240000014736049109674706309_">
				<use xlink:href="#SVGID_00000106142340304072562030000013449249025616842127_"  style="overflow:visible;"/>
			</clipPath>
			<g style="clip-path:url(#SVGID_00000112618865269739947240000014736049109674706309_);">
				
					<image style="overflow:visible;" width="2829" height="1913" xlink:href="69D7670E0F958764.jpg"  transform="matrix(0.2188 0 0 0.2188 -45.4172 -21.242)">
				</image>
			</g>
		</g>
	</g>
</g>
</svg>
