<?xml version="1.0" encoding="utf-8"?>
<!-- Generator: Adobe Illustrator 27.0.0, SVG Export Plug-In . SVG Version: 6.00 Build 0)  -->
<svg version="1.1" id="Layer_1" xmlns="http://www.w3.org/2000/svg" xmlns:xlink="http://www.w3.org/1999/xlink" x="0px" y="0px"
	 viewBox="0 0 129 37" style="enable-background:new 0 0 129 37;" xml:space="preserve">
<style type="text/css">
	.st0{fill:#FFFFFF;}
</style>
<polygon class="st0" points="45.9,20.9 48.4,20.9 49.7,4.3 49.7,4.3 54.6,15.4 57.4,15.4 62.3,4.4 62.3,4.4 63.6,20.9 66.2,20.9 
	64.5,1.7 61.1,1.7 56.1,13.1 56.1,13.1 51.1,1.7 47.4,1.7 "/>
<g>
	<path class="st0" d="M78.2,14.9c-0.1,3.1-2.3,4.2-4.1,4.2c-1.4,0-2.4-0.6-2.4-2c0-2.5,3-2.9,6.5-3V14.9z M75.1,6.6
		c-2.5,0-4.6,1-5.7,3.5l2.1,1c0.5-1.5,1.9-2.3,3.4-2.3c2.1,0,3.4,1.4,3.4,3.2v0.2c-4,0-9,0.8-9,5c0,2.6,2.2,3.9,4.4,3.9
		c2.1,0,3.5-0.8,4.6-2.7v2.5h2.3v-9C80.5,9.2,78.8,6.6,75.1,6.6"/>
	<path class="st0" d="M109.1,14.9c-0.1,3.1-2.3,4.2-4.1,4.2c-1.4,0-2.4-0.6-2.4-2c0-2.5,3-2.9,6.5-3V14.9z M105.9,6.6
		c-2.5,0-4.6,1-5.7,3.5l2.1,1c0.5-1.5,1.9-2.3,3.4-2.3c2.1,0,3.4,1.4,3.4,3.2v0.2c-4,0-9,0.8-9,5c0,2.6,2.2,3.9,4.4,3.9
		c2.1,0,3.5-0.8,4.6-2.7v2.5h2.3v-9C111.4,9.2,109.6,6.6,105.9,6.6"/>
	<path class="st0" d="M86.4,20.9v-7c0-3.7,2.3-5,5-4.6V6.7c-2.2-0.3-3.9,0.7-5,3.2V7H84v13.9H86.4z"/>
	<path class="st0" d="M96.7,19.8V7h-2.4v12.5c0,2.9-0.7,4.5-2.9,5l0.8,2.1C95.4,25.7,96.7,23.6,96.7,19.8"/>
	<path class="st0" d="M95.4,3.6c1,0,1.7-0.8,1.7-1.7c0-0.8-0.6-1.4-1.5-1.4c-1,0-1.7,0.7-1.7,1.6C93.8,2.9,94.4,3.6,95.4,3.6"/>
	<path class="st0" d="M118.1,20.9v-6.8c0-4.3,2.4-5.3,4.1-5.3c2,0,3.1,1.3,3.1,4.1v7.9h2.4v-8.4c0-4.3-2.3-5.9-5.1-5.9
		c-1.6,0-3.6,0.9-4.5,3V7h-2.4v13.9H118.1z"/>
	<path class="st0" d="M47.8,29.9c1.5,0,1.9,0.6,1.9,1.4c0,1-0.5,1.4-1.6,1.4h-0.3l0,1h0.4c1.7,0,2.7-1.2,2.7-2.6
		c0-1.2-0.8-2.4-3-2.4h-2.1v7.5h1.2v-6.5H47.8z"/>
	<path class="st0" d="M54.9,34c0,1.1-0.8,1.5-1.5,1.5c-0.5,0-0.8-0.2-0.8-0.7c0-0.9,1.1-1.1,2.3-1.1V34z M53.8,30.8
		c-1.1,0-1.9,0.4-2.3,1.4l1,0.4c0.2-0.6,0.7-0.9,1.3-0.9c0.7,0,1.2,0.5,1.2,1.2V33c-1.6,0-3.5,0.3-3.5,2c0,1,0.8,1.5,1.7,1.5
		c0.8,0,1.4-0.3,1.8-1v0.9h1.1V33C56.1,31.8,55.4,30.8,53.8,30.8"/>
	<path class="st0" d="M94.4,34c0,1.1-0.8,1.5-1.5,1.5c-0.5,0-0.8-0.2-0.8-0.7c0-0.9,1.1-1.1,2.3-1.1V34z M93.3,30.8
		c-1.1,0-1.9,0.4-2.3,1.4l1,0.4c0.2-0.6,0.7-0.9,1.3-0.9c0.7,0,1.2,0.5,1.2,1.2V33c-1.6,0-3.5,0.3-3.5,2c0,1,0.8,1.5,1.7,1.5
		c0.8,0,1.4-0.3,1.8-1v0.9h1.1V33C95.5,31.8,94.8,30.8,93.3,30.8"/>
	<path class="st0" d="M58.4,36.4v-2.7c0-1.5,1-1.9,1.9-1.7v-1.2c-0.9-0.1-1.5,0.3-1.9,1.3v-1.2h-1.2v5.5H58.4z"/>
	<path class="st0" d="M62.4,36.4v-1.6c0.3-0.2,0.6-0.4,0.9-0.7l1.5,2.3h1.3l-1.9-3c0.7-0.7,1.4-1.5,1.9-2.4h-1.4
		c-0.5,1-1.3,1.9-2.3,2.6v-5.1h-1.2v7.9H62.4z"/>
	<path class="st0" d="M72.6,35.5c-0.5,0-1-0.1-1.2-0.8l-1,0.4c0.3,1.1,1.4,1.4,2.2,1.4c1.1,0,2.2-0.6,2.2-1.7c0-2-3.1-1.3-3.1-2.4
		c0-0.4,0.4-0.7,1-0.7c0.5,0,1,0.2,1.1,0.8l1-0.5c-0.3-1-1.1-1.3-2-1.3c-1.2,0-2.2,0.6-2.2,1.7c0,2,3.1,1.4,3.1,2.4
		C73.6,35.4,73.1,35.5,72.6,35.5"/>
</g>
<polygon class="st0" points="72.6,29.3 71.4,28.4 70.8,29.1 72.1,30.3 73,30.3 74.3,29.1 73.7,28.4 "/>
<g>
	<path class="st0" d="M75.5,34.3c0,1.6,0.9,2.2,1.9,2.2c0.6,0,1.4-0.3,1.8-1.2v1h1.2v-5.5h-1.2v2.7c0,1.5-0.9,1.9-1.4,1.9
		c-0.7,0-1.1-0.4-1.1-1.4v-3.2h-1.2V34.3z"/>
	<path class="st0" d="M83.2,36.4v-2.7c0-1.6,0.8-1.9,1.4-1.9c0.7,0,1,0.4,1,1.2v3.4h1.2v-2.8c0-1.5,0.8-1.8,1.4-1.8
		c0.7,0,1,0.4,1,1.3v3.3h1.1v-3.5c0-1.5-0.8-2.1-1.8-2.1c-0.7,0-1.5,0.3-1.8,1.1c-0.3-0.8-0.9-1.1-1.7-1.1c-0.6,0-1.3,0.3-1.7,1.1
		v-1H82v5.5H83.2z"/>
</g>
<rect x="13.9" y="6.1" class="st0" width="0.8" height="3.9"/>
<path class="st0" d="M13.9,6.3V3.8L17,3.1v2.6L13.9,6.3z M14.6,4.4v1L16.2,5V4L14.6,4.4z"/>
<polygon class="st0" points="28.7,25.8 28,25.8 28,23.1 26.8,21.9 25.7,23.1 25.7,24.8 23.1,24.8 23.1,23.1 21,21.7 19.1,23.1 
	19.1,24.4 18.3,24.4 18.3,22.7 21,20.7 23.8,22.7 23.8,24.1 24.9,24.1 24.9,22.8 26.8,20.7 28.7,22.8 "/>
<polygon class="st0" points="12.7,24 11.9,24 11.9,21.7 8.8,21.7 8.8,22.7 8.1,22.7 8.1,21 12.7,21 "/>
<rect x="10.9" y="23.6" class="st0" width="4.1" height="0.8"/>
<polygon class="st0" points="17.6,24.4 16.8,24.4 16.8,22.6 15,22.6 15,24 14.3,24 14.3,21.8 17.6,21.8 "/>
<rect x="0.4" y="27" class="st0" width="27.9" height="0.8"/>
<g>
	<path class="st0" d="M28.7,19.7c-2.6-0.9-5-3.1-7.4-5.2c-2.5-2.3-4.9-4.4-6.9-4.4c-2,0-4.9,2.5-7.7,5c-2.1,1.8-4.2,3.7-6.1,4.7
		L0.2,19c1.8-0.9,3.9-2.8,5.9-4.6c3-2.7,5.9-5.2,8.2-5.2c2.2,0,4.7,2.2,7.4,4.6c2.3,2.1,4.7,4.2,7.1,5.1L28.7,19.7z"/>
	<path class="st0" d="M23.7,31.7c-0.7,0-1.4-0.3-2.2-0.5c-0.8-0.3-1.6-0.6-2.4-0.6c-0.7,0-1.4,0.2-2.1,0.5c-0.8,0.3-1.6,0.6-2.5,0.6
		c-0.9,0-1.7-0.3-2.5-0.6c-0.8-0.3-1.5-0.5-2.1-0.5c-0.8,0-1.7,0.3-2.4,0.6c-0.8,0.3-1.5,0.5-2.2,0.5c-2.3,0-3.9-0.7-4.6-1
		c-0.1,0-0.1-0.1-0.2-0.1c0,0,0,0,0.1,0v-0.8c0.1,0,0.2,0,0.4,0.1c0.6,0.3,2.2,0.9,4.3,0.9c0.6,0,1.3-0.2,2-0.5
		c0.9-0.3,1.7-0.6,2.7-0.6c0.8,0,1.6,0.3,2.4,0.5c0.8,0.3,1.5,0.5,2.3,0.5c0.7,0,1.5-0.3,2.3-0.5c0.8-0.3,1.6-0.5,2.4-0.5
		c1,0,1.8,0.3,2.7,0.6c0.7,0.2,1.4,0.5,2,0.5c2.7,0,4-0.5,4-0.5l0.3,0.7C27.9,31.1,26.5,31.7,23.7,31.7"/>
	<path class="st0" d="M23.7,34.5c-0.7,0-1.4-0.3-2.2-0.5c-0.8-0.3-1.6-0.6-2.4-0.6c-0.7,0-1.4,0.2-2.1,0.5c-0.8,0.3-1.6,0.6-2.5,0.6
		c-0.9,0-1.7-0.3-2.5-0.6c-0.8-0.3-1.5-0.5-2.1-0.5c-0.8,0-1.7,0.3-2.4,0.6c-0.8,0.3-1.5,0.5-2.2,0.5c-2.3,0-3.9-0.7-4.6-1
		c-0.1,0-0.1-0.1-0.2-0.1c0,0,0,0,0.1,0v-0.8c0.1,0,0.2,0,0.4,0.1c0.6,0.3,2.2,0.9,4.3,0.9c0.6,0,1.3-0.2,2-0.5
		c0.9-0.3,1.7-0.6,2.7-0.6c0.8,0,1.6,0.3,2.4,0.5c0.8,0.3,1.5,0.5,2.3,0.5c0.7,0,1.5-0.3,2.3-0.5c0.8-0.3,1.6-0.5,2.4-0.5
		c1,0,1.8,0.3,2.7,0.6c0.7,0.2,1.4,0.5,2,0.5c2.7,0,5.1-0.5,5.1-0.5L29,34C28.9,34,26.5,34.5,23.7,34.5"/>
</g>
<polygon class="st0" points="15.8,22.2 15.1,22.2 15.1,19.5 13.5,18.4 11.9,19.5 11.9,21.2 11.2,21.2 11.2,19.1 13.5,17.4 
	15.8,19.2 "/>
<polygon class="st0" points="19.9,22.4 19.2,22.4 19.2,20.8 17,20.8 17,22.2 16.3,22.2 16.3,20.1 19.9,20.1 "/>
<polygon class="st0" points="7.6,25.6 4.8,25.6 4.8,24.4 0.4,24.4 0.4,23.6 5.5,23.6 5.5,24.9 6.8,24.9 6.8,22.3 9.4,22.3 9.4,23 
	7.6,23 "/>
</svg>
