<?xml version="1.0" encoding="utf-8"?>
<!-- Generator: Adobe Illustrator 27.0.0, SVG Export Plug-In . SVG Version: 6.00 Build 0)  -->
<svg version="1.1" id="Layer_1" xmlns="http://www.w3.org/2000/svg" xmlns:xlink="http://www.w3.org/1999/xlink" x="0px" y="0px"
	 viewBox="0 0 388 116" style="enable-background:new 0 0 388 116;" xml:space="preserve">
<style type="text/css">
	.st0{fill:#008C44;}
	.st1{fill:#62BB46;}
	.st2{fill:#FFFFFF;}
</style>
<rect y="-0.2" class="st0" width="273.8" height="117.5"/>
<rect x="273.8" y="-0.2" class="st1" width="117.5" height="117.5"/>
<polygon class="st2" points="34,63.5 40,63.5 43.1,23.2 43.2,23.2 55.1,50.1 62,50.1 73.8,23.4 74,23.4 77,63.5 83.3,63.5 
	79.4,16.9 71,16.9 58.9,44.6 58.8,44.6 46.6,16.9 37.7,16.9 "/>
<g>
	<path class="st2" d="M112.6,49c-0.1,7.5-5.6,10.1-10.1,10.1c-3.5,0-5.8-1.6-5.8-4.8c0-6.1,7.3-7.1,15.9-7.3V49z M104.9,28.9
		c-6.2,0-11.3,2.5-14,8.5l5.1,2.3c1.2-3.7,4.5-5.6,8.4-5.6c5.1,0,8.2,3.3,8.2,7.9v0.5c-9.7,0-21.8,2-21.8,12.1
		c0,6.4,5.3,9.5,10.6,9.5c5.1,0,8.6-1.9,11.2-6.6v6h5.6V41.6C118.2,35.1,113.9,28.9,104.9,28.9"/>
	<path class="st2" d="M187.7,49c-0.1,7.5-5.6,10.1-10.1,10.1c-3.5,0-5.8-1.6-5.8-4.8c0-6.1,7.3-7.1,15.9-7.3V49z M180.1,28.9
		c-6.2,0-11.3,2.5-14,8.5l5.1,2.3c1.2-3.7,4.5-5.6,8.4-5.6c5.1,0,8.2,3.3,8.2,7.9v0.5c-9.7,0-21.8,2-21.8,12.1
		c0,6.4,5.3,9.5,10.6,9.5c5.1,0,8.6-1.9,11.2-6.6v6h5.6V41.6C193.4,35.1,189.1,28.9,180.1,28.9"/>
	<path class="st2" d="M132.4,63.5V46.6c0-9,5.7-12.3,12.1-11.3v-6.2c-5.5-0.8-9.4,1.8-12.1,7.8v-7.1h-5.8v33.7H132.4z"/>
	<path class="st2" d="M157.5,60.8v-31h-5.8v30.4c0,7-1.8,10.9-7.1,12.1l2,5.1C154.5,75.1,157.5,70.2,157.5,60.8"/>
	<path class="st2" d="M154.4,21.6c2.3,0,4.2-1.9,4.2-4.2c0-1.9-1.4-3.5-3.8-3.5c-2.3,0-4.2,1.8-4.2,4
		C150.5,19.9,151.9,21.6,154.4,21.6"/>
	<path class="st2" d="M209.7,63.5V47.1c0-10.5,5.9-12.9,9.9-12.9c4.9,0,7.6,3.1,7.6,10v19.3h5.8V43.2c0-10.5-5.6-14.3-12.4-14.3
		c-3.8,0-8.7,2.1-11,7.3v-6.4h-5.8v33.7H209.7z"/>
	<path class="st2" d="M116.9,85.5c3.7,0,4.7,1.5,4.7,3.5c0,2.3-1.3,3.5-3.9,3.5h-0.6l0.1,2.5h0.9c4.2,0,6.6-2.8,6.6-6.2
		c0-2.9-2-5.9-7.3-5.9h-5.1v18.3h3V85.5H116.9z"/>
	<path class="st2" d="M134.3,95.5c0,2.8-2,3.7-3.6,3.7c-1.2,0-2-0.5-2-1.7c0-2.2,2.6-2.6,5.6-2.7V95.5z M131.6,87.6
		c-2.6,0-4.7,1-5.7,3.5l2.4,1c0.5-1.4,1.6-2.1,3.1-2.1c1.8,0,2.9,1.1,2.9,2.8V93c-3.8,0-8.5,0.8-8.5,4.8c0,2.5,2,3.7,4.1,3.7
		c2,0,3.4-0.7,4.4-2.5v2.3h2.8V93C137.1,90.1,135.4,87.6,131.6,87.6"/>
	<path class="st2" d="M230.3,95.5c-0.1,2.8-2,3.7-3.6,3.7c-1.2,0-2-0.5-2-1.7c0-2.2,2.6-2.6,5.6-2.7V95.5z M227.6,87.6
		c-2.6,0-4.7,1-5.7,3.5l2.4,1c0.5-1.4,1.6-2.1,3.1-2.1c1.8,0,2.9,1.1,2.9,2.8V93c-3.8,0-8.5,0.8-8.5,4.8c0,2.5,2,3.7,4.1,3.7
		c2,0,3.4-0.7,4.4-2.5v2.3h2.8V93C233.1,90.1,231.4,87.6,227.6,87.6"/>
	<path class="st2" d="M142.7,101.2v-6.5c0-3.6,2.3-4.5,4.6-4.2v-2.9c-2.1-0.3-3.7,0.7-4.6,3.1V88h-2.8v13.3H142.7z"/>
	<path class="st2" d="M152.5,101.2v-4c0.8-0.5,1.5-1,2.2-1.6l3.6,5.6h3.2l-4.7-7.3c1.8-1.7,3.4-3.7,4.7-5.9h-3.3
		c-1.3,2.5-3.2,4.7-5.7,6.4V81.9h-2.8v19.3H152.5z"/>
	<path class="st2" d="M177.2,99.2c-1.1,0-2.5-0.3-2.9-1.9l-2.5,0.9c0.7,2.7,3.3,3.3,5.3,3.3c2.7,0,5.3-1.4,5.3-4.1
		c0-4.8-7.6-3.1-7.6-5.9c0-1,0.9-1.6,2.4-1.6c1.3,0,2.3,0.4,2.8,1.9l2.4-1.1c-0.8-2.4-2.7-3.1-5-3.1c-2.9,0-5.2,1.6-5.2,4.1
		c0,4.9,7.5,3.4,7.5,5.9C179.6,98.8,178.6,99.2,177.2,99.2"/>
</g>
<polygon class="st2" points="177.3,84.1 174.3,81.9 172.9,83.6 176.1,86.4 178.3,86.4 181.5,83.5 180.1,81.9 "/>
<g>
	<path class="st2" d="M184.5,96.3c0,3.9,2.1,5.3,4.7,5.3c1.6,0,3.4-0.8,4.3-2.8v2.5h2.8V88h-2.8v6.5c0,3.8-2.1,4.6-3.5,4.6
		c-1.7,0-2.7-1.1-2.7-3.4V88h-2.8V96.3z"/>
	<path class="st2" d="M203,101.2v-6.5c0-3.8,2-4.7,3.3-4.7c1.6,0,2.5,0.9,2.5,3v8.2h2.8v-6.8c0-3.6,2-4.4,3.4-4.4
		c1.6,0,2.5,1,2.5,3.2v7.9h2.8v-8.5c0-3.8-2-5.1-4.5-5.1c-1.6,0-3.6,0.8-4.5,2.7c-0.7-1.9-2.3-2.7-4.2-2.7c-1.5,0-3.3,0.8-4.1,2.8
		V88h-2.8v13.3H203z"/>
</g>
<rect x="330.8" y="27.6" class="st2" width="1.8" height="9.4"/>
<path class="st2" d="M330.8,28.2v-6.2l7.6-1.7v6.2L330.8,28.2z M332.6,23.4v2.5l3.9-0.9v-2.5L332.6,23.4z"/>
<polygon class="st2" points="366.9,75.5 365.1,75.5 365.1,69 362.2,65.9 359.5,69 359.5,73.1 353.2,73.1 353.2,69 348.1,65.4 
	343.4,69 343.4,72.2 341.6,72.2 341.6,68.1 348,63.1 355,68 355,71.3 357.7,71.3 357.7,68.3 362.1,63.2 366.9,68.3 "/>
<polygon class="st2" points="327.8,71.1 326,71.1 326,65.6 318.5,65.6 318.5,67.9 316.6,67.9 316.6,63.7 327.8,63.7 "/>
<rect x="323.6" y="70.2" class="st2" width="10" height="1.8"/>
<polygon class="st2" points="339.8,72.1 338,72.1 338,67.6 333.6,67.6 333.6,71.1 331.7,71.1 331.7,65.8 339.8,65.8 "/>
<rect x="298.1" y="78.4" class="st2" width="68" height="1.8"/>
<g>
	<path class="st2" d="M366.8,60.6c-6.2-2.2-12.2-7.6-18-12.8c-6.2-5.5-12-10.7-16.8-10.7c-5,0-12,6.2-18.7,12.1
		c-5,4.4-10.2,9-14.8,11.3l-0.8-1.6c4.5-2.3,9.5-6.8,14.5-11.1c7.3-6.5,14.3-12.6,20-12.6c5.5,0,11.5,5.4,18,11.2
		c5.7,5.1,11.5,10.3,17.4,12.4L366.8,60.6z"/>
	<path class="st2" d="M354.7,89.7c-1.7,0-3.5-0.6-5.4-1.3c-1.9-0.7-3.9-1.4-6-1.4c-1.6,0-3.4,0.6-5.2,1.2c-2,0.7-4,1.4-6.1,1.4
		s-4.1-0.7-6.1-1.4c-1.8-0.6-3.6-1.2-5.2-1.2c-2,0-4,0.7-6,1.4c-1.9,0.6-3.6,1.3-5.4,1.3c-5.5,0-9.6-1.8-11.1-2.5
		c-0.2-0.1-0.3-0.2-0.4-0.2c0,0,0.1,0,0.2,0v-1.8c0.3,0,0.4,0.1,0.9,0.3c1.4,0.6,5.2,2.3,10.4,2.3c1.4,0,3.1-0.6,4.8-1.2
		c2.1-0.7,4.2-1.5,6.6-1.5c2,0,3.9,0.7,5.8,1.3c1.8,0.6,3.7,1.3,5.5,1.3c1.8,0,3.7-0.7,5.5-1.3c1.9-0.7,3.9-1.3,5.8-1.3
		c2.3,0,4.5,0.7,6.6,1.5c1.7,0.6,3.3,1.2,4.8,1.2c6.5,0,9.7-1.2,9.7-1.2l0.7,1.7C364.9,88.4,361.6,89.7,354.7,89.7"/>
	<path class="st2" d="M354.7,96.8c-1.7,0-3.5-0.6-5.4-1.3c-1.9-0.7-3.9-1.4-6-1.4c-1.6,0-3.4,0.6-5.2,1.2c-2,0.7-4,1.4-6.1,1.4
		s-4.1-0.7-6.1-1.4c-1.8-0.6-3.6-1.2-5.2-1.2c-2,0-4,0.7-6,1.4c-1.9,0.6-3.6,1.3-5.4,1.3c-5.5,0-9.6-1.8-11.1-2.5
		c-0.2-0.1-0.3-0.2-0.4-0.2c0,0,0.1,0,0.2,0v-1.8c0.3,0,0.4,0.1,0.9,0.3c1.4,0.6,5.2,2.3,10.4,2.3c1.4,0,3.1-0.6,4.8-1.2
		c2.1-0.7,4.2-1.5,6.6-1.5c2,0,3.9,0.7,5.8,1.3c1.8,0.6,3.7,1.3,5.5,1.3c1.8,0,3.7-0.7,5.5-1.3c1.9-0.7,3.9-1.3,5.8-1.3
		c2.3,0,4.5,0.7,6.6,1.5c1.7,0.6,3.3,1.2,4.8,1.2c6.6,0,12.4-1.3,12.4-1.3l0.4,1.8C367.3,95.5,361.5,96.8,354.7,96.8"/>
</g>
<polygon class="st2" points="335.5,66.7 333.7,66.7 333.7,60.3 329.8,57.4 326.1,60.1 326.1,64.3 324.2,64.3 324.2,59.2 329.8,55.1 
	335.5,59.3 "/>
<polygon class="st2" points="345.6,67.3 343.7,67.3 343.7,63.4 338.5,63.4 338.5,66.7 336.6,66.7 336.6,61.5 345.6,61.5 "/>
<polygon class="st2" points="315.5,75.1 308.7,75.1 308.7,72 298.1,72 298.1,70.2 310.5,70.2 310.5,73.3 313.6,73.3 313.6,66.9 
	319.9,66.9 319.9,68.8 315.5,68.8 "/>
</svg>
