<svg xmlns="http://www.w3.org/2000/svg" viewBox="0 0 561.9 146.16"><defs><style>.cls-1{fill:#1d417b;}.cls-2{fill:#ed2224;}.cls-2,.cls-3,.cls-4,.cls-5,.cls-8,.cls-9{fill-rule:evenodd;}.cls-3{fill:#fff;}.cls-4{fill:#2691d0;}.cls-5{fill:#2c318a;}.cls-6,.cls-8{fill:#010101;}.cls-7,.cls-9{fill:#f6db14;}</style></defs><g id="Layer_2" data-name="Layer 2"><g id="Layer_1-2" data-name="Layer 1"><path class="cls-1" d="M151.69,34.07l.08-1.48c-3.27-.19-4.22-.53-4.22-3V23.21h2.81a84.35,84.35,0,0,0,8.85,10.22,5.36,5.36,0,0,0,3.5,1.52,2.37,2.37,0,0,0,2.51-2.13c-1.1,0-3-1.29-4.87-3.15-1.21-1.22-4.56-4.9-6.5-7.19,3.35-.3,6.58-2.66,6.58-6.84,0-3.87-2.85-6.5-8-6.5H140.1L140,10.63c3.65.38,4.14.57,4.14,3V29.21c0,2.47,0,3-2.62,3.38l-.07,1.48Zm-4.14-22.91h3.87c3.88,0,5.44,2,5.44,4.86,0,3.88-3,5.25-6.42,5.25h-2.89Zm38.8,16.15-1.48.11c-.42,3.42-2.13,4.64-4.6,4.64H176.2c-1.94,0-3-.42-3-2.39V22.52h10.6l.15-2H173.16V11.16h5.89c2.55,0,4.1,1.06,4.52,4.64l1.48-.12V9.15H165.71l-.07,1.48c3.19.34,4.14.53,4.14,2.24V30.43c0,1.44-.53,1.9-2.59,2.16l-.07,1.48h19.23Zm2.73-18.16L189,10.63c3.42.38,4.14.57,4.14,2.58v16c0,2.47,0,3-2.62,3.38l-.08,1.48h11.36l.08-1.48c-4.33-.19-5.36-.53-5.36-3V24.35c1.41,0,4.07,0,4.26,0,5.16,0,9-2.73,9-7.9s-3.68-7.33-8.85-7.33Zm7.45,2h3.31c3.84,0,6.27,1.52,6.27,5.59,0,3.83-2.24,5.66-6,5.66h-3.54Zm31.73-2-.07,1.48c4.25.26,5.05.64,5.05,3.08V24.84c0,5-2.17,7.6-7,7.6-4.56,0-7.37-2.32-7.37-7.22V13.63c0-2.47.83-2.7,3.38-3l.08-1.48H212.19l-.08,1.48c2.81.34,3.31.57,3.31,2.58V26c0,7.07,5.92,8.43,10.1,8.43,5.1,0,9.85-2,10-9.2l.15-11.81c0-1.9.69-2.55,3-2.82l.08-1.48Zm12.85,0L241,10.63c3.42.38,4.14.57,4.14,2.58V30c0,1.79-.34,2.28-2.62,2.59l-.08,1.47h10.38c6.8,0,9.5-3,9.5-6.84,0-5-4.41-6.23-6.62-6.57v-.15a6.16,6.16,0,0,0,4.49-5.74c0-3.91-3.54-5.62-7.75-5.62Zm10.67,12.92c4.75,0,6.92,2.16,6.92,5.16,0,3.23-2.32,4.83-5.93,4.83h-.45c-2.2,0-3.77-.11-3.77-2.17V22.07Zm-.45-10.91c3.38,0,5.2,1.71,5.2,4.52,0,3-2.09,4.49-4.82,4.49h-3.16v-9Zm13.49-2-.08,1.48c3.38.38,4,.53,4,2.43V30.31c0,1.41-.53,2-2.58,2.28l-.08,1.48h18.58V26.25l-1.48.11c-.42,3.69-1,5.7-4.49,5.7H276.1c-2.81,0-4-.23-4-2.43V13.93c0-2.39.72-3,4.18-3.3l.07-1.48Zm33.63,24.92.07-1.48c-3.65-.38-4.22-.53-4.22-3V14c0-2.81.38-3.08,3-3.38l.08-1.48H286.86l-.08,1.48c3.57.38,4.14.53,4.14,2.89V29.36c0,2.36-.07,2.89-2.62,3.23l-.08,1.48Zm13.75,0,.07-1.48c-3.64-.38-4.14-.53-4.14-3V22.22h2.62l7.34,8.32a1.9,1.9,0,0,1,.64,1.14c0,.49-.6.8-2.09.91l-.07,1.48h9.5l.12-1.48c-1.45-.19-2.28-.53-4.26-2.77l-8.55-9.65,6.19-6.2c2-2,3-3,5.48-3.34l.11-1.48H316l-.12,1.48c1.71.15,2.44.49,2.44,1.1,0,.45-.42,1.06-1.14,1.82l-6.38,6.69h-2.66V14c0-2.81.38-3.08,3-3.38l.07-1.48H300.69l-.08,1.48c3.57.38,4.14.53,4.14,2.89V29.21c0,2.47,0,3-2.62,3.38l-.07,1.48Zm23.56,0,.11-1.48C333,32.4,332,32.14,332,31.07a5.07,5.07,0,0,1,.38-1.52l1.33-3.76h9.69l1.52,3.8a5.2,5.2,0,0,1,.45,1.64c0,.95-.95,1.21-3.42,1.36l-.11,1.48h9.69l.15-1.48c-1.6-.15-2.12-.76-3.19-3.42L340.32,9l-2.39.11-8.25,21c-.72,1.83-1.29,2.4-2.85,2.51l-.15,1.48Zm2.51-21h.15l4.25,10.83H334.4Zm42-3.95-.08,1.48c3.61.38,4.18.53,4.18,2.89v6.84H369.39V13.93c0-2.77.42-3,3-3.3l.08-1.48H361.94l-.07,1.48c3.42.38,4.14.57,4.14,2.58V30c0,1.79-.34,2.28-2.62,2.59l-.08,1.47h10.22l.08-1.48c-3.65-.38-4.22-.49-4.22-3v-7.3h14.94V30c0,1.79-.35,2.28-2.63,2.59l-.07,1.48h10.22l.08-1.48c-3.46-.34-4.22-.49-4.22-2.62V13.52c0-2.32.53-2.59,3-2.89l.07-1.48Zm25.46,24.92.08-1.48c-3.27-.19-4.22-.53-4.22-3V23.21h2.81a84.43,84.43,0,0,0,8.86,10.22,5.34,5.34,0,0,0,3.5,1.52,2.36,2.36,0,0,0,2.5-2.13c-1.1,0-3-1.29-4.86-3.15-1.22-1.22-4.56-4.9-6.5-7.19,3.34-.3,6.57-2.66,6.57-6.84,0-3.87-2.85-6.5-8-6.5H394.09L394,10.63c3.65.38,4.14.57,4.14,3V29.21c0,2.47,0,3-2.62,3.38l-.08,1.48Zm-4.14-22.91h3.88c3.87,0,5.43,2,5.43,4.86,0,3.88-3,5.25-6.42,5.25h-2.89Zm31.73-2-.11,1.48c3.5.23,4.33.61,3.72,2.43L431,29.86h-.15L424,13.17a3.43,3.43,0,0,1-.3-1.17c0-.92.95-1.18,3.53-1.37l.12-1.48h-9.73l-.11,1.48c1.6.15,2.09.8,3.15,3.42l8.28,20.21,2.35-.11,8.1-21c.72-1.86,1.29-2.39,2.85-2.54l.11-1.48Zm16.61,24.92.11-1.48c-2.85-.19-3.88-.45-3.88-1.52a5.38,5.38,0,0,1,.38-1.52l1.33-3.76h9.69l1.52,3.8a5,5,0,0,1,.46,1.63c0,1-.95,1.22-3.42,1.37L456,34.07h9.69l.15-1.48c-1.6-.15-2.13-.76-3.19-3.42L454.44,9l-2.4.11-8.24,21c-.72,1.83-1.29,2.4-2.85,2.51l-.15,1.48Zm2.5-21h.16l4.25,10.83h-8.28Zm31.05,21,.08-1.48c-4.45-.19-5-.53-5-3V11.16h3.27c3.11,0,3.91,1.79,4.29,5.4l1.48-.11V9.15H466v7.44l1.48-.07c.38-3.69,1.22-5.36,4.45-5.36h3.23V29.59c0,2.17-.76,2.7-4.49,3l-.07,1.48Zm14.55.38c6.2,0,10-2.24,10-7,0-4.94-4.22-6.34-7.9-7.82-3-1.18-5.51-2.13-5.51-5.06,0-2,1.25-3.76,5.13-3.76,3.5,0,4.71,1.37,5.16,5.59l1.52-.16V9.6a21.82,21.82,0,0,0-6-.83c-7,0-9.39,3.19-9.39,6.72,0,4.64,3.95,5.74,7.72,7.22,3,1.14,5.7,2.28,5.7,5.44,0,2.81-2.13,4.29-6.16,4.29-3.8,0-5.28-1.25-5.74-5.66l-1.48.11v6.77A28.41,28.41,0,0,0,498,34.45Zm24.44-.38.07-1.48c-3.64-.38-4.14-.53-4.14-3V22.22H521l7.34,8.32a1.9,1.9,0,0,1,.64,1.14c0,.49-.6.8-2.09.91l-.07,1.48h9.5l.11-1.48c-1.44-.19-2.28-.53-4.25-2.77l-8.55-9.65,6.19-6.2c2-2,3-3,5.47-3.34l.12-1.48h-9.16l-.12,1.48c1.71.15,2.44.49,2.44,1.1,0,.45-.42,1.06-1.14,1.82L521,20.24h-2.66V14c0-2.81.38-3.08,3-3.38l.08-1.49H510.9l-.07,1.49c3.57.38,4.14.53,4.14,2.88v15.7c0,2.47,0,3-2.62,3.38l-.08,1.48Zm23.56,0,.11-1.48c-2.85-.19-3.87-.45-3.87-1.52a4.78,4.78,0,0,1,.38-1.52l1.33-3.76h9.69l1.52,3.8a5.21,5.21,0,0,1,.45,1.63c0,1-1,1.22-3.42,1.37l-.11,1.48h9.69l.15-1.48c-1.6-.15-2.13-.76-3.19-3.42L550.54,9l-2.4.11-8.24,21c-.72,1.83-1.29,2.4-2.85,2.51l-.15,1.48Zm2.51-21h.15l4.25,10.83h-8.28Z"/><path class="cls-1" d="M186.36,86.07l.1-2c-3.9-.26-4.79-.68-4.79-4.11l-.1-22c0-2.24.37-3.69,4.48-3.95l.1-2h-10.4L164,80h-.21L151.36,52H140l-.1,2c4.57.47,5.35,1.61,5.3,4.16l-.47,21.27c0,3.48-1.35,4.42-4.06,4.63l-.1,2h14.09l.1-2c-6-.21-6.71-.73-6.66-4.06l.27-22.52h.21l12.84,28.92,2.91-.1,12.33-28.66h.21l.1,22.52c0,2.75-1.15,3.69-5.25,3.9l-.16,2Zm4.78,0h11.18l.1-1.82c-3.95-.36-4.16-.72-4.16-3.9V61.69l-8.68.52-.1,1.82c3.9.36,4.47,1.2,4.47,4V79.52c0,3.59-.16,4.53-2.7,4.73Zm2.55-32.7a2.66,2.66,0,0,0,2.57,2.75h.13a2.79,2.79,0,0,0,2.86-2.72v0a2.77,2.77,0,0,0-2.7-2.81A2.88,2.88,0,0,0,193.69,53.37ZM217,86.07l.1-1.82c-3.7-.36-4.16-.72-4.16-3.43V66.67A10.6,10.6,0,0,1,218.65,65c3.58,0,5.72,1.46,5.72,6.14l-.05,8.48c0,3.74-.37,4.47-2.65,4.62l-.11,1.82h11.18l.1-1.82c-3.69-.31-4.21-.62-4.21-3.84l.05-11.18c0-5-3.38-7.8-7.75-7.8a9,9,0,0,0-8.16,4.88V61.69l-8.53.52-.1,1.82c3.9.36,4.47,1.3,4.47,4.16V80.3c0,2.91-.36,3.8-2.7,4l-.1,1.82Zm18.82,0H247l.1-1.82c-4-.36-4.16-.72-4.16-3.9V61.69l-8.68.52-.1,1.82c3.9.36,4.47,1.2,4.47,4V79.52c0,3.59-.16,4.53-2.7,4.73Zm2.55-32.7a2.66,2.66,0,0,0,2.57,2.75h.13a2.79,2.79,0,0,0,2.86-2.72v0a2.78,2.78,0,0,0-2.7-2.81A2.87,2.87,0,0,0,238.36,53.37Zm19.55,30.52c-3.38,0-5.15-1.3-5.51-5.2l-1.82,0v6.6a26,26,0,0,0,7.64,1.15c6.5,0,9.83-2.7,9.83-7.33,0-9-13.52-6.19-13.52-11.49,0-2,1.82-3.64,5-3.64s5.05,1.3,5.46,5.2l1.82-.1v-6.5a22.43,22.43,0,0,0-7.17-1.2c-5.05,0-9.26,2.34-9.26,7,0,8.47,13.52,5.61,13.52,11.38C263.94,82.23,262.07,83.89,257.91,83.89Zm28.24-19.5c.78,0,1-1.66.93-2.55h-7.9V57h-.73l-7,6.56v1h3.38L274.81,81c0,4.21,3.23,5.51,6.35,5.51,3.69,0,6.45-1.87,6.55-4.26a9.77,9.77,0,0,1-4.53,1.09c-2.5,0-4.05-1-4.05-3.69l.05-15.29Zm9,5.36a7.08,7.08,0,0,1-.57-2.4c0-2.54,2.45-3.32,4.16-3.32,3,0,4.58,2.08,4.47,5.61l-.1,4c-8.16.94-13,2.7-13,7.39,0,3.53,2.45,5.61,6.14,5.61a7.19,7.19,0,0,0,6.91-5c.06,2.86,1,5,3.9,5,1.3,0,3.64-.78,3.33-3.17-2.18.36-3.07-.21-3.07-2.13l.16-12.69c0-5.56-4.06-7.12-8.16-7.12-5.41,0-8.58,3.06-8.58,5.72a2.66,2.66,0,0,0,2.39,2.9h.36a5.56,5.56,0,0,0,1.72-.31Zm3.12,13.57c-2.13,0-3.58-1-3.58-3.07,0-3.69,4.62-4.06,8.37-4.68l-.05,2.91.05,2.81a6.47,6.47,0,0,1-4.79,2Zm28.34,2.75.1-1.82c-4.68-.26-5.46-.67-5.46-3.43V67a6.73,6.73,0,0,1,4.32-2c2.08,0,3,.93,3.33,4.88l1.82-.15.05-8.17a9.55,9.55,0,0,0-1.92-.2c-3.18,0-5.72.78-7.7,5.25v-5l-8.32.52-.1,1.82c4.05.36,4.26,1.35,4.26,4.36V79.78c0,3.38-.26,4.32-2.65,4.47l-.1,1.82Zm15.6-2.18c-3.38,0-5.14-1.3-5.51-5.2l-1.82,0v6.6a26.07,26.07,0,0,0,7.65,1.15c6.5,0,9.82-2.7,9.82-7.33,0-9-13.52-6.19-13.52-11.49,0-2,1.82-3.64,5.05-3.64s5,1.3,5.46,5.2l1.82-.1v-6.5a22.49,22.49,0,0,0-7.18-1.2c-5,0-9.25,2.34-9.25,7,0,8.47,13.52,5.61,13.52,11.38,0,2.4-1.88,4.06-6,4.06Zm28.24-19.5c.78,0,1-1.66.94-2.55h-7.9V57h-.73l-7,6.56v1h3.38l0,16.48c0,4.21,3.22,5.51,6.34,5.51,3.69,0,6.45-1.87,6.55-4.26a9.76,9.76,0,0,1-4.52,1.09c-2.5,0-4.06-1-4.06-3.69l0-15.29Zm2.6-2.55-.1,1.82c1.87.16,2.24.68,3.85,4.79l6.91,17.83,3.9-.21,6.5-18.14c1.09-3,1.46-4.11,3.28-4.27l.05-1.82h-9.1l-.1,1.82c2.55.21,3.53.42,3.53,1.67a8.13,8.13,0,0,1-.46,2.23l-4.68,14h-.21l-5.41-14.09a7.55,7.55,0,0,1-.57-2.29c0-1,.78-1.3,2.7-1.51l.1-1.82Zm37.81,2.23c4.68,0,6.91,4,6.91,10,0,5.77-2.18,9.88-6.65,9.88-4.68,0-6.87-4.27-6.87-10.25S406.53,64.07,410.9,64.07Zm0,22.52c7.7,0,11.49-5.92,11.49-13,0-7.48-4.32-12.16-11.08-12.16-7.59,0-11.6,6.18-11.6,13.15S403.61,86.59,410.9,86.59Zm-257,27.8c.78,0,1-1.66.94-2.55H147V107h-.74l-7,6.56v1h3.38L142.57,131c0,4.21,3.23,5.51,6.35,5.51,3.69,0,6.45-1.87,6.55-4.26a9.76,9.76,0,0,1-4.52,1.09c-2.5,0-4.06-1-4.06-3.69l.05-15.29Zm22.41,21.94,8.48-.52.1-1.76c-3.9-.32-4.42-1.4-4.42-4.48V111.69l-9.52.52-.1,1.82c4.27.36,5.3,1.24,5.3,3.9v13.46a11.83,11.83,0,0,1-6,1.62c-3.59,0-5.3-1.51-5.3-6.14l0-15.18-8.47.52-.1,1.82c3.9.36,4.21,1.09,4.21,4.36v10.4c0,5,3.22,7.8,7.59,7.8a9.15,9.15,0,0,0,8.22-4.83Zm24.13-.26.1-1.82c-4.68-.26-5.46-.67-5.46-3.43V117a6.7,6.7,0,0,1,4.32-2c2.08,0,3,.93,3.32,4.88l1.82-.15.06-8.17a9.65,9.65,0,0,0-1.93-.2c-3.17,0-5.72.78-7.7,5.25v-5l-8.32.52-.1,1.82c4.06.36,4.27,1.35,4.27,4.36v11.39c0,3.38-.26,4.32-2.66,4.47l-.1,1.82Zm8.16,0H219.8l.1-1.82c-4-.36-4.16-.72-4.16-3.9V111.69l-8.69.52L207,114c3.9.36,4.48,1.2,4.48,4v11.49c0,3.59-.16,4.53-2.7,4.73Zm2.55-32.7a2.66,2.66,0,0,0,2.57,2.75h.13a2.78,2.78,0,0,0,.16-5.56A2.88,2.88,0,0,0,211.16,103.37Zm16.38,30.31L241,114.34l-.1-2.5H223.23v7.64l1.82-.21c.31-3.48,1.45-5.1,4.88-5.1h6.35l-13.57,19.5.1,2.4h18.93v-7.59l-1.77.21c-.42,3.43-1.51,5-4.94,5Zm60.37,2.39.1-1.82c-3.43-.31-4.21-.62-4.21-3l.05-12.06c.06-5-3.32-7.8-7.54-7.8a9,9,0,0,0-8.06,4.94c-1-3.18-3.74-4.94-7.17-4.94a8.27,8.27,0,0,0-7.7,4.83v-4.57l-8.53.52-.1,1.82c3.9.36,4.47,1.3,4.47,4.16V130.3c0,2.91-.36,3.8-2.7,3.95l-.1,1.82H257.6l.1-1.82c-3.69-.36-4.16-.72-4.16-3.43V116.67a11.22,11.22,0,0,1,5.72-1.66c3.53,0,5.15,1.72,5.15,6.19l-.06,9.62c0,2.55-.57,3.27-2.65,3.43l-.1,1.82h11.18l.1-1.82c-3.43-.31-4.21-.62-4.21-3V119.23a8.75,8.75,0,0,0-.26-2.34A12.41,12.41,0,0,1,274.5,115c3.38,0,5,1.67,5,6.19l-.05,9.62c0,2.55-.62,3.28-2.65,3.43l-.1,1.82Zm7.54-16.32a7.08,7.08,0,0,1-.57-2.4c0-2.54,2.45-3.32,4.16-3.32,3,0,4.58,2.08,4.47,5.61l-.1,4c-8.16.94-13.05,2.7-13.05,7.39,0,3.53,2.45,5.61,6.14,5.61a7.19,7.19,0,0,0,6.91-5c.06,2.86,1,5,3.9,5,1.3,0,3.64-.78,3.33-3.17-2.18.36-3.07-.21-3.07-2.13l.16-12.69c0-5.56-4.06-7.12-8.16-7.12-5.41,0-8.58,3.06-8.58,5.72a2.66,2.66,0,0,0,2.39,2.9h.36A5.5,5.5,0,0,0,295.45,119.75Zm3.12,13.57c-2.13,0-3.58-1-3.58-3.07,0-3.69,4.62-4.06,8.37-4.68l-.05,2.91.05,2.81a6.47,6.47,0,0,1-4.79,2Zm27.67,2.75h11.18l.1-1.82c-3.95-.36-4.16-.72-4.16-3.9V111.69l-8.69.52-.1,1.82c3.9.36,4.48,1.2,4.48,4v11.49c0,3.59-.16,4.53-2.7,4.73Zm2.55-32.7a2.66,2.66,0,0,0,2.57,2.75h.13a2.78,2.78,0,1,0,.15-5.56,2.87,2.87,0,0,0-2.85,2.81ZM360,133.89c-3.38,0-5.15-1.3-5.51-5.2l-1.82.05v6.6a26,26,0,0,0,7.64,1.15c6.5,0,9.83-2.7,9.83-7.34,0-9-13.52-6.18-13.52-11.49,0-2,1.82-3.64,5-3.64s5.05,1.3,5.46,5.2l1.82-.1v-6.5a23,23,0,0,0-7.17-1.2c-5.05,0-9.26,2.34-9.26,7,0,8.48,13.52,5.62,13.52,11.39C366.07,132.23,364.2,133.89,360,133.89Zm27.35,12.27.1-1.82c-5.2-.31-5.77-.78-5.77-4.16v-4a22.92,22.92,0,0,0,3.8.31c7.33,0,12.9-4.16,12.9-13.21,0-7.28-3.64-11.9-9.2-11.9a8.59,8.59,0,0,0-7.59,4.47l.05-4.21-8.63.52L373,114c3.64.36,4.47,1.2,4.47,3.64v22.25c0,3.33-.26,4.21-2.7,4.42l-.1,1.82Zm-1-12.17a9.67,9.67,0,0,1-4.68-1.2V116.26A11.42,11.42,0,0,1,387,115c4.73,0,6.92,3.33,6.92,8.84C393.89,128.79,392.12,134,386.4,134Zm27.51-19.92c4.68,0,6.92,4,6.92,10,0,5.77-2.19,9.88-6.66,9.88-4.68,0-6.86-4.27-6.86-10.25S409.54,114.07,413.91,114.07Zm0,22.52c7.7,0,11.49-5.93,11.49-13,0-7.49-4.31-12.17-11.07-12.17-7.6,0-11.6,6.19-11.6,13.16s3.9,12,11.18,12Zm28.6-.52.1-1.82c-4.68-.26-5.46-.68-5.46-3.43V117a6.7,6.7,0,0,1,4.32-2c2.08,0,3,.93,3.32,4.88l1.82-.15.06-8.17a9.65,9.65,0,0,0-1.93-.2c-3.17,0-5.72.78-7.7,5.25v-5l-8.32.52-.1,1.82c4.06.36,4.27,1.35,4.27,4.36v11.39c0,3.38-.26,4.32-2.66,4.47l-.1,1.82ZM464,114.39c.78,0,1-1.67.93-2.55H457V107h-.73l-7,6.56v1h3.38L452.65,131c0,4.21,3.23,5.51,6.35,5.51,3.69,0,6.45-1.87,6.55-4.26a9.88,9.88,0,0,1-4.52,1.09c-2.5,0-4.06-1-4.06-3.69l0-15.29Zm9,5.35a7,7,0,0,1-.57-2.39c0-2.55,2.45-3.33,4.16-3.33,3,0,4.58,2.08,4.47,5.62l-.1,4c-8.16.94-13.05,2.7-13.05,7.38,0,3.54,2.45,5.62,6.14,5.62a7.2,7.2,0,0,0,6.91-5c.06,2.86,1,5,3.9,5,1.3,0,3.64-.78,3.33-3.17-2.18.36-3.07-.21-3.07-2.14l.16-12.68c.05-5.57-4.06-7.13-8.16-7.13-5.41,0-8.58,3.07-8.58,5.72A2.65,2.65,0,0,0,471,120a1.45,1.45,0,0,0,.36,0,5.49,5.49,0,0,0,1.71-.3Zm3.12,13.57c-2.13,0-3.58-1-3.58-3.06,0-3.7,4.62-4.06,8.37-4.68l-.05,2.91.05,2.81a6.47,6.47,0,0,1-4.79,2Z"/><path class="cls-2" d="M54.79,145.13a45.47,45.47,0,0,0,45.34-45.34V45.9H9.44V99.79a45.47,45.47,0,0,0,45.34,45.34Z"/><path class="cls-3" d="M54.79,144.4A44.61,44.61,0,0,0,99.27,99.92V46.77h-89V99.92A44.6,44.6,0,0,0,54.79,144.4Z"/><path class="cls-2" d="M98.67,45.91l10.87-24.65-8.36-13.5-13.44,5L78.3,2,65.86,9.08,54.77,0,43.68,9.08,31.24,2,21.8,12.74l-13.44-5L0,21.27,10.86,45.92A105.84,105.84,0,0,1,98.67,45.91Z"/><path class="cls-3" d="M98.5,45.35l10.61-24.06L101,8.23l-13.4,5L78.22,2.44l-12.4,7.1-11-9L43.72,9.55,31.33,2.45,21.92,13.2l-13.4-5L.43,21.29,11,45.36a106.35,106.35,0,0,1,87.47,0Z"/><path class="cls-4" d="M98,44.21l10.07-22.84-7.43-12L87.38,14.27,81.23,38.41A107.46,107.46,0,0,1,98,44.21Z"/><path class="cls-2" d="M101.12,37.14l2.59-5.89a120.88,120.88,0,0,0-19-6.57l-1.54,6a115.37,115.37,0,0,1,18,6.23Z"/><path class="cls-5" d="M43.84,10.64l0,0-12.29-7L22.21,14.26,28.34,38.4A107.47,107.47,0,0,1,45.9,35.47Z"/><path class="cls-5" d="M87.38,14.27h0L78,3.62l-12.26,7L63.7,35.48a106.34,106.34,0,0,1,17.54,2.93Z"/><path class="cls-4" d="M22.22,14.26l0,0L8.91,9.36l-7.43,12,2.84,6.48,7.22,16.38a106.3,106.3,0,0,1,16.8-5.82Z"/><path class="cls-3" d="M54.75,142.6A42.92,42.92,0,0,0,97.54,99.81V48.45H12V99.81A42.92,42.92,0,0,0,54.75,142.6Z"/><path class="cls-2" d="M29.08,48.45H12V67.26H29.08Z"/><path class="cls-2" d="M29.08,86.05H46.2V67.24H29.08Z"/><path class="cls-2" d="M12,99.82a42.81,42.81,0,0,0,.3,5.06H29.08V86.06H12Z"/><path class="cls-2" d="M63.32,86.06H46.2v18.82H63.32Z"/><path class="cls-2" d="M63.31,123.67H80.43V104.86H63.31Z"/><path class="cls-2" d="M80.43,134a43.18,43.18,0,0,0,9.77-10.28H80.43Z"/><path class="cls-2" d="M29.08,123.67H46.2V104.86H29.08Z"/><path class="cls-2" d="M19.29,123.67A43.41,43.41,0,0,0,29.08,134V123.67Z"/><path class="cls-2" d="M57.74,142.48a40.43,40.43,0,0,0,5.58-.75V123.67H46.2v18.06a40.14,40.14,0,0,0,5.56.75A54.22,54.22,0,0,0,57.74,142.48Z"/><path class="cls-2" d="M97.23,104.88a43,43,0,0,0,.29-5.08V86.06H80.42v18.82Z"/><path class="cls-2" d="M63.31,86.05H80.43V67.24H63.31Z"/><path class="cls-2" d="M63.32,48.45H46.2V67.26H63.32Z"/><path class="cls-2" d="M97.53,67.26V48.45H80.43V67.26Z"/><path class="cls-3" d="M21.45,26.13a6.49,6.49,0,0,1-11.5,6,6.6,6.6,0,0,1-.62-1.78,6.52,6.52,0,0,0,12.12-4.25Z"/><path class="cls-2" d="M26.82,32.41a113.26,113.26,0,0,1,18.56-3.1L44.87,23a119.36,119.36,0,0,0-19.6,3.28Z"/><path class="cls-2" d="M23.75,20.27a125,125,0,0,1,20.6-3.44l-.51-6.16a132.05,132.05,0,0,0-21.62,3.61l1.52,6Z"/><path class="cls-3" d="M83.21,30.71a114.46,114.46,0,0,1,18,6.23l-.72,1.61a113.29,113.29,0,0,0-17.73-6.13Zm20.52.54.66-1.51a122.5,122.5,0,0,0-19.23-6.66l-.42,1.6a121.47,121.47,0,0,1,19,6.57Z"/><path class="cls-6" d="M11.27,16.31l.09.07,1.79,1.56,2.24-.77.1,0,0,.11L15,19.58l1.79,1.56.08.07-.1,0L14.55,22l-.46,2.33,0,.11L14,24.38l-1.79-1.55L10,23.6l-.1,0,0-.11.45-2.33L8.53,19.63l-.08-.07.1,0,2.24-.77.46-2.33Z"/><path class="cls-7" d="M12.82,20.38l3.77.74-1.67-1.46Z"/><path class="cls-7" d="M8.77,19.58l3.77.74-1.68-1.46Z"/><path class="cls-7" d="M12.52,20.4l-3.77-.74,1.67,1.46Z"/><path class="cls-7" d="M16.58,21.19l-3.78-.74,1.68,1.46Z"/><path class="cls-7" d="M12.74,20.26l2.52-2.9-2.1.72Z"/><path class="cls-7" d="M10,23.37l2.53-2.9-2.1.72Z"/><path class="cls-7" d="M12.61,20.52l-2.53,2.9,2.1-.72Z"/><path class="cls-7" d="M15.32,17.41l-2.53,2.9,2.1-.72Z"/><path class="cls-7" d="M12.59,20.27l-1.25-3.64-.43,2.18Z"/><path class="cls-7" d="M13.93,24.17l-1.25-3.64-.43,2.19Z"/><path class="cls-7" d="M12.75,20.51,14,24.15,14.43,22Z"/><path class="cls-7" d="M11.41,16.61l1.25,3.63.43-2.18Z"/><path class="cls-6" d="M99.3,13.36l-.09.07L97.41,15l-2.27-.77-.09,0,0,.11.45,2.35-1.79,1.57-.1.08.11,0,2.28.79.43,2.35,0,.1.08-.07,1.82-1.57,2.25.78.11,0v-.11l-.46-2.35,1.82-1.57.07-.08-.11,0-2.25-.78-.47-2.35Z"/><path class="cls-7" d="M97.73,17.46l-3.8.73,1.69-1.47Z"/><path class="cls-7" d="M101.8,16.66,98,17.4l1.69-1.47Z"/><path class="cls-7" d="M98,17.47l3.79-.74-1.68,1.47Z"/><path class="cls-7" d="M94,18.27l3.81-.74L96.07,19Z"/><path class="cls-7" d="M97.8,17.32,95.27,14.4l2.11.73Z"/><path class="cls-7" d="M100.53,20.47,98,17.54l2.11.74Z"/><path class="cls-7" d="M97.94,17.59l2.54,2.93-2.12-.73Z"/><path class="cls-7" d="M95.21,14.46l2.55,2.92-2.13-.73Z"/><path class="cls-7" d="M98,17.34l1.26-3.67.43,2.2Z"/><path class="cls-7" d="M96.6,21.28l1.26-3.67.43,2.2Z"/><path class="cls-7" d="M97.8,17.58l-1.27,3.67-.43-2.2Z"/><path class="cls-7" d="M99.14,13.65l-1.26,3.66-.43-2.2Z"/><path class="cls-4" d="M65.75,10.65h0l-11-9-10.93,9,2,24.83c2.93-.24,5.89-.37,8.88-.37s6,.13,8.92.38l2.07-24.83Z"/><path class="cls-8" d="M54.75,21.81a.08.08,0,0,0-.08.05l-.62.83c-.23.07-.28.21-.2.4-.3,0-.33.22-.35.5-.29-.43-.6-.55-.94-.35,0-.26-.21-.39-.5-.45a1,1,0,0,1-.51-.17l-.19-.12c-.15-.1-.26,0-.19.09.3.5.61,1,.92,1.5a.2.2,0,0,0,.1.23c.05.15.11.3.16.46a.93.93,0,0,1,0,.13,1.81,1.81,0,0,0-.76-.15.58.58,0,0,1-.42-.16c-.06-.08-.11,0-.11.1a2.42,2.42,0,0,0,.7,1.71c-.27,0-.53,0-.8,0-.09,0-.11,0-.08.12a1.49,1.49,0,0,0,.95.88.71.71,0,0,0-.41.6.6.6,0,0,1-.25.52c-.07,0-.1.07,0,.12a1.15,1.15,0,0,0,1,.13,1.55,1.55,0,0,0-.22,1,1.21,1.21,0,0,0,.7-.06,1.13,1.13,0,0,0-.06.36.89.89,0,0,1-.12.39s-.07.1,0,.12a1.58,1.58,0,0,0,1-.06,2.62,2.62,0,0,0,.1.84c0,.07.07.12.14,0a2.14,2.14,0,0,1,.6-.6.37.37,0,0,0,.19.25.44.44,0,0,1,.17.4.12.12,0,0,0,0,.1c.17,0,.59-.43.67-.69a1.61,1.61,0,0,1,.51.53c.06.09.12,0,.15,0a3.42,3.42,0,0,0,.08-.84,1.71,1.71,0,0,0,1,.06c.08,0,0-.08,0-.12a1,1,0,0,1-.12-.42,1.26,1.26,0,0,0-.05-.33,1.19,1.19,0,0,0,.7.06,1.55,1.55,0,0,0-.25-1,1.21,1.21,0,0,0,1-.13c.07-.05,0-.08,0-.12a.58.58,0,0,1-.25-.52.73.73,0,0,0-.41-.6,1.51,1.51,0,0,0,.94-.89c0-.07,0-.11-.08-.12l-.81,0a2.41,2.41,0,0,0,.69-1.72c0-.13,0-.17-.1-.1a.51.51,0,0,1-.4.17,2.18,2.18,0,0,0-.76.14l0-.12c0-.15.12-.31.17-.45a.22.22,0,0,0,.1-.24c.31-.5.6-1,.9-1.5.07-.09,0-.19-.19-.09l-.2.13a1,1,0,0,1-.51.17c-.28.06-.47.18-.49.45-.33-.2-.65-.08-.93.35,0-.27-.05-.52-.34-.5.08-.19,0-.33-.21-.4-.22-.29-.53-.54-.74-.83,0,0-.06-.05-.09-.05Z"/><path class="cls-9" d="M57.66,23.42a.16.16,0,0,0-.2.1h0c0,.09,0,.2,0,.23s.1,0,.14-.06l0-.05h0c0-.09,0-.19,0-.21Z"/><path class="cls-9" d="M51.9,23.42c.06,0,.14,0,.19.1s0,.2,0,.23-.12,0-.16-.12S51.84,23.45,51.9,23.42Z"/><path class="cls-9" d="M57.13,24.46a.07.07,0,0,0-.07.07.08.08,0,0,0,.07.07.07.07,0,1,0,0-.14Z"/><path class="cls-9" d="M52.48,24.46a.07.07,0,1,0,0,.14.08.08,0,0,0,.07-.07A.07.07,0,0,0,52.48,24.46Z"/><path class="cls-9" d="M57.43,24.11A19,19,0,0,0,54.82,24a25.68,25.68,0,0,0-2.62.13s0,.1,0,.1a25,25,0,0,1,2.59-.13,19.87,19.87,0,0,1,2.56.14s.07-.09,0-.1Z"/><path class="cls-9" d="M52.19,24c.88-.08,1.76-.13,2.63-.13a22.84,22.84,0,0,1,2.61.15l.12-.21a.12.12,0,0,1-.1,0c-.09,0-.11-.18,0-.31s.19-.2.28-.16a.18.18,0,0,1,.08.13l.51-.85a1.54,1.54,0,0,1-.67.29c-.32.05-.47.16-.43.35s-.06.16-.23.06c-.36-.19-.62.09-.74.41s-.19.21-.2,0a1.77,1.77,0,0,0,0-.23c0-.26-.1-.33-.25-.26s-.2,0-.16-.07.11-.15.08-.25-.08-.11-.18-.12c-.2-.28-.53-.55-.74-.83l-.64.83c-.1,0-.16,0-.18.12s.06.18.09.25,0,.15-.15.06-.22,0-.24.26c0,.08,0,.16,0,.24s-.11.23-.19,0-.41-.6-.77-.41c-.16.1-.23.13-.2-.06s-.13-.3-.45-.35a1.45,1.45,0,0,1-.67-.29l.48.78a.17.17,0,0,1,.06-.06c.09-.05.22,0,.28.16s0,.27,0,.31h0Z"/><path class="cls-9" d="M57.24,25.06l0,0c-.05,0-.09.07-.15.13a2.4,2.4,0,0,1-.24.22s0,0,0,0,0,0,0-.05a1.51,1.51,0,0,0,.23-.21l.09-.11-.33,0a.85.85,0,0,0-.26.11.4.4,0,0,0-.15.14s0,0-.05,0,0,0,0,0a.46.46,0,0,1,.17-.17.38.38,0,0,1,.13-.06l-.37,0-.07.06-.06.08s0,0-.05,0,0,0,0-.05a.36.36,0,0,1,.07-.1h0l-.28,0h0l-.06.07a.25.25,0,0,0,0,.07s0,0,0,0a.05.05,0,0,1,0-.05h0A.26.26,0,0,1,55.7,25l0,0-.39,0,0,0a.13.13,0,0,0-.07.06.11.11,0,0,0-.06.07s0,0,0,0,0,0,0-.05A.28.28,0,0,1,55.2,25v0h-.83l0,0a.47.47,0,0,1,.06.09s0,0,0,.05a0,0,0,0,1-.05,0,.18.18,0,0,0,0-.07.21.21,0,0,0-.08-.06l0,0-.4,0,0,0a.41.41,0,0,1,.05.09s0,0,0,.05,0,0,0,0a.2.2,0,0,0,0-.08L53.78,25h-.3s0,0,0,0l.07.09s0,0,0,.05a0,0,0,0,1-.06,0L53.45,25,53.38,25h0L53,25l.14.07a.42.42,0,0,1,.18.17s0,0,0,.05a0,0,0,0,1,0,0,.54.54,0,0,0-.15-.15,1,1,0,0,0-.29-.11h0l-.31,0a.65.65,0,0,0,.11.12,1.61,1.61,0,0,0,.23.22s0,0,0,.05,0,0-.05,0a1.71,1.71,0,0,1-.25-.22l-.16-.16a2.08,2.08,0,0,0-.65-.17,1.21,1.21,0,0,1-.53-.09.87.87,0,0,0,.14.27.51.51,0,0,0,.24.17,0,0,0,0,1,0,0,.84.84,0,0,0,.2.44.68.68,0,0,0,.21.17,1,1,0,0,1-.2-.29,1,1,0,0,1-.09-.48s0,0,0,0,0,0,0,0a1,1,0,0,0,.08.45,1.32,1.32,0,0,0,.34.4s0,.08,0,.07a1,1,0,0,1-.45-.27,1.06,1.06,0,0,1-.2-.46.51.51,0,0,1-.25-.18,1.49,1.49,0,0,1-.14-.24,2.33,2.33,0,0,0,.52,1.31,1,1,0,0,0,.3.25c.11,0,.11.11,0,.11h-.12a1.59,1.59,0,0,1,.27.12c.14.09.25.19.25.32s0,0,0,0,0,0,0,0-.09-.18-.22-.26a3.66,3.66,0,0,0-.46-.18h-.54l.16.09a1.49,1.49,0,0,0,.4.15.82.82,0,0,1,.26.1l.2.17s0,0,0,.06,0,0-.05,0a.67.67,0,0,0-.18-.16.87.87,0,0,0-.25-.1,1.5,1.5,0,0,1-.42-.15,1.28,1.28,0,0,1-.21-.14,1.42,1.42,0,0,0,1,.8l.06,0h0c.1,0,.2.05.3.06l.3,0s0,0,0,0,0,0,0,0a1.54,1.54,0,0,1-.3,0l-.2,0-.12,0a.57.57,0,0,0-.5.57v0a1.89,1.89,0,0,1,.31-.25.57.57,0,0,1,.42-.08s0,0,0,0,0,0,0,0a.53.53,0,0,0-.37.07,2.6,2.6,0,0,0-.36.3.66.66,0,0,1-.23.43c.07,0,.12.08.18.06l.3-.13a1.32,1.32,0,0,1,.32-.07s0,0,0,0,0,0,0,0a.8.8,0,0,0-.3.06l-.26.1a1.44,1.44,0,0,0,.77-.09l.15-.05.2-.09.22-.07s0,0,0,0,0,.05,0,.05a.38.38,0,0,0-.25.09s-.08.06-.15.11l-.1.08a.83.83,0,0,0-.22.33,2.41,2.41,0,0,0-.08.25,2,2,0,0,1,.23-.34,1.2,1.2,0,0,1,.4-.31s0,0,0,0,0,0,0,.05a1.25,1.25,0,0,0-.37.28,2.48,2.48,0,0,0-.26.4l0,.1a2,2,0,0,1,.37-.35.64.64,0,0,1,.48-.16s0,0,0,.05,0,0,0,0a.49.49,0,0,0-.41.14,2.78,2.78,0,0,0-.43.41,1.44,1.44,0,0,0,.62-.09c.11,0,.22-.16.28-.18l.06-.08a.69.69,0,0,1,.13-.11s0,0,0,0,0,0,0,.05a.52.52,0,0,0-.1.11.69.69,0,0,0-.11.13s0,0,0,0a1.05,1.05,0,0,0-.2.27,3.8,3.8,0,0,1-.14.67.74.74,0,0,0,.2-.16.76.76,0,0,0,.15-.26.77.77,0,0,1,.19-.31.83.83,0,0,1,.3-.2s0,0,.05,0,0,0,0,.05a.8.8,0,0,0-.46.46.75.75,0,0,1-.16.29.65.65,0,0,1-.18.15h.15a1,1,0,0,0,.32-.14.72.72,0,0,0,.18-.24s0,0,0,0,0,0,0,.05a.6.6,0,0,1-.2.27.76.76,0,0,1-.22.11,1.63,1.63,0,0,0,.53-.12c.08,0,.11-.19.15-.24a.71.71,0,0,1,.12-.18.58.58,0,0,1,.19-.15s0,0,0,0,0,0,0,.05a.48.48,0,0,0-.16.12,1.63,1.63,0,0,0-.11.17c0,.09-.07.26-.07.36a2.38,2.38,0,0,0,.07.7,1.24,1.24,0,0,1,.18-.22v0c0-.12,0-.25,0-.38a1.6,1.6,0,0,0,0-.38s0,0,0,0,0,0,0,0a1.7,1.7,0,0,1,0,.39A3,3,0,0,1,54,31a.27.27,0,0,0,.09-.12.83.83,0,0,0,.07-.27.62.62,0,0,0,0-.27,0,0,0,0,1,0,0s0,0,0,0a.7.7,0,0,1,0,.29,1,1,0,0,1-.06.23,1.53,1.53,0,0,1,.21-.14,2.25,2.25,0,0,1,0-.26c0-.08,0-.15,0-.22s0-.05.06,0,0,0,0,.05a1.49,1.49,0,0,0,0,.21v.28a.42.42,0,0,0,.14.27.44.44,0,0,1,.22.31,3.53,3.53,0,0,0,0-.46,1.33,1.33,0,0,0-.13-.43s0,0,0,0,0,0,0,0a1.18,1.18,0,0,1,.14.45,2.72,2.72,0,0,1,0,.57.85.85,0,0,0,.4-.69.36.36,0,0,0,0-.09,0,0,0,0,1,0-.05s0,0,.05,0a.28.28,0,0,1,0,.12l0,.1s0-.06.06-.05l.08.06a1.42,1.42,0,0,1,0-.2.7.7,0,0,1,0-.29s0,0,0,0,0,0,0,.05a.74.74,0,0,0,0,.26.77.77,0,0,0,.08.27s0,0,0,0l.09.08c0-.1,0-.2,0-.3s0-.26,0-.39,0,0,.05,0,0,0,0,0a2.38,2.38,0,0,0,0,.38c0,.13,0,.25.06.38h0a2.65,2.65,0,0,0,.17.22,2.35,2.35,0,0,0,.08-.7c0-.09-.08-.26-.08-.35a.66.66,0,0,0-.12-.17.47.47,0,0,0-.15-.13s0,0,0,0,0,0,.06,0a.49.49,0,0,1,.18.14,1.88,1.88,0,0,1,.12.18c.07,0,.09.21.17.24a1.52,1.52,0,0,0,.52.12.64.64,0,0,1-.43-.37s0,0,0-.05,0,0,0,0a.69.69,0,0,0,.18.24,1,1,0,0,0,.45.14.8.8,0,0,1-.17-.15.64.64,0,0,1-.16-.29.84.84,0,0,0-.18-.28.8.8,0,0,0-.27-.18s0,0,0-.05,0,0,.05,0a.75.75,0,0,1,.3.2.84.84,0,0,1,.19.31.93.93,0,0,0,.15.26.62.62,0,0,0,.2.16,3.69,3.69,0,0,1-.14-.66c0-.15-.26-.32-.22-.37s.15.1.28.15a1.36,1.36,0,0,0,.63.09,3.25,3.25,0,0,0-.42-.41.57.57,0,0,0-.41-.14s0,0,0,0,0,0,0,0a.61.61,0,0,1,.46.15,2.9,2.9,0,0,1,.36.34l0-.09a3.42,3.42,0,0,0-.26-.4,1.08,1.08,0,0,0-.38-.28s0,0,0-.05,0,0,0,0a1.11,1.11,0,0,1,.4.31,1.45,1.45,0,0,1,.24.35,2,2,0,0,0-.08-.26.74.74,0,0,0-.22-.33c-.07-.07-.24-.17-.24-.21l-.07,0a.41.41,0,0,0-.19-.05s0,0,0-.05,0,0,0,0a.86.86,0,0,1,.21.07.41.41,0,0,1,.11.07.68.68,0,0,1,.24.08,1.44,1.44,0,0,0,.77.09l-.26-.11a1.59,1.59,0,0,0-.3-.06s0,0,0,0,0,0,0,0a1.3,1.3,0,0,1,.33.07l.3.12c.07,0,.12,0,.19-.05a.67.67,0,0,1-.24-.43h0a2,2,0,0,0-.36-.3.49.49,0,0,0-.36-.07s0,0,0,0,0,0,0,0a.56.56,0,0,1,.42.08,1.85,1.85,0,0,1,.32.25v0a.58.58,0,0,0-.5-.57c-.09,0-.23,0-.22,0s.11-.05.27-.1a1.39,1.39,0,0,0,1-.79l-.21.14a1.5,1.5,0,0,1-.42.15,1,1,0,0,0-.24.09.74.74,0,0,0-.19.16s0,0,0,0,0,0,0-.05a.79.79,0,0,1,.2-.17,1,1,0,0,1,.27-.11,1.36,1.36,0,0,0,.4-.14l.15-.09c-.17,0-.35,0-.53,0a1.83,1.83,0,0,0-.46.18.38.38,0,0,0-.23.26s0,0,0,0,0,0,0,0a.44.44,0,0,1,.26-.31,1.59,1.59,0,0,1,.27-.12h-.12c-.13,0-.12-.08,0-.12a1,1,0,0,0,.29-.25,2.37,2.37,0,0,0,.52-1.3,1.71,1.71,0,0,1-.13.23.61.61,0,0,1-.26.19.86.86,0,0,1-.63.72,0,0,0,0,1,0-.06,1.11,1.11,0,0,0,.32-.4.87.87,0,0,0,.09-.45s0,0,0,0a0,0,0,0,1,0,0,1,1,0,0,1-.08.48,3,3,0,0,1-.2.29.87.87,0,0,0,.21-.17,1,1,0,0,0,.2-.45s0,0,0,0a.37.37,0,0,0,.24-.17,1.1,1.1,0,0,0,.15-.26,1.6,1.6,0,0,1-.53.09,1.8,1.8,0,0,0-.64.18Z"/><path class="cls-9" d="M57.17,24.86a18.41,18.41,0,0,0-2.35-.13,20.91,20.91,0,0,0-2.37.13s0,0,0,.05,0,0,.14,0c.74-.06,1.48-.1,2.22-.1a18.56,18.56,0,0,1,2.36.12S57.23,24.86,57.17,24.86Z"/><path class="cls-9" d="M52.48,24.78a22.94,22.94,0,0,1,2.34-.13,18.38,18.38,0,0,1,2.34.15l0-.15-.07,0a.14.14,0,0,1-.15-.13.15.15,0,0,1,.13-.16h0a.19.19,0,0,1,.14.09l.06-.2a23.46,23.46,0,0,0-2.51-.14c-.83,0-1.67.05-2.52.13l.07.18a.16.16,0,0,1,.12-.06.16.16,0,0,1,.14.15.15.15,0,0,1-.14.13h0l0,.11ZM56,24.3a.15.15,0,0,0-.14.15.15.15,0,0,0,.14.13.14.14,0,0,0,.14-.14A.15.15,0,0,0,56,24.3Zm0,.07a.07.07,0,0,0-.07.07h0a.07.07,0,0,0,.07.07.08.08,0,0,0,.07-.07S56.05,24.38,56,24.37Zm-1.25-.1a.14.14,0,0,0,0,.28.14.14,0,0,0,.14-.14.14.14,0,0,0-.14-.14Zm0,.08a.07.07,0,0,0-.07.06.07.07,0,0,0,.07.07h0a.06.06,0,0,0,.06-.06h0s0-.06-.06-.07h0Zm-1.22-.05a.13.13,0,0,0-.15.13.13.13,0,0,0,.12.15h0a.13.13,0,0,0,.13-.14.15.15,0,0,0-.13-.15Zm0,.07a.07.07,0,0,0,0,.14.07.07,0,0,0,.05-.08A.1.1,0,0,0,53.55,24.37Z"/><path class="cls-6" d="M54.82,23.41a.32.32,0,0,0-.12-.2.37.37,0,0,0-.22-.1s0,0,0-.05,0,0,0,0a.33.33,0,0,0,.18-.15,1,1,0,0,0,.11-.29,0,0,0,0,1,.08,0,.7.7,0,0,0,.11.23.5.5,0,0,0,.22.16,0,0,0,0,1,0,.06s0,0,0,0a.34.34,0,0,0-.16.1.66.66,0,0,0-.11.26,0,0,0,0,1-.06,0l0,0Zm0-.13a.56.56,0,0,1,.09-.17.35.35,0,0,1,.11-.1.7.7,0,0,1-.16-.14.57.57,0,0,1-.08-.13.61.61,0,0,1-.09.18.49.49,0,0,1-.12.13l.16.1A.6.6,0,0,1,54.86,23.28Z"/><path class="cls-6" d="M55.77,29.16l-.59.25a0,0,0,0,1-.06,0h0s0,0,0-.05l.59-.24s0,0,.06,0S55.79,29.16,55.77,29.16Zm.07-.37-.7.38s0,0-.06,0,0-.05,0-.07l.69-.38s0,0,.05,0S55.86,28.78,55.84,28.79Zm-2.1-.08.69.38s0,0,0,.07,0,0-.06,0l-.7-.38s0,0,0-.05A.07.07,0,0,1,53.74,28.71Zm.06.38.58.24s0,0,0,.05,0,0-.06,0l-.58-.25s0,0,0-.05S53.78,29.08,53.8,29.09Zm.25.5a1.19,1.19,0,0,0,.42,0,.32.32,0,0,0,.22-.17v-.56a2,2,0,0,1-.35-.05.4.4,0,0,1-.24-.2.62.62,0,0,1,0-.38s0-.05,0,0,0,0,0,.05a.92.92,0,0,0,0,.33.3.3,0,0,0,.18.15,1.39,1.39,0,0,0,.35,0,1.34,1.34,0,0,0,.35,0,.34.34,0,0,0,.22-.15.24.24,0,0,0,.07-.2.18.18,0,0,0-.06-.09.23.23,0,0,0-.14,0H55l-.09,0s0,0,0,0,0,0,0,0l.09,0,.18,0a.36.36,0,0,1,.2.06.22.22,0,0,1,.1.15.44.44,0,0,1-.09.27.55.55,0,0,1-.27.17,1.06,1.06,0,0,1-.31.05v.55s0,0,0,0a.28.28,0,0,0,.22.17,1.09,1.09,0,0,0,.4,0s0,0,.05,0,0,.05,0,.05a1.08,1.08,0,0,1-.44,0,.35.35,0,0,1-.25-.16.35.35,0,0,1-.25.16,1.08,1.08,0,0,1-.44,0s0,0,0-.05,0,0,0,0Zm.42.23h.46s0,0,0,.05,0,0,0,0h-.46s0,0,0,0S54.45,29.82,54.47,29.82Z"/><path class="cls-6" d="M55.15,26.28a3.21,3.21,0,0,1,.48-.34.78.78,0,0,1,.41-.12s.05,0,.05,0,0,0-.05,0a.81.81,0,0,0-.37.12,2.21,2.21,0,0,0-.47.33,0,0,0,0,1-.06,0S55.13,26.29,55.15,26.28Zm-.7.07a2.73,2.73,0,0,0-.52-.37.87.87,0,0,0-.41-.11s0,0-.05,0,0,0,.05,0a1.06,1.06,0,0,1,.45.13,3.23,3.23,0,0,1,.54.37s0,0,0,.06S54.46,26.36,54.45,26.35ZM54.2,27.5a1.28,1.28,0,0,1,.15-.25c.06-.07.14-.14.2-.2s0,0,.07,0,0,0,0,.06a1.62,1.62,0,0,0-.19.18.72.72,0,0,0-.14.24s0,0-.05,0,0,0,0-.06Zm.43-2a.71.71,0,0,1,.13.26,1.12,1.12,0,0,1,0,.32,1.41,1.41,0,0,1,0,.29.56.56,0,0,1-.1.28.36.36,0,0,1-.19.13.44.44,0,0,1-.2,0,.45.45,0,0,1,0,.36s0,0,0,0l-.15-.07A.42.42,0,0,0,54,27h0a2.24,2.24,0,0,1-.27-.13.79.79,0,0,1-.17-.14h0a.64.64,0,0,1-.11-.2,1.23,1.23,0,0,1,0-.19l-.23-.14a.84.84,0,0,1-.18-.15s0,0,0-.06S53,26,53,26a1.18,1.18,0,0,0,.18.13,1.09,1.09,0,0,0,.23.14,1.41,1.41,0,0,1,.43.13,2.16,2.16,0,0,1,.36.22l0,0,0,0a.31.31,0,0,0,.19,0,.28.28,0,0,0,.14-.1.75.75,0,0,0,.09-.25.82.82,0,0,0,0-.27h0a1.54,1.54,0,0,0,0-.3.59.59,0,0,0-.13-.23s0,0,0-.06A0,0,0,0,1,54.63,25.5Zm-.43,1.21a1.93,1.93,0,0,0-.36-.22,1.24,1.24,0,0,0-.36-.11.39.39,0,0,0,0,.15.48.48,0,0,0,.08.16h0a.57.57,0,0,0,.15.12,1.23,1.23,0,0,0,.26.12h0l.14.06.12.05a.67.67,0,0,0,0-.31s0,0,0,0Zm.89-1.16a.54.54,0,0,0-.11.23,1,1,0,0,0,0,.3h0a.88.88,0,0,0,0,.28.68.68,0,0,0,.08.24.25.25,0,0,0,.15.1.28.28,0,0,0,.18,0l0,0s0,0,0,0a1.65,1.65,0,0,1,.36-.22,1.33,1.33,0,0,1,.43-.13l.24-.14.17-.14s0,0,0,0,0,0,0,.06a.65.65,0,0,1-.18.15l-.22.14a.63.63,0,0,1,0,.19.42.42,0,0,1-.1.2h0a.61.61,0,0,1-.17.15,2.24,2.24,0,0,1-.27.13h0a.39.39,0,0,0-.15.06l-.15.06s0,0,0,0a.5.5,0,0,1,0-.36.37.37,0,0,1-.18,0,.36.36,0,0,1-.19-.13.7.7,0,0,1-.12-.28c0-.1,0-.2,0-.29a1.13,1.13,0,0,1,0-.32,1.26,1.26,0,0,1,.13-.26s0,0,.06,0,0,0,0,.06Zm1.08.83a1.3,1.3,0,0,0-.37.11,2.56,2.56,0,0,0-.35.22,0,0,0,0,1,0,0,.67.67,0,0,0,0,.31l.11-.05a.39.39,0,0,1,.15-.06h0a2.1,2.1,0,0,0,.26-.13.41.41,0,0,0,.14-.12h0a.48.48,0,0,0,.08-.16A.77.77,0,0,0,56.17,26.38Z"/><path class="cls-8" d="M55.82,26.44a.25.25,0,0,0-.25.25.25.25,0,1,0,.5,0,.25.25,0,0,0-.25-.25Zm0,.08a.17.17,0,0,0-.17.17.18.18,0,0,0,.17.17h0A.17.17,0,0,0,56,26.7h0a.17.17,0,0,0-.17-.17Zm0,.07a.1.1,0,0,0-.09.1.1.1,0,1,0,.19,0h0a.1.1,0,0,0-.1-.1Zm-2-.14a.25.25,0,0,1,.25.25.25.25,0,0,1-.5,0A.25.25,0,0,1,53.87,26.45Zm0,.07a.17.17,0,0,1,.17.17h0a.16.16,0,0,1-.16.16h0a.16.16,0,0,1-.17-.16.18.18,0,0,1,.16-.18Zm0,.08a.1.1,0,0,1,.11.09.12.12,0,0,1-.1.11h0a.12.12,0,0,1-.1-.11A.11.11,0,0,1,53.87,26.6Z"/><path class="cls-8" d="M49.7,10.68a.09.09,0,0,0-.07.06L49,11.6c-.22.08-.27.22-.17.4-.3,0-.33.24-.33.52-.31-.42-.63-.53-.95-.31,0-.26-.24-.38-.53-.42a.92.92,0,0,1-.51-.15,2,2,0,0,1-.2-.11c-.15-.09-.26,0-.2.1.33.48.67,1,1,1.45a.22.22,0,0,0,.11.23c.07.15.13.3.19.45l0,.13a2.06,2.06,0,0,0-.78-.12.54.54,0,0,1-.42-.13c-.07-.07-.11,0-.1.1a2.4,2.4,0,0,0,.77,1.68l-.79.06c-.09,0-.11,0-.08.13a1.52,1.52,0,0,0,1,.83.74.74,0,0,0-.38.62.57.57,0,0,1-.22.53c-.07,0-.09.08,0,.13a1.22,1.22,0,0,0,1,.08,1.59,1.59,0,0,0-.19,1,1.23,1.23,0,0,0,.71-.09.89.89,0,0,0,0,.36,1,1,0,0,1-.11.4s-.07.1,0,.12a1.76,1.76,0,0,0,1-.11,3.34,3.34,0,0,0,.13.83c0,.07.09.11.15,0a2.28,2.28,0,0,1,.58-.62.45.45,0,0,0,.19.24.42.42,0,0,1,.2.38.1.1,0,0,0,0,.1c.17,0,.56-.46.64-.72a1.5,1.5,0,0,1,.53.5c.07.09.11,0,.14,0a3,3,0,0,0,0-.84,1.71,1.71,0,0,0,1.05,0c.08,0,0-.08,0-.12a1,1,0,0,1-.15-.41,1,1,0,0,0-.06-.33,1.2,1.2,0,0,0,.7,0,1.59,1.59,0,0,0-.29-1,1.22,1.22,0,0,0,1-.18c.07-.05,0-.09,0-.12a.57.57,0,0,1-.28-.51.72.72,0,0,0-.44-.58,1.53,1.53,0,0,0,.9-.93c0-.07,0-.11-.09-.11H53a2.41,2.41,0,0,0,.61-1.76c0-.12,0-.16-.11-.09a.49.49,0,0,1-.39.19,1.88,1.88,0,0,0-.74.19l0-.13.15-.46a.21.21,0,0,0,.09-.24c.28-.51.54-1,.83-1.54.06-.1-.06-.19-.2-.08l-.19.13a1,1,0,0,1-.5.2c-.29.07-.47.21-.47.48-.35-.19-.65-.06-.91.4,0-.28-.08-.53-.37-.48.07-.2,0-.34-.23-.4-.23-.28-.56-.51-.78-.79a.15.15,0,0,0-.08-.05Z"/><path class="cls-9" d="M52.69,12.14c-.06,0-.15,0-.18.12s0,.2,0,.22.09,0,.13-.07l0,0s0,0,0,0,0-.18,0-.21Z"/><path class="cls-9" d="M46.93,12.42s.14,0,.2.1,0,.19,0,.22-.12,0-.17-.11-.07-.17,0-.21Z"/><path class="cls-9" d="M52.2,13.21a.07.07,0,0,0-.07.07.07.07,0,0,0,.07.06h0a.07.07,0,0,0,.07-.07.06.06,0,0,0-.06-.06Z"/><path class="cls-9" d="M47.56,13.44a.07.07,0,0,0,0,.13h0a.07.07,0,1,0,0-.13Z"/><path class="cls-9" d="M52.48,12.84a20.51,20.51,0,0,0-2.6,0,25.62,25.62,0,0,0-2.61.26s0,.1,0,.1a25.52,25.52,0,0,1,2.59-.26,20.05,20.05,0,0,1,2.57,0S52.51,12.84,52.48,12.84Z"/><path class="cls-9" d="M47.25,13a26.3,26.3,0,0,1,2.63-.26,22.73,22.73,0,0,1,2.61,0l.12-.22a.11.11,0,0,1-.11,0c-.09,0-.12-.18,0-.31s.18-.21.26-.17a.13.13,0,0,1,.08.13l.48-.88a1.46,1.46,0,0,1-.66.32c-.32.07-.46.19-.4.38s-.06.15-.23.07c-.36-.18-.61.12-.73.45s-.16.21-.2,0a2,2,0,0,0,0-.24c0-.25-.12-.32-.26-.24s-.2,0-.16-.06.1-.15.06-.26-.08-.1-.18-.1c-.22-.27-.56-.52-.79-.8-.19.3-.39.58-.6.87-.1,0-.16.05-.16.12s.07.18.1.25,0,.15-.15.07-.22,0-.22.27v.24c0,.22-.11.23-.2,0s-.43-.58-.78-.37c-.17.1-.24.13-.22-.05s-.14-.3-.46-.33a1.57,1.57,0,0,1-.69-.26l.53.76,0-.07a.25.25,0,0,1,.29.15c.06.13.06.27,0,.32h0l.12.18Z"/><path class="cls-9" d="M52.35,13.8h0a.67.67,0,0,0-.14.15l-.23.23a0,0,0,0,1,0,0h0s0,0,0,0a1.61,1.61,0,0,0,.23-.22.44.44,0,0,0,.08-.11l-.32,0a1,1,0,0,0-.25.12.46.46,0,0,0-.16.15s0,0,0,0,0,0,0-.05a.58.58,0,0,1,.17-.18l.12-.07h-.37l-.07.06-.06.08s0,0,0,0,0,0,0-.05l.07-.09h-.27a.13.13,0,0,0-.06.07l-.05.07s0,0,0,0,0,0,0,0a.24.24,0,0,1,0-.1l0,0h-.39l0,0-.07.06-.06.08s0,0,0,0,0,0,0,0l.06-.09,0,0H49.9l-.41,0,0,0,.07.08s0,0,0,.05,0,0,0,0l-.06-.07-.08-.05h0l-.4,0,0,0,.06.09a0,0,0,0,1,0,0s0,0,0,0a.35.35,0,0,0,0-.08l-.07-.06h0l-.29,0,0,0,.08.08s0,0,0,.06,0,0,0,0a.23.23,0,0,0-.07-.07l-.08-.06h0l-.37,0,.14.06a.48.48,0,0,1,.19.16s0,0,0,.05,0,0,0,0a.46.46,0,0,0-.17-.14,1.42,1.42,0,0,0-.29-.1h0l-.31,0,.11.11a2.12,2.12,0,0,0,.24.2s0,0,0,.05,0,0-.06,0a2.43,2.43,0,0,1-.25-.2A1.25,1.25,0,0,0,47.5,14a1.85,1.85,0,0,0-.66-.13,1.44,1.44,0,0,1-.54-.07,2.26,2.26,0,0,0,.16.26.51.51,0,0,0,.25.16l0,0a1,1,0,0,0,.21.44.73.73,0,0,0,.23.16,1.18,1.18,0,0,1-.22-.28,1.13,1.13,0,0,1-.11-.48s0,0,0,0,0,0,0,0a.82.82,0,0,0,.1.44,1.44,1.44,0,0,0,.35.39s0,.07,0,.06a.89.89,0,0,1-.46-.24,1.07,1.07,0,0,1-.23-.45.59.59,0,0,1-.27-.17l-.15-.23a2.28,2.28,0,0,0,.6,1.28.76.76,0,0,0,.3.23c.1,0,.12.11,0,.12H47a1,1,0,0,1,.28.11.45.45,0,0,1,.27.3,0,0,0,0,1,0,0s0,0-.05,0-.1-.17-.23-.24a2.6,2.6,0,0,0-.47-.16c-.17,0-.36,0-.53,0l.16.09.39.12a.92.92,0,0,1,.28.09.65.65,0,0,1,.21.16s0,0,0,.05,0,0,0,0a.62.62,0,0,0-.19-.14,1.25,1.25,0,0,0-.25-.09,1.47,1.47,0,0,1-.42-.13,1,1,0,0,1-.22-.13,1.36,1.36,0,0,0,1,.75l.07,0h0l.31,0a1.45,1.45,0,0,0,.3,0s0,0,0,0,0,0,0,0l-.3,0-.2,0-.13,0a.58.58,0,0,0-.47.6h0a2.55,2.55,0,0,1,.3-.26.62.62,0,0,1,.42-.1s0,0,0,.05,0,0,0,0a.46.46,0,0,0-.36.09,2,2,0,0,0-.35.31h0a.66.66,0,0,1-.21.44c.07,0,.12.07.18.05l.3-.14a.9.9,0,0,1,.32-.09s0,0,0,0,0,0,0,0a.94.94,0,0,0-.3.07l-.26.12a1.36,1.36,0,0,0,.77-.13l.15-.05.2-.1a.7.7,0,0,1,.2-.08s0,0,0,0,0,0,0,0a.47.47,0,0,0-.25.11s-.07.07-.14.12l-.1.08a.9.9,0,0,0-.2.34,1.1,1.1,0,0,0-.06.26,1.62,1.62,0,0,1,.21-.36,1.22,1.22,0,0,1,.39-.32s0,0,0,0,0,0,0,.05a1.18,1.18,0,0,0-.36.3,1.66,1.66,0,0,0-.23.41c0,.08,0,0,0,.1a3.15,3.15,0,0,1,.36-.37.63.63,0,0,1,.47-.18s0,0,0,0,0,0,0,0a.63.63,0,0,0-.42.17,2.27,2.27,0,0,0-.39.43,1.29,1.29,0,0,0,.61-.13c.11,0,.2-.16.27-.18l.06-.09.11-.12a0,0,0,0,1,.05,0s0,0,0,.05l-.11.12a1.13,1.13,0,0,1-.1.13s0,0,0,0a1.08,1.08,0,0,0-.18.29,3,3,0,0,1-.11.67.64.64,0,0,0,.2-.16.72.72,0,0,0,.13-.28.77.77,0,0,1,.19-.31.74.74,0,0,1,.28-.22s0,0,.05,0,0,0,0,.05a.7.7,0,0,0-.26.19.73.73,0,0,0-.16.3.89.89,0,0,1-.15.29,1.29,1.29,0,0,1-.17.16l.14,0a.75.75,0,0,0,.31-.15.62.62,0,0,0,.17-.25s0,0,0,0,0,0,0,.05a.77.77,0,0,1-.19.28.57.57,0,0,1-.22.11,1.6,1.6,0,0,0,.53-.14c.07,0,.09-.2.14-.25a.49.49,0,0,1,.11-.18.46.46,0,0,1,.18-.16s0,0,0,0a0,0,0,0,1,0,.05.28.28,0,0,0-.15.13.78.78,0,0,0-.11.18c0,.11,0,.23,0,.35a2.37,2.37,0,0,0,.1.7,2,2,0,0,1,.17-.23v0a2.42,2.42,0,0,0,0-.76s0,0,0,0,0,0,0,0a2.56,2.56,0,0,1,0,.39c0,.1,0,.21,0,.31a.22.22,0,0,0,.09-.12.67.67,0,0,0,.06-.28.57.57,0,0,0,0-.26s0,0,0-.05,0,0,0,0a.7.7,0,0,1,0,.29.66.66,0,0,1,0,.23l.2-.15a2.11,2.11,0,0,0,0-.26c0-.08,0-.15,0-.22s0-.05,0,0,0,0,0,0a1.48,1.48,0,0,0,0,.21,2.45,2.45,0,0,0,0,.27.34.34,0,0,0,.15.26.52.52,0,0,1,.24.3,3.54,3.54,0,0,0,0-.46,1.29,1.29,0,0,0-.16-.41s0,0,0-.06,0,0,0,0a1.23,1.23,0,0,1,.17.45,2.11,2.11,0,0,1,0,.56.79.79,0,0,0,.37-.7.36.36,0,0,0,0-.09s0,0,0-.05,0,0,0,0a.28.28,0,0,1,0,.12.29.29,0,0,1,0,.09s.05-.06.06-.05l.1.06a.83.83,0,0,1-.06-.21.66.66,0,0,1,0-.28s0,0,0,0,0,0,0,.05a.57.57,0,0,0,0,.26,1.07,1.07,0,0,0,.09.27s0,0,0,0l.08.07a2.89,2.89,0,0,1,0-.29,1.76,1.76,0,0,1,0-.4s0,0,0,0,0,0,0,0a2.41,2.41,0,0,0,0,.38c0,.13,0,.25.07.38h0a2,2,0,0,1,.19.21,2.36,2.36,0,0,0,0-.7c0-.09-.1-.26-.1-.35a.66.66,0,0,0-.12-.17.36.36,0,0,0-.16-.11s0,0,0-.05,0,0,.05,0a.53.53,0,0,1,.2.13,1.77,1.77,0,0,1,.12.17c.07,0,.1.2.18.24a1.6,1.6,0,0,0,.53.09.51.51,0,0,1-.24-.1.64.64,0,0,1-.21-.25s0,0,0-.05,0,0,0,0a.58.58,0,0,0,.18.23,1,1,0,0,0,.47.12.75.75,0,0,1-.18-.13.84.84,0,0,1-.18-.28.77.77,0,0,0-.19-.28,1,1,0,0,0-.28-.17s0,0,0,0,0,0,.05,0a.81.81,0,0,1,.31.18.9.9,0,0,1,.21.3.67.67,0,0,0,.16.25.51.51,0,0,0,.21.15,3.57,3.57,0,0,1-.18-.66c0-.14-.28-.3-.23-.35s.15.09.29.13a1.35,1.35,0,0,0,.63.06,4.19,4.19,0,0,0-.45-.39.54.54,0,0,0-.41-.12s0,0,0,0,0,0,0-.05a.63.63,0,0,1,.47.13,3.68,3.68,0,0,1,.37.32s0-.05,0-.08a1.75,1.75,0,0,0-.28-.39,1,1,0,0,0-.38-.26s0,0,0-.05,0,0,0,0a1.11,1.11,0,0,1,.42.28,2,2,0,0,1,.25.34,1.25,1.25,0,0,0-.09-.25.7.7,0,0,0-.24-.32c-.07-.06-.24-.15-.25-.2l-.07,0a.59.59,0,0,0-.19-.05s0,0,0,0,0,0,0,0l.21,0,.12.06a1.13,1.13,0,0,1,.24.08,1.43,1.43,0,0,0,.77.05l-.26-.09a1.06,1.06,0,0,0-.31-.05s0,0,0,0,0,0,0,0a1.26,1.26,0,0,1,.33.05l.3.11c.07,0,.12,0,.19-.06a.67.67,0,0,1-.26-.42h0A2,2,0,0,0,53,16.6a.44.44,0,0,0-.37-.05s0,0,0,0,0,0,0,0a.52.52,0,0,1,.42.06,1.5,1.5,0,0,1,.33.23v0a.56.56,0,0,0-.53-.54c-.09,0-.21,0-.21,0s.1-.06.26-.12a1.38,1.38,0,0,0,.92-.84,1.16,1.16,0,0,1-.21.16,1.4,1.4,0,0,1-.4.16l-.25.11a.91.91,0,0,0-.17.17,0,0,0,0,1-.05,0s0,0,0-.06a.66.66,0,0,1,.19-.18,1.23,1.23,0,0,1,.26-.12,1.34,1.34,0,0,0,.39-.16.45.45,0,0,0,.14-.1l-.53,0a3,3,0,0,0-.45.2c-.12.08-.2.17-.2.27s0,0,0,0,0,0,0,0a.49.49,0,0,1,.25-.33,2.1,2.1,0,0,1,.26-.13h-.12c-.13,0-.13-.07,0-.11a1,1,0,0,0,.27-.26,2.45,2.45,0,0,0,.46-1.33,1,1,0,0,1-.12.23.6.6,0,0,1-.25.2,1,1,0,0,1-.18.47.87.87,0,0,1-.42.28s-.06,0,0-.06a1.31,1.31,0,0,0,.3-.41.87.87,0,0,0,.06-.45s0,0,0,0,0,0,0,0a1,1,0,0,1-.06.49,1.08,1.08,0,0,1-.19.3.55.55,0,0,0,.21-.19.93.93,0,0,0,.18-.45s0,0,0,0a.46.46,0,0,0,.23-.18,1.11,1.11,0,0,0,.13-.27,1.31,1.31,0,0,1-.52.11,2.34,2.34,0,0,0-.63.21Z"/><path class="cls-9" d="M52.27,13.6a18.43,18.43,0,0,0-2.35,0,20.75,20.75,0,0,0-2.36.25s0,0,0,.05.05,0,.14,0c.74-.1,1.48-.18,2.22-.21a18.43,18.43,0,0,1,2.35,0S52.33,13.6,52.27,13.6Z"/><path class="cls-9" d="M47.58,13.75a22.7,22.7,0,0,1,2.33-.24,18.28,18.28,0,0,1,2.34,0l0-.15-.07,0a.14.14,0,0,1-.15-.13.15.15,0,0,1,.14-.15.13.13,0,0,1,.13.08l.06-.2a23.17,23.17,0,0,0-2.5,0c-.84,0-1.68.13-2.51.25l.07.19a.15.15,0,0,1,.12-.07.15.15,0,0,1,.14.14.14.14,0,0,1-.13.15h0l0,.1Zm3.5-.65a.13.13,0,0,0-.13.15.13.13,0,0,0,.14.13h0a.13.13,0,0,0,.12-.16A.12.12,0,0,0,51.08,13.1Zm0,.07a.08.08,0,0,0-.06.08s0,.05.06.06a.07.07,0,0,0,.07-.07s0-.07-.07-.07Zm-1.25,0a.14.14,0,0,0-.13.15.13.13,0,0,0,.14.13.14.14,0,0,0,.13-.15A.15.15,0,0,0,49.83,13.13Zm0,.08s-.06,0-.06.07a.07.07,0,0,0,.07.06.07.07,0,0,0,.06-.07.06.06,0,0,0-.06-.06Zm-1.23,0a.14.14,0,1,0,0,.28h0a.15.15,0,0,0,.14-.15A.13.13,0,0,0,48.6,13.22Zm0,.07s-.06,0-.06.07a.07.07,0,0,0,.07.07.08.08,0,0,0,.07-.07s0-.07-.07-.07Z"/><path class="cls-6" d="M49.84,12.28a.37.37,0,0,0-.12-.2A.31.31,0,0,0,49.5,12a.05.05,0,0,1,0-.06l0,0a.46.46,0,0,0,.17-.17.76.76,0,0,0,.1-.3s.07,0,.08,0a.5.5,0,0,0,.12.24.51.51,0,0,0,.23.15s0,0,0,.05,0,0,0,0A.33.33,0,0,0,50,12a.64.64,0,0,0-.1.26s0,0,0,0a0,0,0,0,1,0,0Zm0-.14A.71.71,0,0,1,50,12a.24.24,0,0,1,.11-.09.76.76,0,0,1-.17-.13.51.51,0,0,1-.09-.13,1.42,1.42,0,0,1-.08.18.41.41,0,0,1-.12.14.51.51,0,0,1,.16.09.43.43,0,0,1,.11.12Z"/><path class="cls-6" d="M51.09,18l-.58.27s0,0-.06,0,0,0,0-.06l.58-.27s0,0,.06,0S51.11,18,51.09,18Zm0-.37-.67.41s0,0-.06,0,0,0,0-.06l.67-.41s0,0,.06,0,0,0,0,.06Zm-2.1,0,.72.34s0,0,0,.06,0,0,0,0L49,17.7s0,0,0-.05a0,0,0,0,1,.07,0Zm.08.36.6.21s0,0,0,.06,0,0-.06,0l-.6-.21s0,0,0-.05a0,0,0,0,1,.06,0Zm.28.49a.94.94,0,0,0,.41,0,.25.25,0,0,0,.21-.18l0-.56a2.19,2.19,0,0,1-.36,0,.35.35,0,0,1-.24-.19.7.7,0,0,1,0-.38s0,0,.05,0,0,0,0,.05a.58.58,0,0,0,0,.32.25.25,0,0,0,.18.15,1.45,1.45,0,0,0,.36,0,2.14,2.14,0,0,0,.35-.06.45.45,0,0,0,.21-.15.27.27,0,0,0,.06-.21.15.15,0,0,0-.06-.09.41.41,0,0,0-.16,0l-.16,0-.09,0s0,0,0,0,0-.05,0-.05l.08,0a.57.57,0,0,1,.18,0,.35.35,0,0,1,.2,0,.21.21,0,0,1,.1.14.29.29,0,0,1-.07.27.53.53,0,0,1-.25.19,1.65,1.65,0,0,1-.32.06l0,.56v0a.26.26,0,0,0,.22.15,1,1,0,0,0,.41-.06s0,0,0,0,0,0,0,0a1.09,1.09,0,0,1-.44.06.41.41,0,0,1-.26-.13.37.37,0,0,1-.24.16,1.09,1.09,0,0,1-.44,0s0,0,0,0S49.37,18.48,49.39,18.48Zm.42.22.46,0s0,0,0,0,0,0,0,0l-.45,0s0,0,0,0S49.79,18.7,49.81,18.7Z"/><path class="cls-6" d="M50.32,15.12a2.35,2.35,0,0,1,.47-.36.76.76,0,0,1,.41-.15s0,0,0,.05,0,0,0,0a.66.66,0,0,0-.36.13,2.66,2.66,0,0,0-.46.35s0,0-.06,0,0,0,0-.06Zm-.69.1a3,3,0,0,0-.53-.34.92.92,0,0,0-.43-.09,0,0,0,0,1,0,0s0,0,0-.05a1.1,1.1,0,0,1,.47.1,2.24,2.24,0,0,1,.55.35s0,0,0,.06S49.64,15.23,49.63,15.22Zm-.19,1.17a.82.82,0,0,1,.14-.26,1.29,1.29,0,0,1,.19-.21s0,0,.07,0,0,0,0,.06a1.07,1.07,0,0,0-.18.19,1.49,1.49,0,0,0-.14.24s0,0-.05,0,0,0,0-.06Zm.33-2a.77.77,0,0,1,.14.25.87.87,0,0,1,.06.32,2.62,2.62,0,0,1,0,.28,1,1,0,0,1-.1.3.33.33,0,0,1-.19.13.28.28,0,0,1-.18,0,.63.63,0,0,1,0,.36,0,0,0,0,1-.06,0L49.32,16l-.15-.05h0a.9.9,0,0,1-.27-.11.8.8,0,0,1-.19-.13h0a.44.44,0,0,1-.1-.19.71.71,0,0,1,0-.2l-.23-.12a1.33,1.33,0,0,1-.19-.14,0,0,0,0,1,0-.07s0,0,.06,0l.18.13.24.13a1.28,1.28,0,0,1,.43.1,1.65,1.65,0,0,1,.37.2l0,0,0,0a.25.25,0,0,0,.17,0,.21.21,0,0,0,.14-.1.44.44,0,0,0,.08-.25v-.27h0a1,1,0,0,0,0-.3,1.59,1.59,0,0,0-.13-.22s0,0,0-.06a0,0,0,0,1,.06,0Zm-.38,1.23a1.58,1.58,0,0,0-.36-.2,1.2,1.2,0,0,0-.37-.1.4.4,0,0,0,0,.15.38.38,0,0,0,.09.15h0a.57.57,0,0,0,.15.12l.27.11h0l.16.06.1,0a.61.61,0,0,0-.05-.3Zm.84-1.2a.52.52,0,0,0-.1.23.77.77,0,0,0,0,.3h0a1.18,1.18,0,0,0,0,.27.62.62,0,0,0,.11.25.22.22,0,0,0,.14.08.37.37,0,0,0,.18,0l0,0,0,0a1.8,1.8,0,0,1,.35-.24,1.5,1.5,0,0,1,.42-.15,1.82,1.82,0,0,0,.23-.15l.16-.14s0,0,.06,0,0,0,0,.06l-.18.16-.21.14a1.36,1.36,0,0,1,0,.2.4.4,0,0,1-.09.2h0a.61.61,0,0,1-.17.15,1.15,1.15,0,0,1-.27.14h0l-.14.07-.14.08a0,0,0,0,1-.06,0,.53.53,0,0,1,0-.35.41.41,0,0,1-.19,0,.28.28,0,0,1-.2-.12.55.55,0,0,1-.12-.28.86.86,0,0,1,0-.28,1.13,1.13,0,0,1,0-.32.69.69,0,0,1,.12-.26s0,0,.06,0,0,0,0,.06Zm1.12.76a1.48,1.48,0,0,0-.35.13,2.71,2.71,0,0,0-.35.24,0,0,0,0,0,0,0,.7.7,0,0,0,0,.32l.1-.06.15-.07h0a2,2,0,0,0,.25-.14.29.29,0,0,0,.14-.13h0a.35.35,0,0,0,.08-.16.43.43,0,0,0,0-.16Z"/><path class="cls-8" d="M51,15.25a.25.25,0,0,0,0,.5h0a.26.26,0,0,0,.24-.26h0A.26.26,0,0,0,51,15.25Zm0,.08a.15.15,0,0,0-.15.17.17.17,0,1,0,.16-.17Zm0,.07a.1.1,0,0,0-.09.1.1.1,0,0,0,.1.1h0a.09.09,0,0,0,.1-.1h0a.09.09,0,0,0-.1-.1h0ZM49,15.35a.25.25,0,0,1,.26.24h0a.26.26,0,0,1-.24.26.25.25,0,0,1-.26-.24.24.24,0,0,1,.24-.26Zm0,.08a.17.17,0,0,1,0,.34.17.17,0,0,1-.18-.16h0a.16.16,0,0,1,.16-.18h0Zm0,.07a.1.1,0,0,1,.1.1.11.11,0,0,1-.09.1.11.11,0,0,1-.11-.09h0a.1.1,0,0,1,.11-.1h0Z"/><path class="cls-8" d="M59.9,10.68s.06,0,.08.06c.2.3.39.56.58.86.23.08.27.22.17.4.3,0,.33.24.32.52.32-.42.64-.53,1-.31,0-.26.23-.38.53-.42a.92.92,0,0,0,.51-.15l.2-.11c.15-.09.26,0,.19.1l-1,1.45a.26.26,0,0,1-.11.23l-.19.45a.5.5,0,0,1,0,.13,2,2,0,0,1,.77-.12.57.57,0,0,0,.43-.13c.06-.07.1,0,.1.1a2.46,2.46,0,0,1-.78,1.68l.79.06c.1,0,.11,0,.09.13a1.55,1.55,0,0,1-1,.83.78.78,0,0,1,.38.62.55.55,0,0,0,.22.53c.06,0,.08.08,0,.13a1.18,1.18,0,0,1-1,.08,1.59,1.59,0,0,1,.17,1,1.13,1.13,0,0,1-.7-.09.87.87,0,0,1,0,.36,1.12,1.12,0,0,0,.1.4s.07.1,0,.12a1.79,1.79,0,0,1-1.05-.11,2.93,2.93,0,0,1-.13.83c0,.07-.09.11-.15,0a2.1,2.1,0,0,0-.57-.62.55.55,0,0,1-.18.24.44.44,0,0,0-.22.38.09.09,0,0,1,0,.1c-.18,0-.57-.46-.65-.72a1.81,1.81,0,0,0-.53.5c-.06.09-.11,0-.14,0a3,3,0,0,1,0-.84,1.74,1.74,0,0,1-1.06,0c-.07,0,0-.08,0-.12a1.12,1.12,0,0,0,.15-.41,1.28,1.28,0,0,1,.06-.33,1.2,1.2,0,0,1-.7,0,1.47,1.47,0,0,1,.29-1,1.24,1.24,0,0,1-1-.18c-.06-.05,0-.09,0-.12a.56.56,0,0,0,.27-.51.77.77,0,0,1,.44-.58,1.53,1.53,0,0,1-.9-.93c0-.07,0-.11.09-.11h.82a2.36,2.36,0,0,1-.6-1.76c0-.12,0-.16.1-.09a.51.51,0,0,0,.4.19,2,2,0,0,1,.75.19.5.5,0,0,1,0-.13c0-.16-.1-.3-.15-.46A.22.22,0,0,1,57,12.8c-.28-.51-.54-1-.82-1.54-.06-.1.06-.19.21-.08l.18.13a1,1,0,0,0,.49.2c.29.07.47.21.47.48.36-.19.67-.06.93.4,0-.28.07-.53.37-.48-.09-.2,0-.34.22-.4.23-.28.55-.51.78-.79A.1.1,0,0,1,59.9,10.68Z"/><path class="cls-9" d="M56.9,12.14c.06,0,.15,0,.19.12s0,.2,0,.22-.1,0-.14-.07l0,0v0c0-.09,0-.18,0-.21Z"/><path class="cls-9" d="M62.67,12.42c-.06,0-.14,0-.19.1s0,.19,0,.22.12,0,.17-.11.08-.17,0-.21Z"/><path class="cls-9" d="M57.4,13.21a.07.07,0,0,1,.07.07.09.09,0,0,1-.08.06.07.07,0,0,1-.06-.07S57.36,13.21,57.4,13.21Z"/><path class="cls-9" d="M62,13.44s.08,0,.07.07a.06.06,0,0,1-.06.06h0s-.06,0-.06-.07a.05.05,0,0,1,.06-.06Z"/><path class="cls-9" d="M57.12,12.84a20.49,20.49,0,0,1,2.6,0,25.91,25.91,0,0,1,2.61.26s0,.1,0,.1a25,25,0,0,0-2.59-.26,20,20,0,0,0-2.57,0S57.09,12.84,57.12,12.84Z"/><path class="cls-9" d="M62.35,13a26.1,26.1,0,0,0-2.62-.26,22.71,22.71,0,0,0-2.61,0L57,12.54a.09.09,0,0,0,.1,0c.1,0,.12-.18.06-.31s-.18-.21-.27-.17a.14.14,0,0,0-.09.13l-.46-.88a1.39,1.39,0,0,0,.64.32c.33.07.48.19.42.38s.06.15.23.07c.36-.18.6.12.72.45s.17.21.2,0a1,1,0,0,1,0-.24c0-.25.12-.32.26-.24s.2,0,.16-.06a.34.34,0,0,1-.06-.26c0-.07.07-.1.18-.1.22-.27.56-.52.79-.8l.59.87c.1,0,.17.05.17.12s-.07.18-.11.25,0,.15.16.07.21,0,.23.27v.24c0,.22.1.23.2,0s.44-.58.79-.37c.16.1.23.13.22-.05s.12-.3.45-.33a1.53,1.53,0,0,0,.69-.26l-.53.76s0-.05-.06-.07-.21,0-.27.15-.06.27,0,.32h0l-.12.18Z"/><path class="cls-9" d="M57.25,13.8h0a.67.67,0,0,1,.14.15,1.67,1.67,0,0,0,.23.23,0,0,0,0,0,.05,0s0,0,0,0-.15-.14-.22-.22a.76.76,0,0,1-.08-.11l.33,0a1.15,1.15,0,0,1,.25.12.54.54,0,0,1,.15.15s0,0,0,0,0,0,0-.05a.49.49,0,0,0-.17-.18l-.13-.07h.38l.07.06a.24.24,0,0,1,.06.08s0,0,.05,0,0,0,0-.05a.2.2,0,0,0-.07-.09h.27a.16.16,0,0,1,.07.07.16.16,0,0,1,0,.07s0,0,0,0,0,0,0,0a.21.21,0,0,0,0-.1s0,0,0,0h.39v0s0,0,.07.06a.16.16,0,0,1,.06.08s0,0,.05,0a0,0,0,0,0,0,0h0l-.07-.09,0,0h.42l.42,0,0,0a.18.18,0,0,0-.07.08s0,0,0,.05a0,0,0,0,0,0,0s0,0,0,0l.05-.07.09-.05h0l.4,0,0,0a.18.18,0,0,0,0,.09s0,0,0,0,.05,0,.06,0a.3.3,0,0,1,0-.08l.07-.06h0l.28,0,0,0-.08.08s0,0,0,.06,0,0,.06,0S61,14,61,14l.07-.06h0l.38,0a.42.42,0,0,0-.14.06.45.45,0,0,0-.2.16s0,0,0,.05h0a.7.7,0,0,1,.16-.14,1.66,1.66,0,0,1,.29-.1h0l.3,0a.57.57,0,0,1-.11.11,2.12,2.12,0,0,1-.24.2s0,0,0,.05,0,0,0,0a1.29,1.29,0,0,0,.25-.2,1.29,1.29,0,0,1,.18-.16,1.86,1.86,0,0,1,.67-.13,1.58,1.58,0,0,0,.53-.07,1.4,1.4,0,0,1-.16.26.51.51,0,0,1-.25.16l0,0a1,1,0,0,1-.22.44.69.69,0,0,1-.22.16,1.46,1.46,0,0,0,.21-.28.87.87,0,0,0,.11-.48s0,0,0,0,0,0,0,0a.82.82,0,0,1-.1.44,1.48,1.48,0,0,1-.36.39s0,.07,0,.06a1,1,0,0,0,.45-.24,1.07,1.07,0,0,0,.23-.45.52.52,0,0,0,.26-.17,1.14,1.14,0,0,0,.15-.23,2.27,2.27,0,0,1-.59,1.28.8.8,0,0,1-.29.23c-.11,0-.11.11,0,.12h.12a.9.9,0,0,0-.27.11A.44.44,0,0,0,62,16s0,0,0,0,0,0,0,0,.11-.17.24-.24a2.6,2.6,0,0,1,.47-.16c.17,0,.36,0,.53,0l-.15.09a3.17,3.17,0,0,1-.41.12.62.62,0,0,0-.26.09.6.6,0,0,0-.22.16s0,0,0,.05,0,0,.05,0a.66.66,0,0,1,.2-.14.63.63,0,0,1,.25-.09,1.64,1.64,0,0,0,.43-.13.67.67,0,0,0,.21-.13,1.38,1.38,0,0,1-1,.75l-.08,0h0l-.3,0-.29,0s0,0,0,0,0,0,0,0l.31,0,.2,0,.12,0a.58.58,0,0,1,.48.6h0a3.73,3.73,0,0,0-.3-.26.6.6,0,0,0-.41-.1s0,0,0,.05,0,0,0,0a.46.46,0,0,1,.36.09,2,2,0,0,1,.35.31h0a.63.63,0,0,0,.22.44c-.08,0-.13.07-.2.05a2,2,0,0,0-.3-.14.9.9,0,0,0-.32-.09s0,0,0,0,0,0,0,0a1.63,1.63,0,0,1,.3.07l.26.12a1.34,1.34,0,0,1-.77-.13l-.16-.05a.75.75,0,0,0-.2-.1.7.7,0,0,0-.2-.08s0,0,0,0,0,0,0,0a.47.47,0,0,1,.26.11s.07.07.14.12l.09.08a.66.66,0,0,1,.2.34,2,2,0,0,1,.07.26A1.65,1.65,0,0,0,62,18a1.18,1.18,0,0,0-.38-.32s0,0,0,0,0,0,0,.05a1.31,1.31,0,0,1,.36.3,2.38,2.38,0,0,1,.23.41c0,.08,0,0,0,.1a3.15,3.15,0,0,0-.36-.37.66.66,0,0,0-.48-.18s0,0,0,0,0,0,0,0a.63.63,0,0,1,.43.17,5.49,5.49,0,0,1,.4.43,1.37,1.37,0,0,1-.63-.13c-.1,0-.2-.16-.26-.18l-.07-.09-.1-.12s0,0-.06,0,0,0,0,.05l.1.12.11.13a0,0,0,0,0,0,0,1.08,1.08,0,0,1,.18.29,4.92,4.92,0,0,0,.1.67.93.93,0,0,1-.18-.16.67.67,0,0,1-.14-.28,1,1,0,0,0-.18-.31.74.74,0,0,0-.28-.22s0,0-.05,0,0,0,0,.05a.66.66,0,0,1,.27.19,1.08,1.08,0,0,1,.16.3,1.11,1.11,0,0,0,.14.29.69.69,0,0,0,.18.16l-.14,0a.94.94,0,0,1-.32-.15.6.6,0,0,1-.16-.25s0,0,0,0,0,0,0,.05a.73.73,0,0,0,.19.28.65.65,0,0,0,.22.11,1.44,1.44,0,0,1-.53-.14c-.08,0-.1-.2-.14-.25a.49.49,0,0,0-.11-.18.55.55,0,0,0-.18-.16s0,0-.05,0,0,0,0,.05a.37.37,0,0,1,.15.13.54.54,0,0,1,.11.18,2.27,2.27,0,0,0,.05.35,2.38,2.38,0,0,1-.11.7,2,2,0,0,0-.17-.23v0c0-.13,0-.25,0-.38a2.34,2.34,0,0,1,0-.38s0,0,0,0a0,0,0,0,0,0,0,1.7,1.7,0,0,0,0,.39c0,.1,0,.21,0,.31a.2.2,0,0,1-.08-.12.67.67,0,0,1-.06-.28,1.11,1.11,0,0,1,0-.26s0,0,0-.05,0,0-.05,0a.7.7,0,0,0,0,.29.59.59,0,0,0,.05.23l-.2-.15c0-.09,0-.18,0-.26a1.55,1.55,0,0,0,0-.22s0-.05,0,0a0,0,0,0,0,0,0,1.48,1.48,0,0,1,0,.21,2.45,2.45,0,0,1,0,.27.35.35,0,0,1-.16.26.57.57,0,0,0-.23.3,1.78,1.78,0,0,1,0-.46,1,1,0,0,1,.15-.41s0,0,0-.06,0,0,0,0a.94.94,0,0,0-.16.45,2.63,2.63,0,0,0,0,.56.77.77,0,0,1-.37-.7.18.18,0,0,1,0-.09s0,0,0,0h0s0,0-.06,0a.61.61,0,0,0-.05.12s0,.06,0,.09,0-.06-.05-.05l-.1.06a.83.83,0,0,0,.06-.21,1.31,1.31,0,0,0,0-.28,0,0,0,0,0,0,0s0,0,0,.05a1.13,1.13,0,0,1,0,.26,1.07,1.07,0,0,1-.09.27v0l-.09.07a2.93,2.93,0,0,1,.05-.29,2.64,2.64,0,0,0,0-.4s0,0-.05,0,0,0,0,0,0,.25,0,.38-.05.25-.08.38h0l-.18.21a2.07,2.07,0,0,1,0-.7c0-.09.09-.26.09-.35l.12-.17a.45.45,0,0,1,.17-.11s0,0,0-.05,0,0-.05,0a.39.39,0,0,0-.2.13,2.09,2.09,0,0,0-.14.17c-.06,0-.1.2-.17.24a1.6,1.6,0,0,1-.53.09.48.48,0,0,0,.23-.1.51.51,0,0,0,.21-.25s0,0,0-.05a0,0,0,0,0-.06,0,.38.38,0,0,1-.18.23,1,1,0,0,1-.47.12.59.59,0,0,0,.19-.13,1,1,0,0,0,.18-.28.64.64,0,0,1,.18-.28.85.85,0,0,1,.29-.17s0,0,0,0a0,0,0,0,0-.05,0,.69.69,0,0,0-.31.18.9.9,0,0,0-.21.3.82.82,0,0,1-.16.25.48.48,0,0,1-.22.15,2.94,2.94,0,0,0,.19-.66c0-.14.27-.3.23-.35s-.16.09-.29.13a1.35,1.35,0,0,1-.63.06,3.41,3.41,0,0,1,.45-.39.51.51,0,0,1,.4-.12s0,0,0,0,0,0,0-.05a.6.6,0,0,0-.46.13,2,2,0,0,0-.38.32.28.28,0,0,1,0-.08,1.7,1.7,0,0,1,.27-.39,1.16,1.16,0,0,1,.39-.26s0,0,0-.05,0,0,0,0a1.34,1.34,0,0,0-.42.28,2.7,2.7,0,0,0-.25.34,2.5,2.5,0,0,1,.09-.25,1,1,0,0,1,.24-.32c.08-.06.25-.15.25-.2l.08,0a.61.61,0,0,1,.18-.05s0,0,0,0,0,0,0,0a.54.54,0,0,0-.21,0l-.12.06a.85.85,0,0,0-.24.08,1.48,1.48,0,0,1-.78.05l.27-.09a.94.94,0,0,1,.3-.05s0,0,0,0,0,0,0,0a1.26,1.26,0,0,0-.33.05l-.3.11c-.08,0-.12,0-.2-.06a.67.67,0,0,0,.26-.42h0a2.07,2.07,0,0,1,.38-.28.44.44,0,0,1,.37-.05s0,0,0,0,0,0,0,0a.52.52,0,0,0-.42.06,1.5,1.5,0,0,0-.33.23v0a.57.57,0,0,1,.53-.54c.1,0,.22,0,.22,0s-.1-.06-.26-.12a1.37,1.37,0,0,1-.93-.84l.21.16a1.46,1.46,0,0,0,.41.16.73.73,0,0,1,.41.28.08.08,0,0,0,.07,0,.06.06,0,0,0,0-.06.91.91,0,0,0-.21-.18,1,1,0,0,0-.25-.12,1.34,1.34,0,0,1-.39-.16.45.45,0,0,1-.14-.1l.52,0a2.67,2.67,0,0,1,.46.2c.12.08.21.17.21.27s0,0,0,0,0,0,0,0a.44.44,0,0,0-.23-.33l-.27-.13h.12c.13,0,.13-.07,0-.11a1.16,1.16,0,0,1-.28-.26,2.58,2.58,0,0,1-.45-1.33l.11.23a.6.6,0,0,0,.25.2.92.92,0,0,0,.19.47.8.8,0,0,0,.41.28s.06,0,0-.06a1.31,1.31,0,0,1-.3-.41,1,1,0,0,1-.06-.45s0,0,0,0,0,0,0,0a.93.93,0,0,0,.06.49,1,1,0,0,0,.19.3.67.67,0,0,1-.22-.19.8.8,0,0,1-.17-.45l0,0a.58.58,0,0,1-.23-.18,1.66,1.66,0,0,1-.13-.27,1.4,1.4,0,0,0,.53.11,1.82,1.82,0,0,1,.62.21Z"/><path class="cls-9" d="M57.33,13.6a18.58,18.58,0,0,1,2.36,0,20.75,20.75,0,0,1,2.36.25s0,0,0,.05,0,0-.13,0c-.73-.1-1.47-.18-2.22-.21a18.43,18.43,0,0,0-2.35,0S57.27,13.59,57.33,13.6Z"/><path class="cls-9" d="M62,13.75a22.9,22.9,0,0,0-2.34-.24,18.1,18.1,0,0,0-2.33,0l0-.15.06,0a.15.15,0,0,0,.16-.13.15.15,0,0,0-.15-.15.14.14,0,0,0-.13.08l-.06-.2a23.35,23.35,0,0,1,2.51,0c.84,0,1.67.13,2.51.25l-.07.19a.19.19,0,0,0-.11-.07.16.16,0,0,0-.16.14.16.16,0,0,0,.14.15h0l0,.1Zm-3.5-.65a.14.14,0,0,1,.13.15.13.13,0,0,1-.14.13h0a.15.15,0,0,1-.14-.15h0A.14.14,0,0,1,58.53,13.1Zm0,.07s.07,0,.07.06h0a.07.07,0,0,1-.07.07.06.06,0,0,1-.07-.06h0a.07.07,0,0,1,.07-.07Zm1.25,0a.15.15,0,0,1,.14.15.14.14,0,0,1-.16.12.12.12,0,0,1-.12-.13.13.13,0,0,1,.13-.14Zm0,.08a.08.08,0,0,1,.07.07s0,.06-.07.06h0a.08.08,0,0,1-.06-.08A.07.07,0,0,1,59.77,13.21Zm1.22,0a.14.14,0,1,1,0,.28.13.13,0,0,1-.13-.13v0A.13.13,0,0,1,61,13.22Zm0,.07a.07.07,0,0,1,.07.07s0,.07-.08.06-.07,0-.07-.06A.08.08,0,0,1,61,13.29Z"/><path class="cls-6" d="M59.75,12.28a.34.34,0,0,1,.13-.2A.31.31,0,0,1,60.1,12s0,0,0-.05,0,0,0,0a.35.35,0,0,1-.17-.17,1,1,0,0,1-.1-.3s0,0-.06,0l0,0a.55.55,0,0,1-.12.24.51.51,0,0,1-.23.15s0,.07,0,.07a.31.31,0,0,1,.16.11.43.43,0,0,1,.09.26s.08,0,.09,0Zm0-.14a.76.76,0,0,0-.09-.18.22.22,0,0,0-.1-.09,1.09,1.09,0,0,0,.17-.13l.08-.13.09.18a.12.12,0,0,1,0,.24h-.05a.25.25,0,0,0-.11.12Z"/><path class="cls-6" d="M58.51,18l.58.27s0,0,.06,0,0,0,0-.06l-.58-.27s0,0-.06,0S58.49,18,58.51,18Zm0-.37.68.41s0,0,.06,0,0,0,0-.06l-.67-.41s0,0-.06,0,0,0,0,.06Zm2.1,0-.7.34s0,0,0,.06,0,0,0,0l.71-.34s0,0,0-.05S60.59,17.62,60.56,17.63Zm-.08.36-.59.21s0,0,0,.06,0,0,0,0l.6-.21s0,0,0-.05S60.51,18,60.48,18Zm-.28.49a.94.94,0,0,1-.41,0,.25.25,0,0,1-.21-.18l0-.56a2,2,0,0,0,.34,0,.31.31,0,0,0,.24-.19.56.56,0,0,0,0-.38s0,0,0,0,0,0,0,.05a.69.69,0,0,1,0,.32.26.26,0,0,1-.19.15,1.4,1.4,0,0,1-.35,0,1.35,1.35,0,0,1-.35-.06.54.54,0,0,1-.22-.15.32.32,0,0,1-.06-.21.22.22,0,0,1,.07-.09.27.27,0,0,1,.15,0l.16,0,.09,0s0,0,0,0,0-.05,0-.05l-.08,0-.19,0a.35.35,0,0,0-.2,0,.16.16,0,0,0-.1.14.29.29,0,0,0,.07.27.48.48,0,0,0,.25.19,1.65,1.65,0,0,0,.32.06l0,.56v0a.27.27,0,0,1-.22.15,1,1,0,0,1-.41-.06s-.05,0-.05,0,0,0,0,0a1.12,1.12,0,0,0,.44.06.33.33,0,0,0,.25-.13.39.39,0,0,0,.25.16,1.1,1.1,0,0,0,.44,0s0,0,0,0,0,0,0,0Zm-.42.22-.45,0s0,0,0,0,0,0,0,0l.45,0s0,0,0,0S59.81,18.7,59.78,18.7Z"/><path class="cls-6" d="M59.28,15.12a4.06,4.06,0,0,0-.46-.36.76.76,0,0,0-.41-.15s0,0,0,.05,0,0,0,0a.63.63,0,0,1,.36.13,2.66,2.66,0,0,1,.46.35,0,0,0,0,0,.07,0s0,0,0-.06Zm.7.1a3.77,3.77,0,0,1,.54-.34.9.9,0,0,1,.43-.09s0,0,0,0,0,0,0-.05a1.1,1.1,0,0,0-.47.1,2.38,2.38,0,0,0-.54.35s0,0,0,.06S60,15.23,60,15.22Zm.21,1.17a1.1,1.1,0,0,0-.15-.26,1.29,1.29,0,0,0-.19-.21s0,0-.05,0,0,0,0,.06a1.54,1.54,0,0,1,.17.19.72.72,0,0,1,.14.24s0,0,0,0,0,0,0-.06Zm-.33-2a.77.77,0,0,0-.14.25.87.87,0,0,0-.06.32.88.88,0,0,0,0,.28.76.76,0,0,0,.1.3.36.36,0,0,0,.19.13.28.28,0,0,0,.18,0,.64.64,0,0,0,0,.36.06.06,0,0,0,.07,0L60.3,16l.15-.05h0a.86.86,0,0,0,.28-.11.59.59,0,0,0,.18-.13h0a.52.52,0,0,0,.11-.19.69.69,0,0,0,0-.2l.23-.12.2-.14s0,0,0-.07,0,0,0,0a.64.64,0,0,1-.19.13,1.34,1.34,0,0,1-.23.13,1.23,1.23,0,0,0-.43.1,2,2,0,0,0-.38.2s0,0,0,0l0,0a.27.27,0,0,1-.18,0,.26.26,0,0,1-.13-.1.54.54,0,0,1-.09-.25,1.22,1.22,0,0,1,0-.27h0a1.59,1.59,0,0,1,.06-.3.66.66,0,0,1,.15-.22s0,0,0-.06a0,0,0,0,0-.06,0Zm.37,1.23a1.9,1.9,0,0,1,.37-.2,1.21,1.21,0,0,1,.36-.1.77.77,0,0,1,0,.15.31.31,0,0,1-.1.15h0a.53.53,0,0,1-.14.12l-.27.11h0l-.16.06-.11,0a.77.77,0,0,1,.06-.3A.1.1,0,0,1,60.23,15.6Zm-.84-1.2a.54.54,0,0,1,.11.23,1,1,0,0,1,0,.3h0a1.2,1.2,0,0,1,0,.27.77.77,0,0,1-.1.25.3.3,0,0,1-.16.08.32.32,0,0,1-.17,0l0,0,0,0a2.25,2.25,0,0,0-.36-.24,1.44,1.44,0,0,0-.41-.15,1.14,1.14,0,0,1-.23-.15,1.07,1.07,0,0,1-.16-.14s0,0-.06,0,0,0,0,.06A.93.93,0,0,0,58,15a1.1,1.1,0,0,0,.21.14,1.23,1.23,0,0,0,0,.2.4.4,0,0,0,.09.2h0a.41.41,0,0,0,.17.15.82.82,0,0,0,.26.14h0a.71.71,0,0,0,.15.07A1.48,1.48,0,0,0,59,16s0,0,.06,0a.53.53,0,0,0,0-.35.4.4,0,0,0,.19,0,.33.33,0,0,0,.2-.12.65.65,0,0,0,.12-.28.86.86,0,0,0,0-.28.84.84,0,0,0-.14-.58s0,0-.06,0,0,0,0,.06Zm-1.12.76a1.4,1.4,0,0,1,.36.13l.35.24v0a.69.69,0,0,1,0,.32.21.21,0,0,0-.1-.06l-.16-.07h0a2,2,0,0,1-.26-.14.86.86,0,0,1-.14-.13h0a.48.48,0,0,1-.08-.16c0-.05,0-.1,0-.16Z"/><path class="cls-8" d="M58.62,15.25a.24.24,0,0,1,.23.25h0a.25.25,0,1,1-.23-.26Zm0,.08a.16.16,0,0,1,.16.17.17.17,0,0,1-.17.17.18.18,0,0,1-.16-.18h0a.16.16,0,0,1,.16-.16Zm0,.07a.1.1,0,0,1,.1.09h0a.11.11,0,0,1-.12.1.1.1,0,0,1-.08-.1.09.09,0,0,1,.1-.1Zm2-.05a.25.25,0,1,0,0,.5.24.24,0,0,0,.25-.22v0a.26.26,0,0,0-.23-.26Zm0,.08a.17.17,0,1,0,.17.18A.18.18,0,0,0,60.56,15.43Zm0,.07a.1.1,0,0,0-.09.09.1.1,0,0,0,.09.11c.05,0,.1,0,.11-.09h0a.1.1,0,0,0-.11-.1Z"/><path class="cls-8" d="M68.19,15.8a1.57,1.57,0,0,1,1.25.12,1,1,0,0,1,.4.29,5.81,5.81,0,0,1,.57-.4,3.1,3.1,0,0,1,.89-.49,3.46,3.46,0,0,1,1.29-.4A6.06,6.06,0,0,1,74,14.87a2.5,2.5,0,0,1,1.12.33l1,.49c.33.19.68.35,1,.51a4.4,4.4,0,0,0,1.44.24,2.68,2.68,0,0,0,.75-.05c.21-.06.33.07.11.21-1.62,1-2.87.11-3.94-.29a8.13,8.13,0,0,1,1,.83,5.43,5.43,0,0,0,1.68,1.16,4,4,0,0,0,1.72.4,3.78,3.78,0,0,0,.75-.05c.13,0,.19,0,.21.06a.25.25,0,0,1-.1.2,2.22,2.22,0,0,1-1.25.38A4.86,4.86,0,0,1,77,18.64a12.26,12.26,0,0,1-1.62-1.16,3.82,3.82,0,0,0-1.43-.7,3,3,0,0,0-1.43,0,.55.55,0,0,1,.3.16,2.46,2.46,0,0,0,.92.24c.22,0,.15.17-.18.35a.85.85,0,0,1-.79.36c-.47.32-.65.13-.8-.08a1.66,1.66,0,0,1-.11.38.26.26,0,0,1,0,.21.5.5,0,0,1,.1.35.3.3,0,0,0,.1.2.49.49,0,0,1,.18.32.3.3,0,0,0,.12.21,2.37,2.37,0,0,1,.28.27.72.72,0,0,1,.47.61.53.53,0,0,1,.35.41.63.63,0,0,1,.29.22,10.7,10.7,0,0,1,1.28.05,1.54,1.54,0,0,1,1,.58,1.51,1.51,0,0,0,.56,0,1.8,1.8,0,0,1,.64-.18,3.5,3.5,0,0,1,1.12,0,1.07,1.07,0,0,1,.59.36.74.74,0,0,0,.87.1,1.29,1.29,0,0,1,1.15,0,1.12,1.12,0,0,1,.54-.09.59.59,0,0,1,.47-.2c.27,0,.46,0,.42.37a.37.37,0,0,1-.14.22,1,1,0,0,0-.9.73c.15.42,0,.59-.29.58a.29.29,0,0,1-.33.17.62.62,0,0,1-.42.25.47.47,0,0,0,.14.29c.21.32-.11.45-.4.45a1.27,1.27,0,0,1,0,.64c.3.18.34.37.07.56a.49.49,0,0,1-.07.7.4.4,0,0,1-.18.1.69.69,0,0,1-.16.51c-.09.07-.22.09-.13.23s.12.57-.11.58c0,0-.09,0-.09.08s0,.05-.08.08a5,5,0,0,0-.76.5.08.08,0,0,1-.1,0h0a4.43,4.43,0,0,1-.84,1.13.71.71,0,0,1-.47.56.22.22,0,0,1-.16.16c.15.16.2.32.07.47a1.5,1.5,0,0,1-.64.44c-.49.12-.8.1-1-.09s-.1-.29,0-.34c-.29,0-.36-.13-.35-.34s0-.1.16-.09a1.59,1.59,0,0,0,.47-.14,1,1,0,0,1,.23-.26.82.82,0,0,1,.56-.64,1.61,1.61,0,0,0,.68-.61l.41-.7a.63.63,0,0,1-.12-.37.87.87,0,0,1-.28-.26.32.32,0,0,1-.33-.24.36.36,0,0,1-.15,0,.55.55,0,0,1-.35.12,2.26,2.26,0,0,1-.53.44.37.37,0,0,1-.33.27c-.44,0-.71.59-.94.81a.72.72,0,0,0-.2.36c0,.28-.07.51-.23.51s-.16,0-.16,0h-.18a.35.35,0,0,1,0,.43.53.53,0,0,1-.42.2,1.63,1.63,0,0,1-.79-.1.33.33,0,0,1-.25-.35c-.16-.08-.19-.15-.18-.23a.19.19,0,0,1,.22-.12h0a1.42,1.42,0,0,1,.29-.1,2.58,2.58,0,0,1,.89-.68,1.18,1.18,0,0,1,.33-.3,1.15,1.15,0,0,1,.43-.69.94.94,0,0,1,.12-.3.33.33,0,0,1,0-.14.6.6,0,0,1-.09-.52.82.82,0,0,1,0-.27c-.52.31-.68.21-.75,0-.18.16-.36.23-.5,0a.77.77,0,0,1-.54,0,.59.59,0,0,0-.63.44,1.36,1.36,0,0,1-.23.7,5.23,5.23,0,0,1-.35.76.41.41,0,0,1,0,.24c0,.29-.06.43-.21.5a1.13,1.13,0,0,1-.21.35.36.36,0,0,1,0,.11.43.43,0,0,1-.09.51l-.43.26a.62.62,0,0,1-.48,0c-.27-.09-.24-.18-.21-.27a.3.3,0,0,1-.26,0,1.67,1.67,0,0,0-.16-.12c0-.1-.07-.19.07-.26a1.22,1.22,0,0,0,.41-.27.37.37,0,0,1,.18-.21.62.62,0,0,1,.32-.35,5.12,5.12,0,0,1,.34-.71.34.34,0,0,0,0-.22.18.18,0,0,1,.05-.16s.08,0,0-.08a.69.69,0,0,1,.09-.56,1.12,1.12,0,0,0,.14-.94,1.5,1.5,0,0,1,0-.42.24.24,0,0,1-.12,0c-.12-.07-.21,0-.3.12s-.11.29-.18.29a1,1,0,0,1-.45.78,1.48,1.48,0,0,0-.06.55c0,.2,0,.34-.09.36a.35.35,0,0,0-.26.25s0,.1,0,.16a.29.29,0,0,1,0,.42.08.08,0,0,1,0,0,1,1,0,0,1-1.08.14c-.29-.12-.36-.24-.33-.36-.41,0-.32-.35,0-.45a1.62,1.62,0,0,0,.91-.67c0-.4.11-.66.32-.7a1.74,1.74,0,0,1,.2-.67.9.9,0,0,0,.13-.64c-.21-.15-.22-.29,0-.44s.06-.09,0-.13-.12-.14-.1-.27a.11.11,0,0,0-.1-.1h0c-.32,0-.24-.17-.1-.3s.09-.16,0-.19a.35.35,0,0,1-.09-.23c-.2-.14-.11-.29,0-.43a.48.48,0,0,1-.17-.37c-.35,0-.49-.2-.29-.45a1.83,1.83,0,0,1,.3-.32A.5.5,0,0,0,69,22c-.09-.25.23-.44.5-.64a.39.39,0,0,1-.06-.2c-.16-.15-.12-.29.06-.42a.48.48,0,0,1-.07-.2c-.38.07-.38-.16-.2-.52-.22-.13-.16-.36.24-.7a.59.59,0,0,1,.05-.19,1,1,0,0,0-.49.15.45.45,0,0,1-.46,0,.61.61,0,0,0-.2-.19.32.32,0,0,1-.11-.31c-.44,0-.54-.31-.26-.5a.9.9,0,0,0,.29-.38,1.88,1.88,0,0,1,.63-.74,1.28,1.28,0,0,1,0-.27.7.7,0,0,0-.36-.14.55.55,0,0,0-.27-.31c-.09,0-.12-.1-.06-.21-.25-.21-.19-.34-.13-.47Z"/><path class="cls-2" d="M78.49,16.56a3.1,3.1,0,0,0,.81,0,2.23,2.23,0,0,1-.92.37.55.55,0,0,0,.13-.17A.23.23,0,0,0,78.49,16.56Z"/><path class="cls-2" d="M77.8,16.49l.58.07h0a.13.13,0,0,1,0,.12.29.29,0,0,1-.13.14s0,0,0,.07a1.7,1.7,0,0,1-.39,0h-.21a0,0,0,0,0,0,0,.36.36,0,0,0,.13-.22.36.36,0,0,0,0-.18Z"/><path class="cls-2" d="M72.7,15a5.59,5.59,0,0,1,1,0,.55.55,0,0,1,.25.2.83.83,0,0,1,0,.38s0,0,0,.06.06,0,.06,0a.71.71,0,0,0-.07-.45A.53.53,0,0,0,73.9,15H74a2.71,2.71,0,0,1,1,.3h0a.23.23,0,0,1,.08.23.53.53,0,0,1-.13.27s0,0,0,.07,0,0,0,0a.55.55,0,0,0,.18-.31.47.47,0,0,0,0-.17l.84.42h0v0a.19.19,0,0,1,0,.2.4.4,0,0,1-.22.16s0,0,0,.06,0,0,.07,0a.66.66,0,0,0,.27-.19.36.36,0,0,0,0-.22l.56.29h0a.19.19,0,0,1,0,.18.39.39,0,0,1-.21.17s0,0,0,.06,0,0,.06,0a.43.43,0,0,0,.23-.21.19.19,0,0,0,0-.16l.2.08a4.64,4.64,0,0,0,.64.17h0a.31.31,0,0,1,0,.18.52.52,0,0,1-.1.18s0,0,0,.06v0a8.51,8.51,0,0,1-2-.68l-.24-.09-.74-.32,0,0h-.06l0,0h0a4.3,4.3,0,0,0-.69-.16,3,3,0,0,0-.79,0h0a.56.56,0,0,0,0-.38.74.74,0,0,0-.23-.2Z"/><path class="cls-2" d="M71.53,15.34a5.07,5.07,0,0,1,1-.29.64.64,0,0,1,.31.23.43.43,0,0,1,.05.31,2,2,0,0,0-.88.11.69.69,0,0,0-.3-.31l-.18-.05Z"/><path class="cls-9" d="M76.38,27.43h-.1l-.38.33c-.12-.13-.28,0-.12.1l-.08.05a.29.29,0,0,1-.27.23h-.05V28a.76.76,0,0,1,0-.21s0,0,0,0h0a1.33,1.33,0,0,0,0,.21.6.6,0,0,0,0,.19c-.4.13-.64.54-.9.83a.86.86,0,0,0-.23.39c0,.08,0,.43-.1.43H74c0-.06-.1-.06-.18,0a2.68,2.68,0,0,0-.49,0c-.09.11.18.07.32.16a.19.19,0,0,1,.07.23c-.13.32-.89.22-1.13.08a.2.2,0,0,1-.12-.23h.17a.62.62,0,0,0,.26-.09s.05,0,0-.08,0,0-.08,0a.49.49,0,0,1-.21.08h-.26s-.07-.06-.06-.09.1,0,.11,0a1.12,1.12,0,0,1,.34-.11,2.55,2.55,0,0,1,.9-.7,1.94,1.94,0,0,1,.36-.34,1.17,1.17,0,0,1,.44-.69,1.31,1.31,0,0,1,.12-.33v-.2a.56.56,0,0,1-.07-.5,1,1,0,0,1,0-.35v-.07c.08-.05.14-.11.21-.16l.21-.12a1.7,1.7,0,0,0,0,.39h0a.51.51,0,0,0-.09.13.17.17,0,0,0,0,.14s0,0,0,0,0,0,0,0a.35.35,0,0,1,0-.11.38.38,0,0,1,.09-.12h0a.63.63,0,0,0,.37-.17c.1-.08.21-.2.32-.31v.51a1.2,1.2,0,0,0-.28.35s0,0,0,0h0a0,0,0,0,0,0,0,1.08,1.08,0,0,1,.24-.32h0s0,0,0,0h0l0,0a1.41,1.41,0,0,1,.42-.22,1.08,1.08,0,0,0,0,.44.71.71,0,0,0,.26.43h0Z"/><path class="cls-2" d="M75.16,17.18,74.88,17a3.39,3.39,0,0,0-1.48-.41,0,0,0,0,0,0,0,.46.46,0,0,0,.17-.52.83.83,0,0,0-.31-.36,2.07,2.07,0,0,1,.5,0,3.77,3.77,0,0,1,.89.24.62.62,0,0,1,.06.42.59.59,0,0,1-.28.32s0,0,0,.06,0,0,.06,0a.6.6,0,0,0,.33-.37.69.69,0,0,0,0-.4,2.14,2.14,0,0,1,.52.32c.15.12.32.23.49.35a.42.42,0,0,1-.16.39.72.72,0,0,1-.43.05S75.16,17.13,75.16,17.18Z"/><path class="cls-2" d="M76.13,17.92a10.2,10.2,0,0,0-.9-.69.78.78,0,0,0,.45-.07.46.46,0,0,0,.2-.4,6.06,6.06,0,0,1,.54.47l.26.24h0a1.37,1.37,0,0,1,0,.19.25.25,0,0,1,0,.13.29.29,0,0,1-.14.08.87.87,0,0,1-.32,0s-.06,0-.06,0Z"/><path class="cls-2" d="M77.18,18.6l-.3-.17c-.22-.14-.44-.29-.65-.45a1.13,1.13,0,0,0,.32,0,.4.4,0,0,0,.18-.1.29.29,0,0,0,.07-.18.17.17,0,0,0,0-.1,5,5,0,0,0,.66.48l.37.21a0,0,0,0,0,0,0,.2.2,0,0,1-.14.19,1.59,1.59,0,0,1-.48.07s0,0,0,0Z"/><path class="cls-2" d="M78.29,19a7.72,7.72,0,0,1-1-.38,1.44,1.44,0,0,0,.46-.08.28.28,0,0,0,.21-.25,5.46,5.46,0,0,0,.6.27.18.18,0,0,1,0,.2.52.52,0,0,1-.25.18s0,0,0,.06Z"/><path class="cls-2" d="M80.57,18.8s.21-.06.13,0a3,3,0,0,1-2.36.24.75.75,0,0,0,.29-.21.32.32,0,0,0,0-.22,3.57,3.57,0,0,0,.8.18.21.21,0,0,1,0,.13.65.65,0,0,1-.24.15s0,0,0,.06,0,0,.06,0a.73.73,0,0,0,.28-.19.23.23,0,0,0,0-.17A4.52,4.52,0,0,0,80.57,18.8Z"/><path class="cls-9" d="M68.84,23.05s.07-.08.09-.08h0a.88.88,0,0,1,.16-.28,1.37,1.37,0,0,1,.24-.29s0,0,0,0a0,0,0,0,1,0,0,2.09,2.09,0,0,0-.24.28L69,23a.12.12,0,0,1,0,.08.58.58,0,0,0,.12.34h0a.86.86,0,0,1,.11-.19.66.66,0,0,1,.23-.17l.15-.15a.65.65,0,0,0,.09-.16s0,0,0,0,0,0,0,0a.56.56,0,0,1-.09.17,1.29,1.29,0,0,1-.17.16h0a1.56,1.56,0,0,0-.2.16.51.51,0,0,0-.09.16.12.12,0,0,1,0,.15c-.11.15-.22.24,0,.36a.36.36,0,0,0,.1.25.32.32,0,0,1-.06.33c-.11.1,0,.08.07.09h0a1.28,1.28,0,0,1,.14-.21.8.8,0,0,1,.15-.17.88.88,0,0,0,.18-.25.51.51,0,0,0,.07-.24s0,0,0,0,0,0,0,0a.66.66,0,0,1-.09.27.88.88,0,0,1-.18.25.8.8,0,0,0-.15.17.9.9,0,0,0-.14.2c.14.08.09.22.11.35l.07,0h0a.75.75,0,0,1,.07-.12l.13-.19s0,0,0,0,0,0,0,0l-.12.19-.08.12h0a.16.16,0,0,1,0,.23l0,0c-.19.14-.14.19,0,.3a1.14,1.14,0,0,1,0,.45h0c0,.05,0,.09,0,.14v.15s0,0,0,0,0,0,0,0v-.14s0,0,0,0,0,.05,0,.07a2.4,2.4,0,0,0-.28.83c-.31.07-.27.38-.28.65a1.89,1.89,0,0,1-.93.72c-.07,0-.24.07-.27.16a.18.18,0,0,0,.21.06c.21-.2.32-.09.07.12a.11.11,0,0,0,0,.13,1.08,1.08,0,0,0,1,.1c.18-.11.29-.24.13-.42a.55.55,0,0,1,.37-.57.3.3,0,0,0,0-.23,1.69,1.69,0,0,1,.06-.63.18.18,0,0,1,.07-.05c.11,0,.29-.32.36-.6a1.62,1.62,0,0,0,0-.19c0-.1.05-.12.1-.06s0-.1.07-.17.26-.28.43-.19a1.76,1.76,0,0,1-.07-.4,1.4,1.4,0,0,1,0-.5s0-.05,0,0l.16-.36c0-.12.1-.24.15-.36s0,0,0,0,0,0,0,0L71,24.6a3.73,3.73,0,0,1-.16.35s0,0,0,.06a1.2,1.2,0,0,0,0,.46,1.41,1.41,0,0,0,.11.46s0,0,0,0,.08.06.07.17a2.66,2.66,0,0,0,0,.28,1.21,1.21,0,0,1-.16,1.06.5.5,0,0,0-.06.41c.1.1,0,.19-.06.26a.09.09,0,0,0,0,.07.38.38,0,0,1-.07.27,6.41,6.41,0,0,0-.35.75c-.2.06-.24.17-.32.35a.23.23,0,0,0-.17.17,1.22,1.22,0,0,1-.42.29c-.15.07,0,.13.1.19s.2-.07.26-.18.17-.09.11,0a1.21,1.21,0,0,0-.11.32c0,.09.29.15.35.15a1.19,1.19,0,0,0,.58-.27.32.32,0,0,0,0-.4h0a.65.65,0,0,1-.24,0,1.22,1.22,0,0,1-.27-.09,0,0,0,0,1,0,0s0,0,0,0a1.34,1.34,0,0,0,.26.09.9.9,0,0,0,.23,0v-.12A1.26,1.26,0,0,0,71,29.3c.22-.1.23-.2.2-.43a.46.46,0,0,0,.06-.25,4.49,4.49,0,0,0,.34-.78,1,1,0,0,0,.24-.7c0-.1,0-.17.13-.16a2.36,2.36,0,0,1,.15-.25h0s0,0,0,0a.94.94,0,0,1,.06-.15.39.39,0,0,1,.06-.11.45.45,0,0,0,0-.23.9.9,0,0,0-.08-.21.41.41,0,0,1-.05-.09.11.11,0,0,1,0-.11s0,0,0,0,0,0,0,0a0,0,0,0,0,0,.06.13.13,0,0,0,0,.07h0a.4.4,0,0,1,.08.23.46.46,0,0,1,0,.26h0a.15.15,0,0,0-.06.1l0,.15h0a.74.74,0,0,0,.33-.09h0a.72.72,0,0,0,.18-.21.66.66,0,0,0,.09-.28s0,0,0,0,0,0,0,0a.76.76,0,0,1-.1.3.57.57,0,0,1-.12.18.89.89,0,0,0,.51-.05,2.91,2.91,0,0,1,0-.59,1.13,1.13,0,0,1,.14-.36s0,0,0,0a0,0,0,0,1,0,0,.64.64,0,0,0-.13.33,1.75,1.75,0,0,0,0,.56h0c.07.13.11.22.26.12l.15-.12a.13.13,0,0,0,0,0,5.7,5.7,0,0,1,.43-.42,4.46,4.46,0,0,1,.43-.33s0,0,0,0,0,0,0,0a2.59,2.59,0,0,0-.42.32,4.12,4.12,0,0,0-.37.35.62.62,0,0,0,0,.12c0,.17,0,.27.28.18a.9.9,0,0,0,.28-.13l.15-.08.24-.17.23-.14c0-.1,0-.18.06-.27a2.39,2.39,0,0,1,.36-.62h0a1,1,0,0,0,.32-.25.83.83,0,0,0,.2-.32s0,0,0,0,0,0,0,0a1.08,1.08,0,0,1-.21.34,1.23,1.23,0,0,1-.33.26A1.89,1.89,0,0,0,75,26a.86.86,0,0,0,0,.23h0s0,0,0,0h0a1.79,1.79,0,0,0,0,.4.58.58,0,0,0,.32-.16,4,4,0,0,0,.36-.35h0a.8.8,0,0,1,.11-.25.74.74,0,0,1,.19-.16s0,0,0,0,0,0,0,0a.52.52,0,0,0-.18.15,1,1,0,0,0-.11.23v.54s0,0,0,0a1.65,1.65,0,0,1,.46-.23s0,0,0,0a1.42,1.42,0,0,0,0,.46.67.67,0,0,0,.22.39.53.53,0,0,1,.16-.23s0-.05.06-.07h0l.14-.13.12-.1.1-.1s0,0,0,0,0,0,0,0a.52.52,0,0,0-.11.1l-.12.1h0a.74.74,0,0,0-.13.12.66.66,0,0,1,0,.14v.07a.61.61,0,0,0,.27,0c0,.21,0,.25.23.25a1.62,1.62,0,0,1,0-.22,1.05,1.05,0,0,1,.06-.24s0,0,0,0,0,0,0,0a.59.59,0,0,0,0,.23,1.48,1.48,0,0,0,0,.21h0a.22.22,0,0,0,.08.31.24.24,0,0,0,.32-.09.27.27,0,0,0,0-.13.6.6,0,0,0,0-.23s0,0,0,0,0,0,0,0a.76.76,0,0,1-.15.49s0,0,0,0a.94.94,0,0,0,.07.22l.06-.15a.65.65,0,0,1,.15-.18s0,0,0,0,0,0,0,0a1,1,0,0,0-.13.16l-.09.18a.86.86,0,0,0,.07.1c-.3.51-.61,1.2-1.2,1.44a.65.65,0,0,0-.49.59,1.06,1.06,0,0,0-.27.29,1.43,1.43,0,0,1-.58.16c0,.14,0,.2.18.2s.32-.16.34-.14,0,.22-.25.37c0,0,0,0,0,.07.19.28.67.18.93.11A1.22,1.22,0,0,0,77,31c0-.08,0-.19-.11-.28-.38,0-.3-.3,0-.15.1,0,.12,0,.15-.15a.63.63,0,0,0,.46-.54,4.94,4.94,0,0,0,.78-1,.42.42,0,0,0,.08-.26.39.39,0,0,0,.08-.21.52.52,0,0,0,0-.21s0,0,0,0,0,0,0,0a.5.5,0,0,1,0,.24,1.21,1.21,0,0,1,0,.18c0,.05,0,.07.07.06a6.65,6.65,0,0,1,.76-.5.18.18,0,0,1,.2-.17s.07,0,.09,0,0-.27-.1-.4.06-.23.18-.32.12-.35.13-.5h0a.19.19,0,0,1,0-.08l0-.15s0,0,0,0,0,0,0,0a.94.94,0,0,1,0,.16.13.13,0,0,1,0,.06.5.5,0,0,0,.3-.27A.53.53,0,0,0,80,26l-.09,0-.2.08s0,0,0,0,0,0,0,0l.21-.08.14-.06a.61.61,0,0,0,.15-.13c.09-.13-.15-.24-.23-.3h0l-.35-.33s0,0,0,0,0,0,0,0l.33.3a2,2,0,0,0,0-.55c0-.06,0-.12-.07-.18h0a.48.48,0,0,1-.21-.19.49.49,0,0,1-.08-.24s0,0,0,0,0,0,0,0a.37.37,0,0,0,.08.22.34.34,0,0,0,.2.17.58.58,0,0,0,.43,0c.16-.1-.06-.29-.11-.4a2.27,2.27,0,0,0-.06-.25s0,0,0,0a.18.18,0,0,0,0-.07.21.21,0,0,0-.1-.06s0,0,0,0,0,0,0,0a.41.41,0,0,1,.11.07l.09.1h0a.68.68,0,0,0,.37-.25,1.8,1.8,0,0,0-.2-.19,1.73,1.73,0,0,0-.21-.17s0,0,0,0,0,0,0,0l.22.18.2.2s0,0,0,0c.16,0,.19,0,.26-.15a.72.72,0,0,0-.09-.2,1.46,1.46,0,0,0-.16-.19,0,0,0,0,1,0,0s0,0,0,0a.83.83,0,0,1,.16.2.67.67,0,0,1,.09.21.38.38,0,0,0,.21,0c.14-.08,0-.36,0-.47h0l0,0L81,22.89s0,0,0,0,0,0,0,0l.09.06.07,0s0,0,0,0a.43.43,0,0,0,.16-.29c0-.17.06-.09.25-.12a.48.48,0,0,0,.45-.3.15.15,0,0,0,.11-.14c0-.15,0-.22-.16-.23a.58.58,0,0,0-.52.17.36.36,0,0,0,.07.1s0,0,0,0,0,0,0,0l-.06-.09a1.26,1.26,0,0,0-.58.08l-.05,0,.09.16a.41.41,0,0,1,0,.21s0,0,0,0a0,0,0,0,1,0,0,.65.65,0,0,0,0-.19.8.8,0,0,0-.15-.21h0a1.22,1.22,0,0,0-.46-.09.6.6,0,0,0,.08.08l.08.1s0,0,0,0h0l-.09-.1-.1-.1s0,0,0,0a1.56,1.56,0,0,0-.41.11,1.31,1.31,0,0,1-.28.09,1,1,0,0,1,.18.22,1.42,1.42,0,0,1,.1.29s0,0,0,0,0,0,0,0a1.36,1.36,0,0,0-.11-.28.76.76,0,0,0-.17-.23s0,0,0,0a1,1,0,0,1-.25,0l.1.17s0,0,0,0,0,0,0,0l-.09-.2a1,1,0,0,1-.24-.09c0,.1,0,.19.06.29a3.25,3.25,0,0,1,0,.44s0,0,0,0,0,0,0,0a3.11,3.11,0,0,0,0-.43,2.17,2.17,0,0,0-.07-.35l-.1-.09a1,1,0,0,0-.28-.22v.13a.55.55,0,0,1-.1.22s0,0,0,0,0,0,0,0a.54.54,0,0,0,.08-.21v-.14a1.59,1.59,0,0,0-.52-.13l.14.2a1,1,0,0,1,.13.23.39.39,0,0,1,.14.21l0,.24s0,0,0,0,0,0,0,0a1.79,1.79,0,0,0,0-.23.41.41,0,0,0-.13-.19h0A.84.84,0,0,0,78,21.8c0-.07-.1-.14-.15-.22h-.19l0,.05a.21.21,0,0,1,0,.11s0,0,0,0,0,0,0,0a.21.21,0,0,0,0-.1.13.13,0,0,0,0-.07c-.14,0-.25,0-.39,0a2,2,0,0,1,.32.5,2.08,2.08,0,0,1,.18.6s0,0,0,0,0,0,0,0a2.07,2.07,0,0,0-.16-.59,3.42,3.42,0,0,0-.33-.51h0a1.26,1.26,0,0,0-.28.05l.1.08.12.11s0,0,0,0,0,0,0,0l-.1-.1a.67.67,0,0,0-.14-.09l-.15.05-.08,0,.25.2a3.88,3.88,0,0,1,.26.31s0,0,0,0h0a1.87,1.87,0,0,0-.26-.3l-.28-.22a1.08,1.08,0,0,1-.31,0,3.29,3.29,0,0,1,.17.39,2,2,0,0,1,.08.43s0,0,0,0,0,0,0,0a1.43,1.43,0,0,0-.09-.41,2.87,2.87,0,0,0-.18-.4l-.2,0c0,.12.07.24.1.36s0,.3.09.45,0,0,0,0,0,0,0,0c0-.16,0-.3-.08-.44a3.84,3.84,0,0,0-.11-.4,2.14,2.14,0,0,0-.63-.49,1.37,1.37,0,0,1,.13.2,1,1,0,0,1,.05.34s0,0,0,0,0,0,0,0a.7.7,0,0,0,0-.32,1.17,1.17,0,0,0-.17-.26.57.57,0,0,0-.18,0l-.49,0c.13.12.22.22.21.35s0,0,0,0,0,0,0,0-.11-.22-.25-.34h-.28c0,.05.09.1.13.16a1.13,1.13,0,0,1,.11.22h0a1.11,1.11,0,0,0,.08.3.51.51,0,0,0,.22.19s0,0,0,0,0,0,0,0a.49.49,0,0,1-.25-.22.8.8,0,0,1-.09-.31.56.56,0,0,0-.11-.2.49.49,0,0,0-.16-.19h-.32c0,.12.07.26.1.39a4.21,4.21,0,0,1,0,.5s0,0,0,0a0,0,0,0,1,0,0,2.7,2.7,0,0,0,0-.49,1.37,1.37,0,0,0-.09-.4h0a.47.47,0,0,0-.23-.21v0a.31.31,0,0,1,0,.1s0,0,0,0,0,0,0,0a.26.26,0,0,0,0-.13l0,0a.45.45,0,0,0-.28-.38c0,.06,0,.12,0,.18a1.13,1.13,0,0,1-.08.24s0,0,0,0,0,0,0,0a.58.58,0,0,0,.08-.22,1.21,1.21,0,0,0,0-.19h0c0-.3-.09-.48-.41-.6V20a.46.46,0,0,1-.05.2s0,0,0,0a0,0,0,0,1,0,0h0a.41.41,0,0,0,0-.19,1.09,1.09,0,0,0,0-.18l-.25-.23a1.31,1.31,0,0,1,0,.34,1.36,1.36,0,0,1-.2.4,0,0,0,0,1,0,0v0a1.41,1.41,0,0,0,.19-.39.81.81,0,0,0,0-.38.54.54,0,0,1-.09-.12h0l0,.09s0,0,0,0,0,0,0,0a.36.36,0,0,1,0-.09l0-.06a.09.09,0,0,1,0-.05.36.36,0,0,0-.13-.23h0l0,.09a.45.45,0,0,1-.1.14s0,0,0,0,0,0,0,0a.54.54,0,0,0,.07-.13.19.19,0,0,0,0-.12l-.07-.11,0,.08-.09.1s0,0-.05,0a.06.06,0,0,1,0,0,.3.3,0,0,0,.08-.08.41.41,0,0,0,0-.09s0,0,0-.09a.42.42,0,0,0-.1-.34h0a.32.32,0,0,0-.16,0l-.22.13a0,0,0,0,1,0,0s0,0,0,0l.24-.14a.45.45,0,0,1,.2,0,.2.2,0,0,0,0-.11,2.2,2.2,0,0,1-.55.13.82.82,0,0,1-.38-.06s0,0,0,0,0,0,0,0a.74.74,0,0,0,.36.05,2,2,0,0,0,.54-.13h0l.1-.27a1.06,1.06,0,0,1-.25,0h0s0,0,0,0,0,0,0,0h0a.74.74,0,0,0,.26,0,.29.29,0,0,1,0-.09c0-.1.12-.12.21,0a.86.86,0,0,0,.2.18.4.4,0,0,0,.42-.08l-.11,0s0,0,0,0,0,0,0,0l.14,0s0,0,0,0a.75.75,0,0,0,.65-.22,3.1,3.1,0,0,1-.43,0,1.32,1.32,0,0,1-.33-.08s0,0,0,0,0,0,0,0a.72.72,0,0,0,.32.08,4,4,0,0,0,.49,0h0a.21.21,0,0,1,0-.06.71.71,0,0,0,.22-.13,2.91,2.91,0,0,1-1-.26.53.53,0,0,0-.32-.17,1.12,1.12,0,0,0-.65.13.62.62,0,0,1-.14-.14l-.22-.05c-.11,0-.21,0-.32,0s0,0,0,0,0,0,0,0a1.71,1.71,0,0,0,.32,0c.1,0,.18.06.29.07a2.28,2.28,0,0,1,.82-.18h0a2.75,2.75,0,0,1,.85-.1,0,0,0,0,1,0,0s0-.05,0-.07a.41.41,0,0,0,.13-.43.83.83,0,0,0-.37-.37c-.21,0-.42,0-.63,0a1.53,1.53,0,0,0-.4.09.63.63,0,0,1,.29.2,1.06,1.06,0,0,1,.2.46s0,.05,0,.06-.06,0-.06,0a.83.83,0,0,0-.18-.42.73.73,0,0,0-.36-.21,4.22,4.22,0,0,0-.62.1,1,1,0,0,0-.36.16.61.61,0,0,1,.42,0,.57.57,0,0,1,.28.35s0,.05,0,.06,0,0-.07,0a.44.44,0,0,0-.23-.31,1,1,0,0,0-.78.12,2.06,2.06,0,0,0-.3.29s0,0-.08,0,0-.06,0-.08a2.18,2.18,0,0,1,.31-.3,1,1,0,0,1,.33-.17,1,1,0,0,1,.49-.25,4.49,4.49,0,0,1,.64-.1.67.67,0,0,0-.24-.26.94.94,0,0,0-.37,0,3.3,3.3,0,0,0-.74.4h.07l.18,0s0,0,0,.06-.17,0-.22,0a.58.58,0,0,0-.19,0h0a4.65,4.65,0,0,0-.71.55h0a.69.69,0,0,0-.44.09c-.08.05-.08.15-.07.27a1.61,1.61,0,0,0-.08.38,1.92,1.92,0,0,0-.64.72,1,1,0,0,1-.14.24.29.29,0,0,1,.13.05l0,0a.36.36,0,0,0,0-.15.77.77,0,0,1,.08-.19s0,0,0,0,0,0,0,0a.87.87,0,0,0-.07.17,2.29,2.29,0,0,0,0,.25s-.05,0-.05,0a.15.15,0,0,0-.06-.1l-.13,0-.17.16a.26.26,0,0,0-.11.14c0,.12.13.14.26.14.3,0,.06.19.23.33a1.26,1.26,0,0,1,.2.2.3.3,0,0,0,.26,0c0-.2,0-.3.08-.3h0a.19.19,0,0,1,0-.07.37.37,0,0,1,.07-.12s0,0,0,0a.08.08,0,0,1,0,0,.36.36,0,0,0-.07.1s0,.05,0,.08a1.28,1.28,0,0,1,0,.19,1.17,1.17,0,0,1,.49-.11c.32-.37.44-.28.16,0a.11.11,0,0,1,0,.08.75.75,0,0,0-.09.29c-.09.07-.49.4-.33.53s.17,0,.12.06-.2.33-.15.45.09,0,.15,0h0a2.2,2.2,0,0,0,.31-.3,1.75,1.75,0,0,0,.28-.39,0,0,0,0,1,0,0h0a3.4,3.4,0,0,1,.12-.34,3,3,0,0,1,.13-.36s0,0,.05,0l.12.14a.25.25,0,0,0,.12,0l.11,0a.74.74,0,0,0,.12-.13s0,0,0,0,0,0,0,0a.4.4,0,0,1-.14.15.22.22,0,0,1-.14.05.21.21,0,0,1-.13-.05l-.12-.12-.12.32a3.58,3.58,0,0,0-.11.35s0,0,0,.06a1.73,1.73,0,0,1-.3.41,2.23,2.23,0,0,1-.27.26.68.68,0,0,0,.08.24,5.11,5.11,0,0,0,.48-.45,2.87,2.87,0,0,0,.37-.49s0,0,0,0,0,0,0,0a1.67,1.67,0,0,1-.17.26s0,0,0,0a.28.28,0,0,0,0,.16,1.74,1.74,0,0,0,0,.32s0,0,0,0,0,0,0,0a1.9,1.9,0,0,1,0-.34.17.17,0,0,1,0-.07,1.42,1.42,0,0,1-.12.13,5.5,5.5,0,0,1-.49.47h0a0,0,0,0,0,0,0c-.15.11-.28.15-.11.3l.18-.12.18-.14s0,0,0,0,0,0,0,0l-.18.13-.18.13a.28.28,0,0,0,0,.18h0c.13-.09.26-.18.38-.28h0s0,0,0,0l-.38.28a.12.12,0,0,1,0,.05c-.13.1-.57.37-.51.55h0a1.15,1.15,0,0,0,.31-.11,1.33,1.33,0,0,0,.3-.23,0,0,0,0,1,0,0h0s0,0,0,0a1.44,1.44,0,0,1-.32.23V22s0,0,0,0h0s0,0,0,0v-.09a1.25,1.25,0,0,1-.27.1.62.62,0,0,1-.16.49s-.49.4-.3.51l.16,0Z"/><path class="cls-8" d="M76.6,27.34a.67.67,0,0,1-.21.09h0a1.1,1.1,0,0,1,.17-.25s0,0,0,0Z"/><path class="cls-8" d="M77.56,29.37a1.68,1.68,0,0,1-.18.21,2.07,2.07,0,0,1-.24.17s0,0,0,0,0,0,0,0a.76.76,0,0,0,.23-.17.7.7,0,0,0,.18-.2s0,0,0,0S77.56,29.36,77.56,29.37Z"/><path class="cls-8" d="M78.19,28.62l-.1.15s0,0,0,0a0,0,0,0,1,0,0l.1-.15s0,0,0,0a0,0,0,0,1,0,0Z"/><path class="cls-8" d="M77.84,28.57a.4.4,0,0,1-.09.2.44.44,0,0,1-.21.17s0,0,0,0,0,0,0,0a.37.37,0,0,0,.2-.15.31.31,0,0,0,.09-.19s0,0,0,0,0,0,0,0Z"/><path class="cls-8" d="M78.46,27.82a.47.47,0,0,0-.06.09s0,.07-.05.1v0h0s0,0,0,0a.37.37,0,0,1,.07-.12.18.18,0,0,1,.06-.09s0,0,0,0,0,0,0,0Z"/><path class="cls-8" d="M79,27.87c0,.07,0,.14-.07.22a2.12,2.12,0,0,1-.11.21l0,0h0s0,0,0,0l.09-.21a.79.79,0,0,0,.06-.22s0,0,0,0S79,27.86,79,27.87Z"/><path class="cls-8" d="M78.73,24.92a1.11,1.11,0,0,1,.2.71l.06-.27h0a1,1,0,0,0,.14-.28.66.66,0,0,0,0-.28s0,0,0,0,0,0,0,0a.48.48,0,0,1,0,.29.7.7,0,0,1-.13.29c0,.16-.07.32-.11.48v0s-.05,0-.05,0v-.05a1.33,1.33,0,0,0-.2-.89s0,0,0,0a0,0,0,0,1,0,0Z"/><path class="cls-8" d="M78.35,25.41s0,0,0,.06v.06s0,0,0,0,0,0,0,0v-.06a.43.43,0,0,0,0-.05s0,0,0,0h0s0,0,0,0Z"/><path class="cls-8" d="M78.23,26.08a2.74,2.74,0,0,1,.09.39,2.51,2.51,0,0,1,0,.27l0,0a.52.52,0,0,1,.16-.14s0,0,0,0,0,0,0,0a.44.44,0,0,0-.15.12.39.39,0,0,0-.07.16s-.06,0-.06,0a1.8,1.8,0,0,0,0-.4,2.33,2.33,0,0,0-.08-.38s0,0,0,0,0,0,0,0Z"/><path class="cls-8" d="M78.78,26.32c0,.11,0,.2,0,.3a.88.88,0,0,1,0,.28s0,0,0,0,0,0,0,0a2.44,2.44,0,0,0,0-.27,1,1,0,0,0,0-.3s0,0,0,0S78.78,26.31,78.78,26.32Z"/><path class="cls-8" d="M79.24,26.23c0,.11,0,.19,0,.28a.76.76,0,0,1-.06.26.54.54,0,0,0,0,.28,2.46,2.46,0,0,0,.09.29,0,0,0,0,1,0,0s0,0,0,0a2.11,2.11,0,0,1-.1-.3.65.65,0,0,1,0-.31h0a.49.49,0,0,0,0-.24,1.11,1.11,0,0,0,0-.26s0,0,0,0S79.23,26.23,79.24,26.23Z"/><path class="cls-8" d="M79.46,25.48l0,.14a.7.7,0,0,1,0,.14s0,0,0,0,0,0,0,0,0-.1,0-.14a.4.4,0,0,1,0-.15s0,0,0,0S79.46,25.46,79.46,25.48Z"/><path class="cls-8" d="M79.23,24.21a.37.37,0,0,0,0,.14s0,0,0,0,0,0,0,0a.5.5,0,0,0,0-.13s0,0,0,0S79.22,24.2,79.23,24.21Z"/><path class="cls-8" d="M79.33,23.26s0,.11,0,.37a.4.4,0,0,0-.11.19.66.66,0,0,0,0,.28s0,0,0,0,0,0,0,0a.76.76,0,0,1,0-.3.38.38,0,0,1,.13-.21l0-.16v-.18s0,0,0,0A0,0,0,0,1,79.33,23.26Z"/><path class="cls-8" d="M78.39,22.92a1.46,1.46,0,0,1,.37.33.72.72,0,0,1,.13.45s0,0,0,0l-.25-.11a1.67,1.67,0,0,1,0,.86.77.77,0,0,1-.45.48s0,0,0,0v0a1.89,1.89,0,0,0,.08-.4,1.85,1.85,0,0,0,0-.41s0,0,0,0,0,0,0,0a3,3,0,0,1,0,.42,2.25,2.25,0,0,1-.06.36.77.77,0,0,0,.37-.42,1.91,1.91,0,0,0,0-.89s0,0,0,0h0l.26.11a.65.65,0,0,0-.13-.38,1.15,1.15,0,0,0-.34-.32s0,0,0,0,0,0,0,0Z"/><path class="cls-8" d="M80.89,22.43s0,0,0,.05,0,0,0,.05,0,0,0,0,0,0,0,0a.13.13,0,0,1,0-.05.07.07,0,0,1,0-.05s0,0,0,0Z"/><path class="cls-8" d="M80.3,22.42a.41.41,0,0,1,.11.07.34.34,0,0,1,.09.12,0,0,0,0,1,0,0s0,0,0,0a.23.23,0,0,0-.07-.1l-.09-.07s0,0,0,0,0,0,0,0Z"/><path class="cls-8" d="M79.44,22.67a.55.55,0,0,1,.12.24.76.76,0,0,1,0,.3s0,0,0,0,0,0,0,0a2.81,2.81,0,0,0,0-.29.94.94,0,0,0-.12-.22s0,0,0,0,0,0,0,0Z"/><path class="cls-8" d="M76.48,23v.1a.18.18,0,0,0,0,.1s0,0,0,0,0,0,0,0v-.1a.18.18,0,0,0,0-.1s0,0,0,0,0,0,0,0Z"/><path class="cls-8" d="M77,22.66c0,.05,0,.1,0,.14l0,0s0,0,0,0h0l0,0a.28.28,0,0,0,0-.15s0,0,0,0Z"/><path class="cls-8" d="M78.16,23.41s0,.05,0,.06v.07s0,0,0,0,0,0,0,0v-.05a.08.08,0,0,0,0-.05s0,0,0,0S78.16,23.4,78.16,23.41Z"/><path class="cls-8" d="M78.54,22.56a.22.22,0,0,1,0,.08.11.11,0,0,1,0,.08s0,0,0,0,0,0,0,0,0,0,0-.05a.05.05,0,0,0,0,0s0,0,0,0S78.52,22.55,78.54,22.56Z"/><path class="cls-8" d="M75.87,22.7a.55.55,0,0,0,0,.17A.29.29,0,0,0,76,23a.32.32,0,0,1,.1.2.65.65,0,0,1,0,.2s0,0,0,0,0,0,0,0a1.1,1.1,0,0,0,0-.18.4.4,0,0,0-.1-.18h0a1,1,0,0,1-.1-.17.65.65,0,0,1,0-.19s0,0,0,0S75.87,22.69,75.87,22.7Z"/><path class="cls-8" d="M77,23.43a1,1,0,0,1,.09.66.53.53,0,0,0,.09.39,1.12,1.12,0,0,0,.32.33,1.29,1.29,0,0,1-.07-.43.82.82,0,0,1,.17-.48.85.85,0,0,0,.15-.4s0,0,0,0,0,0,0,0a.52.52,0,0,1,0,.21.61.61,0,0,1-.11.21.82.82,0,0,0-.16.45,1.61,1.61,0,0,0,.07.49s0,0,0,0a1.09,1.09,0,0,1-.38-.39.53.53,0,0,1-.09-.42,1.82,1.82,0,0,0,0-.33.56.56,0,0,0-.09-.31s0,0,0,0,0,0,0,0Z"/><path class="cls-8" d="M76.52,24.09a.75.75,0,0,1-.1.36,1,1,0,0,1-.17.28l.11-.05a.82.82,0,0,0,.2-.12.81.81,0,0,0,.14-.12,1.29,1.29,0,0,0,.15-.17s0,0,0,0a0,0,0,0,1,0,0,1.1,1.1,0,0,1-.14.18l-.14.11,0,.09a.22.22,0,0,0,0,.08s0,0,0,0,0,0,0,0a.28.28,0,0,0,0-.09l0-.05a.77.77,0,0,1-.18.1l-.2.08s-.05,0,0,0a1.56,1.56,0,0,0,.23-.34.69.69,0,0,0,.09-.34s0,0,0,0,0,0,0,0Z"/><path class="cls-8" d="M76,24.05v.11s0,0,0,0,0,0,0,0v-.11s0,0,0,0S76,24,76,24.05Z"/><path class="cls-8" d="M75.65,23.4a.79.79,0,0,1,.06.48.75.75,0,0,1-.2.41h0a1.19,1.19,0,0,0-.23.31,1.06,1.06,0,0,0-.09.25l.09-.11a.64.64,0,0,1,.25-.15,1.21,1.21,0,0,0,.3-.2,2,2,0,0,0,.26-.24h0s0,0,0,0a3.31,3.31,0,0,1-.27.26l-.32.2h0a.59.59,0,0,0-.23.13l-.16.21s0,0,0,0a1.85,1.85,0,0,1,.12-.4,1.08,1.08,0,0,1,.24-.32.84.84,0,0,0,.19-.39,1,1,0,0,0-.06-.45s0,0,0,0,0,0,0,0Z"/><path class="cls-8" d="M76.74,25.13s0,.08.08.17l.06.06a.71.71,0,0,1,.11.4,2,2,0,0,1,0,.43s0,0,0,0a.89.89,0,0,0-.21-.41,1.48,1.48,0,0,0-.37-.34s0,0,0,0,0,0,0,0a1.59,1.59,0,0,1,.39.34,1.14,1.14,0,0,1,.18.32,1,1,0,0,0,0-.3.63.63,0,0,0-.12-.37l0-.06c-.08-.1-.11-.15-.08-.22s0,0,0,0a.05.05,0,0,1,0,0Z"/><path class="cls-8" d="M77.19,25.1l0,0,.07.06s0,0,0,0,0,0,0,0l-.06-.06-.06-.06s0,0,0,0S77.18,25.09,77.19,25.1Z"/><path class="cls-8" d="M77.74,25.27l-.1.34c0,.11-.08.22-.11.34s0,0,0,0,0,0,0,0,.07-.22.11-.34.07-.22.11-.33,0,0,0,0S77.76,25.26,77.74,25.27Z"/><path class="cls-8" d="M78.07,27.16a.08.08,0,0,0,0,.09s0,0,0,0,0,0,0,0a.15.15,0,0,1,0-.13s0,0,0,0,0,0,0,0Z"/><path class="cls-8" d="M77.73,26.6c0,.06,0,.13,0,.19a.85.85,0,0,0,0,.17s0,0,0,0,0,0,0,0a.61.61,0,0,0,0-.18l0-.18s0,0,0,0S77.74,26.59,77.73,26.6Z"/><path class="cls-8" d="M77.24,26.6l.05,0s0,0,0,0,0,0,0,0h0l0,0v0S77.23,26.59,77.24,26.6Z"/><path class="cls-8" d="M76.68,26.34a1,1,0,0,0,0,.1l0,.1s0,0,0,0,0,0,0,0a.3.3,0,0,0,0-.1.3.3,0,0,0,0-.1s0,0,0,0h0S76.69,26.32,76.68,26.34Z"/><path class="cls-8" d="M75.87,27.19a.41.41,0,0,0-.07.11.5.5,0,0,1,0,.12s0,0,0,0,0,0,0,0a.33.33,0,0,1,0-.13.19.19,0,0,1,.07-.12s0,0,0,0S75.88,27.18,75.87,27.19Z"/><path class="cls-8" d="M73.55,29.45l0,.09s-.05,0-.08.07a0,0,0,0,1,0,0s0,0,0,0l.06-.07,0-.06s0,0,0,0S73.56,29.45,73.55,29.45Z"/><path class="cls-8" d="M73.92,29.27a.15.15,0,0,1,0,.06l-.08.05s0,0,0,0a0,0,0,0,1,0,0l.07,0a0,0,0,0,0,0,0s0,0,0,0S73.93,29.25,73.92,29.27Z"/><path class="cls-8" d="M74.4,29l0,0a.1.1,0,0,1-.05,0s0,0,0,0a0,0,0,0,1,0,0l0,0,0,0s0,0,0,0S74.4,29,74.4,29Z"/><path class="cls-8" d="M75.12,27.09l-.05.2a.44.44,0,0,0,0,.2s0,0,0,0,0,0,0,0a1.48,1.48,0,0,1,0-.21,1.08,1.08,0,0,1,0-.21s0,0,0,0,0,0,0,0Z"/><path class="cls-8" d="M75.61,22.08a.34.34,0,0,1,0,.17.42.42,0,0,1-.11.16s0,0,0,0a.08.08,0,0,1,0,0,.48.48,0,0,0,.11-.15.27.27,0,0,0,0-.15s0,0,0,0S75.61,22.07,75.61,22.08Z"/><path class="cls-8" d="M75.13,21.63a.9.9,0,0,1,.08.23.86.86,0,0,1,0,.23s0,0,0,0,0,0,0,0a.74.74,0,0,0,0-.21.83.83,0,0,0-.08-.22s0,0,0,0S75.12,21.62,75.13,21.63Z"/><path class="cls-8" d="M74.45,22.46a2,2,0,0,1-.21-.2.41.41,0,0,1,0-.22s0,0,0,0,0,0,0,0a.23.23,0,0,0,0,.18.73.73,0,0,0,.2.19s0,0,0,0S74.45,22.46,74.45,22.46Z"/><path class="cls-8" d="M75.2,23.71v.11s0,0,0,0,0,0,0,0v-.11s0,0,0,0S75.2,23.7,75.2,23.71Z"/><path class="cls-8" d="M74.24,22.76a1.1,1.1,0,0,1,.29.5,2.21,2.21,0,0,1,0,.37h0a.26.26,0,0,0,.16-.18,1.22,1.22,0,0,0,.06-.42h0a1.17,1.17,0,0,0,.1-.26,2.56,2.56,0,0,0,0-.27s0,0,0,0a2.14,2.14,0,0,1,.23.38,1.34,1.34,0,0,1,.1.44s0,0,0,0,0,0,0,0a1.3,1.3,0,0,0-.11-.43,1.92,1.92,0,0,0-.18-.31.75.75,0,0,1,0,.2,1,1,0,0,1-.11.27,1.52,1.52,0,0,1-.06.42.3.3,0,0,1-.2.21h0c0,.07,0,.13,0,.19s0,0,0,0a0,0,0,0,1,0,0,1.67,1.67,0,0,0,0-.59,1.06,1.06,0,0,0-.27-.47s0,0,0,0a0,0,0,0,1,0,0Z"/><path class="cls-8" d="M74.78,25.13a1.36,1.36,0,0,1,0,.2,1.38,1.38,0,0,1,0,.2s0,0,0,0,0,0,0,0a2910279947257.4,2910279947257.4,0,0,1,.06-.4s0,0,0,0S74.8,25.12,74.78,25.13Z"/><path class="cls-8" d="M73.74,25.58l0,.15s0,0,0,0,0,0,0,0a.83.83,0,0,1,0-.15s0,0,0,0,0,0,0,0Z"/><path class="cls-8" d="M74.66,24.36a1.57,1.57,0,0,1-.08.29,2,2,0,0,1-.17.27h0a.59.59,0,0,0-.16.3.78.78,0,0,0,0,.34s0,0,0,0,0,0,0,0a1,1,0,0,1,0-.35.57.57,0,0,1,.18-.34,1.28,1.28,0,0,0,.15-.25,1,1,0,0,0,.07-.28s0,0,0,0,0,0,0,0Z"/><path class="cls-8" d="M74.41,24a.48.48,0,0,1,0,.29,2.75,2.75,0,0,1-.19.28h0a1.15,1.15,0,0,0-.21.23c0,.09-.08.17-.11.26s0,0,0,0,0,0,0,0a1.65,1.65,0,0,1,.14-.26.52.52,0,0,1,.2-.24.92.92,0,0,0,.16-.27.47.47,0,0,0,0-.26s0,0,0,0,0,0,0,0Z"/><path class="cls-8" d="M73.24,24.56a.8.8,0,0,1-.08.5,1,1,0,0,1-.32.38h0s0,0,0,0a1,1,0,0,0,.33-.36.87.87,0,0,0,.07-.48s0,0,0,0S73.24,24.55,73.24,24.56Z"/><path class="cls-8" d="M71.73,25.39a.41.41,0,0,1,0,.09l0,.1s0,0,0,0,0,0,0,0a.31.31,0,0,0,0-.1l0-.09s0,0,0,0S71.73,25.37,71.73,25.39Z"/><path class="cls-8" d="M71.16,25.4a1,1,0,0,0,.18.64h0a2.25,2.25,0,0,1,.08.24c0,.06,0,.11,0,.17a1.24,1.24,0,0,0,.17-.23,1.11,1.11,0,0,0,.08-.3s0,0,0,0,0,0,0,0a.68.68,0,0,1-.08.31.86.86,0,0,1-.21.29,0,0,0,0,1,0,0c0-.08,0-.15,0-.23a1.8,1.8,0,0,0-.08-.21,1,1,0,0,1-.15-.33,1.34,1.34,0,0,1-.05-.35s0,0,0,0,0,0,0,0Z"/><path class="cls-8" d="M71.23,27.42a.58.58,0,0,1,0-.18.6.6,0,0,1,.06-.19s0,0,0,0,0,0,0,0l-.06.18a1.1,1.1,0,0,0,0,.18s0,0,0,0S71.23,27.43,71.23,27.42Z"/><path class="cls-8" d="M71.17,28a.78.78,0,0,0,0-.22s0,0,0,0,0,0,0,0a.89.89,0,0,0,0,.22s0,0,0,0S71.17,28,71.17,28Z"/><path class="cls-8" d="M70.77,28.94l.11-.13a1.4,1.4,0,0,0,.1-.16s0,0,0,0a.06.06,0,0,1,0,0,1,1,0,0,1-.1.17,1.36,1.36,0,0,1-.12.12s0,0,0,0,0,0,0,0Z"/><path class="cls-8" d="M70.22,25.76v.09s0,0,0,0,0,0,0,0v-.09s0,0,0,0A0,0,0,0,1,70.22,25.76Z"/><path class="cls-8" d="M69.25,28v-.14s0,0,0,0a0,0,0,0,1,0,0V28s0,0,0,0S69.25,28,69.25,28Z"/><path class="cls-8" d="M71.66,24.06a1.58,1.58,0,0,0-.1.48.41.41,0,0,0,.17.34.68.68,0,0,1,.22.31,0,0,0,0,1,0,0A1.13,1.13,0,0,0,72,25v-.21s0,0,0,0,0,0,0,0A.41.41,0,0,1,72,25a1.09,1.09,0,0,1,0,.26s0,0,0,0,0,0,0,0h0l0-.08a.56.56,0,0,0-.21-.29.41.41,0,0,1-.17-.38,1.51,1.51,0,0,1,.09-.5s0,0,0,0a0,0,0,0,1,0,0Z"/><path class="cls-8" d="M71.48,23.42a1.15,1.15,0,0,1,0,.37,1.55,1.55,0,0,1-.13.36,1.39,1.39,0,0,0-.07.49,1.43,1.43,0,0,0,.13.49s0,0,0,0,0,0-.05,0a1.46,1.46,0,0,1-.12-.51,1.06,1.06,0,0,1,.09-.5,3.34,3.34,0,0,0,.1-.36,1.09,1.09,0,0,0,0-.36s0,0,0,0S71.48,23.4,71.48,23.42Z"/><path class="cls-8" d="M70.38,25a.39.39,0,0,0,0,.23.64.64,0,0,0,.1.24s0,0,0,0,0,0,0,0h0a.46.46,0,0,1-.1-.25.34.34,0,0,1,0-.26s0,0,0,0S70.38,25,70.38,25Z"/><path class="cls-8" d="M69.89,24.82a.38.38,0,0,1,0,.15l0,.13h0a.21.21,0,0,0,0,.13.91.91,0,0,0,.07.14s0,0,0,0,0,0,0,0a.21.21,0,0,1-.07-.15.22.22,0,0,1,0-.16.18.18,0,0,0,0-.12v-.13s0,0,0,0,0,0,0,0Z"/><path class="cls-8" d="M72.71,20.64a1.22,1.22,0,0,0,0,.38,1.4,1.4,0,0,0,.13.34s0,0,0,0,0,0,0,0a2.09,2.09,0,0,1-.13-.35,1.28,1.28,0,0,1,0-.39s0,0,0,0S72.71,20.63,72.71,20.64Z"/><path class="cls-8" d="M72.36,21a1.43,1.43,0,0,1,.17.38,1.78,1.78,0,0,1,.08.45s0,0,0,0,0,0,0,0a2.13,2.13,0,0,0-.07-.44,1.76,1.76,0,0,0-.17-.37s0,0,0,0S72.36,21,72.36,21Z"/><path class="cls-8" d="M70.61,21a1.4,1.4,0,0,0-.27.61.92.92,0,0,0,.11.43h0a1.39,1.39,0,0,1,.06.4,1.29,1.29,0,0,1-.08.4s0,0,0,0l0,0a1,1,0,0,0,.08-.38,1.2,1.2,0,0,0,0-.38.72.72,0,0,1-.11-.47,1.35,1.35,0,0,1,.26-.63s0,0,0,0S70.61,21,70.61,21Z"/><path class="cls-8" d="M72.25,20.35a.29.29,0,0,1,0,.22.45.45,0,0,1-.16.2.37.37,0,0,0-.14.23.78.78,0,0,0,0,.34s0,0,0,0,0,0,0,0a.87.87,0,0,1,0-.36.44.44,0,0,1,.16-.26.65.65,0,0,0,.15-.18.4.4,0,0,0,0-.19s0,0,0,0,0,0,0,0Z"/><path class="cls-8" d="M70.51,20.5a.55.55,0,0,1,0,.31.69.69,0,0,1-.18.31h0a.54.54,0,0,0-.19.28,2.23,2.23,0,0,0,0,.36s0,0,0,0,0,0,0,0a1.59,1.59,0,0,1,.06-.37.52.52,0,0,1,.2-.3.51.51,0,0,0,.17-.28.48.48,0,0,0,0-.29s0,0,0,0,0,0,0,0Z"/><path class="cls-8" d="M71.5,20.55v.11l0,.1s0,0,0,0,0,0,0,0a.27.27,0,0,1-.06-.12v-.13s0,0,0,0,0,0,0,0Z"/><path class="cls-8" d="M71.46,20.29a.39.39,0,0,0-.21.19.86.86,0,0,0-.09.35s0,0,0,0a.67.67,0,0,1,.1.23,1.82,1.82,0,0,1,0,.32s0,0,0,0,0,0,0,0a1.09,1.09,0,0,0,0-.31.72.72,0,0,0-.09-.2.88.88,0,0,0-.29.58,1.45,1.45,0,0,0,.25.72s0,0,0,0,0,0,0,0a1.4,1.4,0,0,1-.25-.74.83.83,0,0,1,.31-.62h0a.66.66,0,0,1,.09-.39.43.43,0,0,1,.23-.21s0,0,0,0,0,0,0,0Z"/><path class="cls-8" d="M71.17,19.92a.07.07,0,0,1,0,0,.45.45,0,0,1-.11.34.33.33,0,0,0-.11.15.68.68,0,0,0,0,.19s0,0,0,0,0,0,0,0a.65.65,0,0,1,0-.2.36.36,0,0,1,.12-.18.41.41,0,0,0,.1-.3.43.43,0,0,1,0,0s0,0,0,0,0,0,0,0Z"/><path class="cls-8" d="M73.92,22.86a.64.64,0,0,1,.08.19.71.71,0,0,1,0,.2s0,0,0,0,0,0,0,0a1.23,1.23,0,0,0,0-.19,1.34,1.34,0,0,0-.07-.18s0,0,0,0,0,0,0,0Z"/><path class="cls-8" d="M73.92,23.76a.69.69,0,0,1,0,.32,1,1,0,0,1-.12.32l-.11.27s0,0,0,0,0,0,0,0,.08-.18.11-.27h0a1,1,0,0,0,.11-.31.76.76,0,0,0,0-.3s0,0,0,0S73.92,23.75,73.92,23.76Z"/><path class="cls-8" d="M73.35,22.92a1.28,1.28,0,0,1,.32.58,1.26,1.26,0,0,1,0,.64s0,0,0,0,0,0,0,0a1.3,1.3,0,0,0,0-.62,1.49,1.49,0,0,0-.32-.56s0,0,0,0S73.34,22.91,73.35,22.92Z"/><path class="cls-8" d="M73.3,23.93a2.59,2.59,0,0,1-.17.33,3.92,3.92,0,0,1-.25.32,1.49,1.49,0,0,0-.15.2,1.09,1.09,0,0,0-.1.25s-.06,0-.06,0a.62.62,0,0,0,0-.23,1.6,1.6,0,0,0-.1-.23h0a.66.66,0,0,1,0-.81,1.08,1.08,0,0,0,.13-.29c0-.1,0-.19,0-.28s0,0,0,0,0,0,0,0,0,.2,0,.3a.79.79,0,0,1-.12.3h0a.61.61,0,0,0-.15.38.57.57,0,0,0,.11.38h0a.8.8,0,0,1,.11.25.36.36,0,0,1,0,.11.61.61,0,0,1,.07-.14,1.12,1.12,0,0,1,.16-.22,2.34,2.34,0,0,0,.24-.31l.18-.32s0,0,0,0S73.31,23.92,73.3,23.93Z"/><path class="cls-8" d="M71.8,23.45a1,1,0,0,0,0,.35.91.91,0,0,0,.12.31s0,0,0,0,0,0,0,0a1,1,0,0,1-.13-.33,1.46,1.46,0,0,1,0-.36s0,0,0,0S71.8,23.44,71.8,23.45Z"/><path class="cls-8" d="M71,23.91v.15s0,0,0,0,0,0,0,0v-.15s0,0,0,0A0,0,0,0,1,71,23.91Z"/><path class="cls-8" d="M71.23,23.13a1.13,1.13,0,0,1,0,.25,1.09,1.09,0,0,1-.14.23s0,0,0,0,0,0,0,0a.62.62,0,0,0,.15-.45s0,0,0,0,0,0,0,0Z"/><path class="cls-8" d="M70.46,24.64a1.51,1.51,0,0,1-.13-.84,1,1,0,0,1,.26-.53.93.93,0,0,0,.23-.3.83.83,0,0,0,.06-.44s0,0,0,0,0,0,0,0a.94.94,0,0,1-.06.47,1.23,1.23,0,0,1-.24.31.89.89,0,0,0-.25.5,1.65,1.65,0,0,0,.12.82s0,0,0,0,0,0,0,0Z"/><path class="cls-8" d="M70,24.08a.32.32,0,0,0,0,.17.52.52,0,0,0,.06.16s0,0,0,0,0,0,0,0a.44.44,0,0,1-.07-.19.42.42,0,0,1,0-.19s0,0,0,0S70,24.07,70,24.08Z"/><path class="cls-8" d="M72.21,22.53a.7.7,0,0,1,.15.4.82.82,0,0,1-.09.43s0,0,0,0h0a0,0,0,0,1,0,0,.78.78,0,0,0,.09-.4.67.67,0,0,0-.15-.37s0,0,0,0S72.2,22.52,72.21,22.53Z"/><path class="cls-8" d="M72.89,22a1,1,0,0,1,.09.41,1.83,1.83,0,0,1,0,.4l0,0,0,0a1,1,0,0,0-.08-.34.75.75,0,0,0-.21-.26s0,0,0,0,0,0,0,0a.65.65,0,0,1,.21.28.4.4,0,0,1,.07.21.71.71,0,0,0,0-.25.89.89,0,0,0-.09-.39s0,0,0,0,0,0,0,0Z"/><path class="cls-8" d="M73.27,21.44a.61.61,0,0,1,.21.35,2.74,2.74,0,0,1,0,.5h0a.45.45,0,0,0,0,.23.27.27,0,0,0,.06.2,0,0,0,0,1,0,0s0,0,0,0a.57.57,0,0,1-.07-.22,1,1,0,0,1,0-.24h0a2.83,2.83,0,0,0,0-.5.8.8,0,0,0-.19-.32s0,0,0,0,0,0,0,0Z"/><path class="cls-8" d="M72.21,21.33a1.12,1.12,0,0,0-.11.25,1.08,1.08,0,0,0,0,.31s0,0,0,0,0,0,0,0a1.82,1.82,0,0,1,0-.33.84.84,0,0,1,.13-.27s0,0,0,0,0,0,0,0Z"/><path class="cls-8" d="M70.11,22.75a1,1,0,0,1-.17.52,1.16,1.16,0,0,1-.39.34s0,0,0,0,0,0,0,0a1,1,0,0,0,.37-.33.87.87,0,0,0,.16-.49s0,0,0,0S70.11,22.74,70.11,22.75Z"/><path class="cls-8" d="M70,22a.88.88,0,0,1,0,.23,2,2,0,0,1-.09.22s0,0,0,0,0,0,0,0a1.87,1.87,0,0,0,.07-.22A.5.5,0,0,0,70,22s0,0,0,0S70,22,70,22Z"/><path class="cls-8" d="M71.48,21.92V22c0,.13,0,.25,0,.37v0s0,0,0,0h0s0,0,0,0V21.9s0,0,0,0,0,0,0,0Z"/><path class="cls-8" d="M71.83,21.28a.51.51,0,0,0-.15.36.86.86,0,0,0,.09.35,1,1,0,0,1,.15.58,1.63,1.63,0,0,1-.17.57s0,0,0,0,0,0,0,0a1.79,1.79,0,0,0,.15-.56.8.8,0,0,0-.14-.54h0a.85.85,0,0,1-.09-.38.7.7,0,0,1,.15-.39s0,0,0,0,0,0,0,0Z"/><path class="cls-9" d="M69.05,16.82a1,1,0,0,0-.33-.15.78.78,0,0,0-.24-.27c-.09-.06-.08,0-.06-.11s.14,0,.14-.07a.31.31,0,0,1,.13,0,.21.21,0,0,1,.1.06s0,0,0,0,0,0,0,0a.25.25,0,0,0-.14-.08.35.35,0,0,0-.18,0h0a.45.45,0,0,0-.16,0,.21.21,0,0,1-.1-.23h0l.14.05.11.06s0,0,0,0,0,0,0,0a.36.36,0,0,0-.12-.08l-.11,0a1.4,1.4,0,0,1,1.06.13.74.74,0,0,1,.36.29l-.1.08a.79.79,0,0,0-.48.1.37.37,0,0,0-.11.32Z"/><path class="cls-8" d="M69.61,17.34a.91.91,0,0,1,1-.11H71s0,0,0,0,0,0,0,0h-.38a1.22,1.22,0,0,1-.53.31.55.55,0,0,1-.43-.09s0,0,0-.05,0,0,0,0a.43.43,0,0,0,.38.08,1.21,1.21,0,0,0,.47-.26.9.9,0,0,0-.46-.09.93.93,0,0,0-.48.2s0,0,0,0,0,0,0,0Z"/><path class="cls-8" d="M70.12,17.24a.12.12,0,0,1,.11.13.11.11,0,0,1-.11.12.13.13,0,0,1-.14-.12h0a.14.14,0,0,1,.14-.13Z"/><path class="cls-8" d="M71,18a1.43,1.43,0,0,0,.22-.15l.14-.15s0,0,0,0,0,0,0,0a.58.58,0,0,1-.14.17l-.22.16s0,0-.05,0S71,18,71,18Z"/><path class="cls-8" d="M72.78,17.26a.15.15,0,0,1,.13,0,.26.26,0,0,1,.14.07s0,0,0,0,0,0,0,0a.41.41,0,0,0-.11-.07.24.24,0,0,0-.12,0s0,0,0,0h0s0,0,0,0Z"/><path class="cls-8" d="M71.75,17.3a.48.48,0,0,1,.19-.21.7.7,0,0,1,.32-.05s0,0,0,0,0,0,0,0a.58.58,0,0,0-.29.05.35.35,0,0,0-.16.18s0,0,0,0S71.74,17.31,71.75,17.3Z"/><path class="cls-8" d="M71.86,17.47a.27.27,0,0,1,.06-.12.27.27,0,0,1,.14-.07s0,0,0,0,0,0,0,0a.34.34,0,0,0-.12.06l0,.08s0,0,0,0S71.86,17.48,71.86,17.47Z"/><path class="cls-8" d="M70.14,18l-.07.13a.5.5,0,0,0,0,.17s0,0,0,0,0,0,0,0a.36.36,0,0,1,0-.18A.52.52,0,0,1,70.1,18s0,0,0,0S70.15,18,70.14,18Z"/><path class="cls-8" d="M70.64,18.26v.08s0,0,0,0,0,0,0,0v-.08s0,0,0,0S70.64,18.24,70.64,18.26Z"/><path class="cls-8" d="M70.32,17.71a.41.41,0,0,0,.16,0l.15,0s0,0,0,0,0,0,0,0l-.16,0a.57.57,0,0,1-.18,0s0,0,0,0h0Z"/><path class="cls-8" d="M70.65,16.79a.17.17,0,0,0-.1,0,.24.24,0,0,0-.06.09s0,0,0,0,0,0,0,0a.2.2,0,0,1,.08-.12.23.23,0,0,1,.14,0s0,0,0,0Z"/><path class="cls-8" d="M70.14,16.84l-.1.05A.21.21,0,0,0,70,17s0,0,0,0,0,0,0,0l.05-.07.1-.07s0,0,0,0S70.15,16.83,70.14,16.84Z"/><path class="cls-8" d="M69.82,16.85a.23.23,0,0,0-.07.07s0,.06,0,.09a0,0,0,0,1,0,0h0s0,0,0,0a.61.61,0,0,1,.07-.1l.08-.08s0,0,0,0,0,0,0,0Z"/><path class="cls-8" d="M69.41,17.18l-.1.08a.39.39,0,0,0-.08.1s0,0,0,0,0,0,0,0l.08-.11.11-.09s0,0,0,0,0,0,0,0Z"/><path class="cls-8" d="M69.45,17.62l-.07.08-.08.08h0s0,0,0,0l.07-.08s0-.05.07-.07,0,0,0,0S69.46,17.61,69.45,17.62Z"/><path class="cls-8" d="M69,17.74v.16s0,0,0,0,0,0,0,0v-.16s0,0,0,0S69,17.73,69,17.74Z"/><path class="cls-8" d="M69.57,18.43a2.28,2.28,0,0,1,0,.26v0s0,0,0,0,0,0,0,0v0a1.09,1.09,0,0,0,0-.26s0,0,0,0S69.57,18.42,69.57,18.43Z"/><path class="cls-8" d="M69.27,18.2v.17s0,0,0,0,0,0,0,0V18.2s0,0,0,0S69.27,18.18,69.27,18.2Z"/><path class="cls-8" d="M69,16a.53.53,0,0,1,.15.08.36.36,0,0,1,.08.15s0,0,0,0,0,0,0,0a.37.37,0,0,0-.07-.12.5.5,0,0,0-.12-.08s0,0,0,0S69,16,69,16Z"/><path class="cls-8" d="M71.48,19.29a.63.63,0,0,1,.09.33.72.72,0,0,1-.08.32s0,0,0,0,0,0,0,0a.8.8,0,0,0,.06-.3.78.78,0,0,0-.07-.31s0,0,0,0S71.48,19.28,71.48,19.29Z"/><path class="cls-8" d="M70.68,20.23a.83.83,0,0,1,.14-.32,2.83,2.83,0,0,1,.2-.28.76.76,0,0,0,.17-.32,2.32,2.32,0,0,0,0-.37s0,0,0,0,0,0,0,0h0a.74.74,0,0,1,0,.39.82.82,0,0,1-.16.34,2.34,2.34,0,0,0-.2.27.77.77,0,0,0-.14.32l0,0s0,0,0,0Z"/><path class="cls-8" d="M69.62,20a.75.75,0,0,1,.07-.12l.13-.1s0,0,0,0,0,0,0,0a.5.5,0,0,0-.12.08.21.21,0,0,0-.06.1s0,0,0,0S69.62,20,69.62,20Z"/><path class="cls-8" d="M69.42,19.88a.75.75,0,0,1,.12-.14.54.54,0,0,1,.16-.1s0,0,0,0v0a.51.51,0,0,0-.16.09l-.11.13s0,0,0,0,0,0,0,0Z"/><path class="cls-8" d="M70.49,18.8a.32.32,0,0,0,.14,0,.17.17,0,0,0,.1,0s0,0,0,0,0,0,0,0l-.12,0-.16,0s0,0,0,0,0,0,0,0Z"/><path class="cls-8" d="M70,18.73s0,0,0,0h0s0,0,0,0,0,0,0,0h0l0,.05s0,0,0,0S70,18.74,70,18.73Z"/><path class="cls-8" d="M81.69,22.12a.35.35,0,0,0,0,.08.93.93,0,0,1,.05.1s0,0,0,0,0,0,0,0l0-.08s0-.05-.06-.07,0,0,0,0h0Z"/><path class="cls-8" d="M86.6,29.27a.7.7,0,0,1,.55-.05,1.26,1.26,0,0,1,.51-.07,1,1,0,0,1,.29-.1s0-.08,0-.14a.24.24,0,0,1-.07-.17,1.39,1.39,0,0,1-.54-.7c-.16,0-.24-.1-.25-.16l-.26,0a.7.7,0,0,1-.62-.19.54.54,0,0,1-.29-.22l-.12-.16c-.1-.14-.07-.32.09-.31a.58.58,0,0,0,.32,0,.93.93,0,0,1,.44,0c.16,0,.27-.12.42-.27v-.18c0-.07,0-.1.11-.09a.47.47,0,0,1,.41.25.84.84,0,0,1,.57.36c.32,0,.55.13.58.25s-.08.19-.23.3v.07a.57.57,0,0,1,.19.22,1.94,1.94,0,0,1,.51.31,4.32,4.32,0,0,1,2.31,1,8.21,8.21,0,0,1,2,.59h.42a4.08,4.08,0,0,1,3.29.76,4.17,4.17,0,0,1,1.1.3,2.81,2.81,0,0,0,.76.18,3.85,3.85,0,0,1,1.27.33,2,2,0,0,1,1.18.59c.2.24.15.45-.09.54-.15.32-.46.33-.91.18-.3,0-.64-.2-.94-.43a4.29,4.29,0,0,1-1.21-.65,2,2,0,0,0-.61-.28.47.47,0,0,0-.37,0s0,0,0,.08a.59.59,0,0,1,.2.39,3.83,3.83,0,0,1,0,.48.62.62,0,0,0,.31.44,1.13,1.13,0,0,0,.5.19.15.15,0,0,1,.14.15h0a5.8,5.8,0,0,0,.21.82c0,.07.08.1.17.16.29.21.14.44-.12.49a1.44,1.44,0,0,1-.66.39.24.24,0,0,1-.32-.11.2.2,0,0,1-.21-.12c-.23-.16,0-.45.51-.33,0-.06,0-.08.1-.08a.66.66,0,0,1,0-.44.65.65,0,0,0-.15-.1,1.38,1.38,0,0,1-.53-.29,4.54,4.54,0,0,0-1.13-.7,2.33,2.33,0,0,1-.87-.31h-.37a.23.23,0,0,0-.26.08c-.11.13-.23.11-.38.09s-.35,0-.52,0a1.09,1.09,0,0,1-.26.05.73.73,0,0,0-.5.09.26.26,0,0,1-.31.07.44.44,0,0,1-.19-.12.56.56,0,0,1-.24-.1c-.23-.07-.29-.13-.27-.19-.3-.08-.17-.31,0-.32A4.9,4.9,0,0,1,93,32a.61.61,0,0,0,.57-.12c.1-.09.13-.17.26-.23a1.84,1.84,0,0,1-.89-.23c-.56-.35-1-.44-1.38-.14a.27.27,0,0,1-.26,0,.54.54,0,0,0-.28,0,1.05,1.05,0,0,1-.61-.06,2,2,0,0,1-.91,0c-.24.14-.43.15-.55.05l-.32-.2c-.14,0-.22-.06-.22-.11-.21,0-.23-.1-.23-.18s-.06-.17,0-.24a.56.56,0,0,1,.49,0l.24.14a.63.63,0,0,1,.3,0c0-.11.25-.11.45-.1a.69.69,0,0,1,.36-.13.1.1,0,0,0,0-.07.69.69,0,0,1-.39-.34,1.41,1.41,0,0,1-.76-.28.71.71,0,0,1-.46-.13,1.14,1.14,0,0,1-.37,0,1.31,1.31,0,0,1-.68,0,1.7,1.7,0,0,1-.39,0,.39.39,0,0,1-.49.11.64.64,0,0,0-.4-.24.32.32,0,0,1-.2-.17c-.15-.1-.12-.19,0-.26a.49.49,0,0,1,.47,0,1,1,0,0,0,.24.05Z"/><path class="cls-3" d="M94.2,31.59s0-.09-.16,0A2.25,2.25,0,0,1,93,31.37,2,2,0,0,0,92,31a.84.84,0,0,1,.4-.2,1.73,1.73,0,0,1,.68,0A4.54,4.54,0,0,1,94,31a.85.85,0,0,1,.49.34s0,0,0,0a1.64,1.64,0,0,1,.25.19l.14.15a.78.78,0,0,1-.34,0,1.33,1.33,0,0,1-.37-.12Z"/><path class="cls-2" d="M75.89,30.46a.86.86,0,0,0-.14.18,1.61,1.61,0,0,1-.58.16c0,.13,0,.2.18.2s.32-.16.35-.14,0,.21-.25.37c0,0,0,0,0,.06.18.29.66.19.92.12A1,1,0,0,0,77,31c0-.08,0-.2-.11-.28s-.28-.07-.25-.13a1.83,1.83,0,0,0-.7-.09Z"/><path class="cls-2" d="M68.52,28.14a1.48,1.48,0,0,1-.52.29c-.07,0-.24.07-.26.16s.12.11.21.06.32-.09.07.12a.11.11,0,0,0,0,.12,1.05,1.05,0,0,0,1,.11c.18-.12.29-.25.13-.42a.49.49,0,0,0,0-.12l-.32,0-.18-.11-.21-.18Z"/><path class="cls-2" d="M73.38,29.83h-.07c-.09.11.18.07.32.16a.17.17,0,0,1,.07.22c-.13.33-.89.23-1.13.09s-.12-.13-.12-.23h.17a.62.62,0,0,0,.26-.09s.05,0,0-.08,0,0-.08,0a.49.49,0,0,1-.21.08h-.26s-.07-.06-.06-.08.1,0,.11,0a1.16,1.16,0,0,1,.34-.12l0-.05a2.53,2.53,0,0,1,.6.11Z"/><path class="cls-2" d="M69.9,29.63a.26.26,0,0,0-.1.14,1.1,1.1,0,0,1-.42.29c-.15.07,0,.13.09.19s.2-.07.28-.18.16-.08.1,0a1.15,1.15,0,0,0-.1.33c0,.08.28.14.34.14s.43-.17.59-.27a.35.35,0,0,0,0-.4h0l-.25,0-.25-.1s0,0,0,0l0,0Z"/><path class="cls-8" d="M68.68,28.23a.52.52,0,0,0,.17.12.36.36,0,0,0,.2.06s0,0,0,0,0,0,0,0a.59.59,0,0,1-.22-.05.85.85,0,0,1-.19-.14s0,0,0,0S68.66,28.21,68.68,28.23Z"/><path class="cls-2" d="M71.24,16.81h.16c.11,0,.2.06.3.07a1.89,1.89,0,0,1,.82-.18h0a2.7,2.7,0,0,1,.84-.11h0s0,0,0-.06a.38.38,0,0,0,.15-.43.85.85,0,0,0-.39-.38c-.2,0-.39,0-.61,0a1.86,1.86,0,0,0-.41.08.61.61,0,0,1,.29.2.94.94,0,0,1,.2.47s0,0,0,.05,0,0,0,0a.87.87,0,0,0-.18-.42.75.75,0,0,0-.37-.2,4.44,4.44,0,0,0-.62.1.91.91,0,0,0-.35.15.65.65,0,0,1,.41,0,.59.59,0,0,1,.29.36s0,0,0,.06a.06.06,0,0,1-.07,0,.44.44,0,0,0-.23-.3,1,1,0,0,0-.79.11,2,2,0,0,0-.29.29l0,0a3.26,3.26,0,0,1,1,.16Zm-1.11-.21s0,0,0-.05a1.83,1.83,0,0,1,.32-.3,1,1,0,0,1,.32-.16,1,1,0,0,1,.48-.26c.21,0,.42-.08.64-.1a.58.58,0,0,0-.24-.25.73.73,0,0,0-.36,0,2.72,2.72,0,0,0-.73.4h.07a.55.55,0,0,1,.18,0s0,0,0,.06-.16,0-.22,0a.43.43,0,0,0-.19,0h0a5.41,5.41,0,0,0-.61.46.84.84,0,0,1,.33.19Z"/></g></g></svg>