<?xml version="1.0" encoding="utf-8"?>
<!-- Generator: Adobe Illustrator 27.0.0, SVG Export Plug-In . SVG Version: 6.00 Build 0)  -->
<svg version="1.1" id="Layer_1" xmlns="http://www.w3.org/2000/svg" xmlns:xlink="http://www.w3.org/1999/xlink" x="0px" y="0px"
	 viewBox="0 0 170.1 382.7" style="enable-background:new 0 0 170.1 382.7;" xml:space="preserve">
<style type="text/css">
	.st0{fill:#FFFFFF;}
	.st1{clip-path:url(#SVGID_00000170280523020844404810000002274585539248693917_);fill:#0066B3;}
</style>
<rect class="st0" width="170.1" height="382.7"/>
<g>
	<defs>
		<rect id="SVGID_1_" width="170.1" height="382.7"/>
	</defs>
	<clipPath id="SVGID_00000165197784237328507710000003198392959747239833_">
		<use xlink:href="#SVGID_1_"  style="overflow:visible;"/>
	</clipPath>
	<path style="clip-path:url(#SVGID_00000165197784237328507710000003198392959747239833_);fill:#0066B3;" d="M152,178.1
		c1.3-0.1,2.2,1.2,3.2,1.2c0.9,0.2,0.8-0.7,1.4-0.8c0.7-2.2-1.6-3-2.8-4.2c-1.7-0.6-3.4-0.9-5.2-0.3c-0.6,0,0,0.8-0.6,0.6
		c-0.5,0.2-0.4,0.9-0.5,1.3C148.1,177.8,150.2,177.8,152,178.1 M154.7,165.6c0.2-1.8-0.8-3.6-1.3-5.2c-0.3-0.3-0.7-0.9-1-1.2
		c-1.7-1.1-3-2.9-5.4-2.6c-3.7,0.5-6.3,4.2-7.1,7.6c-0.2,1.2-0.9,2.7-0.6,4.1c0.1,0.5,0.4,0.8,0.9,0.9c0.2-0.6,0.9-0.2,1.2-0.8
		c0.4-2.9,0.8-6.3,3.2-8.7c0.8-1,2.3-1.2,3.3-1.1c3.7,1.8,2.5,6.3,2.8,9.9c0.1,0.6,0.1,1.2,0.6,1.7c0.3,0.5,1.2,0.6,1.7,0.2
		c0.3-0.4,1-0.3,1.4-0.7C155.1,168.7,154.8,166.9,154.7,165.6 M79.7,164c0,0.3,0.2,0.8-0.1,1l0.2,0.2c-0.3,0,0.2,0.6-0.2,0.3
		c0,0.2,0.5,0.3,0.5,0.7c-0.2,0.2-0.2-0.2-0.4-0.1c0.6,0.7,1.7,1.7,2.7,1.9c1.3-0.5,1.2-2.3,1.6-3.5c-0.2-0.8,0.2-1.5,0.7-1.9
		c-0.2-0.3,0.2-0.7,0-0.8c0,0-0.1,0-0.1-0.1l0.2-0.2h-0.1c-0.1-0.2-0.1-0.3-0.1-0.5c0.2-0.1,0.2-0.6,0.6-0.4c-0.1,0-0.2,0-0.2-0.1
		c-0.1-0.2,0.2-0.2,0.3-0.3c0.1-0.2,0-0.2-0.1-0.3c0-0.3,0.5-0.6,0.4-0.9c0.4-0.4,0.4-1.3,0.8-1.4l-0.2-0.1c0.5-0.1,0.6-0.7,0.7-0.9
		c0.4-0.4,1-0.8,1.1-1.2h0.2c0.6-0.8,1.5-1.3,2.2-1.7c0.9-0.2,2.2-0.4,3,0.3c0.5,0.3,1.3,0.7,1.3,1.2c1.3,0.9,1.8,2.5,2.2,4.1
		c0.9,0.9,0.9,2.3,1.1,3.5c0.4,0.8-0.2,2.2,0.6,2.9c0.9-0.2,1.2,0.8,2.2,0.6c0.2-0.1,0.6-0.2,0.6-0.6c-0.2-3.9-0.8-8.4-3-11.7
		c-1.2-2.2-3.7-3.6-6.2-3.7c-3.4,0.3-6.1,2.4-8,4.9c-1.2,0.8-1.4,1.9-2.4,2.7c-0.2,1.8-1.6,3.2-1.7,5.1
		C80,163.4,80.1,163.8,79.7,164 M66.7,156.8c1.4,2.6,2,5.5,1.7,8.2c-0.2,0.6-0.2,1.4-0.3,1.9c0.4,0.5,1,0.1,1.5,0.5
		c0.7,0.2,1.7,0.2,1.9-0.5c0.4-3.8,0-8.4-2.1-11.5c-2.1-3.1-6.2-4.8-9.9-3.7l-1.8,1c-5.1,3.7-8.7,9.6-9.5,15.8
		c0.4,0.6,0.7,0.9,1.4,1.2c0.9,0.6,2.1,0.3,2.9-0.2c2.4-5.7,4.4-10.9,9.1-14.9c0.8-0.2,1.7-0.2,2.4-0.2
		C65.2,155.1,66.1,155.8,66.7,156.8 M70.5,168.8c-1.1,0.2-1.9,0.8-3.1,0.9c-1.7,1.2-4.7,2.3-4.6,5.1c-0.3,0.4,0,0.8,0,1.3
		c0.5,0.8,1.4,1.2,2.3,1.3c0.7,0.1,0.4-0.7,1-0.8c0.8-2.9,4.1-3.6,6.8-3.9c1.3-0.2,3.1-0.6,4.7-0.7v-0.1l0.8,0.2
		c0.5,0,1.2,0.5,1.7,0c0.2-0.5,1-1.2,0.6-1.8c-1.7-1.5-4.1-2.4-6.8-1.8C72.8,168.4,71.6,168.9,70.5,168.8 M141.5,231.1
		c-0.8,0.6-1.8,0.5-2.7,1c0.1,0,0.2,0,0.2,0.1c-0.9,0-0.8,0.5-1.8,0.5c-3.1,1.2-6.2,2.1-9.4,3.1c-3.4,0.6-6.7,1.6-10,2.6
		c-7.1,1.6-14.2,3.1-21.4,4.2c-5.8,1.5-12.5,1.5-18.3,1.8c-0.4-0.2-1,0.3-1.2-0.2l-0.2,0.2c-3.1-0.2-5.7,0.2-8.6-0.3
		c-1.7,0.3-3.7-0.7-5.1,0.4c-0.1,0.3-0.2,0.8-0.1,1c1.2,0.8,2.7,0.3,3.7,1c0.2,0.2,0.9-0.1,1,0.2c1.4-0.2,3.1-0.1,4.6-0.1
		c1.3,0.7,2.7-0.1,4,0.1l0.1,0.2c1.1,0,2.3-0.2,3.5,0c0.6-0.6,1.8,0.2,2.6-0.4c1,0.5,2.2-0.1,3.3,0.2c0.6-0.3,1.2-0.2,1.9-0.1
		c3.1-0.3,5.8-0.7,9-0.9c6.4-0.2,12.8-1.2,19-2.5c5.7-0.8,10.7-3.1,16.1-4.5c2.1-0.8,4.1-2,6.2-2.7c1.2-0.8,2.5-1.1,3.4-2.1
		c1.7-0.2,2.2-1.8,3.4-2.7c0.3-0.5-0.7-1.1-1.1-0.6C143,230.4,142.3,231.3,141.5,231.1 M142,218.4c0-0.8-0.8-1.2-1.2-1.7
		c-0.5,1-1.3,1.5-2.3,1.8c-0.2,0.4-0.2,1.1-0.1,1.5c0.3,0.2,0.6,0.6,1,0.6C140.2,219.9,141.5,219.6,142,218.4 M132.1,195.5
		c0-2.7-0.2-5.9,0-8.4c-0.3-1.6,0.3-4-1.4-5.2c-0.5,0.4-1.3,0.1-1.7,0.8c0.1,0.2-0.2,0.8,0.1,0.8c0.1,1.4-0.1,2.9-0.2,4.2l0.2,0.3
		c0,0.1-0.2,0.2-0.2,0.1l0.1,0.1c0.2,5.9-0.2,11.4-0.7,16.9c0.1,1.9,0.1,3.4-0.2,5.3c0.5,1,1.7,0.5,2.4,0.4l0.2-1.1
		c0.8-4.7,1.3-9.4,1.3-14.2L132.1,195.5z M132.6,179.6c1.6,0.4,3.2,1.4,4.8,0.9c0.2-0.3,0-0.7,0-1c-0.7-0.8-1.6-1.2-2.3-2
		c-1.6-1.1-3.7-0.9-5.7-0.9c-0.8,0.3-2.1,0.2-2.3,1.2C127.4,180.8,130.9,178.7,132.6,179.6 M137.7,185.3c-0.2-1.2-1.6-1.3-2.5-0.8
		c-0.8,7.7-0.5,15.7-1,23.3c-0.3,3.5-0.4,7.2-0.8,10.7c0.5,1-1,3,0.9,3c0.6-0.3,1.5-0.6,1.8-1.1c0.5-2.7,0.7-5.9,1-8.7
		c0.5-4.5,0.6-9.3,0.8-14.1C137.8,193.3,138.6,189.7,137.7,185.3 M118.4,225.6c-0.2-0.5-0.8-0.8-1.2-1.2c-2-0.3-4.2-0.2-6.2,0.4
		l-0.2,0.5c0.4,0.7-0.1,1.9,0.8,2.4c1.1,0.5,2.5,0.8,3.7,0.5c0.9-0.2,1.6-0.8,2.2-1.2C117.6,226.4,118.8,226.5,118.4,225.6
		 M110.6,185.5c0-0.2-0.1-0.3-0.2-0.4c0.4-1.2-0.2-1.9,0.1-2.9c-0.4-0.7,0-1.6-0.1-2.3l-1.2-1.3l-0.1-0.4c-0.2-0.2-0.6-0.6-1.1-0.7
		c-0.7,0.1-0.8,0.8-1.1,1.2c-0.6,7.7-0.8,15.7-1.2,23.5c-0.2,4.9-0.2,9.5-0.2,14.3c0.2,2.7-0.2,5.9,0.6,8.5c0.5,0.2,0.9,0.1,1.4,0
		c0.3-0.4,0.9-0.8,0.9-1.2c-0.2-0.7,0.2-1.3-0.2-1.9c0.2-1.2,0.2-2.7,0.2-4.1c0.3-2,0.1-4.4,0.4-6.6l-0.2-0.6
		c0.5-1.3-0.1-2.5,0.2-3.8c0.1-0.3-0.2-0.7,0.1-1c-0.3-0.9,0.2-2.2,0.2-3.1c0-2.7,0.1-5.4,0.6-8.2c-0.3-0.7,0.3-1.7,0-2.5
		c0.6-0.8-0.2-1.8,0.4-2.5h-0.1c-0.2-0.7,0.1-1.6,0.2-2C110.2,186.8,110.5,186.2,110.6,185.5L110.6,185.5z M100.6,176.3
		c-0.2,7.7-0.8,17.2-1,25.5c-0.2,1.4,0.2,2.5-0.2,3.7c-2.4,0.2-5,1-7.4,0.9c-2.7,0.4-5.8,0-8.7,0.3l-0.2,0.6c0,1,0.7,1.6,1.5,1.8
		c2.2,0.1,4.6-0.5,6.9-0.2c1.5-0.2,3.1,0.2,4.6-0.2c1.2,0.1,2.3-0.7,3.3-0.2c-0.2,2.4,0,4.9,0,7.2l-1.9,0.1
		c-5.2,0.8-10.4,1.3-15.8,1.3c-0.6,0.3-1.8-0.2-1.9,0.9c1.1,2.2,3.6,1.5,5.5,2.1c0.3-0.4,1-0.2,1.4-0.3c1.6,0.2,3.4-0.4,5-0.2
		c2.4-0.2,4.7-0.9,7.1-1.2c0.4,0,0.2,0.2,0.6,0.3c-0.2,0.5,0.2,1.1,0.3,1.2c-0.1,0-0.2,0.1-0.2,0.1c-0.1,0.2,0.4,0.4,0.3,0.8h-0.1
		c-0.2,0.2,0.6,0.7,0.1,0.7l-0.1-0.2l0.1,0.2c0.3,0.2,0.6,0.6,1.1,0.7c1.2,0,0.4-1.4,1-2.1c0.2-6.4,0.7-12.9,0.8-19.3
		c0.2-1.2-0.2-2.5,0.2-3.5c0.2-5.5,0.4-11.1,0.8-16.4c0-0.2-0.2-0.6,0-0.8l0.2-3.7l0.2-0.2c1,0,1.7-0.6,2.7-0.5
		c0.2-0.2,0.6-0.3,0.5-0.8c-1.8-2.5-5.6-1.9-8.2-1.2l-0.2,1.6C99.4,176,99.9,176.1,100.6,176.3 M63.8,227c0.3,0.8-0.8,0.8-0.4,1.6
		c0.2,0.6,0.9,1,1.5,1.2c2.2,0.7,4.3,1.4,6.9,1.2c2.6-0.2,4.8-1.5,5.8-3.8c-0.2-0.6-0.9-1.1-1.7-1.2c-1.7,0.3-3.7,0.8-5.7,0.9
		c-0.2-0.2-0.3,0.2-0.5,0.1C67.7,227,65.8,226.9,63.8,227 M77.7,209.1c0-2.6,0.2-5.5,0.3-8.2c0-2.4,0.4-4.7,0.4-7
		c0.1-0.2-0.3-0.4,0-0.6c-0.2-4.3,1-8.6-0.5-12.7c-0.5-0.3-1-0.4-1.7-0.4c-0.7,0.2-1.1,0.7-1.2,1.4c-0.8,6.8-0.7,14.8-1,21.4
		c0.1,3.6-0.6,7.7,0.6,11.2c0.6,0.6,1.7,0.2,2.2-0.1c-0.2-0.9,0.8-1,0.8-2C77.5,211.2,77.7,210.1,77.7,209.1 M66.7,191.5
		c-0.2,10.4-0.8,19.8,0.3,29.8c0.1,1.5,0.2,3.1,0.8,4.5c0.3,0.1,0.8,0.4,1.2,0.2c0.3-0.2,0.8-0.4,0.9-0.8c0.1-0.2,0.5-0.1,0.3-0.4
		c0.8-0.1,0.7-1.3,1-1.9l-0.2-0.1c0.1-1.2-0.2-2.4-0.2-3.7c0.2-0.8-0.4-1.7-0.1-2.5c-0.5-1.7,0-3.9-0.2-5.7c0-9.1,0.3-18.7,0.3-27.7
		c0.1-0.7,0-1.7-0.2-2.5l-0.7-0.9c-1-0.2-1.8-0.1-2.6,0.3C67.1,183.4,66.8,187.8,66.7,191.5 M70.8,175.5c0,0.8-0.4,1.6,0.3,2.2
		c2,0.8,4.2,0.2,6.3,0.2c0.6,0.2,1.6-0.2,2.3-0.2c0.6-0.5,1.1-1.1,1.2-1.7c-0.1-0.4-0.4-0.8-0.8-1C77.6,172.7,73.5,174,70.8,175.5
		 M82.7,224.6c-0.1,0-0.2-0.1-0.2-0.1L82.7,224.6z M88.5,224.7L88.5,224.7c-0.3,0.4-0.9-0.6-1.2,0.2c-1.2-0.4-2.3,0.2-3.6-0.2
		c-0.4-0.3-1.1,0-1.3-0.3c-0.7-0.2-0.8,0.3-0.9,0.8c0.3,1.7,2.7,1.4,4,2c1.1-0.2,2.2,0.2,3.5,0.2c2.8-0.6,5.3-0.4,7.6-2.1
		c0.6-0.7,1.6-1,1.8-2l-0.2-0.2c-1,0.1-1.7,0.4-2.6,0.6c-0.4,0.2-1.2,0-1.2,0.3c-0.2,0.2-0.5,0.1-0.7,0l-2.3,0.4
		C90.1,224.7,89.8,224.6,88.5,224.7 M110.5,227.5c-0.3-0.2-0.8-0.6-1.2-0.6l-4.3,1.2c-5.8,1.8-12.3,2.4-18.7,2.6
		c-2.6,0.2-5-0.4-7.5,0.1c-0.2-0.1-0.2-0.4-0.4-0.2c-0.3,0.2-1.2-0.1-1,0.7c0.3,1.7,2.4,1.4,3.7,2c2.5,0.7,5.3,0.5,7.8,0.8
		c1.9-0.1,4.5-0.2,6.5-0.1c2.5,0.1,5.2-0.5,7.4-1c2.7-0.6,6-1.7,7.7-4.1C110.8,228.5,110.7,227.9,110.5,227.5 M100.1,168.7
		c-0.9,0.4-2.2,0.6-2.4,1.6c0.3,0.5,0.1,1.3,1,1.4c3.8-0.7,7.8-0.4,11.2,1.5c0.2,0.3,0.5,0.5,0.8,0.6c-0.1,0.2,0.4,0.6,0.2,0.8
		l0.3,0.1c0.1,0.7,0.9,0.6,1.1,1.1c0.9,0.1,1.8-0.2,2.4-0.7c0.6-1.2-0.1-2.9-0.8-4c-1-1.8-2.8-2.4-4.8-2.8
		C105.8,167.8,103.1,168.4,100.1,168.7 M111.1,163.2c0.2,1-1.6,2.2-0.1,2.7c0.3-0.1,0.9,0.2,1.3-0.2c0.8-2.6,1.7-5.4,3.2-7.7
		c0.7-0.9,1.5-2.1,2.6-2.5c-0.1-0.2,0.2-0.3,0.3-0.5c1.4-0.6,2.8-1.1,4.7-0.8c1.8,1.2,2.3,3.7,2.6,5.7c0.6,2.5-0.3,5.8,2,7.2
		l-0.1,0.1c0.4-0.3,1,0.1,1.5,0c0.8-0.4,1.9-0.2,2.3-1.2c-0.1-1-0.2-1.9-0.2-2.8c-0.4-4.3-1.8-8.9-5.9-11.1l-1.2-0.2
		c-2.1-0.8-4.2,0.1-6.2,0.8C114,154.7,112.1,159.2,111.1,163.2 M138.6,172.1c-3.4-1.9-7.8-2.3-11.9-1.3c-0.4,0.2-1.1,0.4-0.8,1.1
		c0.5,0.7,0.3,1.5,1,2c3.2,1.2,6.7,0.5,10.1,0.8c0.2,0,0.6,0.2,0.5,0.5c0.6,0.2,1.3,0.2,1.9-0.2c0.1-0.5,0.6-1,0.2-1.5L138.6,172.1z
		 M150,212.3c0.3-0.1,0.9-0.1,1.2-0.5c1.1-6.2,2.3-11.8,2.7-18.1c0.1-3.8,1-8.3-0.2-11.7c-0.3-0.9-1.7-2.2-2.7-1
		c0.1,2.6-0.2,4.8-0.2,7.3c-0.2,1.8-0.5,3.2-0.2,5c-0.7,5.8-0.8,12.2-1.8,18C148.6,212.1,149.4,212.2,150,212.3 M33.5,249.2
		c-0.5,1.5,1.4,1.7,2,2.6c3.7,0.7,7.2,1.7,11.2,1.7c0.2,0.2,0.6,0.2,0.8,0.2c1.3,0.4,2.8,0.3,4,0.4v0.1c0.2-0.1,0.5,0.3,0.7,0.1
		c2.3,0.4,4.9,0.7,7.2,0.7l0.1-0.2c0.1,0.1,0.2,0.1,0.2,0.2c0.7,0,1.7-0.1,2.6,0c0.2-0.2,0.4,0.1,0.7-0.1c0.2,0.2,0.7-0.1,1,0.2
		c3.5-0.1,7,0.1,10.7-0.2c0.5,0.5,0.9,0,1.5,0c0.6,0.2,1.2,0.2,1.7,0.1h1.8l0.1-0.2c1.8-0.1,3.6,0.2,5.4-0.2c0.7,0.3,1.4-0.2,2-0.2
		c0.5,0.2,1.1,0,1.5-0.1c0.3-0.3,0.8,0.2,0.9-0.2c0.1,0,0.2,0.1,0.1,0.2c2.1-0.4,4.4-0.3,6.4-1c0.7,0.2,1.5-0.5,2.2-0.2
		c0.8-0.1,1.5-0.2,2.2-0.2c0.2-0.2,0.8,0,0.9-0.3c1.8,0,3.4-0.3,5.2-0.6c0.7-0.2,1.4-0.7,2.1-0.4c0.8-0.7,1.5-0.2,2.3-0.5
		c0.4-0.7,1.5-0.1,1.9-0.8c0.6,0.3,1-0.4,1.5-0.2c2.4-0.7,5.3-1,7.7-2.1c1-0.2,1.9-0.6,2.9-0.6c0.8-0.3,1.5-0.6,2.2-0.7
		c0.5-0.2,1.3-0.6,1.8-0.6c0.5-0.5,1.4-0.2,1.9-0.7c0.3-0.7,1.2-0.2,1.5-0.7c0.3,0.1,0.6-0.4,1-0.1c1.2-0.5,2.4-0.9,3.5-1.4
		c0.7-0.2,1.1-0.2,1.6-0.7l0.2,0.2l0.5-0.3c3-1.2,6.3-2.5,9.3-3.9c0.1-0.5,0.9-1,0-1.2c-1.1,0.5-2.2,0.9-3.5,1.2
		c-2.1,0.8-4.2,1.8-6.2,2.4c-1.3,0.8-2.9,0.8-4.3,1.4c-4.2,1.2-8.7,2.4-12.8,3.5c-7.3,1.4-15.2,3.1-22.4,4.2
		c-3.3,0.4-7.4,1-11.2,1.1c-1.4,0-2.8,0.4-4.2,0.3c-3.6,0.5-7.4,0.3-10.9,0.4c-1.3,0.1-2.7,0-4.1,0.2c-1-0.2-2-0.1-3-0.2l-1.8,0.1
		c-2.7-0.1-5.7-0.1-8.3-0.5c-2.2,0-4.2-0.2-6.4-0.1l-2.1-0.2c-1-0.2-1.8-0.2-2.7-0.2c-3.2-0.2-5.8-0.8-8.8-1.2
		C35.1,249.5,34.3,248.4,33.5,249.2 M44.9,220.1c-0.1-2,0-4.4-0.4-6.2c0.2-2.3-0.2-5.6-0.1-8c-0.2-4.7-0.2-9.8-0.2-14.7
		c0.2-1.3-0.2-2.4,0.2-3.5l-0.2-0.2c0-3.2-0.1-6.2-0.1-9.4c0-1-1.6-1.2-2.2-0.8c-0.7,0.5,0.6,0.8-0.1,1.2c0,1-0.2,2.2-0.2,3.2
		c-0.7,12.4-0.4,25.1,0.1,37c0.2,1.7,0.9,3.2,0.9,5.2l0.2,0.2c0.6,0.1,1.2-0.1,1.5-0.5C44.7,222.6,45.1,221.4,44.9,220.1
		 M37.7,205.1L38,205c0.2-3.5-0.1-8,0-11.7c-0.1-4.2,0.7-8.7,0.3-13.1l-0.3-0.4c-0.7-0.1-1.7-0.7-2.2,0.2
		c-0.8,7.7-0.9,15.5-0.3,23.3c0.4,0.6,0.2,1.2,0.3,1.9c0.1,0.7,0.9,0.8,1.5,0.8C37.6,205.9,38.2,205.5,37.7,205.1 M41.7,229.6
		c-2.3-0.2-5.2,0.2-6.7-1.8c-0.2,0.4-0.7,0.2-1,0.6c-0.8,0.7-0.1,1.8-0.2,2.8l0.8,1c2.7,1.2,6,0.9,8.4-0.2c0.5-0.2,1.4-0.5,1.2-1
		C43.2,230.5,42.8,229.5,41.7,229.6 M30.4,177.4c0.5,0.2,0.2,0.8,0.8,1.1c1.2,1,2.5-0.2,3.6-0.7c2.6-0.7,5.1-2.1,7.8-2.3
		c1.3-0.4,3.6,0.5,3.9-1.4c0.1-0.6-0.3-1.2-0.8-1.5c-3.7-1.4-7.6,0.2-10.9,1.3C33.2,174.8,31.3,175.7,30.4,177.4 M18.4,175.5
		c-0.9,1.2,1,1.1,1.4,2l1.4-0.2l0.5-1.7c0.3-0.2,0.7-0.8,0.7-1.4c0.4-0.4,0.1-1.2,0.7-1.7c0-0.4,0.1-1.2,0.4-1.3v-0.5
		c1.1-2.5,2.3-5,3.9-7.2c0.9-0.9,1.5-2.2,2.7-2.5c0.5-0.4,1.3-0.7,1.9-0.8c0.8,0.3,1.9,0.8,2.1,1.8c1.6,2.1,0.8,5.3,0.6,8
		c0.2,0.6,0.7,0.8,0.9,1.3c0.4,0.2,1.1,0.6,1.4,0.1c0.7-2,0.6-4.5,0.2-6.5c-0.2-0.3-0.1-0.8-0.3-1.2c-0.3-0.2,0.1-0.7-0.4-0.8
		c-0.2-0.9-0.9-2.1-1.2-2.7c0,0-0.2,0-0.2-0.1l0.2-0.1h0.1c-0.7-0.6-1.3-1.2-2.2-1.5c-2.9-1.3-6.1,0.4-8.2,2.2
		c-2.5,3.8-5.2,8-6.1,12.7c0,0.3-0.5,0.5-0.2,0.7c-0.1,0.3,0.2,0.8-0.2,0.8h0.1v0.2h-0.1L18.4,175.5z M117.3,137.8
		C117.3,137.8,117.3,137.8,117.3,137.8L117.3,137.8z M117.7,137.8h-0.4c0.1,0.1,0.3,0.2,0.4,0.2V137.8z M117.2,137.7
		C117.2,137.7,117.2,137.7,117.2,137.7C117.2,137.7,117.3,137.7,117.2,137.7C117.3,137.7,117.2,137.7,117.2,137.7 M79.5,133.5
		c-0.1-0.6,0.5-0.8,0.2-1.2c0.4-2.7,0.9-5.2,1.9-7.8c0.2,1.7-0.4,3.3,0.1,4.8c-0.2,0.8-0.7,2.2,0,2.8c0.1,0.9,0.3,2,1,2.5
		c-0.8,0.2-1.4-0.2-2,0.1l-1.2,0.1C79.3,134.5,79.6,133.8,79.5,133.5 M60.3,136.8c-3.1,0.7-6.2,0.8-9.3,1.6
		c-4.4,0.6-8.3,1.5-12.2,2.6h0c-1.9,0.5-3.8,1.1-5.8,1.6c-4.5,1.6-9.3,2.9-13,5.7c0.3,0.9,0.2,1.9,1.2,2.2c2.2-0.1,4.3-0.6,6.3-1.2
		c3-1.3,6.2-1.7,9.1-3c1-0.4,2.4-0.9,3.7-1.2c3.2-1,6-1.8,9.5-2.6c1.4,0.1,2.6-0.9,4-0.8v-0.2c0.4-0.2,1-0.2,1.3-0.2
		c0.4-0.1,0.8-0.2,1.2-0.3h0c0.5-0.1,1.1-0.1,1.6-0.2c0.8-0.4,1.7,0,2.2-0.6c4.1-0.9,8.2-1.5,12.4-2.2c2.4-0.3,5.2-0.1,7.7-0.7
		c1.4,0.2,3.2-0.4,4.4-0.2c1-0.4,2.2,0.1,3.4-0.1c0.6,0.1,1.1-0.3,1.6-0.1c2.4-0.2,4.5,0.1,6.9,0.1c2.2,0.2,5,0.1,7.1,0.4
		c0.6-0.2,1.7,0.3,2.5,0.1c0.4,0.5,1-0.2,1.5,0.2v-0.2c0.9,0.1,1.8,0.4,2.6,0.3c2.2,0.2,4.6,0.3,6.9,0.3c-0.2-0.2-0.4,0-0.5-0.2
		c-0.2-0.3,0.3-0.1,0.3-0.4c-0.7-0.5-1.5-0.1-2.1-0.7c-0.4,0.3-1.2-0.2-1.7-0.2c-1.8-0.3-3.4-1.1-5.3-1.2c-2.7-0.1-5-0.7-7.6-0.7
		c-0.4,0.4-0.8-0.1-1.2-0.2c0-0.8,0.8-1.1,0.6-1.8c1.1-3.1,1.1-6.7,1.7-10.1c0.2-0.7,0-1.6,0.3-2.3c0-1.8,0.4-4.2,0.2-6
		c0.1-1.3-1.2-1.7-1.9-2.3c-0.8-0.2-1.4,0.2-2,0.8c-1.1,1.8-2.2,3.9-2.6,6.1l-0.3,0.2c0.2,1.1-0.4,2.2-0.7,3.2
		c-0.2,1.1-0.8,2.7,0.1,3.6c0,0.6,1,0.2,0.8,0.9l0.7-0.3c0.4-1.1,1-2.4,1.7-3.3c-0.2,3.5-0.6,6.8-0.3,10.4c0.2,0.2,0.2,0.6,0.3,0.8
		c-1.7,0-3.7-0.1-5.7,0c-0.7-0.2,0.1-0.9,0-1.5c0.2-3.3,0.7-6.3,0.9-9.7c0.3-0.6,0.3-1.3,0.4-2c0.2-2.7,1.1-5.8,0-8.5
		c-0.8-0.4-1.2-1.3-2.2-1.3c-1.9,0.7-2,3-2.7,4.7c-0.7,2.3-0.8,5.1-1.3,7.4c-0.1,0.5,0.5,0.9,0.2,1.2c0.7,0.1,0.6,0.7,0.8,1.2
		c0.8,0,0.8-1,1.3-1.2c0.2,0.3-0.2,0.8,0.2,1c-0.3,1,0,2.5-0.3,3.4c0.4,1.1-0.2,2.3,0.2,3.4c-0.1,0.6,0,1.3-0.2,1.8
		c-2.1,0.2-4,0.1-5.9,0c0.1-0.1,0.2-0.1,0.2-0.2c-0.1-1.6,0.2-2.7,0.2-4.2c0.8-4.7,1.4-9.4,2.2-14.2c-0.2-1.1-0.2-2.6-1.4-3
		c-0.5,0.1-0.3-0.8-1-0.6c-0.8-0.2-0.7,0.6-1.5,0.8c-0.5,2.2-1.4,3.7-2.2,5.8c-1.7,3.5-2.7,7.4-3.5,11.2c-0.5,1.6-0.3,3.2-0.3,4.9
		l-1.5,0.2c-0.2-0.2-0.6-0.2-0.8,0.1c-0.7-0.4-1.2,0.4-1.7,0c-0.5,0.5-1-0.2-1.5,0.2c-1.1,0-2.3,0.1-3.2,0.4c-1.2-0.3-2,0.5-3.2,0.2
		c0.2-6.6,0.9-13.5,3.2-19.7c-0.1-0.4-0.1-0.9-0.6-1.2c-0.7,0.2-0.9-0.4-1.4-0.5c-1.1,0.3-1.4,1.7-1.8,2.7
		c-1.2,4.9-1.9,10.5-2.7,15.3c0.1,0.2-0.2,0.6,0,0.8C60.7,134.7,60.3,135.6,60.3,136.8 M106.6,120.5c0.3,3.2-0.5,7.2,0.3,10.7
		l0.2,0.4l0.1-0.1c0.1,0,0.2,0.1,0.3,0.2c0.5,0.6,1.2-0.2,1.7-0.5c0.8-2.4,0.7-5.2,1.1-7.5c-0.2-3.8,0.8-7.3-0.9-10.7
		c-0.4-1-1.5-0.8-2.2-1.2c-0.9,0-1.3,0.8-2,1.2c-1.5,3-3.2,5.8-2.5,9.3c0.3,0.6,1,0.8,1.7,0.8c0.4-0.4,0.8,0.2,1.2,0.2l0.5-0.8
		C106.5,121.8,106.2,120.9,106.6,120.5 M111.7,38.9c1.1-2.2,1.3-4.9,1.9-7.4c0.1-2.3-1-4.2-1.7-6.2l-1.5-0.2l-0.4,0.6l-0.1-0.1
		c0,0.2-0.3,0.6-0.7,0.6l0.2,0.2c-0.8,0.7-1.3,1.2-1.9,2c-0.2,0-0.4,0.1-0.3,0.2c-0.8,0.8-1.5,1.7-2.4,2.4c-1.9,2.1-3.1,4.3-4.6,6.5
		c-1.2,1.2-1.8,2.8-1.9,4.4c0.3,0.6,0.6,1.2,0.6,1.8c0.4,0.4,0.8,0.7,1.3,0.7c0.8,0.2,0.8-0.7,1.2-0.9c-0.6-0.7,0.2-1.4,0.2-2.2
		c2.1-3.7,5.2-7.2,8.2-10c0.2,0.2,0.2,0.2,0.3,0.5c-0.4,2-0.4,4,0.2,6c0,0.5,0.4,0.6,0.4,1.1C111.1,39.4,111.3,38.8,111.7,38.9
		 M116.1,50.6L116.1,50.6l-0.2-0.1L116.1,50.6z M119.3,54.9c0.5-2.7-2.4-3.2-3.7-4.6c-1.9-1.1-4.2-0.9-6.3-1.6
		c-1.4-0.2-2.7,0-4.2,0.1c-0.2-1.6,0.3-3.3,0.5-4.6c-0.5-0.1-0.7-0.5-1.2-0.7c-0.4,0.2-0.4,0.8-0.9,0.7v0.3c-0.7,1.7-1.7,3.4-2.6,5
		c-0.7,0.2-1.2,0.3-1.8,0.4c-3.1,1.1-5.9,2.5-8.5,4.3c-0.9,0.8-0.6,2-0.5,3.2c0.3,1.1,1.6,0.4,2.3,0.6c3.5-3,8.2-5.2,13-5.6
		c3.7-0.1,7.2-0.5,10.4,1.3c1.1,0.4,1.8,1.8,3.1,1.9C119.1,55.6,119,55,119.3,54.9 M95.6,71.4c0.5,1.7-0.5,4.2,1.1,5.7
		c1,0,0.6-1.3,1-1.9c0.3-0.6,0-1.6,0.5-2.1c0.8-3.7,2.1-7.4,2.4-11.2c-0.2-1.2-0.8-2.2-1.9-2.6c-0.9-0.9-1.5,0.2-2.2,0.7
		c-0.5,1.2-1.1,2.4-1.6,3.8c-1.2,2-1.8,4.2-2.9,6.2c-0.6,2.3-1.6,5-1.2,7.7c0.1,0.7,1,0.9,1,1.7c0.4,0.5,0.7-0.3,1.2-0.2
		C94.1,76.7,94.4,73.9,95.6,71.4 M103.1,66c0.2,2.5-0.2,4.7-0.2,7.3c0.1,0.8,0.1,1.6,0.6,2.2c0.6-0.2,0.8,0.8,1.4,0.1
		c1.1-2.7,1.2-6.1,1.8-8.8c0-2.7,1.3-5.2,0-7.7l-1.5-1.5c-0.7-0.2-1.6,0-2.1,0.7c-0.5,1.5-1.2,2.8-1,4.4
		C101.8,63.9,103,64.9,103.1,66 M121.9,83.5c-0.5-0.7-1.5-0.9-2.1-1.4v0.2c-0.3-0.5-0.8-0.3-1.5-0.6l0.1-0.1c0.1,0.1,0.2,0,0.2,0
		c0.1-0.4-0.4-0.5-0.2-1c0.1-0.2-0.3-0.5-0.1-0.8l-0.2-0.1c-0.2-2.3-0.7-4.7-1.2-7c0.1-0.7,0.2-1.3-0.2-1.9c-0.3-0.2-0.6-0.8-1-0.4
		l0.3,0.2l-0.2,0.2c-0.4-0.3-0.5,0-0.8,0.1c-0.2,1.9,0.4,4.4-0.1,6.1c-0.2,1.1,0.2,2.1-0.2,3.2c-0.2,0.2-0.4,0-0.6,0
		c-0.3-0.1-0.9-0.2-1.1,0.2c-0.6-0.2-1.2-0.2-1.7-0.4l-0.1,0.1c-0.5,0.1-1,0-1.4-0.1c-1.8-0.2-3.5-0.3-5.4-0.3
		c-1.2-0.5-2.7-0.1-4.2-0.2c-0.2-0.1-0.7-0.2-0.8,0c-5.2,0.2-9.9,0.4-14.8,1.7c0-0.7,0.4-1.4,0.6-2.1c0.7-2.1,1.6-4.2,2.2-6.4
		c0.6-0.5,0.5-1.7,1.2-2.2c1.1-2.5,1.9-4.9,3.9-6.8c0.3-0.7-0.1-1.1-0.3-1.6c-0.8,0.1-0.8-1-1.6-0.9c-0.7,0.2-1.5,0.3-1.8,1
		c-3.4,6.5-6.2,13.5-8.1,20.7l-2.1,1.1c-0.6,1.2-1.7,1.5-1.7,2.8c-0.3,0.2-0.3,0.8-0.2,1.2c0.4,0.1,0.3,0.9,0.8,0.4
		c1,0.6,1.7-0.5,2.5-0.6c-0.2,1.9-0.7,3.8,0.1,5.7c-0.1,0.2,0.2,0.3,0.5,0.2l0.2,0.6c0.4-0.2,0.6-0.2,0.8-0.7
		c0.4-2.4,1.1-4.7,1.5-7.2c2.6-1,5.2-1.4,7.9-2c0.7-0.2,1.5-0.2,2.1-0.2c1.4-0.4,2.7-0.3,4.1-0.7c5.9-0.2,11.7-0.5,17.2,0.2
		c0.5-0.1,0.6,0.3,1,0c0.3,0.3,0.9,0.3,1.4,0.4c0.1-0.2,0.4-0.2,0.5,0c1.3,0,2.8-0.1,4.2,0.5C122.1,84.3,121.2,83.7,121.9,83.5
		 M88.3,85.6c-1.2,1.3-2,3.4-2.6,5c-1,3.7-3.2,7.1-2.2,11c0.6,0.4,0.8,1.7,1.8,1.9c1.5-0.4,1.2-2,1.5-3.2l1.1-3.8l0.2-0.1
		c0,1.9,0.2,3.5,0.5,5.4c0.4,0.7,0.7,1.4,1.6,1.5l0.1-0.4c0.5-0.3,0.2-1.2,0.5-1.6c0.2-4.7,1.7-9.7,0.8-14.4
		c-0.6-0.5-1.2-1.1-1.9-1.4C89.3,85.3,88.7,85.4,88.3,85.6 M101.3,90.4c0.7,0.1,1.1,0.2,1.7,0.4c-0.1,3.4-0.2,6.7,0.2,10
		c0.2,0.1,0.3,0.2,0.2,0.4c0.2,0.8,0.8,0.5,1.3,0.3c0.7-0.5,0.8-1.4,1-2.2c0.4-1.3,0.3-2.9,0.7-4.2l-0.2-0.2c0.6-0.7,0-1.7,0.3-2.3
		c-0.1-0.1,0-0.3,0.1-0.3c-0.1-2,1.2-5.1-0.2-7.2c-0.7-0.4-1.2-1.2-2.2-0.9c-0.8,0.2-1.3,1.2-1.6,1.9
		C101.5,87,101.2,88.9,101.3,90.4 M125.8,112.3c-0.5-0.1-0.3-0.7-0.6-0.9c-0.7-0.1-1.3-0.6-1.8-0.9l0.1-0.2h-0.3
		c-0.4,0.1-0.5-0.2-0.6-0.4c-0.3-0.2-0.3,0-0.6,0.2c-0.2-0.2-0.1-0.2,0-0.3c-0.7-0.4-1.3-0.8-2.1-1.2l-0.2-6.2
		c-0.3-3.4,0.4-6.7-0.2-10.1c-0.6-0.8-1.4-1.4-2.5-1.5c-1-0.1-1.2,1.1-1.6,1.8c0.3,4.8,0.7,10,1.1,14.8c-0.8-0.2-1.8-0.3-2.6-0.6
		c-5.3-0.8-11-2-16.5-2.5c0.1-0.2,0.3-0.2,0.4-0.5l0.8-3.7c0.5-3.9,0.8-7.7,1.1-11.6c-0.3-0.5-0.2-1.1-0.4-1.6
		c-0.5-0.9-1.2-2.2-2.6-2.3c-2.1,0.2-1.8,2.6-2.7,3.9c-0.2,1.2-0.7,2.7-0.6,3.7c-0.2,0.7-0.2,1.6,0.2,2.2c-0.4,1,1.1,0.7,0.8,1.7
		c0.5,0.1,0.5-0.5,1-0.7l0.2,0.5c-0.1,1.5-0.1,3.5-0.2,5.1l0.2,0.5c-0.3,1.2,0.3,1.8,0.7,2.6c-1.1-0.2-2.6-0.1-3.7,0
		c-6.1,1-11.3,0.8-17.2,2.4l-0.8,0.1c0.1-0.7,0.3-1.3,0.6-1.9c0.8-2.7,1.5-5.6,2.7-8.1c0.2-0.8,0.8-1.4,0.5-2.2
		c-0.2-1.1-1.4-1.6-2.3-1.8c-0.7,0.2-1,1.1-1.3,1.7c-1.1,4.2-2.4,8.4-3.5,12.8c-0.1,0.8-0.6,1.1-1.2,1.2c-0.2-0.2-0.3-0.1-0.4,0.1
		c-0.6,0-1,0.6-1.7,0.5c-1.6,0.8-3.6,1.6-5.1,2.4c-1,0.2-1.8,0.8-2.4,1.5c-1.1,0.1-0.9,1.2-1.2,1.8c-0.2,1.2,1,1.3,1.8,1.7
		c0.1-0.2,0.2,0,0.4,0c0.2,0,0.4-0.2,0.5-0.5c2.9-1.1,5.4-2.4,8.4-3c-0.2,1.7-0.2,3.7-0.3,5.2c0.3,0.6,0.2,1.3,0.7,1.7
		c0.2,0,0.2-0.3,0.3-0.5c0.1,0.3,0.2,0.7,0.5,0.8c0.9-2.2,1.2-4,1.6-6.3c0.3-0.7,0.2-1.4,0.6-2c4.1-1.2,7.8-1.9,12.2-2.7
		c0.6-0.4,1.4,0.2,1.7-0.2c4-0.6,7.8-1.1,12.1-1c3.2-0.3,6.7,0.2,9.8,0.5c2.4,0.6,4.9,1,7.3,1.6c0.5,1.2,0.2,3.1,1.2,4.3
		c0.4,0.2,0.9,0.2,1.1-0.2c0.8,0.5,0.6-0.7,1-0.8v-2.1c1.7,0.6,3.6,1.4,5.2,1.8C126,113.3,125.6,112.3,125.8,112.3 M142.1,143.3
		c0.2-0.3,0.4-0.7,0.4-1.2c-0.4-0.5-1.1-1-1.7-1.3c-0.1-0.6-0.9-0.3-1.2-0.8c-3-0.8-6.1-1.4-9.2-1.5c-0.6,0.2-1.4-0.4-1.6,0.2
		c0.7,0.9,1.1,1.8,1.8,2.5c0.2,0,0.6,0,0.8,0.2c1.2,0.1,2.5,0.7,3.6,0.7C137.3,142.6,139.6,143.2,142.1,143.3 M158.1,151.5
		c-0.8,0-1.2-0.5-1.9-0.5c-1.2-0.7-2.9-1.1-4.2-1.4c-0.7,0-1.2-0.2-1.7-0.3c-0.7-0.3-1.2-0.2-1.8-0.4v-0.2l-2.9-0.7l-0.4,0.1
		c-1.2-0.7-3-0.6-4.1-1c-0.6-0.2-1.2,0-1.7-0.3c-1,0-1.6-0.4-2.5-0.7c-0.8,0.1-1.5-0.2-2.3-0.2c-0.8-0.7-2.1-0.5-3-0.9l-0.1,0.1
		l-2-0.5c-0.5,0.2-1.1-0.1-1.6-0.2c-0.1-0.4-0.2-0.8-0.1-1.1c-0.7-1.2-0.7-2.6-1.2-3.7c-1.1-4.2-1.8-8.7-2.6-13.2
		c-0.6-0.8-1.6-1.5-2.6-1.5c-1,0.3-1.2,1.3-1.3,2.2c1.2,5,2,10.3,3.1,15.5c-0.1,0-0.1,0.1-0.2,0.1c0.6,0,0.2,0.8,0.3,1.2
		c-0.6,0.4-1-0.2-1.5,0c-0.2-0.2-0.9-0.1-1.4-0.2c-1.6-0.5-3.2-0.3-4.8-0.5c-2.4-0.2-4.8-0.3-7.5-0.6c-10.3-0.2-21.4-0.9-32.2,0
		c-0.7,0-1.4-0.1-2.2-0.1c-1.2,0.6-3.1,0.1-4.2,0.5c-0.7-0.2-1.4,0.3-2.2,0.2c-0.6,0.2-1.4,0.4-2.2,0.2c-0.2,0.2-1,0-1.5,0
		c-0.8,0.3-1.8,0.3-2.7,0.4c-0.8-0.3-1.6,0.2-2.4,0.2c-0.2-0.2-0.7-0.1-1,0.1c-1,0.2-2,0.3-3,0.4c-0.9,0.1-1.8,0.8-2.6,0.6
		c-0.9,0.3-1.7,0.6-2.6,0.7c-1,0-1.8,0.4-2.7,0.6c-0.7-0.1-1.3,0.2-2,0.4c-0.5-0.2-0.9,0.5-1.3,0.2c-0.4,0-0.9,0-1.2,0.3l-0.1-0.1
		c-0.9,0.5-1.8,0.1-2.7,0.6c-0.3,0.2-0.8-0.1-1,0.3c-0.7,0-1,0.2-1.5,0.3v-0.1c-0.8,0.6-1.9,0.3-2.6,0.9c-0.8-0.2-1.2,0.5-1.9,0.3
		c-1.4,0.1-2.3,1.2-3.8,1.3c-0.8,0.3-1.7,0.6-2.4,0.8c-0.5,0.5-1.4,0.2-2,0.8c-0.2-0.2-0.7-0.1-0.8,0.2c-0.5,0-1.2,0.2-1.5,0.6
		c-0.7-0.3-1,0.5-1.7,0.7l0.1-0.3h-0.1c-0.4,0.1-0.8,0.4-1.2,0.7c-1.1-0.1-1.9,0.8-2.9,1.2c-0.2,0.2-0.2-0.2-0.3-0.1
		c-0.3,0.3-0.8,0.7-1.3,0.8c-1.3,0.8-2.7,1.7-3.4,3.2c-0.1,0.7,0.4,1.3,0.2,1.9c0.2,0.9,1.6,0.8,2.3,0.9c0.2,0,0.5-0.4,0.8-0.2
		c0.1-0.2,0.3-0.2,0.2-0.4c3.5-1,6.3-3.3,9.8-4.3c2.9-1.2,5.7-2.4,8.7-3.1c0.1-0.2,0.7-0.3,1-0.3c2.3-0.9,4.7-1.2,7-2.2
		c0.5,0.3,0.7-0.5,1.2-0.2c2.7-1.3,6.3-1.2,9-2.5c4.4-0.6,8.8-1.2,13.2-1.9c3.2-0.2,6.1-0.6,9.2-0.7l0.4-0.2c2.7-0.2,5.6,0,8.2-0.3
		c0.8,0.2,1.4,0.2,2.2,0.1l-0.4-0.2c0.7-0.1,1.7,0.2,2.5-0.1c1,0.6,2.1-0.2,3.1,0.1c2.1,0.2,4.2-0.1,6.1,0.2c1.5,0,3.2-0.1,4.7,0.2
		c4.6,0.2,9.8-0.2,13.9,0.3c5.7,0.3,11.3,0.5,17,1.4c0.2,0.1,0.4,0.2,0.6,0.1c3.7,0.7,7,1.4,10.6,2.1c1.7,0.8,4,0.7,5.7,1.5
		c3.2,0.8,6.6,1.6,9.7,2.7c0.4-0.2,0.8-0.1,1.2-0.4C159.9,152.7,158.1,152.6,158.1,151.5"/>
	<path style="clip-path:url(#SVGID_00000165197784237328507710000003198392959747239833_);fill:#0066B3;" d="M141,277.3h-1.6
		c-1.7,6.9-3.5,9.4-9,12.5v1.6h4.9v23.7c0,4.6,0.2,6.4,0.9,8.5c0.9,2.7,3,4.3,5.6,4.3c3.3,0,5.8-2.5,8-7.7l-1-1
		c-1.6,2.6-2.8,3.7-4.4,3.7c-2.4,0-3.4-2.1-3.4-7.5v-24.1h6.5v-3.1H141V277.3z M119.8,270.6c-2,0-3.5,2-3.5,4.3
		c0,2.5,1.6,4.4,3.5,4.4c1.9,0,3.5-2,3.5-4.4C123.3,272.6,121.7,270.6,119.8,270.6 M123,287.1c-4.6,2.9-5.4,3.3-10.4,6l0.4,1.2
		l0.8-0.3c0.4-0.2,0.9-0.3,1.4-0.3c1,0,1.8,0.6,2.2,1.6c0.2,0.7,0.3,1.5,0.3,4.3v17.3c-0.1,5.3-0.1,5.4-0.3,6.2
		c-0.4,2-1.4,2.8-3.5,2.8h-1.2v1.4h15.4v-1.4h-1c-3.3,0-3.9-1.4-3.9-9V287.1z M104.2,269.3c-4.6,2.9-5.4,3.3-10.4,6l0.4,1.2l0.7-0.3
		c0.4-0.3,1-0.3,1.4-0.3c2,0,2.5,1.1,2.5,6v35c0,7.7-0.6,9-3.9,9h-1.1v1.4h15.4v-1.4h-1.1c-3.3,0-3.9-1.4-3.9-9V269.3z M68.1,299.4
		c3-4.5,4.1-5.4,6.6-5.4c4.9,0,8.1,6.2,8.1,15.6c0,9.1-3.3,15.4-8.2,15.4c-2.1,0-4.1-1.3-5.3-3.3c-0.9-1.7-1.2-3.4-1.2-7.9V299.4z
		 M68.1,325.2c2.7,2,4.3,2.7,6.5,2.7c7.8,0,14.3-9.6,14.3-20.9c0-10.6-5.1-19.4-11.2-19.4c-3.4,0-5.8,1.9-9.6,7.7v-8.2
		c-4.6,2.9-5.4,3.3-10.4,6l0.4,1.2l0.7-0.3c0.3-0.2,1-0.3,1.4-0.3c1.9,0,2.6,1.5,2.6,6v31.1c-0.3,5.6-0.3,5.6-0.4,6.2
		c-0.5,2-1.5,2.8-3.6,2.8h-1.2v1.4H73v-1.4h-0.8c-3.3,0-4.1-1.8-4.1-9V325.2z M25.6,327.3c0.4-1.7,1-2.3,2-2.3
		c0.6,0,1.6,0.3,2.6,0.7c5.6,2.2,5.6,2.2,8.3,2.2c7.9,0,13.5-6.5,13.5-15.6c0-6.6-3.1-11.8-10.3-16.9l-5.3-3.8
		c-4.4-3.1-6.7-6.6-6.7-10c0-4.5,3-7.7,7.1-7.7c2.7,0,4.9,1.1,6.5,3.2c1.8,2.3,2.9,5.2,4.5,11.6h1.2v-18h-1.4c-0.5,1.4-1,2-1.9,2
		c-0.4,0-0.9-0.1-1.4-0.3c-5.4-2.2-5.8-2.3-8.4-2.3c-7.1,0-12,6-12,14.7c0,6.1,2.6,10.5,8.9,15l5.4,3.8c1.4,1,2.9,2.6,4.1,4.1
		c2.1,2.6,2.9,4.7,2.9,7.4c0,5.2-3.5,9.2-7.9,9.2c-3.6,0-7.1-2.6-9.3-6.6c-1.4-2.6-2-4.8-2.5-9.5h-1.4v19.2H25.6z"/>
	<path style="clip-path:url(#SVGID_00000165197784237328507710000003198392959747239833_);fill:#0066B3;" d="M152.7,356.2l1.2-3.7
		l1.3,3.7H152.7z M154.3,349.9h-0.1l-2.9,8.4c-0.5,1.4-0.6,1.6-1.4,1.6v0.3h2.7v-0.3h-0.1c-0.5,0-0.7-0.2-0.7-0.6
		c0-0.1,0-0.1,0.2-0.8l0.5-1.6h3l0.5,1.5c0.2,0.5,0.2,0.7,0.2,1c0,0.4-0.2,0.6-0.7,0.6h-0.2v0.3h3.4v-0.3h-0.2
		c-0.6,0-0.8-0.4-1.3-1.8L154.3,349.9z M149.4,357.8c-0.7,1.2-1.6,1.8-2.8,1.8c-1.8,0-2.9-1.7-2.9-4.5c0-2.8,1.1-4.7,2.9-4.7
		c0.7,0,1.4,0.3,1.9,1c0.5,0.6,0.7,1.1,0.8,2l0.2,0l-0.1-3.4h-0.3c0,0.4-0.2,0.6-0.4,0.6c-0.1,0-0.1,0-0.6-0.3
		c-0.5-0.3-1.1-0.4-1.7-0.4c-2.4,0-4.3,2.3-4.3,5.2c0,2.9,1.8,5.2,4.1,5.2c1.3,0,2.5-0.9,3.3-2.3L149.4,357.8z M140,351.6
		c0-1,0.2-1.3,0.8-1.3l0.3,0V350h-3.5v0.3l0.3,0c0.6,0,0.8,0.3,0.8,1.3v7c0,1-0.2,1.3-0.8,1.3l-0.3,0v0.3h3.5v-0.3l-0.3,0
		c-0.6,0-0.8-0.3-0.8-1.3V351.6z M135.5,360.2h0.2v-8.6c0-1,0.2-1.3,0.8-1.3l0.3,0V350H134v0.3l0.3,0c0.6,0,0.8,0.3,0.8,1.3v5.5
		l-4.8-7.1h-2.4v0.3c0.7,0,0.8,0.1,1.6,1.1v7.3c0,1-0.2,1.3-0.8,1.3l-0.3,0v0.3h2.8v-0.3l-0.3,0c-0.6,0-0.8-0.3-0.8-1.3v-6.4
		L135.5,360.2z M121.1,350.8c0.4-0.2,0.7-0.2,1.1-0.2c1.1,0,1.9,0.4,2.5,1.3c0.6,0.9,0.9,1.9,0.9,3.2c0,2.7-1.3,4.5-3.4,4.5
		c-0.4,0-0.7-0.1-1.2-0.2V350.8z M119.8,358.6c0,1-0.2,1.3-0.8,1.3l-0.3,0v0.3h3.2c0.9,0,1.3,0,1.7-0.1c0.8-0.2,1.5-0.5,2-1
		c0.9-0.9,1.4-2.3,1.4-3.9c0-2-0.7-3.6-2-4.5c-0.8-0.6-1.5-0.7-3-0.7h-3.3v0.3l0.3,0c0.6,0,0.8,0.3,0.8,1.3V358.6z M113.3,355.1h2.1
		c0.4,0,0.7,0.2,0.8,0.5c0.1,0.2,0.1,0.4,0.1,1h0.2v-3.7h-0.2c0,0.5,0,0.7-0.1,0.8c-0.1,0.5-0.4,0.7-0.9,0.7h-2.1v-3.9h1.9
		c1.3,0,1.7,0.3,1.8,1.7l0.2,0l-0.1-2.3h-6.2v0.3l0.3,0c0.6,0,0.8,0.3,0.8,1.3v7c0,1-0.2,1.3-0.8,1.3l-0.3,0v0.3h6.3l0.7-2.6
		l-0.2-0.1c-0.5,1.5-1,2-2.3,2H114c-0.3,0-0.4,0-0.5-0.2c-0.1-0.1-0.1-0.2-0.1-0.9V355.1z M108.9,351.6c0-1,0.2-1.3,0.8-1.3l0.3,0
		V350h-3.5v0.3l0.3,0c0.6,0,0.9,0.4,0.9,1.3v6.4c0,1.3-0.1,1.7-0.4,1.7c-0.1,0-0.3-0.1-0.4-0.4c-0.3-0.7-0.4-0.9-0.8-0.9
		c-0.4,0-0.6,0.3-0.6,0.7c0,0.7,0.5,1.1,1.3,1.1c1.3,0,2.1-1.2,2.1-3.1V351.6z M99,356.2l1.2-3.7l1.3,3.7H99z M100.7,349.9h-0.1
		l-2.9,8.4c-0.5,1.4-0.6,1.6-1.4,1.6v0.3h2.7v-0.3h-0.1c-0.5,0-0.7-0.2-0.7-0.6c0-0.1,0-0.1,0.2-0.8l0.5-1.6h3l0.5,1.5
		c0.2,0.5,0.2,0.7,0.2,1c0,0.4-0.2,0.6-0.7,0.6h-0.2v0.3h3.4v-0.3h-0.2c-0.6,0-0.8-0.4-1.3-1.8L100.7,349.9z M93.7,350.7l-5.2,9.5
		h6.8l0.4-2.8l-0.2,0c-0.1,0.6-0.2,1-0.4,1.3c-0.4,0.7-0.8,0.9-1.8,0.9h-2.8l5.1-9.5h-6.1l-0.2,2.7l0.2,0c0.1-0.7,0.1-1.1,0.3-1.4
		c0.3-0.5,0.5-0.6,1.6-0.6H93.7z M79,356.2l1.2-3.7l1.3,3.7H79z M80.6,349.9h-0.1l-2.9,8.4c-0.5,1.4-0.6,1.6-1.4,1.6v0.3h2.7v-0.3
		h-0.1c-0.5,0-0.7-0.2-0.7-0.6c0-0.1,0-0.1,0.2-0.8l0.5-1.6h3l0.5,1.5c0.2,0.5,0.2,0.7,0.2,1c0,0.4-0.2,0.6-0.7,0.6h-0.2v0.3h3.4
		v-0.3h-0.2c-0.6,0-0.8-0.4-1.3-1.8L80.6,349.9z M70.1,355.2l2.3,2.9c0.6,0.7,0.8,1.2,0.8,1.4c0,0.2-0.2,0.4-0.5,0.4h-0.2v0.3h3.9
		v-0.3c-0.7,0-1.3-0.4-2.3-1.8l-2.8-3.6l0.3-0.3c0.8-1,0.9-1.2,1.8-2.4c0.5-0.7,0.7-0.9,0.9-1.1c0.3-0.2,0.7-0.4,0.9-0.4h0.2V350h-3
		v0.3c0.6,0,0.7,0.1,0.7,0.4c0,0.2-0.2,0.6-0.7,1.4c-0.5,0.8-1.2,1.6-2.2,2.8v-3.3c0-1,0.2-1.2,0.9-1.3l0.2,0V350h-3.5v0.3l0.3,0
		c0.6,0,0.8,0.3,0.8,1.3v7c0,1-0.2,1.3-0.8,1.3l-0.3,0v0.3h3.5v-0.3l-0.3,0c-0.6,0-0.8-0.3-0.8-1.3V355.2z M65.4,347.5l-1.8,0.6
		l-1.7-0.6l-0.1,0.2l1.8,1.4l1.9-1.4L65.4,347.5z M66.5,357.8c-0.7,1.2-1.6,1.8-2.8,1.8c-1.8,0-2.9-1.7-2.9-4.5
		c0-2.8,1.2-4.7,2.9-4.7c0.7,0,1.4,0.3,1.9,1c0.5,0.6,0.7,1.1,0.8,2l0.2,0l-0.1-3.4h-0.3c0,0.4-0.2,0.6-0.4,0.6
		c-0.1,0-0.1,0-0.6-0.3c-0.5-0.3-1.1-0.4-1.7-0.4c-2.4,0-4.3,2.3-4.3,5.2c0,2.9,1.8,5.2,4.1,5.2c1.3,0,2.5-0.9,3.3-2.3L66.5,357.8z
		 M57.1,351.6c0-1,0.2-1.3,0.8-1.3l0.3,0V350h-3.5v0.3l0.3,0c0.6,0,0.8,0.3,0.8,1.3v7c0,1-0.2,1.3-0.8,1.3l-0.3,0v0.3h3.5v-0.3
		l-0.3,0c-0.6,0-0.8-0.3-0.8-1.3V351.6z M50,350.7v7.9c0,1-0.2,1.3-0.8,1.3l-0.3,0v0.3h3.5v-0.3l-0.3,0c-0.6,0-0.8-0.3-0.8-1.3v-7.9
		h1.1c0.6,0,0.9,0.1,1.2,0.5c0.2,0.3,0.3,0.5,0.3,1.3l0.2,0L54,350h-6.7l-0.1,2.5l0.2,0c0-0.7,0.1-0.9,0.2-1.1
		c0.2-0.5,0.6-0.6,1.3-0.6H50z M41.5,360.2c0.1-0.3,0.2-0.4,0.4-0.4c0.1,0,0.3,0,0.5,0.1c1,0.4,1,0.4,1.5,0.4c1.4,0,2.4-1.2,2.4-2.8
		c0-1.2-0.6-2.1-1.8-3l-1-0.7c-0.8-0.6-1.2-1.2-1.2-1.8c0-0.8,0.5-1.4,1.3-1.4c0.5,0,0.9,0.2,1.2,0.6c0.3,0.4,0.5,0.9,0.8,2.1h0.2
		V350h-0.3c-0.1,0.3-0.2,0.4-0.3,0.4c-0.1,0-0.2,0-0.3-0.1c-1-0.4-1-0.4-1.5-0.4c-1.3,0-2.2,1.1-2.2,2.6c0,1.1,0.5,1.9,1.6,2.7
		l1,0.7c0.2,0.2,0.5,0.5,0.7,0.7c0.4,0.5,0.5,0.8,0.5,1.3c0,0.9-0.6,1.7-1.4,1.7c-0.6,0-1.3-0.5-1.7-1.2c-0.3-0.5-0.4-0.9-0.5-1.7
		h-0.2v3.5H41.5z M38.8,351.6c0-1,0.2-1.3,0.8-1.3l0.3,0V350h-3.5v0.3l0.3,0c0.6,0,0.8,0.3,0.8,1.3v7c0,1-0.2,1.3-0.8,1.3l-0.3,0
		v0.3h3.5v-0.3l-0.3,0c-0.6,0-0.8-0.3-0.8-1.3V351.6z M30.4,350.8c0.3-0.1,0.5-0.2,0.7-0.2c1,0,1.7,0.8,1.7,2.1
		c0,1.4-0.9,2.2-2.3,2.2h-0.2V350.8z M30.4,355.4h0.6l2.9,4.8h2.1v-0.3h-0.2c-0.6,0-0.8-0.3-1.6-1.5l-1.9-3.1
		c0.6-0.2,0.9-0.4,1.2-0.7c0.4-0.5,0.7-1.2,0.7-1.9c0-0.9-0.4-1.7-1-2.2c-0.5-0.3-0.9-0.4-1.9-0.4H28v0.3l0.3,0
		c0.6,0,0.8,0.3,0.8,1.3v7c0,1-0.2,1.3-0.8,1.3l-0.3,0v0.3h3.5v-0.3l-0.2,0c-0.6,0-0.8-0.3-0.8-1.3V355.4z M26.3,351.6
		c0-1,0.2-1.3,0.8-1.3l0.3,0V350h-2.8v0.3l0.3,0c0.6,0,0.8,0.3,0.8,1.3v4.6c0,0.8-0.1,1.4-0.2,1.8c-0.3,1-1.2,1.6-2.2,1.6
		c-0.7,0-1.4-0.4-1.7-0.9c-0.3-0.5-0.4-1-0.4-2.1v-4.9c0-1,0.2-1.3,0.8-1.3l0.3,0V350h-3.5v0.3l0.3,0c0.6,0,0.8,0.3,0.8,1.3v3.5v1.5
		c0,0.8,0.1,1.5,0.4,2.1c0.5,1.1,1.4,1.7,2.8,1.7c1.3,0,2.2-0.5,2.7-1.5c0.3-0.7,0.5-1.4,0.5-2.6V351.6z M14.1,350.7v7.9
		c0,1-0.2,1.3-0.8,1.3l-0.3,0v0.3h3.5v-0.3l-0.3,0c-0.6,0-0.8-0.3-0.8-1.3v-7.9h1.1c0.6,0,0.9,0.1,1.2,0.5c0.2,0.3,0.3,0.5,0.3,1.3
		l0.2,0l-0.1-2.5h-6.7l-0.1,2.5l0.2,0c0-0.7,0.1-0.9,0.2-1.1c0.2-0.5,0.6-0.6,1.3-0.6H14.1z"/>
	<path style="clip-path:url(#SVGID_00000165197784237328507710000003198392959747239833_);fill:#0066B3;" d="M26.9,333.3l0.7-2.8
		h-7.3l-0.7,2.8h0.3c0.2-0.7,0.3-1,0.6-1.4c0.5-0.6,1-0.8,1.9-0.8h0.9l-2,8.4c-0.3,1.2-0.5,1.4-1.5,1.4l-0.1,0.3h3.9l0.1-0.3h-0.1
		c-0.4,0-0.6,0-0.7-0.1c-0.2-0.1-0.3-0.3-0.3-0.6c0-0.2,0-0.4,0.1-0.7l2-8.5h1.3c0.7,0,1.1,0.4,1.1,1.1c0,0.3,0,0.7-0.1,1.1H26.9z
		 M29.8,336c0,1.1-0.4,2.6-0.9,3.6c-0.4,0.9-0.9,1.4-1.5,1.4c-0.6,0-1-0.6-1-1.5c0-1.2,0.4-2.8,1-3.8c0.4-0.8,0.9-1.2,1.5-1.2
		C29.4,334.4,29.8,335.1,29.8,336 M29.3,340.4c0.9-1,1.5-2.3,1.5-3.7c0-1.5-0.7-2.6-1.8-2.6c-1.8,0-3.5,2.4-3.5,4.8
		c0,1.5,0.7,2.6,1.8,2.6C27.9,341.4,28.6,341.1,29.3,340.4 M36.5,339.5l1.3-5.3h-1l-0.3,1.4c-0.4,1.6-0.5,1.9-1.3,3.2
		c-0.7,1.1-1.2,1.7-1.6,1.7c-0.3,0-0.4-0.2-0.4-0.5c0-0.2,0-0.3,0.1-0.6l1-4.1c0-0.2,0.1-0.5,0.1-0.6c0-0.4-0.2-0.6-0.5-0.6
		c-0.5,0-0.9,0.4-1.8,1.6l0.2,0.2c0.1-0.1,0.1-0.2,0.2-0.3c0.4-0.6,0.5-0.7,0.7-0.7c0.1,0,0.2,0.1,0.2,0.3c0,0.1,0,0.2-0.1,0.3
		l-1,4.3c0,0.2-0.1,0.3-0.1,0.5c0,0.7,0.3,1.1,0.7,1.1c0.4,0,0.8-0.3,1.4-0.9c0.5-0.6,0.9-1.2,1.7-2.6l-0.5,2.1
		c-0.1,0.3-0.1,0.6-0.1,0.7c0,0.3,0.2,0.6,0.5,0.6c0.5,0,1.2-0.5,1.7-1.4l-0.1-0.2c-0.4,0.5-0.7,0.8-0.9,0.8c-0.1,0-0.2-0.1-0.2-0.2
		c0,0,0-0.1,0-0.1l0.1-0.4C36.5,339.8,36.5,339.6,36.5,339.5 M43.5,334.8c0-0.5-0.2-0.9-0.5-0.9c-0.6,0-1.5,1.4-2.3,3.5l0.8-3.5
		c-0.8,0.2-1,0.2-1.9,0.3l-0.1,0.3l0.3-0.1c0.1,0,0.2,0,0.2,0c0.1,0,0.3,0.1,0.3,0.3c0,0.1-0.1,0.3-0.1,0.7l-1.4,5.7h1
		c0.3-1.6,1.2-4,1.8-5.2c0.2-0.4,0.5-0.8,0.6-0.8c0.1,0,0.1,0.1,0.1,0.2c0,0.3,0.2,0.4,0.4,0.4C43.2,335.9,43.5,335.4,43.5,334.8
		 M46.4,334c-0.7,0.2-1.4,0.4-2,0.4l-0.1,0.3c0.2,0,0.3-0.1,0.4-0.1c0.2,0,0.4,0.1,0.4,0.4c0,0.2,0,0.3-0.1,0.7l-1.1,4.6
		c-0.1,0.2-0.1,0.4-0.1,0.5c0,0.3,0.3,0.6,0.6,0.6c0.4,0,1-0.5,1.7-1.6l-0.1-0.3c-0.3,0.6-0.8,1-1,1c-0.1,0-0.2-0.1-0.2-0.2
		c0,0,0-0.1,0-0.2L46.4,334z M47,332.1c0-0.5-0.3-0.8-0.7-0.8c-0.4,0-0.7,0.4-0.7,0.8c0,0.5,0.3,0.8,0.7,0.8
		C46.6,332.9,47,332.5,47,332.1 M51.2,336.4l0.3-2.3h-0.2c-0.1,0.2-0.3,0.4-0.4,0.4c-0.1,0-0.1,0-0.3-0.1c-0.4-0.2-0.6-0.3-1-0.3
		c-0.8,0-1.5,0.8-1.5,1.8c0,0.7,0.2,1.1,0.9,2.1c0.5,0.8,0.8,1.3,0.8,1.7c0,0.7-0.5,1.3-1.1,1.3c-0.7,0-1.2-0.8-1.2-2.1h-0.2
		l-0.4,2.5h0.3c0.1-0.2,0.2-0.3,0.4-0.3c0.1,0,0.2,0,0.3,0c0.6,0.3,0.8,0.3,1.1,0.3c1,0,1.8-0.9,1.8-2.1c0-0.7-0.2-1.2-1-2.2
		c-0.6-0.9-0.8-1.2-0.8-1.7c0-0.6,0.3-1,0.8-1c0.7,0,1.1,0.7,1.1,1.6c0,0.1,0,0.2,0,0.3H51.2z M55.8,334.2h-0.9l0.4-1.8H55
		c-0.7,1.1-1.2,1.6-2.1,1.8l-0.1,0.5h0.9l-1.2,4.9c-0.1,0.4-0.2,0.8-0.2,1.1c0,0.5,0.3,0.8,0.7,0.8c0.5,0,1.1-0.5,1.7-1.6l-0.1-0.2
		c-0.4,0.7-0.8,1.1-1,1.1c-0.1,0-0.2-0.1-0.2-0.2c0-0.1,0-0.1,0.1-0.7l1.2-5h0.9L55.8,334.2z M82.8,332.6c0,1.6-0.9,2.7-2.3,2.7
		c-0.1,0-0.4,0-0.6,0l0.9-4.1c0.2,0,0.3-0.1,0.5-0.1C82.3,331,82.8,331.6,82.8,332.6 M79.8,335.8c0.1,0,0.2,0,0.3,0
		c1.3,0,1.9,0.6,1.9,1.8c0,1.8-1,3-2.4,3c-0.3,0-0.4,0-0.8-0.1L79.8,335.8z M83.2,334.8c0.5-0.5,0.9-1.3,0.9-2.1
		c0-0.6-0.3-1.3-0.6-1.7c-0.4-0.4-1-0.6-1.9-0.6h-2.9l-0.1,0.3c0.7,0,1,0.2,1,0.7c0,0.2,0,0.4-0.1,0.7l-1.7,7.5
		c-0.3,1.1-0.5,1.4-1.4,1.4l-0.1,0.3h2.5c1.9,0,2.5-0.1,3.2-0.6c0.8-0.6,1.3-1.7,1.3-2.8c0-1.1-0.4-1.8-1.4-2.2
		C82.6,335.3,82.8,335.2,83.2,334.8 M89.1,336c0,1.1-0.4,2.6-0.9,3.6c-0.4,0.9-0.9,1.4-1.5,1.4c-0.6,0-1-0.6-1-1.5
		c0-1.2,0.4-2.8,1-3.8c0.4-0.8,0.9-1.2,1.5-1.2C88.8,334.4,89.1,335.1,89.1,336 M88.7,340.4c0.9-1,1.5-2.3,1.5-3.7
		c0-1.5-0.7-2.6-1.8-2.6c-1.8,0-3.5,2.4-3.5,4.8c0,1.5,0.7,2.6,1.8,2.6C87.3,341.4,88,341.1,88.7,340.4 M95.5,335.6
		c0,1.2-0.6,3-1.4,4c-0.4,0.6-0.9,0.9-1.3,0.9c-0.5,0-0.7-0.4-0.7-1.1c0-1,0.4-2.2,1.1-3.5c0.5-0.9,1-1.3,1.6-1.3
		C95.3,334.6,95.5,334.9,95.5,335.6 M95.6,340l1.4-5.9l-1,0.2l-0.2,0.9c-0.1-0.7-0.5-1.1-1-1.1c-1.6,0-3.7,3.1-3.7,5.6
		c0,1,0.5,1.7,1.2,1.7c0.4,0,0.9-0.2,1.3-0.6c0.4-0.3,0.7-0.7,1.2-1.5c0,0.1-0.1,0.2-0.1,0.4c-0.2,0.9-0.2,0.9-0.2,1.1
		c0,0.5,0.2,0.7,0.6,0.7c0.5,0,1.1-0.5,1.8-1.7l-0.2-0.2c-0.4,0.7-0.7,1-1,1c-0.1,0-0.2-0.1-0.2-0.2c0-0.1,0-0.1,0-0.3L95.6,340z
		 M102.7,334.8c0-0.5-0.2-0.9-0.5-0.9c-0.6,0-1.5,1.4-2.3,3.5l0.8-3.5c-0.8,0.2-1,0.2-1.9,0.3l-0.1,0.3l0.3-0.1c0.1,0,0.2,0,0.2,0
		c0.2,0,0.3,0.1,0.3,0.3c0,0.1-0.1,0.3-0.1,0.7l-1.4,5.7h1c0.3-1.6,1.2-4,1.8-5.2c0.2-0.4,0.5-0.8,0.6-0.8c0.1,0,0.1,0.1,0.1,0.2
		c0,0.3,0.2,0.4,0.4,0.4C102.3,335.9,102.7,335.4,102.7,334.8 M107,335.4c0,0.7-0.5,2.3-1,3.3c-0.5,1-1.3,1.8-1.7,1.8
		c-0.4,0-0.6-0.5-0.6-1.2c0-0.9,0.3-2.1,0.9-3.2c0.6-1.1,1.2-1.6,1.7-1.6C106.7,334.5,107,334.8,107,335.4 M106.9,339.9l2.4-9.5
		c-0.8,0.2-1,0.2-1.9,0.3l-0.1,0.3l0.2,0c0.1,0,0.2,0,0.3,0c0.2,0,0.4,0.2,0.4,0.4c0,0.1,0,0.2-0.1,0.4l-0.7,2.9
		c-0.3-0.4-0.5-0.5-0.9-0.5c-1.8,0-3.9,2.9-3.9,5.4c0,1.2,0.5,2,1.2,2c0.4,0,0.9-0.3,1.3-0.7c0.4-0.4,0.7-0.8,1.2-1.6
		c0,0.2-0.1,0.3-0.1,0.5c-0.2,0.9-0.2,0.9-0.2,1.1c0,0.4,0.2,0.7,0.5,0.7c0.6,0,1.2-0.5,1.9-1.7l-0.2-0.2c-0.5,0.8-0.8,1-1.1,1
		c-0.1,0-0.2-0.1-0.2-0.2C106.8,340.3,106.8,340.1,106.9,339.9 M117.3,336c0,1.1-0.4,2.6-0.9,3.6c-0.4,0.9-0.9,1.4-1.5,1.4
		c-0.6,0-1-0.6-1-1.5c0-1.2,0.4-2.8,1-3.8c0.4-0.8,0.9-1.2,1.5-1.2C117,334.4,117.3,335.1,117.3,336 M116.9,340.4
		c0.9-1,1.5-2.3,1.5-3.7c0-1.5-0.7-2.6-1.8-2.6c-1.8,0-3.5,2.4-3.5,4.8c0,1.5,0.7,2.6,1.8,2.6C115.5,341.4,116.2,341.1,116.9,340.4
		 M125,331.2c0-0.5-0.4-0.9-1-0.9c-1.1,0-2,1-2.8,3c-0.2,0.7-0.5,0.9-0.9,0.9h-0.4l-0.1,0.5h1.1l-1,4.4c-0.5,2.4-0.6,2.7-0.9,3.4
		c-0.3,0.7-0.8,1.2-1.3,1.2c-0.2,0-0.2-0.1-0.3-0.2c0.2-0.1,0.3-0.2,0.3-0.5c0-0.2-0.2-0.4-0.4-0.4c-0.3,0-0.6,0.3-0.6,0.6
		c0,0.5,0.4,0.8,0.9,0.8c1.3,0,2.5-1.9,3.2-4.8l1-4.4h0.9l0.1-0.5H122l0.2-1c0.4-1.6,1-2.6,1.7-2.6c0.2,0,0.3,0.1,0.3,0.2
		c0,0,0,0.1,0,0.1c-0.2,0.3-0.2,0.3-0.2,0.5c0,0.3,0.2,0.5,0.4,0.5C124.8,331.9,125,331.6,125,331.2 M133.5,334l0.7-3.6h-0.3
		c-0.2,0.4-0.4,0.6-0.7,0.6c-0.1,0-0.3,0-0.6-0.2c-0.6-0.3-1-0.4-1.5-0.4c-1.4,0-2.6,1.3-2.6,2.8c0,0.5,0.2,1.1,0.5,1.6
		c0.3,0.4,0.6,0.8,1.5,1.7c0.9,0.9,1.2,1.5,1.2,2.3c0,1.2-0.8,2.1-1.8,2.1c-1.2,0-2.1-1.1-2.1-2.5c0-0.2,0-0.4,0.1-0.9h-0.2l-0.7,4
		h0.2c0.2-0.5,0.4-0.7,0.7-0.7c0.1,0,0.2,0,0.6,0.2c0.8,0.4,1.2,0.5,1.8,0.5c0.7,0,1.3-0.2,1.8-0.7c0.6-0.6,1-1.5,1-2.4
		c0-0.6-0.2-1.1-0.5-1.7c-0.3-0.5-0.6-0.9-1.6-1.9c-0.9-0.9-1.2-1.4-1.2-2.1c0-0.9,0.7-1.6,1.6-1.6c1.1,0,2,1,2,2.2
		c0,0.2,0,0.4-0.1,0.7H133.5z M138.8,336.2c0,2.3-1.3,4.9-2.4,4.9c-0.3,0-0.6-0.1-0.8-0.5l0.7-2.9c0.2-0.9,0.5-1.5,0.8-2
		c0.3-0.5,0.7-0.8,1.1-0.8C138.5,334.9,138.8,335.4,138.8,336.2 M139.8,336.2c0-1.3-0.5-2.1-1.3-2.1c-0.7,0-1.1,0.4-1.8,1.6l0.4-1.6
		c-1.1,0.2-1.2,0.2-1.9,0.4l-0.1,0.3c0.2-0.1,0.3-0.1,0.4-0.1c0.2,0,0.3,0.2,0.3,0.5c0,0.1,0,0.3-0.1,0.5l-1.6,6.5
		c-0.3,1.4-0.4,1.5-0.8,1.5H133l-0.1,0.3h2.9l0.1-0.3h-0.7c-0.2,0-0.4-0.2-0.4-0.3c0-0.1,0-0.2,0.1-0.4l0.4-1.8
		c0.3,0.2,0.6,0.3,0.9,0.3C138,341.4,139.8,338.7,139.8,336.2 M141.9,340.3l2.4-9.9c-0.8,0.2-1,0.2-1.8,0.3l-0.1,0.3l0.1,0
		c0.1,0,0.2,0,0.2,0c0.2,0,0.3,0.1,0.3,0.3c0,0.1,0,0.2-0.1,0.5l-2.1,8.5c-0.1,0.4-0.1,0.4-0.1,0.5c0,0.4,0.2,0.7,0.6,0.7
		c0.5,0,0.9-0.3,1.7-1.5l-0.2-0.2c0,0-0.1,0.1-0.1,0.2c-0.4,0.6-0.6,0.7-0.8,0.7c-0.1,0-0.2-0.1-0.2-0.2
		C141.9,340.4,141.9,340.3,141.9,340.3 M147.1,334c-0.7,0.2-1.4,0.4-2,0.4l-0.1,0.3c0.2,0,0.3-0.1,0.4-0.1c0.2,0,0.4,0.1,0.4,0.4
		c0,0.2,0,0.3-0.1,0.7l-1.1,4.6c-0.1,0.2-0.1,0.4-0.1,0.5c0,0.3,0.3,0.6,0.6,0.6c0.4,0,1-0.5,1.7-1.6l-0.1-0.3c-0.3,0.6-0.8,1-1,1
		c-0.1,0-0.2-0.1-0.2-0.2c0,0,0-0.1,0-0.2L147.1,334z M147.6,332.1c0-0.5-0.3-0.8-0.7-0.8c-0.4,0-0.7,0.4-0.7,0.8
		c0,0.5,0.3,0.8,0.7,0.8C147.3,332.9,147.6,332.5,147.6,332.1 M150.7,334.2l0.4-1.8h-0.3c-0.7,1.1-1.2,1.6-2.1,1.8l-0.1,0.5h0.9
		l-1.2,4.9c-0.1,0.4-0.2,0.8-0.2,1.1c0,0.5,0.3,0.8,0.7,0.8c0.5,0,1.1-0.5,1.7-1.6l-0.2-0.2c-0.4,0.7-0.8,1.1-1,1.1
		c-0.1,0-0.2-0.1-0.2-0.2c0-0.1,0-0.1,0.1-0.7l1.2-5h0.9l0.1-0.5H150.7z"/>
</g>
</svg>
